<svg width="32" height="32" viewBox="0 0 32 32" fill="none" xmlns="http://www.w3.org/2000/svg">
<mask id="mask0" mask-type="alpha" maskUnits="userSpaceOnUse" x="0" y="5" width="32" height="23">
<rect y="5" width="32" height="22.3113" fill="#C4C4C4"/>
</mask>
<g mask="url(#mask0)">
<path d="M27.8186 33.9531V29.7904H16.909V27.3185H23.7297C28.0884 27.3185 31.6345 23.7725 31.6345 19.4137C31.6345 15.0834 28.1345 11.5552 23.8149 11.5093C22.8836 7.77833 19.4894 5.06836 15.5641 5.06836C10.8753 5.06836 7.06059 8.88305 7.06059 13.5719C7.06059 13.6072 7.06079 13.6427 7.06127 13.6781C7.02661 13.6775 6.99202 13.6772 6.95736 13.6772C3.19644 13.6772 0.136719 16.737 0.136719 20.4979C0.136719 24.2588 3.19644 27.3185 6.95736 27.3185H14.8621V29.7904H3.95257V33.9531C2.76693 34.3966 1.92039 35.5407 1.92039 36.8792C1.92039 38.6012 3.32143 40.0023 5.0435 40.0023C6.76556 40.0023 8.1666 38.6012 8.1666 36.8792C8.1666 35.4905 7.25532 34.3111 5.99947 33.9063V31.8374H14.8621V33.9292C13.6413 34.3539 12.7625 35.5155 12.7625 36.8791C12.7625 38.6012 14.1635 40.0023 15.8856 40.0023C17.6076 40.0023 19.0087 38.6012 19.0087 36.8792C19.0087 35.5155 18.1298 34.354 16.909 33.9292V31.8374H25.7717V33.9064C24.5159 34.3112 23.6045 35.4905 23.6045 36.8792C23.6045 38.6013 25.0056 40.0023 26.7276 40.0023C28.4497 40.0023 29.8507 38.6013 29.8507 36.8792C29.8507 35.5408 29.0042 34.3966 27.8186 33.9531ZM6.1197 36.8792C6.1197 37.4726 5.63697 37.9554 5.0435 37.9554C4.4501 37.9554 3.9673 37.4726 3.9673 36.8792C3.9673 36.2858 4.4501 35.803 5.0435 35.803C5.6369 35.803 6.1197 36.2858 6.1197 36.8792ZM16.9618 36.8792C16.9618 37.4726 16.479 37.9554 15.8856 37.9554C15.2922 37.9554 14.8094 37.4726 14.8094 36.8792C14.8094 36.2858 15.2922 35.803 15.8856 35.803C16.479 35.803 16.9618 36.2858 16.9618 36.8792ZM26.7276 37.9554C26.1342 37.9554 25.6514 37.4726 25.6514 36.8792C25.6514 36.2858 26.1342 35.803 26.7276 35.803C27.321 35.803 27.8038 36.2858 27.8038 36.8792C27.8038 37.4726 27.321 37.9554 26.7276 37.9554Z" fill="#5445FF"/>
</g>
</svg>
