<svg width="46" height="63" viewBox="0 0 46 63" fill="none" xmlns="http://www.w3.org/2000/svg">
<path d="M23 47.3042V60.992" stroke="white" stroke-width="2.5" stroke-linecap="round" stroke-linejoin="round"/>
<path d="M0.373047 61.5548H45.6264" stroke="white" stroke-width="2.5" stroke-linejoin="round"/>
<path d="M2.63477 25.2681V38.2535C2.63477 43.2525 11.7518 47.3041 22.9988 47.3041C34.2458 47.3041 43.3628 43.2525 43.3628 38.2535V25.2683" stroke="white" stroke-width="2.5" stroke-linecap="round" stroke-linejoin="round"/>
<path d="M2.63477 11.1013V24.6773C2.63477 29.6763 11.7518 33.728 22.9988 33.728C34.2458 33.728 43.3628 29.6763 43.3628 24.6773V11.1013" fill="#5445FF"/>
<path d="M2.63477 11.1013V24.6773C2.63477 29.6763 11.7518 33.728 22.9988 33.728C34.2458 33.728 43.3628 29.6763 43.3628 24.6773V11.1013" stroke="#5445FF" stroke-width="2.5" stroke-linecap="round" stroke-linejoin="round"/>
<path d="M22.9988 20.1521C34.2455 20.1521 43.3628 16.1 43.3628 11.1015C43.3628 6.10291 34.2455 2.05078 22.9988 2.05078C11.7521 2.05078 2.63477 6.10291 2.63477 11.1015C2.63477 16.1 11.7521 20.1521 22.9988 20.1521Z" fill="#1C1B29" stroke="white" stroke-width="2.5" stroke-linecap="round" stroke-linejoin="round"/>
</svg>
