<svg width="77" height="78" viewBox="0 0 77 78" fill="none" xmlns="http://www.w3.org/2000/svg">
<path d="M46.2466 26.8197C46.2466 24.6764 45.923 22.6094 45.3254 20.6641L48.6715 17.7938L44.8076 11.1015L40.624 12.5747C37.8184 9.55978 34.1449 7.37851 29.9917 6.42682L29.1732 2.07568H21.4455L20.6309 6.42682C16.4777 7.37851 12.8042 9.55978 9.99857 12.5747L5.81113 11.1015L1.94727 17.7938L5.29341 20.6641C4.69575 22.6094 4.37217 24.6764 4.37217 26.8197C4.37217 28.9629 4.69575 31.0299 5.29341 32.9752L1.94727 35.8455L5.81113 42.5378L9.99477 41.0646C12.8004 44.0795 16.4739 46.2608 20.6271 47.2125L21.4455 51.5636H25.3094M25.3094 36.3366C20.0522 36.3366 15.7925 32.0768 15.7925 26.8197C15.7925 21.5625 20.0522 17.3027 25.3094 17.3027C30.5665 17.3027 34.8263 21.5625 34.8263 26.8197" stroke="white" stroke-width="2.5" stroke-miterlimit="10"/>
<path d="M75.6089 57.0419V49.4284H71.3682C70.8695 47.0111 69.9559 44.7422 68.6349 42.7513L71.608 39.7782L66.229 34.3916L63.256 37.3647C61.2574 36.0438 59.0038 35.0769 56.5751 34.5858V30.3945H48.9616V34.5858C46.5328 35.0769 44.3059 36.0704 42.3073 37.3914L39.3076 34.3916L33.9248 39.7744L36.9322 42.7817C35.615 44.7765 34.6443 47.0073 34.1494 49.4284H29.9277V57.0419H34.119C34.6101 59.4706 35.6036 61.6976 36.9246 63.6961L33.9248 66.6958L39.3076 72.0786L42.3149 69.0713C44.3059 70.3884 46.5366 71.3629 48.9578 71.854V76.0757H56.5713V71.8845C59 71.3934 61.227 70.3998 63.2255 69.0789L66.2252 72.0786L71.608 66.6958L68.6007 63.6885C69.9178 61.6976 70.8923 59.4668 71.3834 57.0457H75.6089V57.0419Z" fill="#5445FF" stroke="#5445FF" stroke-width="2.5" stroke-miterlimit="10" stroke-linejoin="round"/>
<path d="M60.3773 53.5018C60.5257 49.2995 57.2394 45.7725 53.0371 45.6241C48.8348 45.4756 45.3078 48.762 45.1594 52.9643C45.011 57.1666 48.2973 60.6936 52.4996 60.842C56.7019 60.9904 60.2289 57.7041 60.3773 53.5018Z" fill="#39394B" stroke="#39394B" stroke-width="2.5" stroke-miterlimit="10"/>
</svg>
