<svg width="60" height="63" viewBox="0 0 60 63" fill="none" xmlns="http://www.w3.org/2000/svg">
<path d="M2 41.4512L5.94523 53.2869H13.8357C14.882 53.2869 15.8855 53.7025 16.6254 54.4424C17.3653 55.1823 17.7809 56.1857 17.7809 57.2321V61.1773" stroke="white" stroke-width="3" stroke-miterlimit="10" stroke-linecap="square"/>
<path d="M5.94409 53.2871V61.1776" stroke="white" stroke-width="3" stroke-miterlimit="10" stroke-linecap="square"/>
<path d="M57.2333 41.4512L53.2881 53.2869H45.3976C44.3513 53.2869 43.3478 53.7025 42.6079 54.4424C41.8681 55.1823 41.4524 56.1857 41.4524 57.2321V61.1773" stroke="white" stroke-width="3" stroke-miterlimit="10" stroke-linecap="square"/>
<path d="M53.2891 53.2871V61.1776" stroke="white" stroke-width="3" stroke-miterlimit="10" stroke-linecap="square"/>
<path d="M29.6157 31.7715V61.1772" stroke="white" stroke-width="3" stroke-miterlimit="10" stroke-linecap="square"/>
<path d="M56.0783 24.266C56.6148 24.802 56.9855 25.4812 57.146 26.2225C57.3065 26.9637 57.2499 27.7354 56.9831 28.4453C56.3641 29.9595 55.3079 31.2549 53.9493 32.1661C52.5907 33.0772 50.9915 33.5629 49.3556 33.561C47.9382 33.5576 46.548 33.1707 45.3325 32.4414C44.1171 31.7121 43.1215 30.6676 42.4515 29.4185C41.8547 30.5423 40.9925 31.5034 39.9399 32.2182C38.8872 32.9331 37.6759 33.38 36.4112 33.5203C35.1465 33.6605 33.8667 33.4898 32.6829 33.0229C31.4992 32.5561 30.4474 31.8072 29.619 30.8414C28.7903 31.8049 27.7391 32.5518 26.5565 33.0173C25.374 33.4828 24.0957 33.6528 22.8326 33.5126C21.5695 33.3725 20.3596 32.9263 19.3078 32.2129C18.2561 31.4995 17.3942 30.5403 16.797 29.4185C16.1269 30.6676 15.1314 31.7121 13.9159 32.4414C12.7005 33.1707 11.3103 33.5576 9.89284 33.561C8.25709 33.5625 6.65796 33.0768 5.29946 32.1656C3.94096 31.2545 2.88469 29.9593 2.2654 28.4453C1.99726 27.7364 1.93899 26.9652 2.09758 26.2241C2.25617 25.4829 2.62489 24.8031 3.15966 24.266L26.831 3.15642C27.1974 2.78981 27.6324 2.49898 28.1112 2.30055C28.5901 2.10213 29.1033 2 29.6216 2C30.1399 2 30.6531 2.10213 31.132 2.30055C31.6108 2.49898 32.0458 2.78981 32.4122 3.15642L56.0783 24.266Z" fill="#5445FF" stroke="#5445FF" stroke-width="3" stroke-miterlimit="10" stroke-linecap="square"/>
<path d="M16.7944 29.4184L29.5219 3.06445" stroke="white" stroke-width="3" stroke-miterlimit="10" stroke-linecap="square"/>
<path d="M42.4382 29.4185L30.1233 2.89258" stroke="white" stroke-width="3" stroke-miterlimit="10" stroke-linecap="square"/>
</svg>
