<svg width="44" height="57" viewBox="0 0 44 57" fill="none" xmlns="http://www.w3.org/2000/svg">
<path d="M8.66602 41.4558H17.5549" stroke="white" stroke-width="2.5" stroke-miterlimit="10" stroke-linejoin="round"/>
<path d="M8.66602 28.1226H17.5549" stroke="white" stroke-width="2.5" stroke-miterlimit="10" stroke-linejoin="round"/>
<path d="M25.0762 24.6258L28.5728 28.1224L33.8039 23.0291" stroke="#5445FF" stroke-width="2.5" stroke-miterlimit="10"/>
<path d="M25.1602 38.6924L28.5724 42.1048L33.8036 37.0115" stroke="#5445FF" stroke-width="2.5" stroke-miterlimit="10"/>
<path d="M42 5.9002H43.25V4.6502H42V5.9002ZM42 54.7892V56.0392H43.25V54.7892H42ZM2.00023 54.7892L0.750228 54.7892L0.750234 56.0392H2.00023V54.7892ZM2 5.8999L2.00004 4.6499L0.749994 4.64986L0.75 5.89991L2 5.8999ZM33.1111 7.1502H42V4.6502H33.1111V7.1502ZM40.75 5.9002V54.7892H43.25V5.9002H40.75ZM42 53.5392H2.00023V56.0392H42V53.5392ZM3.25023 54.7892L3.25 5.8999L0.75 5.89991L0.750228 54.7892L3.25023 54.7892ZM1.99996 7.1499L10.8888 7.1502L10.8889 4.6502L2.00004 4.6499L1.99996 7.1499Z" fill="white"/>
<path d="M28.6665 5.90026C28.6665 3.44692 25.6798 1.45581 21.9998 1.45581C18.3198 1.45581 15.3331 3.44692 15.3331 5.90026H10.8887V14.7892H33.1109V5.90026H28.6665Z" fill="#5445FF" stroke="#5445FF" stroke-width="2.5" stroke-miterlimit="10"/>
</svg>
