<svg width="12" height="10" viewBox="0 0 12 10" fill="none" xmlns="http://www.w3.org/2000/svg">
<path fill-rule="evenodd" clip-rule="evenodd" d="M11.5769 0.183242C12.028 0.501835 12.1354 1.12582 11.8168 1.57695L6.57185 9.00386C6.37395 9.28319 6.11851 9.51874 5.81997 9.69107C5.52119 9.86354 5.18762 9.96775 4.84201 9.99369C4.49635 10.0196 4.15059 9.96636 3.82907 9.83912C3.50778 9.71197 3.22065 9.51498 2.98515 9.2654L0.272612 6.39013C-0.106379 5.98841 -0.0879477 5.35551 0.313779 4.97652C0.715506 4.59753 1.3484 4.61596 1.72739 5.01768L4.43981 7.89282C4.43983 7.89284 4.43979 7.8928 4.43981 7.89282C4.479 7.93433 4.52241 7.96258 4.56501 7.97945C4.60742 7.99623 4.65052 8.00244 4.69234 7.9993C4.73422 7.99615 4.77773 7.9834 4.8201 7.95894C4.86257 7.93443 4.90427 7.89783 4.93958 7.84814C4.93969 7.84798 4.93947 7.8483 4.93958 7.84814L10.1832 0.423218C10.5018 -0.0279103 11.1257 -0.135351 11.5769 0.183242Z" fill="white"/>
</svg>
