<svg width="63" height="77" viewBox="0 0 63 77" fill="none" xmlns="http://www.w3.org/2000/svg">
<path d="M60.763 21.9348L41.0406 2.2124L1.59585 2.21246L1.5957 74.528H60.763V21.9348Z" stroke="white" stroke-width="3" stroke-miterlimit="10"/>
<path d="M40.1954 0.527832L40.1953 22.8596H62.4052" fill="#5445FF"/>
<path d="M40.1954 0.527832L40.1953 22.8596H62.4052" stroke="#5445FF" stroke-width="3" stroke-miterlimit="10"/>
<path d="M62.3645 21.2127V22.7507L41.8047 9.97921V4.43501V0.672852L62.3645 21.2127Z" fill="#5445FF"/>
<path d="M32.0006 63.6545C40.3974 63.6545 47.2043 56.8475 47.2043 48.4508C47.2043 40.054 40.3974 33.2471 32.0006 33.2471C23.6038 33.2471 16.7969 40.054 16.7969 48.4508C16.7969 56.8475 23.6038 63.6545 32.0006 63.6545Z" stroke="#5445FF" stroke-width="3" stroke-miterlimit="10"/>
<path d="M31.0879 48.4319V33.6001C32.0934 33.6001 35.1604 33.8515 39.3837 34.857C43.607 35.8625 46.7584 44.8176 47.6802 48.9236L42.557 59.0215L31.0879 48.4319Z" fill="#5445FF"/>
<path d="M32 48.4507H47.2037" stroke="#5445FF" stroke-width="3" stroke-miterlimit="10"/>
<path d="M42.7693 59.2201L32 48.4508V33.2471" stroke="#5445FF" stroke-width="3" stroke-miterlimit="10"/>
</svg>
