<svg width="51" height="52" viewBox="0 0 51 52" fill="none" xmlns="http://www.w3.org/2000/svg">
<path d="M49.4718 25.8789C49.4715 24.4864 49.0168 23.1321 48.1768 22.0215C47.3367 20.9109 46.1572 20.1048 44.8174 19.7256C45.4788 19.0841 45.9414 18.2656 46.1499 17.3681C46.3583 16.4705 46.3037 15.5319 45.9926 14.6646C45.6815 13.7973 45.1271 13.0379 44.3958 12.4774C43.6644 11.917 42.787 11.5791 41.8687 11.5042C41.6086 11.212 41.3144 10.9522 40.9924 10.7302C41.6298 9.19652 41.6457 7.47499 41.0367 5.92977C40.4276 4.38455 39.2414 3.13683 37.7289 2.45052C36.2165 1.76421 34.4963 1.69314 32.9324 2.25233C31.3684 2.81153 30.0833 3.95714 29.3489 5.44684C28.9034 4.84084 28.3215 4.34814 27.6504 4.00856C26.9792 3.66898 26.2376 3.49204 25.4855 3.49204C24.7333 3.49204 23.9917 3.66898 23.3206 4.00856C22.6495 4.34814 22.0676 4.84084 21.6221 5.44684C20.8876 3.95714 19.6025 2.81153 18.0386 2.25233C16.4746 1.69314 14.7545 1.76421 13.242 2.45052C11.7295 3.13683 10.5433 4.38455 9.93428 5.92977C9.32524 7.47499 9.34113 9.19652 9.9786 10.7302C9.65656 10.9522 9.36235 11.212 9.1023 11.5042C8.18392 11.5791 7.30656 11.917 6.57519 12.4774C5.84383 13.0379 5.28944 13.7973 4.97836 14.6646C4.66728 15.5319 4.61269 16.4705 4.82111 17.3681C5.02953 18.2656 5.49214 19.0841 6.15359 19.7256C4.81371 20.105 3.63426 20.9114 2.79436 22.0221C1.95446 23.1329 1.5 24.4874 1.5 25.88C1.5 27.2725 1.95446 28.6271 2.79436 29.7378C3.63426 30.8486 4.81371 31.6549 6.15359 32.0343C5.49191 32.6755 5.02908 33.4939 4.82052 34.3914C4.61197 35.2889 4.66653 36.2275 4.97767 37.0948C5.28881 37.9621 5.84335 38.7213 6.57487 39.2815C7.3064 39.8418 8.1839 40.1793 9.1023 40.2536C9.36235 40.5458 9.65656 40.8056 9.9786 41.0276C9.34113 42.5613 9.32524 44.2828 9.93428 45.828C10.5433 47.3733 11.7295 48.621 13.242 49.3073C14.7545 49.9936 16.4746 50.0647 18.0386 49.5055C19.6025 48.9463 20.8876 47.8007 21.6221 46.311C22.0676 46.917 22.6495 47.4097 23.3206 47.7492C23.9917 48.0888 24.7333 48.2658 25.4855 48.2658C26.2376 48.2658 26.9792 48.0888 27.6504 47.7492C28.3215 47.4097 28.9034 46.917 29.3489 46.311C30.0833 47.8007 31.3684 48.9463 32.9324 49.5055C34.4963 50.0647 36.2165 49.9936 37.7289 49.3073C39.2414 48.621 40.4276 47.3733 41.0367 45.828C41.6457 44.2828 41.6298 42.5613 40.9924 41.0276C41.3144 40.8056 41.6086 40.5458 41.8687 40.2536C42.7871 40.1793 43.6646 39.8418 44.3961 39.2815C45.1276 38.7213 45.6822 37.9621 45.9933 37.0948C46.3044 36.2275 46.359 35.2889 46.1504 34.3914C45.9419 33.4939 45.4791 32.6755 44.8174 32.0343C46.1576 31.655 47.3373 30.8486 48.1774 29.7376C49.0175 28.6266 49.472 27.2718 49.4718 25.8789Z" stroke="white" stroke-width="2.5" stroke-linecap="round" stroke-linejoin="round"/>
<path d="M25.4844 48.2659V17.8833" stroke="white" stroke-width="2.5" stroke-linecap="round" stroke-linejoin="round"/>
<path d="M25.4853 17.8834C27.2516 17.8834 28.6835 16.4515 28.6835 14.6852C28.6835 12.9189 27.2516 11.4871 25.4853 11.4871C23.719 11.4871 22.2871 12.9189 22.2871 14.6852C22.2871 16.4515 23.719 17.8834 25.4853 17.8834Z" fill="#5445FF" stroke="#5445FF" stroke-width="2.5" stroke-linecap="round" stroke-linejoin="round"/>
<path d="M19.0883 40.2704V33.8741L14.291 30.6759V25.8787" stroke="white" stroke-width="2.5" stroke-linejoin="round"/>
<path d="M14.2919 25.8788C16.0582 25.8788 17.4901 24.4469 17.4901 22.6806C17.4901 20.9143 16.0582 19.4824 14.2919 19.4824C12.5256 19.4824 11.0938 20.9143 11.0938 22.6806C11.0938 24.4469 12.5256 25.8788 14.2919 25.8788Z" fill="#5445FF" stroke="#5445FF" stroke-width="2.5" stroke-linecap="round" stroke-linejoin="round"/>
<path d="M31.8809 40.2704V33.8741L36.6781 30.6759V25.8787" stroke="white" stroke-width="2.5" stroke-linejoin="round"/>
<path d="M36.6786 25.8788C38.4449 25.8788 39.8768 24.4469 39.8768 22.6806C39.8768 20.9143 38.4449 19.4824 36.6786 19.4824C34.9123 19.4824 33.4805 20.9143 33.4805 22.6806C33.4805 24.4469 34.9123 25.8788 36.6786 25.8788Z" fill="#5445FF" stroke="#5445FF" stroke-width="2.5" stroke-linecap="round" stroke-linejoin="round"/>
</svg>
