<svg width="50" height="60" viewBox="0 0 50 60" fill="none" xmlns="http://www.w3.org/2000/svg">
<path d="M48.1726 16.87L32.8052 1.50256L2.07042 1.50261L2.07031 57.8498H48.1726V16.87Z" stroke="white" stroke-width="3" stroke-miterlimit="10"/>
<path d="M32.1465 0V17.5908H49.6689" fill="#5445FF"/>
<path d="M32.1465 0V17.5908H49.6689" stroke="#5445FF" stroke-width="3" stroke-miterlimit="10"/>
<path d="M49.6139 16.2218V18.1247L33.4004 7.55471V3.23474L33.5772 0.157593L49.6139 16.2218Z" fill="#5445FF"/>
<path d="M25.7606 49.3777C32.3032 49.3777 37.6071 44.0738 37.6071 37.5312C37.6071 30.9885 32.3032 25.6847 25.7606 25.6847C19.2179 25.6847 13.9141 30.9885 13.9141 37.5312C13.9141 44.0738 19.2179 49.3777 25.7606 49.3777Z" stroke="#5445FF" stroke-width="3" stroke-miterlimit="10"/>
<path d="M25.0508 37.5162V25.9595C25.8343 25.9595 28.224 26.1553 31.5147 26.9388C34.8055 27.7223 37.261 34.7 37.9792 37.8993L33.9873 45.7674L25.0508 37.5162Z" fill="#5445FF"/>
<path d="M25.7598 37.5311H37.6063" stroke="#5445FF" stroke-width="3" stroke-miterlimit="10"/>
<path d="M34.151 45.9223L25.7598 37.5311V25.6846" stroke="#5445FF" stroke-width="3" stroke-miterlimit="10"/>
</svg>
