<svg width="81" height="52" viewBox="0 0 81 52" fill="none" xmlns="http://www.w3.org/2000/svg">
<path d="M22.7806 24.9411C29.0924 24.9411 34.2091 19.8243 34.2091 13.5125C34.2091 7.20072 29.0924 2.08398 22.7806 2.08398C16.4688 2.08398 11.3521 7.20072 11.3521 13.5125C11.3521 19.8243 16.4688 24.9411 22.7806 24.9411Z" fill="#5445FF" stroke="#5445FF" stroke-width="3" stroke-miterlimit="10" stroke-linecap="square"/>
<path d="M58.1021 24.9411C64.4139 24.9411 69.5307 19.8243 69.5307 13.5125C69.5307 7.20072 64.4139 2.08398 58.1021 2.08398C51.7903 2.08398 46.6736 7.20072 46.6736 13.5125C46.6736 19.8243 51.7903 24.9411 58.1021 24.9411Z" stroke="white" stroke-width="3" stroke-miterlimit="10" stroke-linecap="square"/>
<path d="M2.20898 50.0841C2.20898 38.7241 11.4204 29.5127 22.7804 29.5127C34.1403 29.5127 43.3518 38.7241 43.3518 50.0841" fill="#5445FF"/>
<path d="M2.20898 50.0841C2.20898 38.7241 11.4204 29.5127 22.7804 29.5127C34.1403 29.5127 43.3518 38.7241 43.3518 50.0841" stroke="#5445FF" stroke-width="3" stroke-miterlimit="10" stroke-linecap="square"/>
<path d="M78.6732 50.0841C78.6732 38.7241 69.4618 29.5127 58.1018 29.5127C53.75 29.5127 49.7135 30.8645 46.3894 33.171" stroke="white" stroke-width="3" stroke-miterlimit="10" stroke-linecap="square"/>
<rect x="2" y="49.3164" width="41.9044" height="2.26685" fill="#5445FF"/>
</svg>
