<svg width="60" height="60" viewBox="0 0 60 60" fill="none" xmlns="http://www.w3.org/2000/svg">
<path d="M35.7582 20.579C35.7582 18.9266 35.5087 17.3329 35.0479 15.8331L37.6278 13.6201L34.6488 8.46037L31.4232 9.59622C29.2601 7.27169 26.4278 5.58993 23.2257 4.85618L22.5947 1.50146H16.6366L16.0085 4.85618C12.8064 5.58993 9.97416 7.27169 7.81106 9.59622L4.58255 8.46037L1.60352 13.6201L4.18339 15.8331C3.72259 17.3329 3.47312 18.9266 3.47312 20.579C3.47312 22.2314 3.72259 23.8251 4.18339 25.3249L1.60352 27.5379L4.58255 32.6977L7.80812 31.5618C9.97122 33.8863 12.8035 35.5681 16.0056 36.3019L16.6366 39.6566H19.6157M19.6157 27.9165C15.5624 27.9165 12.2781 24.6323 12.2781 20.579C12.2781 16.5258 15.5624 13.2415 19.6157 13.2415C23.6689 13.2415 26.9532 16.5258 26.9532 20.579" stroke="white" stroke-width="2.5" stroke-miterlimit="10"/>
<path d="M58.3978 43.8803V38.0102H55.1282C54.7437 36.1465 54.0393 34.3972 53.0209 32.8622L55.3131 30.57L51.166 26.417L48.8737 28.7092C47.3328 27.6908 45.5953 26.9453 43.7228 26.5666V23.3352H37.8528V26.5666C35.9802 26.9453 34.2633 27.7113 32.7224 28.7297L30.4096 26.417L26.2595 30.5671L28.5781 32.8857C27.5626 34.4237 26.8142 36.1436 26.4327 38.0102H23.1777V43.8803H26.4092C26.7878 45.7528 27.5538 47.4698 28.5723 49.0106L26.2595 51.3234L30.4096 55.4735L32.7282 53.1549C34.2633 54.1704 35.9832 54.9218 37.8498 55.3004V58.5553H43.7198V55.3239C45.5924 54.9452 47.3094 54.1792 48.8502 53.1607L51.163 55.4735L55.3131 51.3234L52.9945 49.0048C54.01 47.4698 54.7613 45.7499 55.14 43.8832H58.3978V43.8803Z" fill="#5445FF" stroke="#5445FF" stroke-width="2.5" stroke-miterlimit="10" stroke-linejoin="round"/>
<path d="M46.6531 41.151C46.7675 37.911 44.2338 35.1917 40.9938 35.0773C37.7538 34.9628 35.0345 37.4966 34.9201 40.7365C34.8057 43.9765 37.3394 46.6958 40.5794 46.8102C43.8194 46.9247 46.5386 44.3909 46.6531 41.151Z" fill="#1C1B29" stroke="#1C1B29" stroke-width="2.5" stroke-miterlimit="10"/>
</svg>
