<svg width="118" height="110" viewBox="0 0 118 110" fill="none" xmlns="http://www.w3.org/2000/svg">
<path d="M51.0429 83.7381H10.1738C5.66187 83.7381 2 80.0763 2 75.5643V10.1738C2 5.66187 5.66187 2 10.1738 2H100.086C104.598 2 108.26 5.66187 108.26 10.1738V54.1081" stroke="white" stroke-width="3" stroke-miterlimit="10"/>
<path d="M3.55762 7.2378L55.1242 42.8689L106.571 7.23779" stroke="white" stroke-width="3" stroke-miterlimit="10"/>
<path d="M83.7382 108.26C101.795 108.26 116.433 93.6215 116.433 75.5644C116.433 57.5073 101.795 42.8691 83.7382 42.8691C65.6811 42.8691 51.043 57.5073 51.043 75.5644C51.043 93.6215 65.6811 108.26 83.7382 108.26Z" fill="#5445FF" stroke="#5445FF" stroke-width="3" stroke-miterlimit="10"/>
<path d="M95.3932 66.8799L78.0238 84.2492L72.0771 78.3013" stroke="white" stroke-width="3" stroke-miterlimit="10"/>
</svg>
