<svg width="56" height="60" viewBox="0 0 56 60" fill="none" xmlns="http://www.w3.org/2000/svg">
<path d="M33.7653 17.8187V12.5245L23.1769 1.93604H2.00001L2 40.7603H14.3532" stroke="white" stroke-width="2.5" stroke-miterlimit="10"/>
<path d="M54.6916 43.66V37.8573H51.4595C51.0794 36.0149 50.3831 34.2857 49.3763 32.7682L51.6423 30.5023L47.5426 26.3968L45.2766 28.6628C43.7534 27.656 42.0358 26.919 40.1847 26.5448V23.3503H34.3819V26.5448C32.5308 26.919 30.8335 27.6763 29.3103 28.6831L27.024 26.3968L22.9215 30.4994L25.2135 32.7914C24.2097 34.3118 23.4698 36.012 23.0926 37.8573H19.875V43.66H23.0694C23.4437 45.5111 24.201 47.2084 25.2077 48.7317L22.9215 51.018L27.024 55.1205L29.3161 52.8284C30.8335 53.8323 32.5337 54.575 34.379 54.9493V58.167H40.1818V54.9725C42.0329 54.5983 43.7302 53.841 45.2534 52.8342L47.5397 55.1205L51.6423 51.018L49.3502 48.7259C50.3541 47.2084 51.0968 45.5082 51.4711 43.6629H54.6916V43.66Z" fill="#5445FF" stroke="#5445FF" stroke-width="2.5" stroke-miterlimit="10" stroke-linejoin="round"/>
<path d="M43.0817 40.9649C43.1949 37.762 40.6901 35.0739 37.4873 34.9608C34.2844 34.8476 31.5963 37.3523 31.4832 40.5552C31.37 43.7581 33.8748 46.4462 37.0776 46.5593C40.2805 46.6725 42.9686 44.1677 43.0817 40.9649Z" fill="#39394B" stroke="#39394B" stroke-width="2.5" stroke-miterlimit="10"/>
<path d="M23.1768 1.93579V12.5242H33.7652" stroke="white" stroke-width="2.5" stroke-miterlimit="10"/>
</svg>
