<svg width="44" height="43" viewBox="0 0 44 43" fill="none" xmlns="http://www.w3.org/2000/svg">
<path d="M9.41875 8.2C9.41875 9.15478 9.03947 10.0705 8.36433 10.7456C7.6892 11.4207 6.77353 11.8 5.81875 11.8C4.86397 11.8 3.9483 11.4207 3.27317 10.7456C2.59803 10.0705 2.21875 9.15478 2.21875 8.2C2.21875 6.22 5.81875 1 5.81875 1C5.81875 1 9.41875 6.211 9.41875 8.2Z" stroke="white" stroke-width="2" stroke-linecap="round" stroke-linejoin="round"/>
<path d="M38.2172 41.5H30.1172L32.306 32.7448C32.4521 32.1607 32.7892 31.6423 33.2637 31.2718C33.7382 30.9013 34.323 30.7 34.925 30.7H38.8094C39.2197 30.7 39.6246 30.7936 39.9934 30.9735C40.3621 31.1535 40.685 31.4152 40.9374 31.7386C41.1899 32.062 41.3654 32.4388 41.4504 32.8402C41.5355 33.2416 41.528 33.6571 41.4284 34.0552L40.9172 36.1" stroke="white" stroke-width="2" stroke-linecap="round" stroke-linejoin="round"/>
<path d="M12.5612 25.3001L8.78125 15.8501" stroke="white" stroke-width="2" stroke-linecap="round" stroke-linejoin="round"/>
<path d="M3.11719 15.8501L9.58279 32.0141" stroke="white" stroke-width="2" stroke-linecap="round" stroke-linejoin="round"/>
<path d="M17.1761 29.9098L12.5681 25.3L8.04105 35.4844C7.79295 36.043 7.7417 36.6693 7.89571 37.2608C8.04971 37.8522 8.39984 38.374 8.88885 38.7406L12.5681 41.5" stroke="white" stroke-width="2" stroke-linecap="round" stroke-linejoin="round"/>
<path d="M28.7848 29.406L21.2266 41.5002" stroke="white" stroke-width="2" stroke-linecap="round" stroke-linejoin="round"/>
<path d="M28.8174 15.0813C29.3583 15.2589 29.8292 15.603 30.1628 16.0643C30.4964 16.5256 30.6757 17.0806 30.675 17.6499V25.2999C30.675 26.7321 30.1061 28.1056 29.0934 29.1183C28.0807 30.131 26.7072 30.6999 25.275 30.6999C23.8428 30.6999 22.4693 30.131 21.4566 29.1183C20.4439 28.1056 19.875 26.7321 19.875 25.2999V17.6499C19.875 17.0812 20.0547 16.527 20.3882 16.0665C20.7218 15.6059 21.1923 15.2623 21.7326 15.0849C24.0301 14.3079 26.5191 14.3066 28.8174 15.0813V15.0813Z" stroke="white" stroke-width="2" stroke-linecap="round" stroke-linejoin="round"/>
<path d="M19.875 21.2499C21.5369 20.3635 23.3915 19.8999 25.275 19.8999C27.1585 19.8999 29.0131 20.3635 30.675 21.2499" stroke="white" stroke-width="2" stroke-linecap="round" stroke-linejoin="round"/>
<path d="M25.2773 9.1001V14.5001" stroke="white" stroke-width="2" stroke-linecap="round" stroke-linejoin="round"/>
<path d="M18.5273 11.4685L21.4937 15.1729" stroke="white" stroke-width="2" stroke-linecap="round" stroke-linejoin="round"/>
<path d="M15.2656 15.8501L19.8772 17.7149" stroke="white" stroke-width="2" stroke-linecap="round" stroke-linejoin="round"/>
<path d="M32.0271 11.4685L29.0625 15.1729" stroke="white" stroke-width="2" stroke-linecap="round" stroke-linejoin="round"/>
<path d="M35.2874 15.8501L30.6992 17.7059" stroke="white" stroke-width="2" stroke-linecap="round" stroke-linejoin="round"/>
<path d="M37.7672 36.1001H42.2672V41.5001H37.7672C37.5285 41.5001 37.2996 41.4053 37.1308 41.2365C36.962 41.0677 36.8672 40.8388 36.8672 40.6001V37.0001C36.8672 36.7614 36.962 36.5325 37.1308 36.3637C37.2996 36.1949 37.5285 36.1001 37.7672 36.1001Z" stroke="white" stroke-width="2" stroke-linecap="round" stroke-linejoin="round"/>
<path d="M1.76562 15.8501H11.2156" stroke="white" stroke-width="2" stroke-linecap="round" stroke-linejoin="round"/>
</svg>
