<svg width="24" height="21" viewBox="0 0 24 21" fill="none" xmlns="http://www.w3.org/2000/svg">
<path d="M11.708 19.6262C12.0586 19.7525 12.4424 19.7525 12.793 19.6262C15.5664 18.5313 18.6218 18.374 21.493 19.1782C21.7305 19.239 21.9789 19.2448 22.2189 19.1949C22.459 19.145 22.6845 19.0408 22.8781 18.8903C23.0717 18.7399 23.2284 18.5471 23.336 18.3268C23.4436 18.1064 23.4994 17.8644 23.499 17.6192V3.28516C23.4983 2.94466 23.3894 2.61319 23.1881 2.33857C22.9868 2.06394 22.7035 1.86035 22.379 1.75716C19.2614 0.682856 15.8631 0.753757 12.793 1.95716C12.4422 2.0827 12.0588 2.0827 11.708 1.95716C8.63756 0.753773 5.23896 0.682873 2.121 1.75716C1.79633 1.86018 1.51278 2.06369 1.31129 2.33833C1.10981 2.61298 1.0008 2.94454 1 3.28516V17.6192C0.999647 17.8644 1.05541 18.1064 1.16303 18.3268C1.27065 18.5471 1.42726 18.7399 1.62088 18.8903C1.8145 19.0408 2.03998 19.145 2.28007 19.1949C2.52015 19.2448 2.76847 19.239 3.006 19.1782C5.87782 18.3738 8.93397 18.5311 11.708 19.6262Z" stroke="#E1E1E7" stroke-linejoin="round"/>
<path d="M12.25 2.03906V19.7211" stroke="#E1E1E7" stroke-linejoin="round"/>
<line x1="2.97266" y1="5.05859" x2="9.71299" y2="5.05859" stroke="#E1E1E7"/>
<line x1="14.3145" y1="5.05859" x2="21.0548" y2="5.05859" stroke="#E1E1E7"/>
<line x1="2.97266" y1="8.05859" x2="9.71299" y2="8.05859" stroke="#E1E1E7"/>
<line x1="14.3145" y1="8.05859" x2="21.0548" y2="8.05859" stroke="#E1E1E7"/>
<line x1="2.97266" y1="11.0586" x2="9.71299" y2="11.0586" stroke="#E1E1E7"/>
<line x1="14.3145" y1="11.0586" x2="21.0548" y2="11.0586" stroke="#E1E1E7"/>
</svg>
