<svg width="78" height="78" viewBox="0 0 78 78" fill="none" xmlns="http://www.w3.org/2000/svg">
<path d="M2 2V76H76" stroke="white" stroke-width="2.5" stroke-miterlimit="10"/>
<path d="M51.9492 27.7458L66.7262 9.27539" stroke="white" stroke-width="2.5" stroke-miterlimit="10"/>
<path d="M31.1758 23.7363L44.3576 29.5938" stroke="white" stroke-width="2.5" stroke-miterlimit="10"/>
<path d="M2 36.5334L22.4372 24.2725" stroke="white" stroke-width="2.5" stroke-miterlimit="10"/>
<path d="M50.7109 53.8696L66.3003 45.21" stroke="white" stroke-width="2.5" stroke-miterlimit="10"/>
<path d="M26.666 56.2671H41.466" stroke="white" stroke-width="2.5" stroke-miterlimit="10"/>
<path d="M2 66.1335L17.3196 58.4736" stroke="white" stroke-width="2.5" stroke-miterlimit="10"/>
<path d="M26.6658 26.667C29.3904 26.667 31.5991 24.4582 31.5991 21.7336C31.5991 19.009 29.3904 16.8003 26.6658 16.8003C23.9412 16.8003 21.7324 19.009 21.7324 21.7336C21.7324 24.4582 23.9412 26.667 26.6658 26.667Z" fill="#5445FF" stroke="#5445FF" stroke-width="2.5" stroke-miterlimit="10"/>
<path d="M48.8669 36.5337C51.5915 36.5337 53.8003 34.3249 53.8003 31.6003C53.8003 28.8757 51.5915 26.667 48.8669 26.667C46.1423 26.667 43.9336 28.8757 43.9336 31.6003C43.9336 34.3249 46.1423 36.5337 48.8669 36.5337Z" fill="#5445FF" stroke="#5445FF" stroke-width="2.5" stroke-miterlimit="10"/>
<path d="M71.0661 11.8672C73.7908 11.8672 75.9995 9.65843 75.9995 6.93382C75.9995 4.20922 73.7908 2.00049 71.0661 2.00049C68.3415 2.00049 66.1328 4.20922 66.1328 6.93382C66.1328 9.65843 68.3415 11.8672 71.0661 11.8672Z" fill="#5445FF" stroke="#5445FF" stroke-width="2.5" stroke-miterlimit="10"/>
<path d="M71.0661 48.8672C73.7908 48.8672 75.9995 46.6584 75.9995 43.9338C75.9995 41.2092 73.7908 39.0005 71.0661 39.0005C68.3415 39.0005 66.1328 41.2092 66.1328 43.9338C66.1328 46.6584 68.3415 48.8672 71.0661 48.8672Z" fill="#5445FF" stroke="#5445FF" stroke-width="2.5" stroke-miterlimit="10"/>
<path d="M46.4001 61.2007C49.1247 61.2007 51.3335 58.9919 51.3335 56.2673C51.3335 53.5427 49.1247 51.334 46.4001 51.334C43.6755 51.334 41.4668 53.5427 41.4668 56.2673C41.4668 58.9919 43.6755 61.2007 46.4001 61.2007Z" fill="#5445FF" stroke="#5445FF" stroke-width="2.5" stroke-miterlimit="10"/>
<path d="M21.7341 61.2007C24.4587 61.2007 26.6674 58.9919 26.6674 56.2673C26.6674 53.5427 24.4587 51.334 21.7341 51.334C19.0095 51.334 16.8008 53.5427 16.8008 56.2673C16.8008 58.9919 19.0095 61.2007 21.7341 61.2007Z" fill="#5445FF" stroke="#5445FF" stroke-width="2.5" stroke-miterlimit="10"/>
</svg>
