<svg width="57" height="57" viewBox="0 0 57 57" fill="none" xmlns="http://www.w3.org/2000/svg">
<path d="M1.45703 2V55.3791H54.8361" stroke="white" stroke-width="2.5" stroke-miterlimit="10"/>
<path d="M37.4863 20.5715L48.1455 7.24805" stroke="white" stroke-width="2.5" stroke-miterlimit="10"/>
<path d="M22.5029 17.6792L32.0115 21.9044" stroke="white" stroke-width="2.5" stroke-miterlimit="10"/>
<path d="M1.45703 26.9107L16.1991 18.0664" stroke="white" stroke-width="2.5" stroke-miterlimit="10"/>
<path d="M36.5947 39.4155L47.8399 33.1689" stroke="white" stroke-width="2.5" stroke-miterlimit="10"/>
<path d="M19.25 41.145H29.9258" stroke="white" stroke-width="2.5" stroke-miterlimit="10"/>
<path d="M1.45703 48.2617L12.5077 42.7363" stroke="white" stroke-width="2.5" stroke-miterlimit="10"/>
<path d="M19.25 19.793C21.2154 19.793 22.8086 18.1997 22.8086 16.2344C22.8086 14.269 21.2154 12.6758 19.25 12.6758C17.2846 12.6758 15.6914 14.269 15.6914 16.2344C15.6914 18.1997 17.2846 19.793 19.25 19.793Z" fill="#5445FF" stroke="#5445FF" stroke-width="2.5" stroke-miterlimit="10"/>
<path d="M35.2637 26.9102C37.229 26.9102 38.8223 25.3169 38.8223 23.3516C38.8223 21.3862 37.229 19.793 35.2637 19.793C33.2983 19.793 31.7051 21.3862 31.7051 23.3516C31.7051 25.3169 33.2983 26.9102 35.2637 26.9102Z" fill="#5445FF" stroke="#5445FF" stroke-width="2.5" stroke-miterlimit="10"/>
<path d="M51.2774 9.1177C53.2427 9.1177 54.836 7.52446 54.836 5.55909C54.836 3.59373 53.2427 2.00049 51.2774 2.00049C49.312 2.00049 47.7188 3.59373 47.7188 5.55909C47.7188 7.52446 49.312 9.1177 51.2774 9.1177Z" fill="#5445FF" stroke="#5445FF" stroke-width="2.5" stroke-miterlimit="10"/>
<path d="M51.2774 35.8072C53.2427 35.8072 54.836 34.2139 54.836 32.2485C54.836 30.2832 53.2427 28.6899 51.2774 28.6899C49.312 28.6899 47.7188 30.2832 47.7188 32.2485C47.7188 34.2139 49.312 35.8072 51.2774 35.8072Z" fill="#5445FF" stroke="#5445FF" stroke-width="2.5" stroke-miterlimit="10"/>
<path d="M33.4844 44.7036C35.4497 44.7036 37.043 43.1104 37.043 41.145C37.043 39.1797 35.4497 37.5864 33.4844 37.5864C31.519 37.5864 29.9258 39.1797 29.9258 41.145C29.9258 43.1104 31.519 44.7036 33.4844 44.7036Z" fill="#5445FF" stroke="#5445FF" stroke-width="2.5" stroke-miterlimit="10"/>
<path d="M15.6914 44.7036C17.6568 44.7036 19.25 43.1104 19.25 41.145C19.25 39.1797 17.6568 37.5864 15.6914 37.5864C13.7261 37.5864 12.1328 39.1797 12.1328 41.145C12.1328 43.1104 13.7261 44.7036 15.6914 44.7036Z" fill="#5445FF" stroke="#5445FF" stroke-width="2.5" stroke-miterlimit="10"/>
</svg>
