<svg width="51" height="69" viewBox="0 0 51 69" fill="none" xmlns="http://www.w3.org/2000/svg">
<path d="M25.4619 51.8757V66.9992" stroke="white" stroke-width="2.5" stroke-linecap="round" stroke-linejoin="round"/>
<path d="M0.461914 67.6211H50.4619" stroke="white" stroke-width="2.5" stroke-linejoin="round"/>
<path d="M2.96191 27.5281V41.8755C2.96191 47.3989 13.0353 51.8755 25.4619 51.8755C37.8886 51.8755 47.9619 47.3989 47.9619 41.8755V27.5284" stroke="white" stroke-width="2.5" stroke-linecap="round" stroke-linejoin="round"/>
<path d="M2.96191 11.8755V26.8755C2.96191 32.3988 13.0353 36.8755 25.4619 36.8755C37.8886 36.8755 47.9619 32.3988 47.9619 26.8755V11.8755" fill="#5445FF"/>
<path d="M2.96191 11.8755V26.8755C2.96191 32.3988 13.0353 36.8755 25.4619 36.8755C37.8886 36.8755 47.9619 32.3988 47.9619 26.8755V11.8755" stroke="#5445FF" stroke-width="2.5" stroke-linecap="round" stroke-linejoin="round"/>
<path d="M25.4619 21.8757C37.8883 21.8757 47.9619 17.3986 47.9619 11.8757C47.9619 6.35289 37.8883 1.87573 25.4619 1.87573C13.0355 1.87573 2.96191 6.35289 2.96191 11.8757C2.96191 17.3986 13.0355 21.8757 25.4619 21.8757Z" fill="#39394B" stroke="white" stroke-width="2.5" stroke-linecap="round" stroke-linejoin="round"/>
</svg>
