<svg width="46" height="60" viewBox="0 0 46 60" fill="none" xmlns="http://www.w3.org/2000/svg">
<path d="M8.73633 44.292H18.2453" stroke="white" stroke-width="2.5" stroke-miterlimit="10" stroke-linejoin="round"/>
<path d="M8.73633 30.0284H18.2453" stroke="white" stroke-width="2.5" stroke-miterlimit="10" stroke-linejoin="round"/>
<path d="M26.293 26.2879L30.0335 30.0285L35.6295 24.5798" stroke="#5445FF" stroke-width="2.5" stroke-miterlimit="10"/>
<path d="M26.3828 41.3357L30.0331 44.9861L35.6292 39.5375" stroke="#5445FF" stroke-width="2.5" stroke-miterlimit="10"/>
<path d="M44.396 6.25593H45.646V5.00593H44.396V6.25593ZM44.396 58.5555V59.8055H45.646V58.5555H44.396ZM1.60571 58.5555L0.355713 58.5555L0.355719 59.8055H1.60571V58.5555ZM1.60547 6.25562L1.60551 5.00562L0.355463 5.00557L0.355469 6.25562L1.60547 6.25562ZM34.8869 7.50593H44.396V5.00593H34.8869V7.50593ZM43.146 6.25593V58.5555H45.646V6.25593H43.146ZM44.396 57.3055H1.60571V59.8055H44.396V57.3055ZM2.85571 58.5555L2.85547 6.25561L0.355469 6.25562L0.355713 58.5555L2.85571 58.5555ZM1.60543 7.50562L11.1144 7.50593L11.1145 5.00593L1.60551 5.00562L1.60543 7.50562Z" fill="white"/>
<path d="M30.1333 6.25597C30.1333 3.63148 26.9382 1.50146 23.0015 1.50146C19.0648 1.50146 15.8697 3.63148 15.8697 6.25597H11.1152V15.765H34.8878V6.25597H30.1333Z" fill="#5445FF" stroke="#5445FF" stroke-width="2.5" stroke-miterlimit="10"/>
</svg>
