<svg width="46" height="46" viewBox="0 0 46 46" fill="none" xmlns="http://www.w3.org/2000/svg">
<path d="M25.918 36.8299C27.0643 37.3874 28.3235 37.6738 29.5982 37.6668C30.8405 37.656 32.0673 37.3901 33.2026 36.8855C34.3379 36.3809 35.3574 35.6485 36.1979 34.7336C37.3537 35.8469 38.7436 36.688 40.266 37.1954C41.7884 37.7029 43.4049 37.864 44.9975 37.6668" stroke="white" stroke-width="2" stroke-linecap="round" stroke-linejoin="round"/>
<path d="M21.3045 16.1118L19.8047 44.9765" stroke="white" stroke-width="2" stroke-linecap="round" stroke-linejoin="round"/>
<path d="M7.92188 45L17.5936 14.8955" stroke="white" stroke-width="2" stroke-linecap="round" stroke-linejoin="round"/>
<path d="M17.5938 14.8957L33.7772 20.1931C34.0216 20.2751 34.2833 20.2913 34.5359 20.2402C34.7886 20.189 35.0233 20.0722 35.2165 19.9016C35.4098 19.731 35.5547 19.5125 35.6367 19.2681C35.7187 19.0237 35.735 18.7621 35.6838 18.5094C35.4505 16.6392 34.6512 14.885 33.393 13.4818C32.1349 12.0785 30.4779 11.0933 28.6441 10.6582C21.3111 9.19159 18.3779 13.5914 18.3779 13.5914L17.5957 14.8957" stroke="white" stroke-width="2" stroke-linecap="round" stroke-linejoin="round"/>
<path d="M17.5884 14.8956L2.85584 18.8945C2.61392 18.9607 2.3591 18.9638 2.11566 18.9035C1.87222 18.8432 1.64826 18.7216 1.46514 18.5503C1.28202 18.3789 1.14584 18.1635 1.06957 17.9246C0.993292 17.6857 0.979473 17.4312 1.02943 17.1855C1.24437 15.2881 2.03837 13.503 3.30349 12.0727C4.56861 10.6424 6.24348 9.63645 8.10041 9.1915C12.3672 8.33696 16.4561 9.1915 18.9103 12.9558" stroke="white" stroke-width="2" stroke-linecap="round" stroke-linejoin="round"/>
<path d="M27.0658 10.4234L33.1278 4.32815C33.2965 4.16281 33.4227 3.959 33.4954 3.73421C33.5681 3.50941 33.5851 3.27034 33.5451 3.0375C33.5051 2.80466 33.4093 2.58499 33.2657 2.39733C33.1222 2.20968 32.9353 2.05964 32.7211 1.96008C31.1333 1.18733 29.3619 0.871361 27.6049 1.04748C25.8479 1.22359 24.1744 1.88486 22.7716 2.95737C19.4473 5.44668 19.8384 10.658 19.8384 10.658V12.1618" stroke="white" stroke-width="2" stroke-linecap="round" stroke-linejoin="round"/>
<path d="M10.6357 8.8925L6.82248 4.75276C6.64578 4.56322 6.52261 4.33013 6.46556 4.07735C6.40852 3.82456 6.41966 3.56117 6.49784 3.3141C6.57601 3.06704 6.71842 2.84518 6.9105 2.67122C7.10257 2.49727 7.33741 2.37746 7.59098 2.32407C9.20841 2.0123 10.852 1.85645 12.4992 1.85867C14.1035 2.00488 15.6481 2.53912 16.9999 3.41532C18.3517 4.29153 19.47 5.48339 20.2585 6.88814" stroke="white" stroke-width="2" stroke-linecap="round" stroke-linejoin="round"/>
<path d="M1 45H44.9981" stroke="white" stroke-width="2" stroke-linecap="round" stroke-linejoin="round"/>
</svg>
