<svg width="44" height="41" viewBox="0 0 44 41" fill="none" xmlns="http://www.w3.org/2000/svg">
<path d="M42.2872 11.9044C39.6329 11.5677 37.1926 10.2744 35.4238 8.26685C33.655 6.25934 32.6793 3.67555 32.6797 1C32.6797 3.91486 31.5217 6.71033 29.4606 8.77144C27.3995 10.8326 24.604 11.9905 21.6892 11.9905C18.7743 11.9905 15.9788 10.8326 13.9177 8.77144C11.8566 6.71033 10.6987 3.91486 10.6987 1C10.6992 3.67726 9.72239 6.26263 7.95172 8.27073C6.18106 10.2788 3.73829 11.5716 1.08203 11.9062" stroke="white" stroke-width="2" stroke-linecap="round" stroke-linejoin="round"/>
<path d="M1.07422 22.981H42.2885" stroke="white" stroke-width="2" stroke-linecap="round" stroke-linejoin="round"/>
<path d="M25.8047 22.9808V11.1953" stroke="white" stroke-width="2" stroke-linecap="round" stroke-linejoin="round"/>
<path d="M32.6719 22.981L32.681 1" stroke="white" stroke-width="2" stroke-linecap="round" stroke-linejoin="round"/>
<path d="M39.5391 22.981V11.1882" stroke="white" stroke-width="2" stroke-linecap="round" stroke-linejoin="round"/>
<path d="M17.5664 22.9808V11.1953" stroke="white" stroke-width="2" stroke-linecap="round" stroke-linejoin="round"/>
<path d="M10.7006 22.981L10.6914 1" stroke="white" stroke-width="2" stroke-linecap="round" stroke-linejoin="round"/>
<path d="M3.82812 22.981V11.1882" stroke="white" stroke-width="2" stroke-linecap="round" stroke-linejoin="round"/>
<path d="M29.9258 29.85V22.981H35.421V29.85" stroke="white" stroke-width="2" stroke-linecap="round" stroke-linejoin="round"/>
<path d="M13.4366 29.85V22.981H7.94141V29.85" stroke="white" stroke-width="2" stroke-linecap="round" stroke-linejoin="round"/>
<path d="M42.2885 39.4666C41.1634 39.4402 40.0855 39.0088 39.2528 38.2518C38.42 37.4947 37.8882 36.4627 37.7549 35.3452C37.7549 37.6221 35.3553 39.4666 32.3971 39.4666C29.4388 39.4666 27.0392 37.6221 27.0392 35.3452C27.0392 37.6221 24.6396 39.4666 21.6814 39.4666C18.7231 39.4666 16.3235 37.6221 16.3235 35.3452C16.3235 37.6221 13.9239 39.4666 10.9656 39.4666C8.00738 39.4666 5.60779 37.6221 5.60779 35.3452C5.47453 36.4627 4.94272 37.4947 4.10996 38.2518C3.2772 39.0088 2.19935 39.4402 1.07422 39.4666" stroke="white" stroke-width="2" stroke-linecap="round" stroke-linejoin="round"/>
</svg>
