<svg width="23" height="23" viewBox="0 0 23 23" fill="none" xmlns="http://www.w3.org/2000/svg">
<path d="M14.0197 20.7074L14.0306 20.7138C14.9983 21.3299 16.1472 21.5975 17.2876 21.4725C18.428 21.3474 19.4916 20.8371 20.3028 20.0259L21.008 19.3207C21.3229 19.0053 21.4998 18.5778 21.4998 18.1321C21.4998 17.6864 21.3229 17.2589 21.008 16.9436L18.0368 13.9742C17.7214 13.6593 17.2939 13.4824 16.8482 13.4824C16.4025 13.4824 15.975 13.6593 15.6597 13.9742C15.5037 14.1304 15.3185 14.2543 15.1147 14.3388C14.9108 14.4233 14.6923 14.4668 14.4716 14.4668C14.2509 14.4668 14.0324 14.4233 13.8285 14.3388C13.6246 14.2543 13.4394 14.1304 13.2835 13.9742L8.52925 9.2191C8.21428 8.90374 8.03737 8.47625 8.03737 8.03054C8.03737 7.58483 8.21428 7.15734 8.52925 6.84198C8.68539 6.68603 8.80927 6.50082 8.89378 6.29696C8.9783 6.09309 9.0218 5.87457 9.0218 5.65388C9.0218 5.43319 8.9783 5.21467 8.89378 5.0108C8.80927 4.80694 8.68539 4.62173 8.52925 4.46578L5.55899 1.49188C5.24363 1.17691 4.81614 1 4.37043 1C3.92472 1 3.49724 1.17691 3.18188 1.49188L2.47667 2.19709C1.66561 3.00833 1.15537 4.07185 1.03015 5.21213C0.90492 6.35242 1.17219 7.50132 1.78786 8.46925L1.79515 8.48018C5.05096 13.2998 9.20072 17.4505 14.0197 20.7074V20.7074Z" stroke="white" stroke-width="1.5" stroke-linecap="round" stroke-linejoin="round"/>
</svg>
