<svg width="60" height="60" viewBox="0 0 60 60" fill="none" xmlns="http://www.w3.org/2000/svg">
<path d="M1.97461 1.43018V57.8501H58.3945" stroke="white" stroke-width="2.5" stroke-miterlimit="10"/>
<path d="M40.0566 21.0595L51.3231 6.97705" stroke="white" stroke-width="2.5" stroke-miterlimit="10"/>
<path d="M24.2188 18.0026L34.269 22.4685" stroke="white" stroke-width="2.5" stroke-miterlimit="10"/>
<path d="M1.97461 27.7598L17.5565 18.4116" stroke="white" stroke-width="2.5" stroke-miterlimit="10"/>
<path d="M39.1133 40.977L50.9991 34.3746" stroke="white" stroke-width="2.5" stroke-miterlimit="10"/>
<path d="M20.7812 42.8051H32.0652" stroke="white" stroke-width="2.5" stroke-miterlimit="10"/>
<path d="M1.97461 50.3274L13.6548 44.4873" stroke="white" stroke-width="2.5" stroke-miterlimit="10"/>
<path d="M20.7809 20.237C22.8582 20.237 24.5422 18.553 24.5422 16.4757C24.5422 14.3984 22.8582 12.7144 20.7809 12.7144C18.7035 12.7144 17.0195 14.3984 17.0195 16.4757C17.0195 18.553 18.7035 20.237 20.7809 20.237Z" fill="#5445FF" stroke="#5445FF" stroke-width="2.5" stroke-miterlimit="10"/>
<path d="M37.7066 27.7596C39.784 27.7596 41.468 26.0756 41.468 23.9983C41.468 21.9209 39.784 20.2369 37.7066 20.2369C35.6293 20.2369 33.9453 21.9209 33.9453 23.9983C33.9453 26.0756 35.6293 27.7596 37.7066 27.7596Z" fill="#5445FF" stroke="#5445FF" stroke-width="2.5" stroke-miterlimit="10"/>
<path d="M54.6324 8.95308C56.7097 8.95308 58.3938 7.26907 58.3938 5.19175C58.3938 3.11442 56.7097 1.43042 54.6324 1.43042C52.5551 1.43042 50.8711 3.11442 50.8711 5.19175C50.8711 7.26907 52.5551 8.95308 54.6324 8.95308Z" fill="#5445FF" stroke="#5445FF" stroke-width="2.5" stroke-miterlimit="10"/>
<path d="M54.6324 37.1632C56.7097 37.1632 58.3938 35.4792 58.3938 33.4018C58.3938 31.3245 56.7097 29.6405 54.6324 29.6405C52.5551 29.6405 50.8711 31.3245 50.8711 33.4018C50.8711 35.4792 52.5551 37.1632 54.6324 37.1632Z" fill="#5445FF" stroke="#5445FF" stroke-width="2.5" stroke-miterlimit="10"/>
<path d="M35.8258 46.5665C37.9031 46.5665 39.5871 44.8825 39.5871 42.8052C39.5871 40.7278 37.9031 39.0438 35.8258 39.0438C33.7485 39.0438 32.0645 40.7278 32.0645 42.8052C32.0645 44.8825 33.7485 46.5665 35.8258 46.5665Z" fill="#5445FF" stroke="#5445FF" stroke-width="2.5" stroke-miterlimit="10"/>
<path d="M17.0191 46.5665C19.0965 46.5665 20.7805 44.8825 20.7805 42.8052C20.7805 40.7278 19.0965 39.0438 17.0191 39.0438C14.9418 39.0438 13.2578 40.7278 13.2578 42.8052C13.2578 44.8825 14.9418 46.5665 17.0191 46.5665Z" fill="#5445FF" stroke="#5445FF" stroke-width="2.5" stroke-miterlimit="10"/>
</svg>
