<svg width="56" height="76" viewBox="0 0 56 76" fill="none" xmlns="http://www.w3.org/2000/svg">
<path d="M28 56.8755V73.5999" stroke="white" stroke-width="2.5" stroke-linecap="round" stroke-linejoin="round"/>
<path d="M0.353516 74.2876H55.6464" stroke="white" stroke-width="2.5" stroke-linejoin="round"/>
<path d="M3.11914 29.9507V45.8169C3.11914 51.9249 14.2588 56.8755 28.001 56.8755C41.7431 56.8755 52.8828 51.9249 52.8828 45.8169V29.951" stroke="white" stroke-width="2.5" stroke-linecap="round" stroke-linejoin="round"/>
<path d="M3.11914 12.6411V29.229C3.11914 35.337 14.2588 40.2876 28.001 40.2876C41.7431 40.2876 52.8828 35.337 52.8828 29.229V12.6411" fill="#5445FF"/>
<path d="M3.11914 12.6411V29.229C3.11914 35.337 14.2588 40.2876 28.001 40.2876C41.7431 40.2876 52.8828 35.337 52.8828 29.229V12.6411" stroke="#5445FF" stroke-width="2.5" stroke-linecap="round" stroke-linejoin="round"/>
<path d="M28.001 23.6997C41.7428 23.6997 52.8828 18.7486 52.8828 12.6411C52.8828 6.53362 41.7428 1.58252 28.001 1.58252C14.2591 1.58252 3.11914 6.53362 3.11914 12.6411C3.11914 18.7486 14.2591 23.6997 28.001 23.6997Z" fill="#39394B" stroke="white" stroke-width="2.5" stroke-linecap="round" stroke-linejoin="round"/>
</svg>
