<svg width="58" height="77" viewBox="0 0 58 77" fill="none" xmlns="http://www.w3.org/2000/svg">
<path d="M10.5 56.7876H22.8333" stroke="white" stroke-width="2.5" stroke-miterlimit="10" stroke-linejoin="round"/>
<path d="M10.5 38.2876H22.8333" stroke="white" stroke-width="2.5" stroke-miterlimit="10" stroke-linejoin="round"/>
<path d="M33.2695 33.4361L38.121 38.2877L45.3792 31.2207" stroke="#5445FF" stroke-width="2.5" stroke-miterlimit="10"/>
<path d="M33.3867 52.9534L38.1212 57.6881L45.3794 50.6211" stroke="#5445FF" stroke-width="2.5" stroke-miterlimit="10"/>
<path d="M56.7499 7.45402H57.9999V6.20402H56.7499V7.45402ZM56.7499 75.2874V76.5374H57.9999V75.2874H56.7499ZM1.25032 75.2874L0.000316654 75.2874L0.000322489 76.5374H1.25032V75.2874ZM1.25 7.45361L1.25004 6.20361L-5.83532e-06 6.20357L0 7.45362L1.25 7.45361ZM44.4166 8.70402H56.7499V6.20402H44.4166V8.70402ZM55.4999 7.45402V75.2874H57.9999V7.45402H55.4999ZM56.7499 74.0374H1.25032V76.5374H56.7499V74.0374ZM2.50032 75.2874L2.5 7.45361L0 7.45362L0.000316654 75.2874L2.50032 75.2874ZM1.24996 8.70361L13.5832 8.70402L13.5833 6.20402L1.25004 6.20361L1.24996 8.70361Z" fill="white"/>
<path d="M38.2506 7.45426C38.2506 4.05026 34.1066 1.2876 29.0006 1.2876C23.8946 1.2876 19.7507 4.05026 19.7507 7.45426H13.584V19.7876H44.4173V7.45426H38.2506Z" fill="#5445FF" stroke="#5445FF" stroke-width="2.5" stroke-miterlimit="10"/>
</svg>
