<svg width="404" height="364" viewBox="0 0 404 364" fill="none" xmlns="http://www.w3.org/2000/svg">
<path d="M0 0H404V364H0V0Z" fill="#5445FF"/>
<path d="M93.7108 205.259H84.3659V181.964H78V174.379H84.3657V168.982C84.3657 162.587 87.1812 158 96.5008 158C98.4719 158 101.566 158.397 101.566 158.397V165.44H98.3162C95.0044 165.44 93.7113 166.447 93.7113 169.232V174.379H101.442L100.754 181.964H93.711L93.7108 205.259ZM115.153 173.773C115.017 173.773 114.877 173.778 114.738 173.781C106.073 173.781 102.108 180.299 102.108 189.552C102.108 201.207 107.251 205.872 114.806 205.872C119.128 205.872 121.968 204.053 123.694 200.658V205.263H132.582V174.382H123.694V179.131C122.285 176.076 119.365 173.809 115.153 173.773ZM117.413 181.07C121.052 181.07 123.237 183.608 123.237 187.926L123.245 192.337C123.245 195.247 121.441 198.652 117.413 198.652C111.22 198.652 111.386 191.965 111.386 189.738C111.386 182.247 114.685 181.07 117.413 181.07ZM136.172 189.824C136.172 186.072 135.992 173.793 151.989 173.793C158.411 173.793 161.092 175.835 161.092 175.835L158.937 182.519C158.937 182.519 156.259 181.045 152.77 181.045C148.301 181.045 145.449 183.636 145.449 188.194L145.454 191.463C145.454 195.843 148.205 198.767 152.779 198.767C155.958 198.767 158.888 197.278 158.888 197.278L161.037 203.823C161.037 203.823 158.586 205.878 152.034 205.878C136.803 205.878 136.172 194.861 136.172 189.824H136.172ZM213.208 173.781C221.873 173.781 225.9 180.299 225.9 189.552C225.9 201.207 220.757 205.872 213.202 205.872C208.88 205.872 205.685 204.053 203.959 200.658V205.263L195.182 205.259V158.939L204.501 158.126V178.713C205.845 175.111 210.265 173.781 213.208 173.781H213.208ZM210.595 181.07C206.956 181.07 204.501 183.608 204.501 187.926L204.492 192.337C204.486 195.247 206.192 198.652 210.595 198.652C216.788 198.652 216.622 191.965 216.622 189.738C216.622 182.247 213.323 181.07 210.595 181.07ZM177.26 173.807C167.432 173.807 162.243 179.166 162.243 188.688V190.457C162.243 202.817 169.53 205.999 178.217 205.999C186.66 205.999 190.482 203.637 190.482 203.637L188.739 197.348C188.739 197.348 184.243 199.261 179.334 199.261C174.245 199.261 172.056 197.964 171.495 193.073H191.227V188.028C191.227 177.698 185.404 173.807 177.26 173.807L177.26 173.807ZM177.497 180.105C180.899 180.105 183.104 182.191 182.983 187.029H171.513C171.712 181.937 174.089 180.105 177.497 180.105V180.105ZM244.48 173.765C234.388 173.765 229.074 179.452 229.074 189.645C229.074 203.63 238.233 205.881 244.497 205.881C253.667 205.881 259.768 200.944 259.768 189.772C259.768 178.144 252.908 173.765 244.48 173.765V173.765ZM244.353 181.095C248.791 181.095 250.55 184.417 250.55 188.197V191.448C250.55 196.028 248.089 198.677 244.337 198.677C240.827 198.677 238.36 196.199 238.36 191.448V188.197C238.36 183.13 241.295 181.095 244.353 181.095V181.095ZM278.332 173.765C268.239 173.765 262.926 179.452 262.926 189.645C262.926 203.63 272.085 205.881 278.349 205.881C287.519 205.881 293.62 200.944 293.62 189.772C293.62 178.144 286.76 173.765 278.332 173.765V173.765ZM278.205 181.095C282.643 181.095 284.401 184.417 284.401 188.197V191.448C284.401 196.028 281.941 198.677 278.188 198.677C274.678 198.677 272.212 196.199 272.212 191.448V188.197C272.212 183.13 275.147 181.095 278.205 181.095V181.095ZM297.141 205.259V158.939L306.486 158.126V189.173L315.758 174.379H325.627L315.955 189.701L326 205.259H316.103L306.486 190.153V205.259H297.141Z" fill="white"/>
</svg>
