<svg width="404" height="364" viewBox="0 0 404 364" fill="none" xmlns="http://www.w3.org/2000/svg">
<path d="M0 0H404V364H0V0Z" fill="#5445FF"/>
<path d="M108.463 142H110.662C118.299 142.167 125.81 145.255 131.205 150.721C129.213 152.765 127.18 154.727 125.229 156.771C122.2 154.017 118.548 151.889 114.564 151.138C108.67 149.886 102.321 151.013 97.3822 154.393C91.987 157.94 88.3349 163.948 87.5464 170.374C86.6749 176.716 88.4594 183.393 92.568 188.316C96.5106 193.115 102.528 196.119 108.753 196.328C114.564 196.662 120.623 194.868 124.856 190.778C128.176 187.899 129.711 183.518 130.209 179.262C123.32 179.262 116.431 179.304 109.542 179.262V170.666H138.551C140.045 179.888 137.887 190.278 130.915 196.87C126.267 201.544 119.834 204.298 113.277 204.84C106.927 205.466 100.37 204.256 94.7261 201.168C87.9614 197.538 82.5663 191.404 79.9103 184.186C77.4202 177.551 77.3787 170.04 79.7027 163.364C81.8193 157.272 85.8864 151.889 91.1155 148.134C96.1371 144.42 102.238 142.376 108.463 142Z" fill="white"/>
<path d="M275 144H284V203.989C281.014 203.989 277.986 204.032 275 203.947C275.042 183.993 275 163.996 275 144V144Z" fill="white"/>
<path d="M158.505 164.374C164.06 163.32 170.079 164.501 174.666 167.834C178.833 170.787 181.737 175.427 182.62 180.49C183.757 186.354 182.326 192.766 178.538 197.407C174.456 202.596 167.764 205.38 161.241 204.958C155.264 204.621 149.456 201.625 145.921 196.732C141.923 191.332 140.955 183.907 143.143 177.579C145.332 170.787 151.519 165.598 158.505 164.374V164.374ZM159.767 172.39C157.495 172.98 155.391 174.288 153.875 176.144C149.793 181.038 150.046 189.011 154.549 193.568C157.116 196.183 160.988 197.407 164.565 196.689C167.89 196.099 170.794 193.863 172.393 190.91C175.171 185.89 174.372 178.971 170.121 175.048C167.385 172.516 163.387 171.462 159.767 172.39Z" fill="white"/>
<path d="M202.504 164.377C208.864 163.154 215.813 164.926 220.572 169.4C228.322 176.364 229.165 189.405 222.552 197.424C218.551 202.489 212.065 205.274 205.663 204.979C199.556 204.81 193.533 201.771 189.911 196.749C185.825 191.22 184.941 183.623 187.257 177.166C189.574 170.582 195.639 165.559 202.504 164.377V164.377ZM203.767 172.396C201.493 172.987 199.387 174.296 197.871 176.11C193.828 180.922 193.996 188.772 198.334 193.372C200.903 196.116 204.905 197.466 208.611 196.706C211.896 196.073 214.844 193.879 216.445 190.924C219.183 185.86 218.382 178.938 214.086 175.013C211.349 172.481 207.348 171.468 203.767 172.396Z" fill="white"/>
<path d="M239.815 166.808C244.63 163.789 251.036 162.951 256.229 165.55C257.862 166.263 259.202 167.478 260.5 168.694C260.542 167.562 260.5 166.388 260.542 165.215C263.347 165.257 266.153 165.215 269 165.257V202.23C268.958 207.806 267.534 213.717 263.515 217.783C259.118 222.268 252.376 223.652 246.305 222.729C239.815 221.765 234.162 217.028 231.649 211.034C234.162 209.818 236.8 208.854 239.396 207.722C240.861 211.159 243.834 214.094 247.561 214.765C251.288 215.435 255.601 214.513 258.029 211.411C260.625 208.225 260.625 203.865 260.5 199.967C258.574 201.853 256.354 203.53 253.674 204.159C247.854 205.794 241.448 203.781 236.967 199.841C232.445 195.9 229.765 189.822 230.016 183.785C230.142 176.952 233.994 170.371 239.815 166.808V166.808ZM248.482 172.173C245.928 172.593 243.541 174.018 241.908 175.988C237.972 180.683 237.972 188.187 241.95 192.798C244.211 195.523 247.854 197.032 251.371 196.655C254.679 196.32 257.736 194.224 259.369 191.331C262.133 186.426 261.672 179.761 257.946 175.485C255.643 172.844 251.958 171.545 248.482 172.173V172.173Z" fill="white"/>
<path d="M295.257 169.002C300.209 164.278 307.843 162.676 314.198 165.164C320.223 167.484 324.06 173.347 326 179.378C317.045 183.174 308.132 186.928 299.177 190.724C300.415 193.129 302.313 195.322 304.872 196.208C308.462 197.515 312.754 197.051 315.766 194.605C316.963 193.677 317.912 192.454 318.82 191.273C321.089 192.833 323.359 194.352 325.629 195.912C322.41 200.847 317.004 204.306 311.185 204.854C304.748 205.656 297.898 203.125 293.73 197.979C286.88 189.881 287.54 176.299 295.257 169.002V169.002ZM299.672 176.805C298.269 178.872 297.691 181.403 297.733 183.891C303.716 181.361 309.7 178.83 315.683 176.257C314.693 173.895 312.3 172.461 309.865 172.081C305.945 171.364 301.859 173.515 299.672 176.805V176.805Z" fill="white"/>
</svg>
