<svg width="670" height="528" viewBox="0 0 670 528" fill="none" xmlns="http://www.w3.org/2000/svg">
<rect width="669.916" height="527.456" fill="#272735"/>
<path d="M527.805 479.759V491.297H529.156V481.243H529.354L532.7 491.297H534.727L538.074 481.243H538.271V491.297H539.623V479.759H537.167L533.804 489.847H533.607L530.261 479.759H527.805ZM541.801 485.446L542.905 485.957C543.367 484.902 544.208 484.16 545.658 484.16C547.109 484.16 547.933 484.935 547.933 486.155V486.468L544.751 486.765C542.889 486.946 541.686 487.688 541.686 489.155C541.686 490.605 542.938 491.528 544.686 491.528C546.416 491.528 547.323 490.72 547.718 489.946H547.949V491.297H549.185V486.221C549.185 484.292 547.867 483.023 545.691 483.023C543.68 483.023 542.394 484.193 541.801 485.446ZM542.955 489.122C542.955 488.215 543.795 487.869 544.916 487.77L547.933 487.49V487.655C547.933 489.319 546.795 490.457 544.85 490.457C543.729 490.457 542.955 489.995 542.955 489.122ZM557.227 483.254L554.541 489.699H554.343L551.656 483.254H550.288L553.782 491.413L552.365 494.594H553.733L558.595 483.254H557.227Z" fill="#EFF0F7"/>
<path d="M424.649 479.759L420.857 491.297H422.308L423.231 488.38H428.159L429.083 491.297H430.533L426.742 479.759H424.649ZM423.61 487.16L425.588 480.979H425.786L427.764 487.16H423.61ZM432.067 494.594H433.319V489.929H433.517C433.979 490.72 434.786 491.528 436.451 491.528C438.594 491.528 440.259 489.797 440.259 487.276C440.259 484.754 438.594 483.023 436.451 483.023C434.786 483.023 433.979 483.831 433.517 484.638H433.286V483.254H432.067V494.594ZM436.154 490.391C434.457 490.391 433.319 489.188 433.319 487.276C433.319 485.38 434.457 484.16 436.154 484.16C437.836 484.16 438.99 485.331 438.99 487.276C438.99 489.237 437.836 490.391 436.154 490.391ZM443.411 483.254H442.208V491.297H443.46V486.451C443.46 485.116 444.153 484.44 445.339 484.44H446.724V483.221H445.718C444.565 483.221 443.938 483.649 443.642 484.457H443.411V483.254Z" fill="#EFF0F7"/>
<path d="M308.604 479.759V491.297H309.956V481.243H310.153L313.5 491.297H315.527L318.873 481.243H319.071V491.297H320.422V479.759H317.966L314.604 489.847H314.406L311.06 479.759H308.604ZM322.6 485.446L323.705 485.957C324.166 484.902 325.007 484.16 326.457 484.16C327.908 484.16 328.732 484.935 328.732 486.155V486.468L325.551 486.765C323.688 486.946 322.485 487.688 322.485 489.155C322.485 490.605 323.738 491.528 325.485 491.528C327.216 491.528 328.122 490.72 328.518 489.946H328.749V491.297H329.985V486.221C329.985 484.292 328.666 483.023 326.49 483.023C324.479 483.023 323.194 484.193 322.6 485.446ZM323.754 489.122C323.754 488.215 324.595 487.869 325.716 487.77L328.732 487.49V487.655C328.732 489.319 327.595 490.457 325.65 490.457C324.529 490.457 323.754 489.995 323.754 489.122ZM333.566 483.254H332.362V491.297H333.615V486.451C333.615 485.116 334.307 484.44 335.494 484.44H336.879V483.221H335.873C334.719 483.221 334.093 483.649 333.796 484.457H333.566V483.254Z" fill="#EFF0F7"/>
<path d="M201.819 479.759V491.297H203.17V486.122H208.593V484.902H203.17V480.995H208.906V479.759H201.819ZM210.063 487.21C210.063 489.649 211.728 491.528 214.234 491.528C216.244 491.528 217.233 490.424 217.81 489.385L216.706 488.808C216.261 489.731 215.536 490.407 214.217 490.407C212.602 490.407 211.481 489.369 211.382 487.688H217.959V487.012C217.959 484.638 216.376 483.006 214.069 483.006C211.745 483.006 210.063 484.853 210.063 487.21ZM211.382 486.649C211.53 485.067 212.552 484.127 214.069 484.127C215.602 484.127 216.607 485.05 216.64 486.649H211.382ZM219.83 479.759V491.297H221.05V489.929H221.281C221.742 490.72 222.55 491.528 224.215 491.528C226.358 491.528 228.022 489.797 228.022 487.276C228.022 484.754 226.358 483.023 224.215 483.023C222.55 483.023 221.742 483.831 221.281 484.638H221.083V479.759H219.83ZM223.918 484.16C225.599 484.16 226.753 485.331 226.753 487.276C226.753 489.237 225.599 490.391 223.918 490.391C222.22 490.391 221.083 489.188 221.083 487.276C221.083 485.38 222.22 484.16 223.918 484.16Z" fill="#EFF0F7"/>
<path d="M98.8194 479.759H97.4678V487.836C97.4678 489.303 96.9074 490.292 95.2591 490.292C93.6273 490.292 92.8691 489.303 92.8691 487.836V486.946H91.5175V487.836C91.5175 490.226 92.902 491.528 95.2591 491.528C97.6162 491.528 98.8194 490.226 98.8194 487.836V479.759ZM100.944 485.446L102.049 485.957C102.51 484.902 103.351 484.16 104.801 484.16C106.252 484.16 107.076 484.935 107.076 486.155V486.468L103.895 486.765C102.032 486.946 100.829 487.688 100.829 489.155C100.829 490.605 102.082 491.528 103.829 491.528C105.56 491.528 106.466 490.72 106.862 489.946H107.093V491.297H108.329V486.221C108.329 484.292 107.01 483.023 104.834 483.023C102.824 483.023 101.538 484.193 100.944 485.446ZM102.098 489.122C102.098 488.215 102.939 487.869 104.06 487.77L107.076 487.49V487.655C107.076 489.319 105.939 490.457 103.994 490.457C102.873 490.457 102.098 489.995 102.098 489.122ZM110.706 483.254V491.297H111.959V487.16C111.959 485.248 113.047 484.226 114.629 484.226C116.03 484.226 116.888 484.968 116.888 486.534V491.297H118.157V486.435C118.157 484.21 116.673 483.122 114.975 483.122C113.344 483.122 112.569 483.897 112.157 484.688H111.926V483.254H110.706Z" fill="#EFF0F7"/>
<path d="M33.9931 58.3758V79.8037H40.6051C46.0539 79.8037 49.2987 77.0487 49.2987 71.4774V66.7021C49.2987 61.1308 46.0539 58.3758 40.6051 58.3758H33.9931ZM37.0542 61.1921H40.5439C44.2785 61.1921 46.2376 62.8451 46.2376 66.7633V71.4162C46.2376 75.3345 44.2785 76.9875 40.5439 76.9875H37.0542V61.1921ZM52.4246 68.753L54.9042 69.8857C55.6082 68.1408 57.0469 66.947 59.4958 66.947C61.9447 66.947 63.3835 68.1714 63.3835 70.2224V70.6203L57.8428 71.1407C53.9858 71.5081 52.1185 72.9774 52.1185 75.7018C52.1185 78.3956 54.2919 80.2323 57.6592 80.2323C60.7509 80.2323 62.3121 78.7935 62.9549 77.4466H63.3835V79.8037H66.1997V70.3448C66.1997 66.7327 63.5978 64.3756 59.5571 64.3756C55.8837 64.3756 53.496 66.4266 52.4246 68.753ZM55.0266 75.5794C55.0266 74.0488 56.4041 73.5284 58.149 73.3753L63.3835 72.8856V73.1305C63.3835 75.7324 61.6692 77.8446 58.149 77.8446C56.1592 77.8446 55.0266 76.9875 55.0266 75.5794ZM69.4249 60.2125C69.4249 61.4982 70.4657 62.4777 71.7514 62.4777C73.037 62.4777 74.0778 61.4982 74.0778 60.2125C74.0778 58.9268 73.037 57.9473 71.7514 57.9473C70.4657 57.9473 69.4249 58.9268 69.4249 60.2125ZM73.1901 64.8042H70.3126V79.8037H73.1901V64.8042ZM80.3646 58.3758H77.4871V79.8037H80.3646V58.3758ZM95.8654 64.8042L91.2431 76.1916H90.8757L86.2534 64.8042H83.1311L89.5288 80.0792L86.9881 85.926H90.1105L98.9877 64.8042H95.8654ZM116.021 58.3758L109.317 79.8037H112.561L114.123 74.661H122.755L124.316 79.8037H127.561L120.857 58.3758H116.021ZM114.949 71.8448L118.255 61.0696H118.622L121.928 71.8448H114.949ZM129.121 72.304C129.121 76.8956 132.427 80.2323 136.957 80.2323C141.396 80.2323 143.569 77.263 144.243 74.4161L141.396 73.8651C140.998 75.7936 139.835 77.5997 136.957 77.5997C134.018 77.5997 131.998 75.4875 131.998 72.304C131.998 69.1204 134.018 67.0082 136.896 67.0082C139.559 67.0082 141.12 68.6612 141.365 70.7734L144.181 70.1918C143.569 66.8551 140.937 64.3756 136.896 64.3756C132.427 64.3756 129.121 67.7123 129.121 72.304ZM145.575 64.8042V67.3143H149.738V77.2324C149.738 78.7629 150.779 79.8037 152.248 79.8037H156.166V77.2936H153.411C152.86 77.2936 152.616 77.0487 152.616 76.4365V67.3143H157.024V64.8042H152.616V59.6003H149.738V64.8042H145.575ZM159.136 60.2125C159.136 61.4982 160.177 62.4777 161.463 62.4777C162.748 62.4777 163.789 61.4982 163.789 60.2125C163.789 58.9268 162.748 57.9473 161.463 57.9473C160.177 57.9473 159.136 58.9268 159.136 60.2125ZM162.901 64.8042H160.024V79.8037H162.901V64.8042ZM165.668 64.8042L171.27 79.8037H175.372L180.974 64.8042H177.851L173.504 77.0487H173.137L168.79 64.8042H165.668ZM182.451 72.1815C182.451 76.712 185.635 80.2323 190.288 80.2323C193.869 80.2323 195.798 78.2425 196.93 76.4059L194.512 75.0284C193.716 76.6201 192.431 77.7221 190.227 77.7221C187.533 77.7221 185.635 76.0385 185.451 73.3447H197.267V71.906C197.267 67.5592 194.328 64.3144 189.92 64.3144C185.574 64.3144 182.451 67.7735 182.451 72.1815ZM185.451 71.0183C185.665 68.3551 187.288 66.8245 189.92 66.8245C192.553 66.8245 194.206 68.4469 194.267 71.0183H185.451ZM209.618 58.3758V72.5795C209.618 77.5385 212.556 80.2323 217.638 80.2323C222.719 80.2323 225.658 77.5385 225.658 72.5795V58.3758H222.597V72.5795C222.597 75.7324 220.944 77.416 217.638 77.416C214.332 77.416 212.679 75.7324 212.679 72.5795V58.3758H209.618ZM229.639 68.8143C229.639 71.6611 231.874 72.7631 235.241 73.2529L236.496 73.4366C238.119 73.6815 240.047 73.8039 240.047 75.3651C240.047 76.8344 238.517 77.7834 236.374 77.7834C233.925 77.7834 231.997 76.4059 231.048 74.1406L228.476 75.5181C229.639 77.7221 232.027 80.2323 236.282 80.2323C240.139 80.2323 242.894 78.2731 242.894 75.2732C242.894 72.1509 240.231 71.3244 236.833 70.8346L235.578 70.6509C233.956 70.4061 232.486 70.253 232.486 68.7837C232.486 67.498 233.741 66.7633 235.425 66.7633C237.2 66.7633 239.007 67.5898 240.66 69.7326L242.802 68.202C240.445 65.5695 238.425 64.3756 235.364 64.3756C232.303 64.3756 229.639 65.9674 229.639 68.8143ZM245.109 72.1815C245.109 76.712 248.292 80.2323 252.945 80.2323C256.527 80.2323 258.455 78.2425 259.588 76.4059L257.17 75.0284C256.374 76.6201 255.088 77.7221 252.884 77.7221C250.19 77.7221 248.292 76.0385 248.109 73.3447H259.925V71.906C259.925 67.5592 256.986 64.3144 252.578 64.3144C248.231 64.3144 245.109 67.7735 245.109 72.1815ZM248.109 71.0183C248.323 68.3551 249.945 66.8245 252.578 66.8245C255.21 66.8245 256.863 68.4469 256.925 71.0183H248.109ZM265.853 64.8042H263.098V79.8037H265.975V71.0489C265.975 68.7837 267.139 67.5592 269.281 67.5592H271.914V64.743H270.2C268.026 64.743 266.802 65.6613 266.281 67.2531H265.853V64.8042ZM274.002 68.8143C274.002 71.6611 276.237 72.7631 279.604 73.2529L280.859 73.4366C282.481 73.6815 284.41 73.8039 284.41 75.3651C284.41 76.8344 282.879 77.7834 280.736 77.7834C278.287 77.7834 276.359 76.4059 275.41 74.1406L272.839 75.5181C274.002 77.7221 276.39 80.2323 280.645 80.2323C284.502 80.2323 287.257 78.2731 287.257 75.2732C287.257 72.1509 284.593 71.3244 281.196 70.8346L279.94 70.6509C278.318 70.4061 276.849 70.253 276.849 68.7837C276.849 67.498 278.104 66.7633 279.787 66.7633C281.563 66.7633 283.369 67.5898 285.022 69.7326L287.165 68.202C284.808 65.5695 282.787 64.3756 279.726 64.3756C276.665 64.3756 274.002 65.9674 274.002 68.8143ZM301.465 79.0078C301.465 85.2525 305.199 87.3953 309.485 87.3953V84.7627C305.965 84.7015 304.342 82.773 304.342 78.8242V63.641C304.342 59.6921 305.965 57.7636 309.485 57.7024V55.0698C305.199 55.0698 301.465 57.2126 301.465 63.4573V79.0078ZM312.304 58.3758V79.8037H318.917C324.365 79.8037 327.61 77.0487 327.61 71.4774V66.7021C327.61 61.1308 324.365 58.3758 318.917 58.3758H312.304ZM315.366 61.1921H318.855C322.59 61.1921 324.549 62.8451 324.549 66.7633V71.4162C324.549 75.3345 322.59 76.9875 318.855 76.9875H315.366V61.1921ZM335.89 58.3758L329.186 79.8037H332.43L333.992 74.661H342.624L344.185 79.8037H347.43L340.726 58.3758H335.89ZM334.818 71.8448L338.124 61.0696H338.491L341.797 71.8448H334.818ZM349.82 58.3758V72.5795C349.82 77.5385 352.758 80.2323 357.84 80.2323C362.921 80.2323 365.86 77.5385 365.86 72.5795V58.3758H362.799V72.5795C362.799 75.7324 361.146 77.416 357.84 77.416C354.534 77.416 352.881 75.7324 352.881 72.5795V58.3758H349.82ZM376.637 79.0078V63.4573C376.637 57.2126 372.903 55.0698 368.617 55.0698V57.7024C372.137 57.7636 373.76 59.6921 373.76 63.641V78.8242C373.76 82.773 372.137 84.7015 368.617 84.7627V87.3953C372.903 87.3953 376.637 85.2525 376.637 79.0078Z" fill="white"/>
<rect x="31.7891" y="109.494" width="607.516" height="348.497" rx="23.5471" fill="#39394B"/>
<line x1="32.3777" y1="183.079" x2="638.716" y2="183.079" stroke="#5A5A76" stroke-width="1.17736" stroke-linecap="round" stroke-dasharray="9.42 9.42"/>
<line x1="32.3777" y1="253.72" x2="638.716" y2="253.72" stroke="#5A5A76" stroke-width="1.17736" stroke-linecap="round" stroke-dasharray="9.42 9.42"/>
<line x1="32.3777" y1="327.894" x2="638.716" y2="327.894" stroke="#5A5A76" stroke-width="1.17736" stroke-linecap="round" stroke-dasharray="9.42 9.42"/>
<line x1="32.3777" y1="399.713" x2="638.716" y2="399.713" stroke="#5A5A76" stroke-width="1.17736" stroke-linecap="round" stroke-dasharray="9.42 9.42"/>
<path d="M75.3496 399.846C75.3496 393.344 80.6208 388.073 87.1232 388.073V388.073C93.6255 388.073 98.8967 393.344 98.8967 399.846V424.002C98.8967 430.505 93.6255 435.776 87.1232 435.776V435.776C80.6208 435.776 75.3496 430.505 75.3496 424.002V399.846Z" fill="#ADA6FF"/>
<g filter="url(#filter0_d)">
<path d="M110.67 379.247C110.67 372.745 115.941 367.474 122.443 367.474V367.474C128.946 367.474 134.217 372.745 134.217 379.247V424.003C134.217 430.505 128.946 435.776 122.443 435.776V435.776C115.941 435.776 110.67 430.505 110.67 424.003V379.247Z" fill="#5445FF"/>
</g>
<path d="M184.844 292.514C184.844 286.011 190.115 280.74 196.617 280.74V280.74C203.12 280.74 208.391 286.011 208.391 292.514V424.002C208.391 430.505 203.12 435.776 196.617 435.776V435.776C190.115 435.776 184.844 430.505 184.844 424.002V292.514Z" fill="#ADA6FF"/>
<g filter="url(#filter1_d)">
<path d="M220.164 276.252C220.164 269.749 225.435 264.478 231.938 264.478V264.478C238.44 264.478 243.711 269.749 243.711 276.252V424.003C243.711 430.505 238.44 435.776 231.938 435.776V435.776C225.435 435.776 220.164 430.505 220.164 424.003V276.252Z" fill="#5445FF"/>
</g>
<path d="M293.162 367.321C293.162 360.819 298.433 355.548 304.936 355.548V355.548C311.438 355.548 316.709 360.819 316.709 367.321V424.003C316.709 430.505 311.438 435.776 304.936 435.776V435.776C298.433 435.776 293.162 430.505 293.162 424.003V367.321Z" fill="#ADA6FF"/>
<path d="M328.482 313.113C328.482 306.611 333.754 301.339 340.256 301.339V301.339C346.758 301.339 352.03 306.611 352.03 313.113V424.002C352.03 430.505 346.758 435.776 340.256 435.776V435.776C333.754 435.776 328.482 430.505 328.482 424.002V313.113Z" fill="#5445FF"/>
<path d="M404.422 244.81C404.422 238.308 409.693 233.037 416.195 233.037V233.037C422.698 233.037 427.969 238.308 427.969 244.81V424.002C427.969 430.505 422.698 435.776 416.195 435.776V435.776C409.693 435.776 404.422 430.505 404.422 424.002V244.81Z" fill="#ADA6FF"/>
<g filter="url(#filter2_d)">
<path d="M439.742 215.538C439.742 209.036 445.013 203.765 451.516 203.765V203.765C458.018 203.765 463.289 209.036 463.289 215.538V424.003C463.289 430.505 458.018 435.776 451.516 435.776V435.776C445.013 435.776 439.742 430.505 439.742 424.003V215.538Z" fill="#5445FF"/>
</g>
<path d="M510.973 202.528C510.973 196.026 516.244 190.755 522.746 190.755V190.755C529.249 190.755 534.52 196.026 534.52 202.528V424.002C534.52 430.505 529.249 435.776 522.746 435.776V435.776C516.244 435.776 510.973 430.505 510.973 424.002V202.528Z" fill="#ADA6FF"/>
<g filter="url(#filter3_d)">
<path d="M546.293 155.909C546.293 149.406 551.564 144.135 558.067 144.135V144.135C564.569 144.135 569.84 149.406 569.84 155.909V424.002C569.84 430.504 564.569 435.776 558.067 435.776V435.776C551.564 435.776 546.293 430.504 546.293 424.002V155.909Z" fill="#5445FF"/>
</g>
<circle cx="591.033" cy="68.2867" r="11.7736" fill="#5445FF"/>
<circle cx="626.354" cy="68.2867" r="11.7736" fill="#ADA6FF"/>
<defs>
<filter id="filter0_d" x="100.074" y="358.055" width="44.7395" height="89.4948" filterUnits="userSpaceOnUse" color-interpolation-filters="sRGB">
<feFlood flood-opacity="0" result="BackgroundImageFix"/>
<feColorMatrix in="SourceAlpha" type="matrix" values="0 0 0 0 0 0 0 0 0 0 0 0 0 0 0 0 0 0 127 0"/>
<feOffset dy="1.17736"/>
<feGaussianBlur stdDeviation="5.2981"/>
<feColorMatrix type="matrix" values="0 0 0 0 0.078875 0 0 0 0 0.0770833 0 0 0 0 0.166667 0 0 0 0.14 0"/>
<feBlend mode="normal" in2="BackgroundImageFix" result="effect1_dropShadow"/>
<feBlend mode="normal" in="SourceGraphic" in2="effect1_dropShadow" result="shape"/>
</filter>
<filter id="filter1_d" x="209.568" y="255.059" width="44.7395" height="192.49" filterUnits="userSpaceOnUse" color-interpolation-filters="sRGB">
<feFlood flood-opacity="0" result="BackgroundImageFix"/>
<feColorMatrix in="SourceAlpha" type="matrix" values="0 0 0 0 0 0 0 0 0 0 0 0 0 0 0 0 0 0 127 0"/>
<feOffset dy="1.17736"/>
<feGaussianBlur stdDeviation="5.2981"/>
<feColorMatrix type="matrix" values="0 0 0 0 0.078875 0 0 0 0 0.0770833 0 0 0 0 0.166667 0 0 0 0.14 0"/>
<feBlend mode="normal" in2="BackgroundImageFix" result="effect1_dropShadow"/>
<feBlend mode="normal" in="SourceGraphic" in2="effect1_dropShadow" result="shape"/>
</filter>
<filter id="filter2_d" x="429.146" y="194.346" width="44.7395" height="253.204" filterUnits="userSpaceOnUse" color-interpolation-filters="sRGB">
<feFlood flood-opacity="0" result="BackgroundImageFix"/>
<feColorMatrix in="SourceAlpha" type="matrix" values="0 0 0 0 0 0 0 0 0 0 0 0 0 0 0 0 0 0 127 0"/>
<feOffset dy="1.17736"/>
<feGaussianBlur stdDeviation="5.2981"/>
<feColorMatrix type="matrix" values="0 0 0 0 0.078875 0 0 0 0 0.0770833 0 0 0 0 0.166667 0 0 0 0.14 0"/>
<feBlend mode="normal" in2="BackgroundImageFix" result="effect1_dropShadow"/>
<feBlend mode="normal" in="SourceGraphic" in2="effect1_dropShadow" result="shape"/>
</filter>
<filter id="filter3_d" x="535.697" y="134.716" width="44.7395" height="312.833" filterUnits="userSpaceOnUse" color-interpolation-filters="sRGB">
<feFlood flood-opacity="0" result="BackgroundImageFix"/>
<feColorMatrix in="SourceAlpha" type="matrix" values="0 0 0 0 0 0 0 0 0 0 0 0 0 0 0 0 0 0 127 0"/>
<feOffset dy="1.17736"/>
<feGaussianBlur stdDeviation="5.2981"/>
<feColorMatrix type="matrix" values="0 0 0 0 0.078875 0 0 0 0 0.0770833 0 0 0 0 0.166667 0 0 0 0.14 0"/>
<feBlend mode="normal" in2="BackgroundImageFix" result="effect1_dropShadow"/>
<feBlend mode="normal" in="SourceGraphic" in2="effect1_dropShadow" result="shape"/>
</filter>
</defs>
</svg>
