<svg width="554" height="448" viewBox="0 0 554 448" fill="none" xmlns="http://www.w3.org/2000/svg">
<rect width="554" height="448" fill="#272735"/>
<rect x="32" y="35" width="237" height="182" rx="20" fill="#39394B"/>
<path d="M209.627 88.9964L206.847 97.4595H207.91L208.588 95.3195H212.202L212.879 97.4595H213.943L211.163 88.9964H209.627ZM208.866 94.4249L210.316 89.8911H210.461L211.912 94.4249H208.866ZM214.622 94.5095C214.622 96.323 215.928 97.6287 217.693 97.6287C219.35 97.6287 220.269 96.5285 220.51 95.3558L219.591 95.1744C219.422 96.0449 218.878 96.7824 217.693 96.7824C216.448 96.7824 215.553 95.8515 215.553 94.5095C215.553 93.1796 216.448 92.2486 217.669 92.2486C218.769 92.2486 219.458 92.9257 219.567 93.8445L220.486 93.6632C220.269 92.3816 219.217 91.3902 217.669 91.3902C215.928 91.3902 214.622 92.696 214.622 94.5095ZM221.096 91.5595V92.3695H222.885V96.5285C222.885 97.0968 223.248 97.4595 223.792 97.4595H225.352V96.6494H224.131C223.913 96.6494 223.816 96.5406 223.816 96.2988V92.3695H225.69V91.5595H223.816V89.4317H222.885V91.5595H221.096ZM226.655 89.7218C226.655 90.1691 227.005 90.5077 227.453 90.5077C227.9 90.5077 228.251 90.1691 228.251 89.7218C228.251 89.2745 227.9 88.936 227.453 88.936C227.005 88.936 226.655 89.2745 226.655 89.7218ZM227.912 91.5595H226.993V97.4595H227.912V91.5595ZM229.116 91.5595L231.389 97.4595H232.695L234.968 91.5595H233.964L232.114 96.5527H231.969L230.119 91.5595H229.116ZM235.674 94.4611C235.674 96.2505 236.895 97.6287 238.733 97.6287C240.208 97.6287 240.933 96.8187 241.356 96.057L240.546 95.6339C240.22 96.3109 239.688 96.8066 238.721 96.8066C237.536 96.8066 236.714 96.0449 236.641 94.8117H241.465V94.316C241.465 92.5751 240.304 91.3782 238.612 91.3782C236.907 91.3782 235.674 92.7322 235.674 94.4611ZM236.641 94.0501C236.75 92.8894 237.499 92.2003 238.612 92.2003C239.736 92.2003 240.474 92.8773 240.498 94.0501H236.641Z" fill="#EFF0F7"/>
<path d="M207.548 121.393V129.856H208.539V121.393H207.548ZM210.369 123.956V129.856H211.288V126.821C211.288 125.419 212.086 124.669 213.247 124.669C214.274 124.669 214.903 125.213 214.903 126.362V129.856H215.834V126.289C215.834 124.657 214.746 123.859 213.501 123.859C212.304 123.859 211.735 124.428 211.433 125.008H211.264V123.956H210.369ZM217.33 125.564L218.14 125.939C218.478 125.165 219.095 124.621 220.159 124.621C221.223 124.621 221.827 125.189 221.827 126.084V126.314L219.494 126.531C218.128 126.664 217.245 127.208 217.245 128.284C217.245 129.348 218.164 130.025 219.446 130.025C220.715 130.025 221.38 129.433 221.67 128.865H221.839V129.856H222.746V126.132C222.746 124.718 221.779 123.787 220.183 123.787C218.708 123.787 217.765 124.645 217.33 125.564ZM218.176 128.26C218.176 127.595 218.793 127.341 219.615 127.269L221.827 127.063V127.184C221.827 128.405 220.993 129.239 219.567 129.239C218.744 129.239 218.176 128.901 218.176 128.26ZM224.103 126.906C224.103 128.719 225.409 130.025 227.174 130.025C228.83 130.025 229.749 128.925 229.991 127.752L229.072 127.571C228.903 128.441 228.359 129.179 227.174 129.179C225.929 129.179 225.034 128.248 225.034 126.906C225.034 125.576 225.929 124.645 227.15 124.645C228.25 124.645 228.939 125.322 229.048 126.241L229.967 126.06C229.749 124.778 228.697 123.787 227.15 123.787C225.409 123.787 224.103 125.092 224.103 126.906ZM230.577 123.956V124.766H232.366V128.925C232.366 129.493 232.729 129.856 233.273 129.856H234.833V129.046H233.612C233.394 129.046 233.297 128.937 233.297 128.695V124.766H235.171V123.956H233.297V121.828H232.366V123.956H230.577ZM236.135 122.118C236.135 122.566 236.486 122.904 236.933 122.904C237.381 122.904 237.731 122.566 237.731 122.118C237.731 121.671 237.381 121.332 236.933 121.332C236.486 121.332 236.135 121.671 236.135 122.118ZM237.393 123.956H236.474V129.856H237.393V123.956ZM238.597 123.956L240.87 129.856H242.175L244.448 123.956H243.445L241.595 128.949H241.45L239.6 123.956H238.597ZM245.155 126.858C245.155 128.647 246.376 130.025 248.213 130.025C249.688 130.025 250.414 129.215 250.837 128.454L250.027 128.03C249.701 128.707 249.169 129.203 248.201 129.203C247.017 129.203 246.194 128.441 246.122 127.208H250.946V126.713C250.946 124.972 249.785 123.775 248.093 123.775C246.388 123.775 245.155 125.129 245.155 126.858ZM246.122 126.447C246.231 125.286 246.98 124.597 248.093 124.597C249.217 124.597 249.954 125.274 249.979 126.447H246.122Z" fill="#EFF0F7"/>
<path d="M207.282 157.078V158.964C207.282 161.176 208.527 162.421 210.546 162.421C212.565 162.421 213.81 161.176 213.81 158.964V157.078C213.81 154.865 212.529 153.62 210.546 153.62C208.527 153.62 207.282 154.865 207.282 157.078ZM208.273 157.041C208.273 155.445 209.059 154.527 210.546 154.527C212.033 154.527 212.819 155.445 212.819 157.041V159C212.819 160.596 212.033 161.515 210.546 161.515C209.059 161.515 208.273 160.596 208.273 159V157.041ZM214.638 156.352V157.162H216.427V161.321C216.427 161.889 216.79 162.252 217.334 162.252H218.894V161.442H217.672C217.455 161.442 217.358 161.333 217.358 161.092V157.162H219.232V156.352H217.358V154.224H216.427V156.352H214.638ZM220.535 153.789V162.252H221.454V159.218C221.454 157.815 222.252 157.066 223.412 157.066C224.44 157.066 225.069 157.61 225.069 158.758V162.252H226V158.686C226 157.053 224.911 156.256 223.666 156.256C222.469 156.256 221.901 156.824 221.599 157.404H221.454V153.789H220.535ZM227.338 159.254C227.338 161.043 228.559 162.421 230.397 162.421C231.872 162.421 232.597 161.611 233.021 160.85L232.211 160.427C231.884 161.104 231.352 161.599 230.385 161.599C229.2 161.599 228.378 160.838 228.305 159.604H233.129V159.109C233.129 157.368 231.969 156.171 230.276 156.171C228.571 156.171 227.338 157.525 227.338 159.254ZM228.305 158.843C228.414 157.682 229.164 156.993 230.276 156.993C231.401 156.993 232.138 157.67 232.162 158.843H228.305ZM235.385 156.352H234.502V162.252H235.421V158.698C235.421 157.718 235.929 157.223 236.799 157.223H237.815V156.328H237.077C236.231 156.328 235.772 156.642 235.554 157.235H235.385V156.352Z" fill="#EFF0F7"/>
<circle cx="193.783" cy="93.6037" r="5.02703" fill="#5445FF"/>
<circle cx="193.783" cy="126" r="5.02703" fill="#857AFF"/>
<circle cx="193.783" cy="158.397" r="5.02703" fill="#55556A"/>
<path d="M87.9074 112.711V113.197H89.4181V117.249H89.9498V113.197H91.467V112.711H87.9074ZM91.2286 115.667C91.2286 116.646 91.8965 117.34 92.8431 117.34C93.7833 117.34 94.4511 116.646 94.4511 115.667C94.4511 114.688 93.7833 113.994 92.8431 113.994C91.8965 113.994 91.2286 114.688 91.2286 115.667ZM91.7214 115.667C91.7214 114.941 92.1688 114.455 92.8431 114.455C93.511 114.455 93.9584 114.928 93.9584 115.667C93.9584 116.406 93.511 116.886 92.8431 116.886C92.1688 116.886 91.7214 116.419 91.7214 115.667ZM94.7891 114.085V114.52H95.7487V116.75C95.7487 117.055 95.9432 117.249 96.235 117.249H97.0714V116.815H96.4165C96.2998 116.815 96.248 116.756 96.248 116.627V114.52H97.253V114.085H96.248V112.944H95.7487V114.085H94.7891ZM97.8285 114.947L98.2629 115.148C98.4444 114.734 98.7751 114.442 99.3457 114.442C99.9163 114.442 100.24 114.746 100.24 115.226V115.349L98.9891 115.466C98.2564 115.538 97.7831 115.829 97.7831 116.406C97.7831 116.977 98.2758 117.34 98.9631 117.34C99.6439 117.34 100.001 117.022 100.156 116.718H100.247V117.249H100.733V115.252C100.733 114.494 100.215 113.994 99.3587 113.994C98.5676 113.994 98.0619 114.455 97.8285 114.947ZM98.2823 116.393C98.2823 116.037 98.613 115.901 99.0539 115.862L100.24 115.751V115.816C100.24 116.471 99.7931 116.919 99.028 116.919C98.5871 116.919 98.2823 116.737 98.2823 116.393ZM102.161 112.711H101.668V117.249H102.161V112.711ZM105.015 114.5V115.46C105.015 116.653 105.67 117.34 106.785 117.34C107.835 117.34 108.451 116.711 108.451 115.706V115.602H107.92V115.706C107.92 116.406 107.57 116.854 106.785 116.854C105.994 116.854 105.547 116.354 105.547 115.479V114.481C105.547 113.605 105.994 113.106 106.785 113.106C107.544 113.106 107.92 113.56 107.92 114.267V114.357H108.451V114.247C108.451 113.268 107.861 112.62 106.785 112.62C105.683 112.62 105.015 113.307 105.015 114.5ZM109.034 115.667C109.034 116.646 109.702 117.34 110.648 117.34C111.589 117.34 112.256 116.646 112.256 115.667C112.256 114.688 111.589 113.994 110.648 113.994C109.702 113.994 109.034 114.688 109.034 115.667ZM109.527 115.667C109.527 114.941 109.974 114.455 110.648 114.455C111.316 114.455 111.764 114.928 111.764 115.667C111.764 116.406 111.316 116.886 110.648 116.886C109.974 116.886 109.527 116.419 109.527 115.667ZM113.022 114.085V117.249H113.514V115.622C113.514 114.87 113.942 114.468 114.565 114.468C115.116 114.468 115.453 114.759 115.453 115.375V117.249H115.952V115.337C115.952 114.461 115.369 114.033 114.701 114.033C114.059 114.033 113.754 114.338 113.592 114.649H113.501V114.085H113.022ZM116.419 114.085V114.52H117.378V116.75C117.378 117.055 117.573 117.249 117.865 117.249H118.701V116.815H118.046C117.93 116.815 117.878 116.756 117.878 116.627V114.52H118.883V114.085H117.878V112.944H117.378V114.085H116.419ZM119.458 114.947L119.893 115.148C120.074 114.734 120.405 114.442 120.975 114.442C121.546 114.442 121.87 114.746 121.87 115.226V115.349L120.619 115.466C119.886 115.538 119.413 115.829 119.413 116.406C119.413 116.977 119.906 117.34 120.593 117.34C121.274 117.34 121.63 117.022 121.786 116.718H121.877V117.249H122.363V115.252C122.363 114.494 121.844 113.994 120.988 113.994C120.197 113.994 119.692 114.455 119.458 114.947ZM119.912 116.393C119.912 116.037 120.243 115.901 120.684 115.862L121.87 115.751V115.816C121.87 116.471 121.423 116.919 120.658 116.919C120.217 116.919 119.912 116.737 119.912 116.393ZM123.091 115.667C123.091 116.64 123.791 117.34 124.738 117.34C125.626 117.34 126.119 116.75 126.248 116.121L125.756 116.024C125.665 116.491 125.373 116.886 124.738 116.886C124.07 116.886 123.59 116.387 123.59 115.667C123.59 114.954 124.07 114.455 124.725 114.455C125.315 114.455 125.684 114.818 125.743 115.311L126.235 115.213C126.119 114.526 125.555 113.994 124.725 113.994C123.791 113.994 123.091 114.695 123.091 115.667ZM126.563 114.085V114.52H127.522V116.75C127.522 117.055 127.717 117.249 128.008 117.249H128.845V116.815H128.19C128.073 116.815 128.021 116.756 128.021 116.627V114.52H129.026V114.085H128.021V112.944H127.522V114.085H126.563ZM129.66 114.909C129.66 115.505 130.134 115.726 130.827 115.823L131.126 115.868C131.541 115.927 131.936 115.985 131.936 116.335C131.936 116.679 131.586 116.906 131.067 116.906C130.497 116.906 130.069 116.601 129.861 116.076L129.414 116.303C129.647 116.802 130.16 117.34 131.054 117.34C131.878 117.34 132.435 116.932 132.435 116.322C132.435 115.713 131.917 115.525 131.184 115.414L130.886 115.369C130.497 115.311 130.153 115.252 130.153 114.902C130.153 114.584 130.451 114.416 130.86 114.416C131.288 114.416 131.703 114.617 132.04 115.09L132.422 114.831C131.943 114.247 131.489 113.994 130.853 113.994C130.205 113.994 129.66 114.325 129.66 114.909Z" fill="#E1E1E7"/>
<path d="M86.0158 124.279L82.2805 130.111H84.3769L86.8544 126.051H87.0831V137.619H88.9888V124.279H86.0158ZM100.8 133.274C100.8 130.53 98.8366 128.758 96.6069 128.758C94.7201 128.758 93.8625 129.672 93.4052 130.396H93.1765V128.605C93.1765 126.928 94.2628 125.765 96.0732 125.765C97.8837 125.765 98.7032 126.718 98.7032 128.167H100.609C100.609 125.594 98.7985 124.012 96.0732 124.012C93.2908 124.012 91.2707 125.899 91.2707 128.624V133.293C91.2707 136.038 93.3099 137.886 95.997 137.886C98.7604 137.886 100.8 136.019 100.8 133.274ZM95.997 130.435C97.7313 130.435 98.8938 131.578 98.8938 133.274C98.8938 134.97 97.7313 136.133 95.997 136.133C94.339 136.133 93.1765 134.97 93.1765 133.274C93.1765 131.578 94.339 130.435 95.997 130.435ZM102.401 136.4C102.401 137.295 103.087 137.829 103.868 137.829C104.021 137.829 104.116 137.81 104.192 137.791V138.382C104.192 138.763 104.021 138.953 103.678 138.953H102.477V140.021H103.83C104.726 140.021 105.374 139.354 105.374 138.458V136.362C105.374 135.485 104.745 134.913 103.888 134.913C103.068 134.913 102.401 135.485 102.401 136.4ZM107.353 127.595C107.353 129.463 108.687 130.244 109.602 130.549V130.778C108.611 131.044 107.125 132.035 107.125 134.017C107.125 136.304 109.145 137.886 112.003 137.886C114.862 137.886 116.882 136.304 116.882 134.017C116.882 132.035 115.396 131.044 114.405 130.778V130.549C115.319 130.244 116.654 129.463 116.654 127.595C116.654 125.461 114.824 124.012 112.003 124.012C109.183 124.012 107.353 125.461 107.353 127.595ZM109.259 127.786C109.259 126.566 110.307 125.765 112.003 125.765C113.7 125.765 114.748 126.566 114.748 127.786C114.748 129.005 113.7 129.806 112.003 129.806C110.307 129.806 109.259 129.005 109.259 127.786ZM109.03 133.846C109.03 132.436 110.193 131.559 112.003 131.559C113.814 131.559 114.976 132.436 114.976 133.846C114.976 135.256 113.814 136.133 112.003 136.133C110.193 136.133 109.03 135.256 109.03 133.846ZM117.872 124.279V126.032H125.228L120.064 137.619H122.122L127.325 125.956V124.279H117.872ZM128.288 129.463V132.436C128.288 135.866 130.194 137.886 133.281 137.886C136.369 137.886 138.274 135.866 138.274 132.436V129.463C138.274 126.032 136.292 124.012 133.281 124.012C130.194 124.012 128.288 126.032 128.288 129.463ZM130.194 129.425C130.194 127.061 131.223 125.765 133.281 125.765C135.339 125.765 136.369 127.061 136.369 129.425V132.474C136.369 134.837 135.339 136.133 133.281 136.133C131.223 136.133 130.194 134.837 130.194 132.474V129.425Z" fill="white"/>
<mask id="path-11-inside-1" fill="white">
<path d="M172 126C172 160.242 144.242 188 110 188C75.7583 188 48 160.242 48 126C48 91.7583 75.7583 64 110 64C144.242 64 172 91.7583 172 126ZM67.84 126C67.84 149.284 86.7157 168.16 110 168.16C133.284 168.16 152.16 149.284 152.16 126C152.16 102.716 133.284 83.84 110 83.84C86.7157 83.84 67.84 102.716 67.84 126Z"/>
</mask>
<path d="M172 126C172 160.242 144.242 188 110 188C75.7583 188 48 160.242 48 126C48 91.7583 75.7583 64 110 64C144.242 64 172 91.7583 172 126ZM67.84 126C67.84 149.284 86.7157 168.16 110 168.16C133.284 168.16 152.16 149.284 152.16 126C152.16 102.716 133.284 83.84 110 83.84C86.7157 83.84 67.84 102.716 67.84 126Z" fill="#C4C4C4" stroke="#55556A" stroke-width="51.3159" mask="url(#path-11-inside-1)"/>
<mask id="path-12-inside-2" fill="white">
<path d="M107.595 187.953C92.7712 187.378 78.6452 181.506 67.7812 171.405C56.9171 161.303 50.0353 147.64 48.3849 132.898C46.7345 118.155 50.4249 103.309 58.7863 91.0549C67.1477 78.8009 79.6257 69.9511 93.9552 66.1121L99.0896 85.2762C89.3455 87.8868 80.8604 93.9046 75.1747 102.237C69.489 110.57 66.9794 120.665 68.1017 130.69C69.224 140.715 73.9036 150.006 81.2912 156.875C88.6787 163.744 98.2844 167.737 108.365 168.128L107.595 187.953Z"/>
</mask>
<path d="M107.595 187.953C92.7712 187.378 78.6452 181.506 67.7812 171.405C56.9171 161.303 50.0353 147.64 48.3849 132.898C46.7345 118.155 50.4249 103.309 58.7863 91.0549C67.1477 78.8009 79.6257 69.9511 93.9552 66.1121L99.0896 85.2762C89.3455 87.8868 80.8604 93.9046 75.1747 102.237C69.489 110.57 66.9794 120.665 68.1017 130.69C69.224 140.715 73.9036 150.006 81.2912 156.875C88.6787 163.744 98.2844 167.737 108.365 168.128L107.595 187.953Z" fill="#C4C4C4" stroke="#5445FF" stroke-width="51.3159" mask="url(#path-12-inside-2)"/>
<mask id="path-13-inside-3" fill="white">
<path d="M136.463 182.069C150.473 175.457 161.499 163.84 167.372 149.505C173.245 135.17 173.538 119.157 168.196 104.616C162.853 90.0756 152.26 78.062 138.503 70.9403C124.746 63.8186 108.822 62.1049 93.8644 66.1365L99.0278 85.2928C109.199 82.5513 120.027 83.7167 129.382 88.5594C138.737 93.4021 145.94 101.571 149.573 111.459C153.206 121.346 153.006 132.236 149.013 141.983C145.019 151.731 137.521 159.63 127.995 164.127L136.463 182.069Z"/>
</mask>
<path d="M136.463 182.069C150.473 175.457 161.499 163.84 167.372 149.505C173.245 135.17 173.538 119.157 168.196 104.616C162.853 90.0756 152.26 78.062 138.503 70.9403C124.746 63.8186 108.822 62.1049 93.8644 66.1365L99.0278 85.2928C109.199 82.5513 120.027 83.7167 129.382 88.5594C138.737 93.4021 145.94 101.571 149.573 111.459C153.206 121.346 153.006 132.236 149.013 141.983C145.019 151.731 137.521 159.63 127.995 164.127L136.463 182.069Z" fill="#C4C4C4" stroke="#857AFF" stroke-width="51.3159" mask="url(#path-13-inside-3)"/>
<rect x="285" y="35" width="237" height="182" rx="20" fill="#39394B"/>
<path d="M319.121 186.937H318.294V191.881C318.294 192.779 317.951 193.385 316.942 193.385C315.943 193.385 315.478 192.779 315.478 191.881V191.336H314.651V191.881C314.651 193.344 315.499 194.141 316.942 194.141C318.384 194.141 319.121 193.344 319.121 191.881V186.937ZM320.422 190.418L321.098 190.731C321.38 190.085 321.895 189.631 322.783 189.631C323.671 189.631 324.175 190.105 324.175 190.852V191.044L322.228 191.225C321.088 191.336 320.351 191.79 320.351 192.688C320.351 193.576 321.118 194.141 322.188 194.141C323.247 194.141 323.802 193.647 324.044 193.173H324.185V194H324.942V190.892C324.942 189.712 324.135 188.935 322.803 188.935C321.572 188.935 320.785 189.651 320.422 190.418ZM321.128 192.668C321.128 192.113 321.643 191.901 322.329 191.841L324.175 191.669V191.77C324.175 192.789 323.479 193.485 322.288 193.485C321.602 193.485 321.128 193.203 321.128 192.668ZM326.397 189.076V194H327.164V191.467C327.164 190.297 327.83 189.671 328.799 189.671C329.657 189.671 330.181 190.125 330.181 191.084V194H330.958V191.023C330.958 189.661 330.05 188.995 329.011 188.995C328.012 188.995 327.538 189.47 327.285 189.954H327.144V189.076H326.397Z" fill="#EFF0F7"/>
<path d="M355.145 186.937V194H355.972V190.832H359.292V190.085H355.972V187.694H359.484V186.937H355.145ZM360.192 191.498C360.192 192.991 361.211 194.141 362.745 194.141C363.976 194.141 364.581 193.465 364.934 192.83L364.258 192.476C363.986 193.041 363.542 193.455 362.735 193.455C361.746 193.455 361.06 192.819 360.999 191.79H365.025V191.377C365.025 189.924 364.057 188.925 362.644 188.925C361.221 188.925 360.192 190.055 360.192 191.498ZM360.999 191.155C361.09 190.186 361.716 189.611 362.644 189.611C363.582 189.611 364.198 190.176 364.218 191.155H360.999ZM366.171 186.937V194H366.918V193.163H367.059C367.341 193.647 367.836 194.141 368.855 194.141C370.167 194.141 371.186 193.082 371.186 191.538C371.186 189.994 370.167 188.935 368.855 188.935C367.836 188.935 367.341 189.429 367.059 189.924H366.938V186.937H366.171ZM368.673 189.631C369.702 189.631 370.409 190.347 370.409 191.538C370.409 192.739 369.702 193.445 368.673 193.445C367.634 193.445 366.938 192.708 366.938 191.538C366.938 190.378 367.634 189.631 368.673 189.631Z" fill="#EFF0F7"/>
<path d="M395.123 186.937V194H395.95V187.845H396.071L398.12 194H399.361L401.409 187.845H401.53V194H402.357V186.937H400.854L398.796 193.112H398.674L396.626 186.937H395.123ZM403.691 190.418L404.367 190.731C404.649 190.085 405.164 189.631 406.052 189.631C406.94 189.631 407.444 190.105 407.444 190.852V191.044L405.497 191.225C404.357 191.336 403.62 191.79 403.62 192.688C403.62 193.576 404.387 194.141 405.456 194.141C406.516 194.141 407.071 193.647 407.313 193.173H407.454V194H408.211V190.892C408.211 189.712 407.404 188.935 406.072 188.935C404.841 188.935 404.054 189.651 403.691 190.418ZM404.397 192.668C404.397 192.113 404.911 191.901 405.598 191.841L407.444 191.669V191.77C407.444 192.789 406.748 193.485 405.557 193.485C404.871 193.485 404.397 193.203 404.397 192.668ZM410.403 189.076H409.666V194H410.433V191.034C410.433 190.216 410.857 189.803 411.583 189.803H412.431V189.056H411.816C411.109 189.056 410.726 189.318 410.544 189.813H410.403V189.076Z" fill="#EFF0F7"/>
<path d="M436.888 186.937L434.567 194H435.455L436.02 192.214H439.037L439.602 194H440.49L438.169 186.937H436.888ZM436.252 191.467L437.463 187.684H437.584L438.795 191.467H436.252ZM441.429 196.018H442.196V193.163H442.317C442.599 193.647 443.094 194.141 444.113 194.141C445.425 194.141 446.444 193.082 446.444 191.538C446.444 189.994 445.425 188.935 444.113 188.935C443.094 188.935 442.599 189.429 442.317 189.924H442.176V189.076H441.429V196.018ZM443.931 193.445C442.892 193.445 442.196 192.708 442.196 191.538C442.196 190.378 442.892 189.631 443.931 189.631C444.96 189.631 445.667 190.347 445.667 191.538C445.667 192.739 444.96 193.445 443.931 193.445ZM448.373 189.076H447.637V194H448.403V191.034C448.403 190.216 448.827 189.803 449.554 189.803H450.401V189.056H449.786C449.08 189.056 448.696 189.318 448.514 189.813H448.373V189.076Z" fill="#EFF0F7"/>
<path d="M472.834 186.937V194H473.662V187.845H473.783L475.831 194H477.072L479.121 187.845H479.242V194H480.069V186.937H478.566L476.507 193.112H476.386L474.338 186.937H472.834ZM481.402 190.418L482.078 190.731C482.361 190.085 482.875 189.631 483.763 189.631C484.651 189.631 485.156 190.105 485.156 190.852V191.044L483.208 191.225C482.068 191.336 481.332 191.79 481.332 192.688C481.332 193.576 482.099 194.141 483.168 194.141C484.228 194.141 484.782 193.647 485.025 193.173H485.166V194H485.923V190.892C485.923 189.712 485.115 188.935 483.784 188.935C482.553 188.935 481.766 189.651 481.402 190.418ZM482.109 192.668C482.109 192.113 482.623 191.901 483.309 191.841L485.156 191.669V191.77C485.156 192.789 484.46 193.485 483.269 193.485C482.583 193.485 482.109 193.203 482.109 192.668ZM490.846 189.076L489.201 193.021H489.08L487.435 189.076H486.598L488.737 194.071L487.869 196.018H488.706L491.683 189.076H490.846Z" fill="#EFF0F7"/>
<line x1="302.5" y1="55.5" x2="504.107" y2="55.5" stroke="#616174" stroke-linecap="round" stroke-dasharray="8 8"/>
<line x1="302.5" y1="86" x2="504.107" y2="86" stroke="#616174" stroke-linecap="round" stroke-dasharray="8 8"/>
<line x1="302.5" y1="116.5" x2="504.107" y2="116.5" stroke="#616174" stroke-linecap="round" stroke-dasharray="8 8"/>
<line x1="302.5" y1="147" x2="504.107" y2="147" stroke="#616174" stroke-linecap="round" stroke-dasharray="8 8"/>
<line x1="302.5" y1="177.5" x2="504.107" y2="177.5" stroke="#616174" stroke-linecap="round" stroke-dasharray="8 8"/>
<rect x="313.982" y="137.697" width="8.71429" height="39.7815" rx="4.35714" fill="#5445FF"/>
<rect x="327.055" y="146.411" width="8.71429" height="31.5893" rx="4.35714" fill="#ADA6FF"/>
<rect x="353.197" y="76.6965" width="8.71429" height="100.781" rx="4.35714" fill="#5445FF"/>
<rect x="366.27" y="95.2144" width="8.71429" height="82.7857" rx="4.35714" fill="#ADA6FF"/>
<rect x="392.41" y="97.3928" width="8.71429" height="80.0851" rx="4.35714" fill="#5445FF"/>
<rect x="405.482" y="121.357" width="8.71429" height="56.6429" rx="4.35714" fill="#ADA6FF"/>
<rect x="431.625" y="69.0715" width="8.71429" height="108.929" rx="4.35714" fill="#5445FF"/>
<rect x="444.697" y="83.2322" width="8.71429" height="94.7679" rx="4.35714" fill="#ADA6FF"/>
<rect x="470.84" y="56" width="8.71429" height="121.478" rx="4.35714" fill="#5445FF"/>
<rect x="483.928" y="109.494" width="8.71429" height="67.9844" rx="4.35714" fill="#ADA6FF"/>
<rect x="32" y="231" width="237" height="182" rx="20" fill="#39394B"/>
<path d="M108.379 357.859C108.633 357.84 108.89 357.79 109.141 357.812C111.826 358.057 114.514 358.295 117.195 358.57C118.937 358.749 120.676 358.99 122.415 359.188C123.693 359.332 123.956 359.169 124.032 357.928C124.179 355.475 124.226 353.016 124.354 350.563C124.442 348.902 124.561 347.242 124.733 345.591C125.056 342.448 125.441 339.315 125.767 336.176C125.836 335.521 126.096 335.346 126.732 335.415C130.031 335.769 133.333 336.098 136.635 336.405C137.231 336.461 137.365 336.706 137.321 337.266C137.118 339.857 136.98 342.455 136.758 345.045C136.689 345.851 136.955 346.321 137.679 346.599C139.825 347.423 141.761 348.767 144.082 349.165C144.436 349.225 144.75 349.522 145.088 349.689C145.555 349.917 146.012 350.199 146.51 350.328C147.319 350.534 148.168 350.572 148.973 350.788C150.881 351.299 152.742 351.399 154.603 350.569C156.213 349.851 157.776 350.017 159.333 350.854C159.932 351.174 160.505 351.412 161.185 351.54C161.718 351.64 161.83 351.878 161.821 352.392C161.783 354.175 161.708 355.889 162.009 357.618C162.319 359.404 162.742 360.209 163.419 361.913C163.698 362.612 163.676 363.953 163.4 364.604C162.971 365.607 162.971 366.75 162.82 367.841C162.692 368.79 162.792 369.771 162.792 370.949C162.134 370.591 161.53 370.303 160.969 369.949C160.668 369.761 160.414 369.479 160.173 369.213C159.622 368.599 159.083 368.555 158.444 369.11C158.181 369.338 157.789 369.407 157.482 369.595C157.266 369.73 157.093 369.937 156.902 370.112C157.078 370.3 157.228 370.519 157.432 370.667C157.902 371.008 158.453 371.259 158.87 371.653C159.487 372.239 159.34 372.806 158.641 373.286C157.917 373.781 157.19 374.298 156.57 374.912C155.492 375.986 154.352 376.854 152.745 376.867C152.444 376.87 152.143 376.976 151.846 377.045C151.269 377.18 151.015 377.537 151.05 378.139C151.094 378.941 150.633 379.436 149.8 379.501C149.496 379.527 149.18 379.476 148.882 379.53C148.65 379.57 148.24 379.733 148.246 379.809C148.356 380.817 146.902 381.513 147.673 382.653C147.723 382.728 147.579 382.998 147.46 383.111C147.259 383.302 147.015 383.443 146.78 383.596C145.542 384.401 145.583 384.426 146.119 385.752C146.385 386.406 146.372 387.174 146.532 387.879C146.77 388.935 147.046 389.978 147.356 391.225C146.579 391.037 145.887 390.959 145.27 390.702C143.756 390.069 142.271 389.358 140.783 388.668C139.709 388.17 139.113 387.306 138.957 386.137C138.841 385.279 138.816 384.405 138.628 383.562C138.515 383.057 138.296 382.399 137.914 382.168C137.024 381.635 136.626 380.824 136.181 379.984C134.997 377.738 133.885 375.447 132.556 373.292C131.005 370.773 128.505 370.015 125.698 370.181C124.642 370.244 123.875 370.92 123.267 371.794C122.857 372.387 122.418 372.988 121.876 373.442C121.625 373.652 120.989 373.684 120.701 373.508C119.63 372.863 118.493 372.23 117.65 371.334C116.898 370.535 116.325 369.457 115.989 368.402C114.924 365.062 112.947 362.349 110.513 359.927C109.849 359.266 109.069 358.718 108.342 358.119C108.354 358.022 108.367 357.941 108.379 357.859Z" fill="#5445FF"/>
<path d="M50.8497 327.683C51.4544 329.099 51.9024 330.577 52.4851 332.003C52.6261 332.344 53.0115 332.611 53.3341 332.843C54.0767 333.372 54.8818 333.817 55.6055 334.368C56.489 335.042 57.3568 335.747 58.1526 336.517C59.2523 337.58 60.0449 338.924 61.2385 339.907C61.2573 339.923 61.2667 339.954 61.2761 339.982C61.7837 341.549 62.7611 342.965 62.7392 344.698C62.7329 345.218 62.9773 345.471 63.5444 345.537C64.9949 345.709 66.4423 345.935 67.8804 346.186C69.6693 346.499 71.4456 346.862 73.41 347.235C73.4789 346.612 73.5917 345.869 73.6418 345.121C73.7013 344.215 73.7859 343.35 74.4063 342.595C74.9013 341.991 75.3367 341.32 75.7096 340.634C75.9101 340.268 76.1012 339.738 75.9884 339.384C75.531 337.974 75.1582 336.477 74.3812 335.246C69.3654 327.278 64.2493 319.377 59.1927 311.438C58.986 311.113 58.8857 310.589 58.9797 310.217C59.6971 307.356 60.4741 304.508 61.2291 301.657C61.7429 299.709 62.2505 297.757 62.7831 295.724C58.0273 294.267 53.3467 292.835 48.6504 291.397C48.0082 293.671 47.2813 295.677 46.0375 297.434C45.5958 298.058 45.4266 298.637 45.4955 299.38C45.6491 300.971 45.6961 302.569 45.2355 304.123C44.7812 305.658 45.0256 307.099 45.6146 308.556C45.931 309.339 46.0939 310.207 46.1942 311.053C46.3258 312.175 46.8396 312.635 47.9392 312.425C48.6379 312.291 48.876 312.551 48.8572 313.315C48.8447 313.769 48.8415 314.255 48.9856 314.675C49.2112 315.336 49.0514 315.608 48.3246 315.558C47.9831 315.536 47.6447 315.524 47.3032 315.508C47.2406 315.586 47.1748 315.665 47.1121 315.746C47.5539 316.504 47.9612 317.291 48.4499 318.018C48.9324 318.732 49.0138 319.365 48.4906 320.101C48.1178 320.624 47.817 321.21 48.1241 321.912C48.5063 322.786 48.8227 323.691 49.2363 324.55L50.8497 327.683Z" fill="#5445FF"/>
<path d="M105.547 267.671C106.067 267.846 106.575 268.122 107.107 268.185C111.208 268.658 115.309 269.122 119.417 269.519C121.456 269.717 123.511 269.786 125.56 269.895C126.09 269.924 126.284 270.093 126.225 270.672C125.607 276.822 125.022 282.975 124.423 289.128C124.389 289.489 124.317 289.843 124.248 290.306C122.653 290.106 121.102 289.915 119.551 289.717C112.834 288.865 106.117 288.013 99.4004 287.148C98.7832 287.07 98.5012 287.321 98.4041 287.878C98.332 288.301 98.1378 288.561 97.6647 288.424C96.1171 287.969 94.6039 288.245 93.1095 288.662C92.5988 288.806 92.2949 288.684 92.132 288.185C91.7216 286.932 91.2892 285.682 90.9101 284.42C90.8349 284.172 90.9164 283.862 90.9665 283.589C91.261 282.045 90.6908 281.406 89.1338 281.547C88.9708 281.562 88.8079 281.569 88.5134 281.584C88.7954 280.303 88.927 279.037 89.3625 277.887C89.9421 276.362 89.1933 275.369 88.3223 274.344C88.2691 274.281 88.2064 274.219 88.1375 274.172C85.6875 272.536 85.4776 270.049 85.6656 267.464C85.7502 266.302 86.0604 265.152 86.2922 263.88C87.0754 264.062 87.7772 264.218 88.4758 264.388C92.0536 265.255 95.6158 266.18 99.2093 266.975C101.07 267.389 102.981 267.586 104.87 267.853C105.09 267.884 105.337 267.718 105.572 267.643C105.575 267.649 105.547 267.671 105.547 267.671Z" fill="#5445FF"/>
<path d="M96.6758 358.489C98.1953 349.228 99.6959 340.068 101.219 330.779C109.189 331.568 117.106 332.351 125.151 333.15C125.066 333.745 124.969 334.281 124.916 334.826C124.424 339.714 123.913 344.598 123.472 349.492C123.306 351.309 123.384 351.315 123.613 351.691C123.444 352.045 123.265 352.255 123.252 352.477C123.146 354.16 123.046 355.842 123.002 357.528C122.983 358.22 122.676 358.377 122.059 358.311C119.114 357.991 116.166 357.69 113.218 357.387C111.654 357.227 110.088 357.064 108.521 356.935C108.239 356.913 107.798 356.964 107.682 357.142C107.234 357.831 106.657 357.647 106.046 357.549C104.242 357.271 102.434 357.029 100.63 356.754C100.015 356.66 99.7053 356.86 99.5643 357.496C99.273 358.815 99.2417 358.809 97.9258 358.659C97.5405 358.618 97.1645 358.558 96.6758 358.489Z" fill="#584FC7"/>
<path d="M227.089 384.232C226.939 383.574 227.161 382.841 227.127 382.149C227.095 381.503 227.092 380.798 226.832 380.231C225.823 378.038 224.714 375.892 223.643 373.727C222.534 371.487 221.468 369.225 220.297 367.02C219.902 366.277 219.347 365.71 219.658 364.726C220.228 362.909 218.74 361.318 216.644 361.966C216.628 362.101 216.609 362.239 216.59 362.38C216.443 363.567 216.337 363.633 215.127 363.407C214.335 363.26 213.53 363.172 212.737 363.01C212.546 362.969 212.395 362.734 212.226 362.587L211.951 362.615C211.938 362.79 211.459 363.053 211.183 363.072C209.05 363.204 206.916 363.301 204.779 363.37C202.997 363.429 202.994 363.404 202.38 361.681C202.094 361.734 201.853 361.791 201.609 361.825C199.334 362.17 197.06 362.53 194.779 362.85C193.974 362.963 193.153 362.972 192.338 363.022C191.765 363.057 191.605 363.273 191.853 363.837C192.526 365.375 192.658 365.478 194.312 365.243C195.033 365.14 195.744 364.974 196.461 364.845C196.706 364.802 196.997 364.698 197.201 364.78C198.642 365.365 200.306 365.331 201.465 366.75C202.007 367.411 203.178 367.662 204.115 367.853C204.532 367.938 205.102 367.465 205.55 367.17C207.373 365.961 209.466 366.581 210.904 367.844C211.828 368.652 212.828 369.372 213.765 370.165C214.04 370.397 214.376 370.726 214.413 371.042C214.582 372.462 214.683 373.893 214.755 375.325C214.786 375.933 214.996 376.343 215.566 376.566C216.133 376.788 216.384 377.177 216.29 377.819C216.058 379.388 216.675 380.607 217.916 381.547C218.113 381.697 218.417 381.901 218.417 382.08C218.42 382.938 219.019 383.345 219.561 383.831C219.774 384.022 219.952 384.342 219.996 384.624C220.115 385.404 220.61 385.711 221.281 386.005C221.835 386.253 222.368 386.691 222.737 387.18C223.185 387.775 223.53 388.483 223.777 389.191C224.006 389.846 224.407 390.081 224.977 389.852C225.413 389.68 225.942 389.376 226.121 388.991C226.801 387.497 227.49 385.99 227.089 384.232Z" fill="#C6C1FF"/>
<path d="M219.242 353.677C218.23 352.938 217.641 351.913 217.039 350.854C216.519 349.939 215.94 349.012 215.2 348.279C213.242 346.343 211.174 344.516 209.173 342.627C208.408 341.907 207.305 341.362 207.731 339.842C204.649 340.13 201.732 340.406 198.73 340.685C199.395 343.304 200.002 345.697 200.61 348.091C201.024 349.717 201.35 351.352 202.362 352.781C202.684 353.235 202.578 354.012 202.603 354.645C202.64 355.648 202.524 356.663 202.647 357.65C202.8 358.9 203.195 360.122 203.355 361.372C203.467 362.264 203.887 362.437 204.686 362.393C206.82 362.277 208.956 362.221 211.093 362.155C211.456 362.142 211.995 361.986 211.951 362.606L212.227 362.578C212.381 362.405 212.509 362.133 212.694 362.086C212.976 362.011 213.305 362.061 213.603 362.114C214.226 362.224 214.843 362.368 215.514 362.509C215.573 362.252 215.667 362.061 215.655 361.879C215.589 360.895 216.209 360.783 216.955 360.833C217.5 360.867 218.042 360.924 218.637 360.974C218.628 358.734 218.759 356.622 219.499 354.586C219.59 354.341 219.452 353.831 219.242 353.677Z" fill="#525268"/>
<path d="M80.6715 326.716C87.2162 328.01 93.6983 329.288 100.277 330.588C98.7611 339.865 97.2573 349.054 95.7378 358.358C94.5442 358.205 93.4414 358.076 92.3417 357.923C91.0885 357.748 89.8322 357.588 88.5947 357.34C87.9807 357.218 87.3478 357.005 86.8215 356.676C83.1215 354.38 79.4465 352.046 75.7653 349.721C75.5523 349.586 75.3424 349.445 75.1388 349.292C74.014 348.446 74.0234 348.446 74.3555 347.133C74.4464 346.782 74.5278 346.413 74.5153 346.055C74.4683 344.53 74.8756 343.151 75.9157 342.033C77.1846 340.667 77.2692 339.229 76.4139 337.634C76.0066 336.873 75.969 336.165 76.3418 335.262C76.7178 334.351 76.6394 333.232 76.6614 332.202C76.6927 330.895 76.793 330.789 77.9929 331.234C79.4371 331.772 79.7222 331.597 80.0011 330.046C80.1985 328.975 80.4303 327.906 80.6715 326.716Z" fill="#A79FFF"/>
<path d="M79.0113 330.562C78.5069 330.392 78.1654 330.276 77.8239 330.164C76.53 329.728 75.7561 330.27 75.7092 331.655C75.681 332.498 75.6904 333.34 75.6622 334.183C75.6559 334.424 75.5807 334.663 75.493 335.167C74.4403 333.525 73.5192 332.094 72.5981 330.659C68.989 325.026 65.383 319.396 61.7739 313.763C61.1911 312.854 60.5896 311.958 60.0382 311.034C59.9129 310.824 59.8753 310.492 59.938 310.254C61.1441 305.633 62.3723 301.015 63.6004 296.4C63.6286 296.297 63.7006 296.206 63.6912 296.221C70.6871 297.775 77.6202 299.314 84.685 300.883C82.8021 310.752 80.9192 320.589 79.0113 330.562Z" fill="#7D72FF"/>
<path d="M104.701 309.512C105.111 309.552 105.415 309.578 105.713 309.615C107.849 309.878 109.989 310.138 112.123 310.408C113.683 310.605 115.243 310.824 116.803 311.031C117.765 311.157 118.727 311.304 119.695 311.382C120.09 311.413 120.497 311.291 120.776 311.254C121.095 311.401 121.34 311.583 121.606 311.623C124.162 312.009 126.716 312.394 129.278 312.723C129.952 312.811 130.19 313.043 130.146 313.726C129.893 317.648 129.67 321.574 129.432 325.499C129.291 327.796 129.141 330.089 128.984 332.564C119.77 331.652 110.625 330.75 101.367 329.835C102.492 322.999 103.592 316.285 104.701 309.512Z" fill="#C6C1FF"/>
<path d="M124.21 291.268C123.552 297.797 122.906 304.214 122.239 310.852C113.548 309.693 104.945 308.547 96.2012 307.378C96.4079 306.228 96.6147 305.194 96.7776 304.151C97.5076 299.492 98.2125 294.827 98.9519 290.169C99.284 288.079 99.3028 288.11 101.377 288.377C108.254 289.257 115.137 290.115 122.017 290.983C122.728 291.077 123.445 291.168 124.21 291.268Z" fill="#A79FFF"/>
<path d="M74.064 297.685C71.7143 297.111 69.4586 296.651 67.2592 296.005C61.7641 294.398 56.2908 292.709 50.8113 291.052C50.7581 291.036 50.7048 291.018 50.6516 291.002C48.5995 290.46 48.5932 290.46 48.7405 288.355C48.7843 287.712 48.8439 287.064 48.9661 286.431C49.0381 286.058 49.2104 285.685 49.4141 285.36C49.9592 284.489 50.6766 283.702 51.0933 282.778C52.5188 279.604 53.8566 276.393 55.2037 273.185C55.4544 272.593 55.6893 272.248 56.4381 272.511C57.1994 272.778 58.1831 272.471 58.6938 273.367C58.8943 273.718 59.1042 274.115 59.1355 274.507C59.2515 275.98 59.853 276.681 61.3568 276.954C61.6043 276.998 61.8643 277.045 62.1118 277.02C63.1802 276.913 64.0511 277.208 65.0035 277.797C66.4008 278.661 68.0268 278.298 69.5745 277.916C70.0256 277.803 70.53 277.787 70.9906 277.853C72.2594 278.032 73.5188 278.263 74.7783 278.505C75.4268 278.63 76.0597 278.824 76.6988 278.987C77.5666 279.206 78.472 279.335 79.2866 279.68C79.7847 279.889 80.2985 280.356 80.5241 280.839C80.806 281.447 80.1199 281.616 79.7095 281.895C78.8072 282.502 77.7201 282.997 77.1186 283.834C76.5609 284.605 76.5202 285.754 76.2884 286.747C76.2069 287.095 76.2852 287.477 76.21 287.828C75.596 290.707 74.96 293.584 74.3334 296.463C74.252 296.817 74.1768 297.171 74.064 297.685Z" fill="#525268"/>
<path d="M80.9453 325.803C82.5055 317.504 84.0407 309.343 85.5977 301.05C86.6473 301.257 87.6811 301.448 88.7119 301.661C90.8297 302.103 92.9413 302.579 95.0654 302.992C95.7453 303.124 96.0273 303.331 95.833 304.095C95.598 305.016 95.5166 305.978 95.3631 306.921C95.172 308.115 95.2315 308.187 96.4533 308.353C98.5963 308.641 100.739 308.939 102.882 309.24C103.126 309.274 103.371 309.34 103.75 309.418C102.653 316.138 101.56 322.827 100.445 329.654C93.8969 328.357 87.4399 327.082 80.9453 325.803Z" fill="#584FC7"/>
<path d="M157.773 319.001C157.776 319.208 158.231 319.556 158.152 319.681C157.582 320.593 158.046 321.307 158.672 321.837C159.503 322.538 159.625 323.3 159.562 324.343C159.399 326.978 159.415 329.622 159.358 332.263C159.352 332.535 159.358 332.811 159.358 333.187C159.014 333.187 158.741 333.187 158.472 333.187C151.332 333.165 144.189 333.171 137.049 333.099C134.727 333.074 132.409 332.836 129.959 332.689C130.269 327.564 130.57 322.582 130.88 317.466C131.428 317.513 131.914 317.544 132.4 317.601C139.815 318.465 147.253 318.735 154.709 318.393C155.846 318.34 156.157 318.425 157.294 318.306C157.291 318.309 157.767 318.653 157.773 319.001Z" fill="#73739D"/>
<path d="M174.861 275.206C173.599 275.845 172.443 276.359 171.365 276.998C170.792 277.339 170.234 277.822 169.88 278.376C169.341 279.213 169.018 280.184 168.539 281.064C168.361 281.39 168.022 281.647 167.721 281.888C167.17 282.333 167.017 282.891 166.963 283.583C166.916 284.16 166.741 284.827 166.387 285.256C165.362 286.497 165.03 287.75 165.613 289.313C165.898 290.078 165.832 290.971 165.945 291.804C166.161 293.418 166.597 293.9 168.201 294.144C168.893 294.251 169.191 294.611 169.551 295.194C170.002 295.927 170.801 296.441 171.415 297.08C171.707 297.384 171.92 297.769 172.167 298.117C172.104 298.195 172.042 298.274 171.979 298.352C165.757 298.609 159.538 298.863 153.351 299.119C153.351 298.017 153.354 297.02 153.351 296.021C153.341 294.057 153.351 292.092 153.307 290.128C153.285 289.163 152.912 288.339 152.116 287.712C151.931 287.565 151.806 287.167 151.856 286.929C152.173 285.397 152.182 283.89 151.947 282.33C151.775 281.187 151.997 279.99 151.975 278.818C151.966 278.351 151.863 277.837 151.643 277.436C150.547 275.444 150.854 273.295 150.847 271.08C151.364 271.08 151.884 271.105 152.401 271.077C154.453 270.958 156.421 271.218 158.291 272.142C159.476 272.725 160.741 272.897 162.066 272.75C163.674 272.571 165.209 272.944 166.65 273.627C168.549 274.526 170.453 275.068 172.596 274.576C173.298 274.41 174.203 274.338 174.861 275.206Z" fill="#73739D"/>
<path d="M124.223 300.745C124.721 295.745 125.206 290.867 125.679 286.133C134.066 286.478 142.362 286.823 150.558 287.161C150.956 287.665 151.485 288.157 151.792 288.765C152.121 289.42 152.397 290.175 152.416 290.892C152.513 294.313 152.648 297.744 151.821 301.121C151.658 301.782 151.702 302.493 151.648 303.208C150.762 302.97 149.963 302.691 149.145 302.553C148.522 302.446 147.814 302.362 147.24 302.553C146.492 302.801 145.912 302.647 145.348 302.249C144.574 301.704 143.75 301.532 142.807 301.579C136.902 301.867 131.018 301.532 125.147 300.893C124.871 300.861 124.602 300.808 124.223 300.745Z" fill="#525268"/>
<path d="M83.5144 263.194C83.6867 263.179 83.7463 263.157 83.7964 263.169C85.7325 263.627 85.4568 263.473 85.0809 265.096C84.4982 267.599 84.4449 270.055 85.4098 272.458C85.6385 273.029 86.0834 273.524 86.4938 274C86.8228 274.379 87.2802 274.639 87.6248 275.009C88.3235 275.757 88.8749 276.497 88.4237 277.687C88.0008 278.806 87.8567 280.031 87.606 281.209C87.4274 282.058 87.7689 282.496 88.6274 282.546C88.8216 282.559 89.019 282.534 89.2164 282.521C90.128 282.465 90.1186 282.512 90.0403 283.439C89.9902 284.031 90.0654 284.658 90.2095 285.238C90.4539 286.218 90.7672 287.183 91.0993 288.136C91.6319 289.658 92.0673 289.912 93.6275 289.523C94.84 289.223 96.0399 288.985 97.2805 289.314C97.5218 289.376 97.763 289.429 98.0763 289.505C97.4309 293.753 96.7918 297.964 96.1401 302.262C94.3293 301.883 92.5561 301.51 90.7797 301.134C85.861 300.094 80.9454 299.044 76.0204 298.029C75.2999 297.882 75.0398 297.635 75.2184 296.864C75.892 293.938 76.5374 291.005 77.1358 288.064C77.3143 287.193 77.2861 286.281 77.3864 285.391C77.4522 284.805 77.753 284.411 78.3043 284.091C79.2411 283.552 80.1089 282.888 80.9861 282.249C81.5657 281.826 81.8414 280.758 81.3402 280.2C79.8959 278.599 80.4504 276.81 80.795 275.103C81.3934 272.133 82.1735 269.2 82.8659 266.249C83.1009 265.246 83.2951 264.228 83.5144 263.194Z" fill="#C6C1FF"/>
<path d="M131.09 316.417C131.09 315.258 131.059 314.108 131.102 312.962C131.128 312.244 130.827 311.972 130.141 311.884C128.079 311.621 126.024 311.308 123.969 311.01C123.58 310.954 123.186 310.938 123.251 310.333C123.555 307.517 123.828 304.694 124.122 301.761C125.401 301.893 126.616 302.059 127.835 302.134C132.797 302.448 137.76 302.886 142.738 302.51C143.509 302.451 144.17 302.582 144.803 303.027C145.602 303.588 146.46 303.738 147.438 303.481C148.854 303.112 150.126 303.807 151.432 304.196C151.526 304.224 151.626 304.324 151.664 304.418C152.72 306.921 153.807 309.415 154.791 311.947C155.044 312.601 154.96 313.388 155.048 314.111C155.176 315.139 155.48 316.085 156.285 316.806C156.398 316.909 156.448 317.082 156.526 317.222C155.217 317.987 133.878 317.282 131.09 316.417Z" fill="#584FC7"/>
<path d="M67.5765 258.382C68.5885 258.664 69.6035 258.946 70.6155 259.231C70.9914 259.407 71.3517 259.642 71.7465 259.754C75.0423 260.697 78.3413 261.615 81.6403 262.546C81.9567 262.637 82.2669 262.753 82.5175 262.834C81.8752 268.216 79.795 273.226 79.3877 278.74C78.6045 278.524 77.8118 278.305 77.0161 278.085C76.4051 277.916 75.7974 277.716 75.177 277.593C73.7829 277.321 72.3887 277.058 70.982 276.857C70.4557 276.782 69.8824 276.816 69.3686 276.951C67.7363 277.38 66.1761 277.69 64.6723 276.478C64.2525 276.14 63.5225 276.155 62.9273 276.068C62.4041 275.989 61.8558 276.064 61.3483 275.945C60.5682 275.764 60.0387 275.413 60.0763 274.395C60.1296 272.95 58.9108 271.819 57.4791 271.713C57.0436 271.682 56.6175 271.569 56.3262 271.515C56.4264 270.394 56.5079 269.376 56.6207 268.364C56.6426 268.157 56.7742 267.956 56.8807 267.765C57.2974 267.035 57.8206 266.324 57.0937 265.478C57.0092 265.381 57.0468 265.165 57.0499 265.005C57.0749 263.558 57.1063 262.114 57.1313 260.666C57.1376 260.234 57.1313 259.805 57.2567 259.288C58.9077 260.597 61.2511 260.337 62.8395 262.154C62.1534 262.596 61.5112 262.981 60.9065 263.417C60.7217 263.548 60.4742 263.921 60.5274 264.003C60.9786 264.67 61.4078 265.403 62.0187 265.895C62.4323 266.227 63.3784 265.579 63.6698 264.914C63.7481 264.736 63.8452 264.548 63.8609 264.36C63.9361 263.323 64.0551 262.314 64.8603 261.525C64.9887 261.396 65.0075 261.105 64.995 260.892C64.9417 259.917 64.8603 258.943 64.7882 258C65.8346 258.144 66.7056 258.263 67.5765 258.382Z" fill="#7D72FF"/>
<path d="M125.793 284.88C126.266 279.927 126.733 275.071 127.212 270.055C128.378 270.13 129.509 270.218 130.64 270.277C134.427 270.481 138.212 270.709 142 270.863C144.299 270.957 146.605 270.96 148.905 270.951C149.653 270.948 149.907 271.273 149.898 271.95C149.891 272.345 149.932 272.74 149.898 273.128C149.766 274.554 149.938 275.898 150.553 277.223C151.126 278.46 151.248 279.804 151.032 281.183C150.935 281.806 151.032 282.464 151.063 283.103C151.079 283.382 151.157 283.655 151.198 283.934C151.452 285.613 151.098 286.07 149.443 286.026C143.826 285.876 138.209 285.722 132.595 285.513C130.577 285.437 128.562 285.193 126.548 285.018C126.338 285.002 126.122 284.942 125.793 284.88Z" fill="#C6C1FF"/>
<path d="M158.113 318.049C157.577 317.375 157.038 316.705 156.509 316.025C156.418 315.906 156.283 315.699 156.327 315.624C156.405 315.483 156.599 315.323 156.753 315.314C158.354 315.216 159.955 315.144 161.559 315.072C163.439 314.988 165.318 314.866 167.198 314.847C168.818 314.828 170.438 314.931 172.045 314.981C172.173 315.981 172.158 316.82 172.415 317.566C172.706 318.418 173.16 319.245 173.686 319.982C174.301 320.84 175.049 321.608 175.786 322.372C176.061 322.66 176.447 322.88 176.826 323.021C177.455 323.259 177.625 323.6 177.412 324.249C176.732 326.307 176.998 327.046 178.965 327.927C180.263 328.506 180.986 329.311 180.977 330.771C180.971 331.696 181.293 332.488 182.343 332.733C182.227 333.572 182.293 334.334 181.3 334.769C180.92 334.935 180.761 335.803 180.664 336.379C180.485 337.429 180.526 337.441 179.291 337.257C179.338 336.909 179.382 336.561 179.432 336.21C179.57 335.27 179.382 335.023 178.436 335.048C175.206 335.129 171.976 335.233 168.746 335.333C166.277 335.408 163.805 335.48 161.34 335.587C160.76 335.612 160.525 335.427 160.516 334.847C160.481 332.269 160.397 329.691 160.39 327.109C160.387 325.903 160.497 324.697 160.588 323.494C160.644 322.726 160.384 322.159 159.795 321.651C159.275 321.207 158.636 320.787 159.19 319.856C159.532 319.289 158.113 318.049 158.113 318.049Z" fill="#A79FFF"/>
<path d="M160.206 350.114C160.084 350.092 159.99 350.101 159.924 350.061C157.994 348.911 155.982 348.992 154.015 349.838C152.514 350.484 151.061 350.305 149.566 349.992C148.77 349.826 147.956 349.722 147.176 349.5C146.606 349.337 146.086 349.002 145.525 348.786C144.666 348.457 143.789 348.175 142.924 347.861C142.298 347.633 141.671 347.404 141.06 347.138C140.161 346.746 139.287 346.289 138.375 345.925C137.808 345.7 137.624 345.38 137.674 344.779C137.884 342.341 138.053 339.901 138.234 337.463C138.253 337.209 138.247 336.956 138.272 336.705C138.35 335.903 138.021 335.562 137.188 335.486C133.745 335.179 130.308 334.81 126.868 334.459C126.596 334.431 126.326 334.358 126.025 334.299C126.038 333.697 125.997 333.177 126.852 333.296C134.744 334.405 142.686 333.854 150.61 334.004C153.31 334.055 156.008 334.105 158.708 334.152C159.106 334.158 159.466 334.114 159.542 334.703C159.827 336.931 160.325 339.146 160.438 341.379C160.575 344.096 160.406 346.824 160.356 349.55C160.359 349.741 160.262 349.926 160.206 350.114Z" fill="#525268"/>
<path d="M172.365 280.695C172.415 282.186 172.947 282.525 174.852 282.233C175.068 284.135 176.472 284.636 178.092 284.915C179.448 285.147 180.786 285.482 182.143 285.714C182.813 285.827 183.195 286.206 183.433 286.779C183.668 287.349 183.894 287.929 184.057 288.521C184.107 288.706 183.988 288.975 183.878 289.163C183.668 289.527 183.333 289.834 183.202 290.216C183.114 290.473 183.195 290.899 183.368 291.103C183.512 291.272 183.953 291.347 184.179 291.256C184.662 291.059 185.091 290.727 185.636 290.395C185.583 290.636 185.583 290.843 185.495 291.006C184.862 292.224 184.812 293.524 184.834 294.862C184.853 295.952 184.696 297.046 184.702 298.136C184.705 298.669 184.768 299.292 185.047 299.712C185.642 300.602 185.398 301.498 185.279 302.4C185.26 302.544 184.915 302.729 184.709 302.748C181.798 302.986 178.884 303.28 175.968 303.356C175.344 303.371 174.573 302.685 174.094 302.131C173.267 301.175 172.647 300.079 172.957 298.684C173.189 297.647 172.8 296.823 171.901 296.231C171.124 295.721 170.513 295.107 170.059 294.232C169.796 293.731 168.966 293.349 168.339 293.255C167.311 293.101 166.976 292.534 166.848 291.645C166.675 290.454 166.412 289.273 166.328 288.079C166.29 287.547 166.453 286.889 166.766 286.463C167.468 285.51 167.985 284.583 168.013 283.336C168.023 282.879 168.652 282.309 169.138 282.02C169.971 281.525 170.911 281.209 171.81 280.83C171.979 280.755 172.174 280.739 172.365 280.695Z" fill="#C6C1FF"/>
<path d="M171.776 299.32C172.402 301.049 172.944 302.713 174.498 303.781C174.865 304.035 175.181 304.367 175.51 304.674C176.701 305.789 176.603 307.387 175.291 308.346C174.858 308.662 174.335 308.91 174.034 309.323C173.74 309.727 173.48 310.338 173.568 310.786C173.684 311.363 173.539 311.742 173.273 312.184C172.9 312.801 172.571 313.443 172.167 314.173C169.091 313.478 165.87 314.038 162.656 314.088C160.682 314.12 158.711 314.223 156.741 314.342C156.18 314.377 155.973 314.179 155.942 313.662C155.769 310.598 154.194 308.026 153.016 305.31C152.311 303.684 152.561 302.008 152.997 300.366C153.038 300.21 153.482 300.084 153.746 300.072C158.157 299.881 162.565 299.711 166.976 299.533C168.602 299.464 170.225 299.389 171.776 299.32Z" fill="#525268"/>
<path d="M176.738 304.37C179.185 304.182 181.566 303.997 183.947 303.815C185.889 303.665 185.886 303.668 186.766 305.432C187.014 305.93 187.149 306.384 186.842 306.939C186.679 307.233 186.688 307.653 186.713 308.007C186.895 310.698 187.114 313.386 187.283 316.078C187.337 316.911 187.268 317.754 187.277 318.59C187.286 319.257 187.149 320.009 187.402 320.58C187.863 321.61 187.688 322.525 187.406 323.518C187.061 324.724 186.801 325.956 186.516 327.181C186.343 327.923 186.124 328.578 185.529 329.164C185.046 329.64 184.865 330.414 184.501 331.153C184.298 331.119 183.997 331 183.709 331.031C183.373 331.069 183.048 331.225 182.728 331.36C182.571 331.426 182.446 331.561 182.305 331.664C182.195 331.485 182.026 331.316 181.986 331.122C181.873 330.574 181.791 330.013 181.735 329.455C181.653 328.653 181.231 328.105 180.544 327.732C179.952 327.409 179.351 327.105 178.762 326.777C178.088 326.394 177.816 325.855 178.11 325.082C178.251 324.715 178.386 324.336 178.433 323.951C178.524 323.221 178.326 322.616 177.531 322.356C176.866 322.14 176.434 321.692 176.036 321.093C175.579 320.404 174.893 319.865 174.313 319.257C172.919 317.791 172.665 314.712 173.818 313.051C174.36 312.274 174.883 311.519 174.454 310.495C174.404 310.379 174.551 310.128 174.673 310C174.864 309.799 175.109 309.646 175.341 309.486C177.38 308.082 177.784 306.663 176.738 304.37Z" fill="#584FC7"/>
<path d="M160.73 336.552C166.692 336.349 172.52 336.151 178.363 335.954C178.363 336.75 178.128 337.558 178.432 337.962C178.717 338.344 179.569 338.304 180.402 338.504C179.431 340.594 178.654 342.784 177.457 344.71C175.8 347.386 174.312 350.027 174.691 353.42C174.365 353.442 174.039 353.483 173.716 353.483C171.721 353.483 169.722 353.47 167.726 353.467C166.201 353.464 164.675 353.467 163.093 353.467C163.093 352.659 163.312 351.853 163.027 351.311C162.767 350.816 161.959 350.613 161.247 350.196C161.821 345.813 161.633 341.258 160.73 336.552Z" fill="#525268"/>
<path d="M202.232 360.732C200.563 361.049 198.959 361.428 197.329 361.641C195.688 361.854 194.027 361.901 192.373 362.023C190.901 362.133 190.415 362.988 191.051 364.332C191.277 364.808 191.496 365.284 191.712 365.745C190.738 366.412 190.644 366.368 190.28 365.457C190.152 365.134 189.829 364.893 189.594 364.614C189.328 364.868 189.046 365.106 188.805 365.385C188.648 365.563 188.557 365.798 188.228 366.002C188.122 364.94 188.028 363.875 187.909 362.816C187.389 358.154 187.614 353.495 187.934 348.837C188.068 346.847 188.238 344.858 188.357 342.865C188.388 342.32 188.582 342.079 189.134 342.01C191.809 341.678 194.485 341.324 197.154 340.948C197.734 340.866 197.871 341.155 197.987 341.609C198.771 344.685 199.554 347.765 200.372 350.832C200.519 351.384 200.766 351.941 201.089 352.411C201.593 353.144 201.712 353.862 201.672 354.77C201.606 356.265 201.838 357.775 201.969 359.275C202.001 359.717 202.12 360.15 202.232 360.732Z" fill="#7D72FF"/>
<path d="M183.51 369.649C183.069 370.639 182.032 371.165 182.668 372.171C183.097 372.851 183.767 373.377 184.253 374.117C183.749 373.806 183.228 373.518 182.743 373.183C182.398 372.945 182.138 372.56 181.769 372.387C181.349 372.187 180.841 372.055 180.39 372.099C180.262 372.112 180.199 372.829 180.102 373.243C178.601 373.243 176.956 373.243 175.258 373.243C175.146 371.294 173.607 371.081 172.351 370.648C171.984 370.523 171.305 370.849 170.979 371.175C170.487 371.667 170.136 371.927 169.419 371.573C168.526 371.131 167.573 370.771 166.611 370.523C166.082 370.385 165.471 370.517 164.904 370.586C164.647 370.617 164.409 370.799 163.98 370.996C163.98 369.624 163.845 368.39 164.017 367.196C164.199 365.933 164.804 364.727 164.957 363.465C165.032 362.86 165.076 362.011 164.641 361.525C163.911 360.711 163.71 359.736 163.447 358.822C163.112 357.656 163.124 356.394 162.902 355.187C162.786 354.555 163.049 354.263 163.572 354.26C165.593 354.254 167.401 354.301 169.422 354.338C170.91 354.367 172.398 354.432 173.886 354.426C174.51 354.423 174.757 354.561 174.801 355.253C174.842 355.902 175.067 356.578 175.377 357.155C175.653 357.672 175.631 357.976 175.252 358.408C173.917 359.918 173.313 361.729 173.213 363.728C173.175 364.445 173.476 364.762 174.203 364.737C176.198 364.674 178.194 364.646 180.186 364.567C180.7 364.549 181.039 364.661 181.258 365.15C181.427 365.532 181.671 365.883 181.894 366.244C182.248 366.817 182.655 367.349 181.606 367.697C181.427 367.757 181.277 368.402 181.371 368.697C181.546 369.261 181.897 369.762 182.655 369.652C182.931 369.615 183.222 369.649 183.51 369.649Z" fill="#584FC7"/>
<path d="M233.609 278.674C233.854 279.241 234.092 279.689 234.236 280.165C234.474 280.961 234.627 281.785 234.859 282.584C235.138 283.546 235.27 284.627 235.805 285.426C237.243 287.572 237.729 289.837 237.444 292.384C237.328 293.408 237.56 294.505 237.807 295.523C238.143 296.898 238.315 298.205 238.064 299.64C236.864 299.42 235.599 299.361 234.483 298.919C233.8 298.65 233.299 297.829 232.817 297.183C232.29 296.482 231.78 296.359 230.899 296.588C226.253 297.791 221.582 298.891 216.92 300.025C216.814 300.05 216.698 300.041 216.553 300.053C216.215 299.333 216.193 298.694 216.814 298.079C217.193 297.71 217.478 297.246 217.813 296.833C218.499 295.993 218.743 295.109 218.38 294.016C217.985 292.829 218.299 292.531 219.533 292.305C221.049 292.027 222.572 291.716 224.041 291.265C225.479 290.824 226.381 289.511 226.287 288.211C226.128 286.011 227.334 284.448 228.111 282.659C228.687 281.328 229.633 280.435 230.996 279.918C231.886 279.579 232.719 279.103 233.609 278.674Z" fill="#5445FF"/>
<path d="M187.427 342.248C187.358 343.307 187.292 344.222 187.239 345.14C187.035 348.645 186.744 352.148 186.669 355.657C186.619 358.035 186.863 360.419 186.991 362.8C187.042 363.753 187.11 364.705 187.214 365.651C187.27 366.149 187.073 366.378 186.615 366.475C185.616 366.688 184.62 366.917 183.504 367.167C182.997 366.281 182.395 365.275 181.841 364.244C181.587 363.771 181.324 363.568 180.735 363.602C178.912 363.706 177.085 363.709 175.259 363.749C174.93 363.756 174.598 363.749 174.178 363.749C174.297 361.948 174.773 360.407 175.885 359.1C176.8 358.029 176.809 357.778 176.13 356.597C175.901 356.202 175.791 355.704 175.747 355.24C175.653 354.297 175.647 353.345 175.597 352.396C175.465 349.933 176.599 347.897 177.799 345.889C178.229 345.168 178.68 344.46 179.162 343.771C179.319 343.545 179.585 343.285 179.833 343.251C182.301 342.903 184.78 342.593 187.427 342.248Z" fill="#525268"/>
<path d="M235.871 326.477C235.416 326.982 234.937 327.467 234.514 327.997C234.307 328.257 234.204 328.601 234.054 328.909C234.373 329.018 234.69 329.15 235.019 329.231C235.203 329.278 235.41 329.244 235.608 329.259C236.601 329.331 236.786 329.541 236.729 330.509C236.685 331.296 236.319 331.609 235.451 331.59C235.2 331.584 234.881 331.437 234.712 331.54C234.442 331.709 234.207 332.007 234.072 332.305C233.891 332.702 233.812 333.147 233.69 333.573C233.596 333.893 233.333 334.328 233.452 334.507C233.602 334.73 234.063 334.802 234.395 334.82C234.821 334.845 235.253 334.755 235.683 334.717C235.72 334.82 235.755 334.921 235.792 335.024C235.175 335.34 234.589 335.782 233.931 335.948C232.484 336.318 231.569 337.145 231.14 338.57C231.005 339.022 230.755 339.445 230.526 339.864C230.012 340.807 229.241 341.03 228.308 340.547C226.86 339.799 225.429 339.012 223.944 338.348C223.389 338.101 222.634 337.953 222.08 338.116C220.623 338.549 219.401 338.129 218.119 337.53C217.44 337.211 216.625 337.048 215.87 337.045C213.555 337.035 211.387 337.756 209.281 338.646C207.734 339.3 206.139 338.95 204.57 339.1C204.432 338.31 204.623 337.803 205.271 337.461C206.067 337.045 206.816 336.543 207.615 336.133C208.42 335.716 209.087 335.212 209.679 334.479C210.193 333.843 211.033 333.317 211.825 333.094C212.765 332.834 213.251 332.32 213.42 331.478C213.589 330.632 214.087 330.403 214.868 330.325C221.115 329.692 227.208 328.226 233.327 326.903C234.11 326.734 234.865 326.437 235.629 326.202C235.708 326.289 235.789 326.383 235.871 326.477Z" fill="#7D72FF"/>
<path d="M214.958 310.73C214.989 310.486 215.033 310.241 215.052 309.994C215.109 309.229 215.287 308.446 215.181 307.704C214.858 305.442 214.413 303.195 214.053 300.94C214.021 300.736 214.184 300.435 214.353 300.285C214.617 300.05 214.961 299.906 215.259 299.733C215.34 299.809 215.4 299.837 215.412 299.881C215.776 301.218 215.788 301.269 217.126 300.946C221.772 299.831 226.409 298.687 231.043 297.522C231.525 297.399 231.801 297.462 232.127 297.825C233.64 299.508 233.674 299.502 233.226 301.817C233.095 302.5 233.12 303.07 233.58 303.624C233.847 303.944 234.041 304.333 234.216 304.712C234.918 306.212 234.63 306.616 233.37 307.663C231.948 308.844 230.281 309.138 228.618 309.533C226.76 309.975 224.886 310.338 223.029 310.777C222.252 310.962 221.493 311.181 221.287 312.184C221.199 312.607 220.792 312.967 220.463 313.283C219.466 311.382 219.379 311.341 217.602 311.917C216.337 312.328 216.343 312.325 215.516 311.288C215.347 311.075 215.118 310.912 214.914 310.727L214.933 310.702L214.958 310.73Z" fill="#A79FFF"/>
<path d="M202.571 292.447C203.32 293.86 204.078 295.166 204.689 296.535C204.858 296.914 204.717 297.557 204.498 297.958C203.573 299.652 202.796 301.382 202.718 303.343C202.696 303.898 202.408 304.167 201.904 304.23C200.788 304.364 199.673 304.48 198.558 304.599C196.997 304.769 195.437 304.947 193.874 305.094C192.853 305.188 191.825 305.232 190.804 305.298C191.076 303.782 191.274 302.434 191.568 301.109C191.859 299.787 191.624 298.584 190.873 297.5C189.773 295.915 189.416 294.248 190.061 292.393C190.199 292.002 190.227 291.569 190.287 291.153C190.437 290.084 190.888 289.514 191.938 289.295C192.755 289.126 193.037 288.681 192.853 287.913C192.721 287.365 192.9 286.986 193.25 286.547C193.595 286.115 193.774 285.535 193.968 285C194.078 284.702 194.071 284.361 194.137 283.913C195.105 284.279 195.96 284.608 196.819 284.925C197.492 285.172 198.157 285.454 198.852 285.62C199.331 285.733 199.529 285.871 199.601 286.413C199.673 286.958 200.055 287.453 200.24 287.992C200.375 288.38 200.572 288.85 200.469 289.204C200.096 290.467 199.626 291.701 199.147 292.929C198.902 293.556 199.153 294.032 199.617 294.305C199.895 294.471 200.481 294.467 200.719 294.279C201.384 293.747 201.947 293.08 202.571 292.447Z" fill="#A79FFF"/>
<path d="M214.959 310.675C214.301 310.901 214.063 311.455 214.035 312.054C213.991 313.075 213.534 313.677 212.588 314.071C211.67 314.454 211.103 315.19 210.827 316.199C210.683 316.728 210.235 317.167 209.959 317.665C209.743 318.053 209.596 318.476 209.389 318.868C209.119 319.385 208.819 319.889 208.496 320.466C207.609 319.419 206.597 319.454 205.419 319.682C204.044 319.949 202.653 319.949 201.441 318.902C200.996 318.517 200.259 318.47 199.702 318.282C199.222 315.262 198.715 312.248 198.283 309.222C198.117 308.044 198.126 306.844 198.066 305.8C199.921 305.449 201.528 305.095 203.154 304.867C203.646 304.798 204.191 305.048 204.702 305.199C207.042 305.891 209.602 305.001 211.065 303.053C211.594 302.348 212.265 301.746 213.014 300.944C213.192 301.612 213.249 302.031 213.412 302.404C214.135 304.087 213.932 305.944 214.442 307.674C214.611 308.253 214.42 308.949 214.351 309.588C214.295 310.124 214.235 310.628 214.959 310.735L214.934 310.71L214.959 310.675Z" fill="#C6C1FF"/>
<path d="M199.504 319.28C200.018 319.424 200.604 319.421 200.936 319.709C202.361 320.944 204.015 320.797 205.66 320.587C207.095 320.405 207.173 320.427 207.872 321.674C208.618 323.008 209.47 324.284 210.3 325.621C210.081 325.85 209.742 326.179 209.429 326.53C208.746 327.297 208.051 328.059 207.405 328.858C206.644 329.801 205.914 330.634 204.548 330.819C199.178 331.539 193.818 332.338 188.467 333.178C186.985 333.41 185.537 333.877 184.071 334.224C183.808 334.287 183.532 334.281 183.094 334.321C183.235 333.488 183.354 332.768 183.47 332.094C183.645 332.05 183.702 332.016 183.749 332.028C185.349 332.357 185.324 332.351 185.763 330.719C185.873 330.311 186.183 329.954 186.424 329.591C186.593 329.337 186.941 329.13 186.979 328.87C187.22 327.238 188.57 327.307 189.635 327.272C191.327 327.219 192.859 326.965 194.106 325.718C194.228 325.596 194.545 325.568 194.729 325.628C195.569 325.894 196.027 325.44 196.337 324.785C196.697 324.024 196.97 323.225 197.324 322.46C197.446 322.197 197.668 321.824 197.891 321.79C199.059 321.608 199.213 320.721 199.388 319.822C199.413 319.684 199.445 319.553 199.504 319.28Z" fill="#73739D"/>
<path d="M179.836 342.241C180.124 341.492 180.356 340.894 180.588 340.295C181.089 338.998 181.684 337.72 181.628 336.282C181.6 335.543 182.032 335.308 182.665 335.258C183.42 335.198 184.191 335.217 184.93 335.066C186.982 334.643 189 334.042 191.064 333.713C195.441 333.014 199.837 332.435 204.226 331.818C206.839 331.451 209.455 331.097 212.071 330.743C212.227 330.721 212.39 330.724 212.622 330.708C212.481 331.42 212.337 331.88 211.563 332.175C210.407 332.61 209.22 333.118 208.559 334.343C208.38 334.672 207.926 334.875 207.569 335.082C206.601 335.646 205.614 336.185 204.636 336.733C203.972 337.106 203.58 337.645 203.609 338.434C203.627 338.967 203.43 339.205 202.847 339.28C197.362 339.973 191.879 340.699 186.393 341.417C184.444 341.671 182.496 341.931 180.55 342.184C180.353 342.203 180.162 342.213 179.836 342.241Z" fill="#525268"/>
<path d="M235.448 325.294C226.278 327.841 216.97 329.239 207.612 330.335C207.549 330.263 207.486 330.191 207.424 330.119C208.517 328.957 209.617 327.798 210.704 326.629C211.039 326.269 211.331 326.231 211.804 326.454C212.23 326.654 212.806 326.761 213.251 326.651C214.501 326.341 215.726 325.924 216.945 325.504C218.555 324.953 219.288 323.675 219.633 322.108C219.736 321.641 219.771 321.159 219.896 320.702C220.084 320.012 219.952 319.135 220.933 318.872C221.049 318.841 221.108 318.599 221.199 318.455C222.133 316.958 223.051 315.451 224.025 313.978C224.166 313.768 224.577 313.699 224.877 313.643C225.416 313.543 225.971 313.537 226.507 313.424C227.027 313.317 228.039 314.113 228.073 314.733C228.142 316.033 228.737 316.958 229.956 317.459C230.241 317.575 230.517 317.716 230.802 317.835C232.75 318.662 232.459 318.424 232.556 320.83C232.575 321.269 232.638 321.707 232.647 322.146C232.65 322.34 232.6 322.55 232.525 322.732C232.393 323.057 232.024 323.54 232.118 323.656C232.396 323.991 232.838 324.204 233.245 324.402C233.39 324.47 233.631 324.373 233.813 324.311C235.012 323.9 235.009 323.897 235.448 325.294Z" fill="#584FC7"/>
<path d="M196.892 305.701C197.221 307.76 197.55 309.683 197.825 311.616C197.922 312.306 197.872 313.014 197.932 313.709C197.979 314.257 197.991 314.843 198.195 315.341C198.872 316.999 198.615 318.65 198.264 320.304C198.226 320.479 198.016 320.702 197.847 320.749C196.976 320.981 196.591 321.639 196.3 322.397C196.149 322.791 195.996 323.183 195.848 323.578C195.601 324.239 195.438 324.944 194.407 324.605C194.144 324.518 193.668 324.822 193.395 325.066C192.593 325.783 191.725 326.241 190.613 326.266C189.642 326.288 188.674 326.432 187.527 326.538C187.668 325.909 187.778 325.295 187.947 324.696C188.129 324.048 188.47 323.431 188.552 322.773C188.636 322.112 188.508 321.416 188.436 320.743C188.386 320.301 188.132 319.847 188.201 319.436C188.605 317.033 188.032 314.683 187.906 312.309C187.828 310.849 187.734 309.392 187.659 307.932C187.646 307.688 187.7 307.443 187.737 307.064C188.737 307.359 189.501 307.102 190.04 306.262C190.106 306.159 190.341 306.137 190.497 306.124C192.396 305.977 194.291 305.836 196.19 305.704C196.488 305.683 196.791 305.701 196.892 305.701Z" fill="#525268"/>
<path d="M227.898 341.344C226.686 342.093 226.463 343.133 226.338 344.164C226.175 345.502 225.492 346.482 224.558 347.391C224.154 347.786 223.803 348.337 223.669 348.879C223.462 349.709 222.986 350.242 222.356 350.749C221.52 351.423 220.739 352.165 219.853 352.955C218.947 352.664 218.484 351.717 218.098 350.778C217.415 349.114 216.259 347.851 214.953 346.677C213.032 344.947 211.137 343.193 209.232 341.448C208.277 340.574 208.396 340 209.599 339.53C211.513 338.785 213.427 338.095 215.514 337.976C216.36 337.929 217.127 337.967 217.857 338.415C219.192 339.236 220.598 339.505 222.134 339.035C222.481 338.929 222.954 338.944 223.283 339.095C224.784 339.775 226.253 340.53 227.898 341.344Z" fill="#73739D"/>
<path d="M246.725 284.402C246.408 284.023 245.957 283.691 245.794 283.255C244.864 280.755 243.996 278.233 243.122 275.711C243.046 275.492 242.978 275.163 243.084 275.006C244.124 273.465 244.115 271.654 244.466 269.931C244.851 268.042 245.252 266.156 245.722 264.285C245.991 263.205 246.352 262.992 247.473 262.957C247.978 262.941 248.492 263.004 248.99 262.938C249.904 262.816 250.359 263.274 250.569 264.076C250.832 265.078 251.158 266.078 251.299 267.102C251.48 268.408 252.188 269.242 253.288 269.831C253.808 270.11 254.328 270.385 254.839 270.677C256.083 271.388 256.177 272.475 255.002 273.252C254.093 273.85 253.307 274.511 252.793 275.498C252.649 275.771 252.245 276.043 251.941 276.068C251.368 276.112 251.092 276.366 250.891 276.861C250.462 277.92 249.789 278.791 248.874 279.49C247.702 280.386 247.191 281.623 247.141 283.077C247.129 283.462 247.082 283.844 247.05 284.227C246.944 284.286 246.834 284.346 246.725 284.402Z" fill="#A79FFF"/>
<path d="M214.953 312.109C216.319 313.832 217.675 312.588 219.063 312.379C219.195 312.892 219.273 313.384 219.445 313.842C219.705 314.528 220.163 314.666 220.658 314.146C221.225 313.55 221.676 312.845 222.19 312.197C222.299 312.059 222.45 311.927 222.61 311.868C222.87 311.774 223.167 311.774 223.427 311.677C224.442 311.295 225.072 311.724 225.548 312.717C225.235 312.717 224.966 312.742 224.706 312.711C223.841 312.607 223.39 313.087 222.986 313.776C222.162 315.176 221.272 316.536 220.41 317.911C220.382 317.958 220.351 318.03 220.31 318.043C218.925 318.419 219.235 319.681 218.957 320.631C218.894 320.847 218.831 321.066 218.816 321.289C218.662 323.507 217.293 324.603 215.294 325.13C214.699 325.286 214.094 325.43 213.515 325.631C212.728 325.903 211.995 325.747 211.503 325.161C210.607 324.093 209.818 322.937 209.025 321.79C208.928 321.652 209.022 321.314 209.122 321.119C209.573 320.252 209.921 319.274 210.567 318.579C211.375 317.708 211.663 316.664 212.086 315.643C212.146 315.499 212.287 315.352 212.428 315.283C213.721 314.675 214.53 313.654 214.953 312.109Z" fill="#525268"/>
<path d="M182.086 277.481C181.801 277.659 181.456 277.788 181.243 278.029C180.714 278.631 180.776 279.345 181.102 280.006C181.4 280.607 181.942 280.482 182.502 280.407C182.769 280.372 183.189 280.598 183.348 280.836C183.724 281.397 184.175 281.644 184.836 281.547C185.003 281.522 185.175 281.516 185.341 281.522C186.867 281.588 188.292 281.535 189.57 280.394C190.397 279.658 191.532 279.323 192.672 280.131C192.944 280.325 193.443 280.325 193.806 280.25C195.097 279.987 195.864 280.573 195.952 281.989C194.971 281.989 193.991 281.973 193.01 281.995C192.271 282.011 191.535 282.061 191.093 282.81C191.03 282.913 190.883 282.976 190.764 283.035C189.533 283.621 188.28 284.163 187.083 284.809C186.694 285.019 186.412 285.476 186.152 285.868C185.736 286.494 185.375 287.158 184.883 287.989C184.708 287.494 184.589 287.168 184.473 286.842C184.063 285.689 183.43 284.874 182.064 284.705C180.535 284.517 179.028 284.138 177.515 283.819C176.302 283.562 175.801 282.932 175.726 281.713C175.698 281.253 175.851 281.008 176.315 280.993C177.405 280.955 178.185 280.448 178.874 279.599C179.504 278.822 180.316 278.186 181.071 277.512C181.265 277.34 181.55 277.268 181.791 277.149C181.892 277.255 181.989 277.368 182.086 277.481Z" fill="#525268"/>
<path d="M234.656 278.604C236.708 278.037 238.673 277.495 240.772 276.916C240.634 277.887 240.596 278.918 240.327 279.883C239.619 282.414 239.525 284.958 239.942 287.536C240.017 288.006 240.073 288.479 240.151 289.056C239.772 289.162 239.403 289.354 239.045 289.332C238.801 289.316 238.472 289.053 238.356 288.815C237.755 287.587 237.188 286.343 236.655 285.083C236.342 284.341 235.953 283.573 235.891 282.793C235.794 281.584 235.486 280.481 234.932 279.422C234.8 279.162 234.741 278.864 234.656 278.604Z" fill="#A79FFF"/>
<path d="M241.12 288.82C240.872 286.862 240.365 284.979 240.788 282.971C241.242 280.818 241.452 278.613 241.778 276.432C241.8 276.282 241.887 276.141 242.028 275.778C242.248 276.269 242.41 276.573 242.526 276.896C243.278 279.011 244.03 281.126 244.76 283.25C245.067 284.139 245.518 284.86 246.458 285.201C246.878 285.352 246.969 286.289 246.558 286.524C244.885 287.47 243.335 288.704 241.311 288.864C241.279 288.867 241.251 288.851 241.12 288.82Z" fill="#525268"/>
<path d="M234.578 299.993C235.697 300.2 236.746 300.372 237.78 300.601C237.962 300.642 238.216 300.899 238.234 301.074C238.573 304.289 238.861 307.506 237.338 310.545C237.266 310.692 237.16 310.821 237.047 310.99C236.301 310.714 235.553 310.495 234.86 310.16C234.184 309.834 234.086 308.289 234.663 307.785C235.675 306.895 235.838 306.306 235.377 305.037C235.236 304.643 235.127 304.192 234.86 303.894C233.786 302.688 234.24 301.403 234.578 299.993Z" fill="#C6C1FF"/>
<path d="M244.387 298.393C242.821 299.586 241.43 301.137 239.299 301.507C239.108 299.116 238.92 296.789 238.723 294.307C240.371 293.775 242.197 293.183 244.124 292.559C244.49 293.74 244.819 294.802 245.123 295.777C243.798 296.544 242.535 297.255 241.298 298.01C240.978 298.205 240.656 298.499 240.496 298.828C240.361 299.107 240.461 299.502 240.455 299.843C240.794 299.846 241.176 299.953 241.458 299.827C242.253 299.483 243.005 299.038 243.779 298.64C243.973 298.54 244.183 298.474 244.387 298.393Z" fill="#73739D"/>
<path d="M238.468 290.388C241.423 289.936 244.296 289.457 246.667 287.455C247.071 288.144 247.313 288.652 246.902 289.341C246.495 290.021 246.777 290.488 247.497 290.779C248.005 290.986 248.481 291.287 248.948 291.578C249.553 291.954 250.126 292.145 250.687 291.412C250.627 292.612 249.502 293.332 247.908 293.295C247.266 291.553 246.495 291.099 244.499 291.572C242.757 291.985 241.059 292.584 239.339 293.101C239.051 293.188 238.763 293.276 238.34 293.405C238.387 292.311 238.428 291.343 238.468 290.388Z" fill="#584FC7"/>
<path d="M225.805 311.213C227.76 310.73 229.715 310.232 231.68 309.791C231.905 309.74 232.206 310.019 232.45 310.279C231.592 310.154 231.257 310.652 231 311.26C230.42 312.629 230.257 314.007 230.846 315.43C230.965 315.718 230.893 316.088 230.909 316.42C230.483 316.348 229.975 316.389 229.656 316.166C229.352 315.953 229.032 315.43 229.082 315.098C229.33 313.453 227.958 313.121 227.046 312.416C226.617 312.084 226.162 311.78 225.721 311.464C225.746 311.379 225.777 311.294 225.805 311.213Z" fill="#525268"/>
<path d="M232.673 311.031C233.058 312.025 233.443 313.018 233.829 314.008C234.33 315.295 234.499 315.364 235.73 314.807C235.856 314.75 235.987 314.703 236.369 314.553C236.282 315.204 236.335 315.781 236.119 316.223C235.602 317.275 235.185 318.309 235.37 319.522C235.417 319.832 235.213 320.183 235.123 320.515C235.035 320.508 234.947 320.499 234.862 320.493C234.862 320.242 234.803 319.973 234.872 319.741C235.22 318.563 234.772 317.535 234.317 316.505C234.239 316.326 234.167 316.047 234.035 316.006C232.478 315.546 232.779 314.064 232.413 312.993C232.212 312.4 232.375 311.683 232.375 311.022C232.475 311.025 232.575 311.028 232.673 311.031Z" fill="#73739D"/>
<path d="M246.065 295.55C245.761 294.589 245.454 293.63 245.078 292.443C245.648 292.496 246.165 292.424 246.529 292.624C246.739 292.74 246.789 293.31 246.761 293.661C246.707 294.294 246.541 294.915 246.422 295.541C246.306 295.544 246.184 295.547 246.065 295.55Z" fill="#525268"/>
<path d="M233.124 309.119C233.992 310.611 234.86 312.099 235.784 313.684C235.59 313.791 235.298 313.95 234.907 314.163C234.243 312.431 233.616 310.799 232.986 309.163C233.033 309.151 233.077 309.135 233.124 309.119Z" fill="#525268"/>
<path d="M231.525 315.153C231.425 314.464 231.325 313.775 231.225 313.082C231.353 313.063 231.482 313.042 231.607 313.023C231.72 313.724 231.832 314.426 231.945 315.128C231.807 315.134 231.666 315.144 231.525 315.153Z" fill="#525268"/>
<path d="M214.959 310.674L214.934 310.708L214.916 310.732L214.959 310.674Z" fill="#525268"/>
<rect x="285" y="231" width="237" height="182" rx="20" fill="#39394B"/>
<path d="M370.796 392.937V397.659C370.796 399.304 371.785 400.141 373.389 400.141C374.984 400.141 375.972 399.304 375.972 397.659V392.937H375.145V397.659C375.145 398.799 374.53 399.385 373.389 399.385C372.239 399.385 371.624 398.799 371.624 397.659V392.937H370.796ZM377.367 396.358C377.367 397.286 378.103 397.629 379.183 397.78L379.647 397.851C380.293 397.942 380.908 398.032 380.908 398.577C380.908 399.112 380.363 399.465 379.556 399.465C378.668 399.465 378.002 398.991 377.679 398.174L376.983 398.527C377.346 399.304 378.144 400.141 379.536 400.141C380.817 400.141 381.685 399.506 381.685 398.557C381.685 397.609 380.878 397.316 379.738 397.145L379.274 397.074C378.668 396.983 378.134 396.892 378.134 396.347C378.134 395.853 378.598 395.591 379.233 395.591C379.899 395.591 380.545 395.903 381.07 396.64L381.665 396.236C380.918 395.328 380.212 394.935 379.223 394.935C378.214 394.935 377.367 395.449 377.367 396.358ZM382.505 397.498C382.505 398.991 383.524 400.141 385.058 400.141C386.289 400.141 386.894 399.465 387.247 398.83L386.571 398.476C386.299 399.041 385.855 399.455 385.048 399.455C384.059 399.455 383.373 398.819 383.312 397.79H387.338V397.377C387.338 395.924 386.369 394.925 384.957 394.925C383.534 394.925 382.505 396.055 382.505 397.498ZM383.312 397.155C383.403 396.186 384.029 395.611 384.957 395.611C385.895 395.611 386.511 396.176 386.531 397.155H383.312ZM389.22 395.076H388.484V400H389.251V397.034C389.251 396.216 389.674 395.803 390.401 395.803H391.248V395.056H390.633C389.927 395.056 389.543 395.318 389.362 395.813H389.22V395.076ZM392.019 396.358C392.019 397.286 392.755 397.629 393.835 397.78L394.299 397.851C394.945 397.942 395.56 398.032 395.56 398.577C395.56 399.112 395.016 399.465 394.208 399.465C393.32 399.465 392.655 398.991 392.332 398.174L391.635 398.527C391.999 399.304 392.796 400.141 394.188 400.141C395.47 400.141 396.337 399.506 396.337 398.557C396.337 397.609 395.53 397.316 394.39 397.145L393.926 397.074C393.32 396.983 392.786 396.892 392.786 396.347C392.786 395.853 393.25 395.591 393.885 395.591C394.551 395.591 395.197 395.903 395.722 396.64L396.317 396.236C395.571 395.328 394.864 394.935 393.875 394.935C392.866 394.935 392.019 395.449 392.019 396.358ZM402.369 392.937L400.048 400H400.936L401.501 398.214H404.518L405.083 400H405.971L403.65 392.937H402.369ZM401.733 397.467L402.944 393.684H403.065L404.276 397.467H401.733ZM406.538 397.538C406.538 399.052 407.627 400.141 409.101 400.141C410.483 400.141 411.25 399.223 411.452 398.244L410.685 398.093C410.543 398.819 410.089 399.435 409.101 399.435C408.061 399.435 407.315 398.658 407.315 397.538C407.315 396.428 408.061 395.651 409.08 395.651C409.999 395.651 410.574 396.216 410.665 396.983L411.431 396.832C411.25 395.762 410.372 394.935 409.08 394.935C407.627 394.935 406.538 396.025 406.538 397.538ZM411.94 395.076V395.752H413.434V399.223C413.434 399.697 413.736 400 414.191 400H415.492V399.324H414.473C414.291 399.324 414.211 399.233 414.211 399.031V395.752H415.775V395.076H414.211V393.3H413.434V395.076H411.94ZM416.579 393.542C416.579 393.916 416.872 394.198 417.245 394.198C417.619 394.198 417.911 393.916 417.911 393.542C417.911 393.169 417.619 392.887 417.245 392.887C416.872 392.887 416.579 393.169 416.579 393.542ZM417.629 395.076H416.862V400H417.629V395.076ZM418.634 395.076L420.531 400H421.62L423.517 395.076H422.68L421.136 399.243H421.015L419.471 395.076H418.634ZM424.245 393.542C424.245 393.916 424.538 394.198 424.911 394.198C425.285 394.198 425.577 393.916 425.577 393.542C425.577 393.169 425.285 392.887 424.911 392.887C424.538 392.887 424.245 393.169 424.245 393.542ZM425.295 395.076H424.528V400H425.295V395.076ZM426.189 395.076V395.752H427.682V399.223C427.682 399.697 427.985 400 428.439 400H429.74V399.324H428.721C428.54 399.324 428.459 399.233 428.459 399.031V395.752H430.023V395.076H428.459V393.3H427.682V395.076H426.189ZM434.853 395.076L433.209 399.021H433.088L431.443 395.076H430.606L432.745 400.071L431.877 402.018H432.714L435.691 395.076H434.853Z" fill="#EFF0F7"/>
<rect x="301" y="250" width="8" height="132" rx="4" fill="#53536A"/>
<rect x="301" y="363" width="8" height="19" rx="4" fill="#5445FF"/>
<rect x="319" y="250" width="8" height="132" rx="4" fill="#53536A"/>
<rect x="337" y="250" width="8" height="132" rx="4" fill="#53536A"/>
<rect x="355" y="250" width="8" height="132" rx="4" fill="#53536A"/>
<rect x="373" y="250" width="8" height="132" rx="4" fill="#53536A"/>
<rect x="391" y="250" width="8" height="132" rx="4" fill="#53536A"/>
<rect x="409" y="250" width="8" height="132" rx="4" fill="#53536A"/>
<rect x="427" y="250" width="8" height="132" rx="4" fill="#53536A"/>
<rect x="445" y="250" width="8" height="132" rx="4" fill="#53536A"/>
<rect x="463" y="250" width="8" height="132" rx="4" fill="#53536A"/>
<rect x="481" y="250" width="8" height="132" rx="4" fill="#53536A"/>
<rect x="499" y="250" width="8" height="132" rx="4" fill="#53536A"/>
<rect x="319" y="350" width="8" height="32" rx="4" fill="#5445FF"/>
<rect x="337" y="341" width="8" height="41" rx="4" fill="#5445FF"/>
<rect x="355" y="316" width="8" height="66" rx="4" fill="#5445FF"/>
<rect x="373" y="326" width="8" height="56" rx="4" fill="#5445FF"/>
<rect x="391" y="301" width="8" height="81" rx="4" fill="#5445FF"/>
<rect x="409" y="279" width="8" height="103" rx="4" fill="#5445FF"/>
<rect x="427" y="267" width="8" height="115" rx="4" fill="#5445FF"/>
<rect x="445" y="302" width="8" height="80" rx="4" fill="#5445FF"/>
<rect x="463" y="329" width="8" height="53" rx="4" fill="#5445FF"/>
<rect x="481" y="354" width="8" height="28" rx="4" fill="#5445FF"/>
<rect x="499" y="371" width="8" height="11" rx="4" fill="#5445FF"/>
</svg>
