<svg width="404" height="364" viewBox="0 0 404 364" fill="none" xmlns="http://www.w3.org/2000/svg">
<path d="M0 0H404V364H0V0Z" fill="#5445FF"/>
<path d="M224.539 126.025V126H230.963L233.31 126.468C234.875 126.772 236.296 127.17 237.572 127.663C238.849 128.156 240.084 128.731 241.278 129.388C242.472 130.045 243.555 130.714 244.527 131.396C245.491 132.07 246.356 132.784 247.121 133.54C247.879 134.303 249.061 134.501 250.667 134.131C252.273 133.761 254.002 133.248 255.855 132.591C257.708 131.934 259.541 131.195 261.353 130.373C263.164 129.552 264.268 129.031 264.663 128.809C265.05 128.579 265.256 128.456 265.281 128.439L265.306 128.402L265.429 128.341L265.553 128.279L265.676 128.218L265.8 128.156L265.825 128.119L265.862 128.094L265.899 128.07L265.923 128.033L266.047 127.996L266.17 127.971L266.146 128.156L266.109 128.341L266.047 128.526L265.985 128.71L265.923 128.834L265.862 128.957L265.8 129.142C265.759 129.265 265.718 129.429 265.676 129.634C265.635 129.84 265.244 130.661 264.503 132.098C263.761 133.536 262.835 134.993 261.723 136.472C260.611 137.95 259.615 139.067 258.734 139.823C257.844 140.586 257.255 141.12 256.967 141.424C256.679 141.736 256.329 142.024 255.917 142.287L255.299 142.693L255.176 142.755L255.052 142.816L255.028 142.853L254.991 142.878L254.953 142.903L254.929 142.94L254.805 143.001L254.682 143.063L254.657 143.1L254.62 143.124L254.583 143.149L254.558 143.186L254.534 143.223L254.496 143.248L254.459 143.272L254.435 143.309H255.052L258.511 142.57C260.817 142.077 263.02 141.482 265.12 140.784L268.456 139.675L268.826 139.552L269.012 139.49L269.135 139.428L269.259 139.367L269.382 139.305L269.506 139.244L269.753 139.207L270 139.182V139.428L269.938 139.453L269.876 139.49L269.852 139.527L269.815 139.552L269.778 139.576L269.753 139.613L269.728 139.65L269.691 139.675L269.654 139.699L269.629 139.736L269.605 139.773L269.568 139.798L269.506 139.921L269.444 140.044L269.407 140.069C269.391 140.094 268.868 140.792 267.838 142.163C266.809 143.543 266.253 144.241 266.17 144.258C266.088 144.282 265.973 144.406 265.825 144.627C265.685 144.857 264.812 145.773 263.206 147.375C261.6 148.976 260.027 150.401 258.487 151.649C256.938 152.906 256.156 154.45 256.14 156.282C256.115 158.105 256.02 160.167 255.855 162.466C255.691 164.766 255.382 167.25 254.929 169.92C254.476 172.589 253.776 175.607 252.829 178.974C251.882 182.342 250.729 185.627 249.37 188.83C248.011 192.033 246.59 194.908 245.108 197.454C243.625 200 242.266 202.156 241.031 203.922C239.796 205.688 238.54 207.351 237.263 208.911C235.987 210.472 234.373 212.229 232.421 214.184C230.461 216.131 229.39 217.198 229.209 217.387C229.02 217.568 228.213 218.241 226.788 219.408C225.371 220.582 223.847 221.756 222.217 222.931C220.594 224.097 219.104 225.071 217.745 225.851C216.386 226.631 214.747 227.522 212.828 228.524C210.918 229.534 208.85 230.471 206.627 231.333C204.403 232.195 202.056 232.996 199.585 233.735C197.115 234.474 194.726 235.049 192.42 235.46C190.114 235.871 187.499 236.22 184.576 236.507L180.19 236.938V237H172.161V236.938L171.11 236.877C170.411 236.836 169.834 236.795 169.381 236.754C168.928 236.713 167.219 236.487 164.254 236.076C161.289 235.665 158.963 235.255 157.275 234.844C155.586 234.433 153.074 233.653 149.739 232.503C146.404 231.354 143.55 230.191 141.178 229.017C138.814 227.851 137.332 227.111 136.731 226.799C136.138 226.495 135.471 226.118 134.729 225.666L133.618 224.988L133.593 224.951L133.556 224.927L133.519 224.902L133.494 224.865L133.371 224.804L133.247 224.742L133.222 224.705L133.185 224.68L133.148 224.656L133.124 224.619L133.099 224.582L133.062 224.557H133V224.311L133.124 224.335L133.247 224.372L133.803 224.434C134.174 224.475 135.182 224.537 136.83 224.619C138.477 224.701 140.227 224.701 142.08 224.619C143.933 224.537 145.827 224.352 147.762 224.064C149.698 223.777 151.983 223.284 154.619 222.586C157.254 221.888 159.675 221.058 161.883 220.097C164.081 219.128 165.646 218.406 166.577 217.929C167.499 217.461 168.907 216.59 170.802 215.317L173.643 213.408L173.668 213.371L173.705 213.346L173.742 213.322L173.766 213.285L173.791 213.248L173.828 213.223L173.865 213.198L173.89 213.161L174.014 213.125L174.137 213.1L174.162 212.977L174.199 212.853L174.236 212.829L174.261 212.792L173.272 212.73C172.614 212.689 171.975 212.648 171.358 212.607C170.74 212.566 169.772 212.381 168.454 212.053C167.137 211.724 165.716 211.231 164.193 210.574C162.669 209.917 161.187 209.137 159.745 208.234C158.304 207.33 157.262 206.579 156.62 205.979C155.986 205.388 155.162 204.55 154.149 203.466C153.144 202.374 152.271 201.252 151.53 200.103C150.789 198.953 150.081 197.626 149.406 196.123L148.38 193.881L148.318 193.696L148.257 193.512L148.219 193.388L148.195 193.265L148.38 193.29L148.565 193.327L149.924 193.512C150.83 193.635 152.251 193.676 154.186 193.635C156.122 193.594 157.46 193.512 158.201 193.388C158.942 193.265 159.395 193.183 159.56 193.142L159.807 193.08L160.116 193.019L160.425 192.957L160.449 192.92L160.486 192.896L160.524 192.871L160.548 192.834L160.301 192.772L160.054 192.711L159.807 192.649L159.56 192.588L159.313 192.526C159.148 192.485 158.86 192.403 158.448 192.28C158.036 192.156 156.925 191.705 155.113 190.925C153.301 190.144 151.86 189.385 150.789 188.645C149.716 187.904 148.692 187.093 147.725 186.218C146.762 185.331 145.704 184.19 144.55 182.794C143.398 181.397 142.368 179.775 141.462 177.927C140.556 176.079 139.877 174.314 139.424 172.63C138.973 170.956 138.675 169.245 138.534 167.517L138.312 164.93L138.436 164.955L138.559 164.992L138.683 165.053L138.806 165.115L138.93 165.176L139.053 165.238L140.968 166.1C142.245 166.675 143.83 167.168 145.724 167.579C147.618 167.989 148.751 168.215 149.121 168.256L149.677 168.318H150.789L150.764 168.281L150.727 168.256L150.69 168.232L150.665 168.195L150.641 168.158L150.604 168.133L150.567 168.109L150.542 168.072L150.418 168.01L150.295 167.948L150.27 167.911L150.233 167.887L150.196 167.862L150.171 167.825L150.048 167.764L149.924 167.702L149.9 167.665C149.875 167.649 149.521 167.386 148.837 166.877C148.162 166.359 147.454 165.69 146.712 164.868C145.971 164.047 145.23 163.185 144.489 162.281C143.746 161.376 143.085 160.407 142.512 159.386C141.936 158.36 141.326 157.054 140.684 155.469C140.05 153.892 139.568 152.302 139.239 150.701C138.909 149.099 138.724 147.518 138.683 145.958C138.641 144.397 138.683 143.063 138.806 141.954C138.93 140.845 139.177 139.593 139.547 138.196C139.918 136.8 140.453 135.322 141.153 133.761L142.203 131.421L142.265 131.236L142.327 131.051L142.364 131.026L142.389 130.989L142.413 130.952L142.45 130.928L142.488 130.952L142.512 130.989L142.537 131.026L142.574 131.051L142.611 131.076L142.636 131.113L142.66 131.15L142.697 131.174L142.759 131.297L142.821 131.421L142.858 131.445L142.883 131.482L144.55 133.33C145.662 134.562 146.98 135.938 148.504 137.457C150.027 138.977 150.871 139.765 151.036 139.823C151.201 139.888 151.407 140.077 151.654 140.389C151.901 140.693 152.724 141.42 154.124 142.57C155.525 143.72 157.357 145.054 159.622 146.574C161.887 148.093 164.398 149.592 167.157 151.07C169.916 152.549 172.881 153.883 176.052 155.074C179.223 156.265 181.446 157.046 182.723 157.415C183.999 157.785 186.182 158.257 189.27 158.832C192.358 159.407 194.685 159.776 196.25 159.941C197.815 160.105 198.885 160.199 199.462 160.224L200.326 160.249L200.302 160.064L200.265 159.879L200.018 158.339C199.853 157.312 199.771 155.875 199.771 154.027C199.771 152.179 199.915 150.475 200.203 148.915C200.491 147.354 200.924 145.773 201.5 144.171C202.077 142.57 202.641 141.284 203.192 140.315C203.753 139.354 204.485 138.258 205.391 137.026C206.297 135.794 207.471 134.521 208.912 133.207C210.353 131.893 212 130.722 213.853 129.696C215.706 128.669 217.415 127.889 218.98 127.355C220.545 126.821 221.863 126.472 222.933 126.308C224.004 126.144 224.539 126.049 224.539 126.025V126.025Z" fill="white"/>
</svg>
