<svg width="136" height="22" viewBox="0 0 136 22" fill="none" xmlns="http://www.w3.org/2000/svg">
<path d="M11.1875 2L13.8476 8.30693L20.375 9.01847L15.4927 13.6286L16.8658 20.375L11.1875 16.9158L5.50923 20.375L6.88228 13.6286L2 9.01847L8.52743 8.30693L11.1875 2Z" stroke="white" stroke-width="1.5" stroke-miterlimit="10"/>
<path d="M67.9375 2L70.5976 8.30693L77.125 9.01847L72.2427 13.6286L73.6158 20.375L67.9375 16.9158L62.2592 20.375L63.6323 13.6286L58.75 9.01847L65.2774 8.30693L67.9375 2Z" stroke="white" stroke-width="1.5" stroke-miterlimit="10"/>
<path d="M39.5625 2L42.2226 8.30693L48.75 9.01847L43.8677 13.6286L45.2408 20.375L39.5625 16.9158L33.8842 20.375L35.2573 13.6286L30.375 9.01847L36.9024 8.30693L39.5625 2Z" stroke="white" stroke-width="1.5" stroke-miterlimit="10"/>
<path d="M96.3125 2L98.9726 8.30693L105.5 9.01847L100.618 13.6286L101.991 20.375L96.3125 16.9158L90.6342 20.375L92.0073 13.6286L87.125 9.01847L93.6524 8.30693L96.3125 2Z" stroke="white" stroke-width="1.5" stroke-miterlimit="10"/>
<path d="M124.687 2L127.348 8.30693L133.875 9.01847L128.993 13.6286L130.366 20.375L124.687 16.9158L119.009 20.375L120.382 13.6286L115.5 9.01847L122.027 8.30693L124.687 2Z" stroke="white" stroke-width="1.5" stroke-miterlimit="10"/>
</svg>
