<svg width="569" height="448" viewBox="0 0 569 448" fill="none" xmlns="http://www.w3.org/2000/svg">
<rect width="569" height="448" fill="#272735"/>
<path d="M448.283 407.2V417H449.431V408.46H449.599L452.441 417H454.163L457.005 408.46H457.173V417H458.321V407.2H456.235L453.379 415.768H453.211L450.369 407.2H448.283ZM460.171 412.03L461.109 412.464C461.501 411.568 462.215 410.938 463.447 410.938C464.679 410.938 465.379 411.596 465.379 412.632V412.898L462.677 413.15C461.095 413.304 460.073 413.934 460.073 415.18C460.073 416.412 461.137 417.196 462.621 417.196C464.091 417.196 464.861 416.51 465.197 415.852H465.393V417H466.443V412.688C466.443 411.05 465.323 409.972 463.475 409.972C461.767 409.972 460.675 410.966 460.171 412.03ZM461.151 415.152C461.151 414.382 461.865 414.088 462.817 414.004L465.379 413.766V413.906C465.379 415.32 464.413 416.286 462.761 416.286C461.809 416.286 461.151 415.894 461.151 415.152ZM473.273 410.168L470.991 415.642H470.823L468.541 410.168H467.379L470.347 417.098L469.143 419.8H470.305L474.435 410.168H473.273Z" fill="#EFF0F7"/>
<path d="M360.713 407.2L357.493 417H358.725L359.509 414.522H363.695L364.479 417H365.711L362.491 407.2H360.713ZM359.831 413.486L361.511 408.236H361.679L363.359 413.486H359.831ZM367.014 419.8H368.078V415.838H368.246C368.638 416.51 369.324 417.196 370.738 417.196C372.558 417.196 373.972 415.726 373.972 413.584C373.972 411.442 372.558 409.972 370.738 409.972C369.324 409.972 368.638 410.658 368.246 411.344H368.05V410.168H367.014V419.8ZM370.486 416.23C369.044 416.23 368.078 415.208 368.078 413.584C368.078 411.974 369.044 410.938 370.486 410.938C371.914 410.938 372.894 411.932 372.894 413.584C372.894 415.25 371.914 416.23 370.486 416.23ZM376.649 410.168H375.627V417H376.691V412.884C376.691 411.75 377.279 411.176 378.287 411.176H379.463V410.14H378.609C377.629 410.14 377.097 410.504 376.845 411.19H376.649V410.168Z" fill="#EFF0F7"/>
<path d="M262.377 407.2V417H263.525V408.46H263.693L266.535 417H268.257L271.099 408.46H271.267V417H272.415V407.2H270.329L267.473 415.768H267.305L264.463 407.2H262.377ZM274.264 412.03L275.202 412.464C275.594 411.568 276.308 410.938 277.54 410.938C278.772 410.938 279.472 411.596 279.472 412.632V412.898L276.77 413.15C275.188 413.304 274.166 413.934 274.166 415.18C274.166 416.412 275.23 417.196 276.714 417.196C278.184 417.196 278.954 416.51 279.29 415.852H279.486V417H280.536V412.688C280.536 411.05 279.416 409.972 277.568 409.972C275.86 409.972 274.768 410.966 274.264 412.03ZM275.244 415.152C275.244 414.382 275.958 414.088 276.91 414.004L279.472 413.766V413.906C279.472 415.32 278.506 416.286 276.854 416.286C275.902 416.286 275.244 415.894 275.244 415.152ZM283.578 410.168H282.556V417H283.62V412.884C283.62 411.75 284.208 411.176 285.216 411.176H286.392V410.14H285.538C284.558 410.14 284.026 410.504 283.774 411.19H283.578V410.168Z" fill="#EFF0F7"/>
<path d="M171.101 407.2V417H172.249V412.604H176.855V411.568H172.249V408.25H177.121V407.2H171.101ZM178.104 413.528C178.104 415.6 179.518 417.196 181.646 417.196C183.354 417.196 184.194 416.258 184.684 415.376L183.746 414.886C183.368 415.67 182.752 416.244 181.632 416.244C180.26 416.244 179.308 415.362 179.224 413.934H184.81V413.36C184.81 411.344 183.466 409.958 181.506 409.958C179.532 409.958 178.104 411.526 178.104 413.528ZM179.224 413.052C179.35 411.708 180.218 410.91 181.506 410.91C182.808 410.91 183.662 411.694 183.69 413.052H179.224ZM186.4 407.2V417H187.436V415.838H187.632C188.024 416.51 188.71 417.196 190.124 417.196C191.944 417.196 193.358 415.726 193.358 413.584C193.358 411.442 191.944 409.972 190.124 409.972C188.71 409.972 188.024 410.658 187.632 411.344H187.464V407.2H186.4ZM189.872 410.938C191.3 410.938 192.28 411.932 192.28 413.584C192.28 415.25 191.3 416.23 189.872 416.23C188.43 416.23 187.464 415.208 187.464 413.584C187.464 411.974 188.43 410.938 189.872 410.938Z" fill="#EFF0F7"/>
<path d="M83.6178 407.2H82.4698V414.06C82.4698 415.306 81.9938 416.146 80.5938 416.146C79.2078 416.146 78.5638 415.306 78.5638 414.06V413.304H77.4158V414.06C77.4158 416.09 78.5918 417.196 80.5938 417.196C82.5958 417.196 83.6178 416.09 83.6178 414.06V407.2ZM85.4227 412.03L86.3607 412.464C86.7527 411.568 87.4667 410.938 88.6987 410.938C89.9307 410.938 90.6307 411.596 90.6307 412.632V412.898L87.9287 413.15C86.3467 413.304 85.3247 413.934 85.3247 415.18C85.3247 416.412 86.3887 417.196 87.8727 417.196C89.3427 417.196 90.1127 416.51 90.4487 415.852H90.6447V417H91.6947V412.688C91.6947 411.05 90.5747 409.972 88.7267 409.972C87.0187 409.972 85.9267 410.966 85.4227 412.03ZM86.4027 415.152C86.4027 414.382 87.1167 414.088 88.0687 414.004L90.6307 413.766V413.906C90.6307 415.32 89.6647 416.286 88.0127 416.286C87.0607 416.286 86.4027 415.894 86.4027 415.152ZM93.7141 410.168V417H94.7781V413.486C94.7781 411.862 95.7021 410.994 97.0461 410.994C98.2361 410.994 98.9641 411.624 98.9641 412.954V417H100.042V412.87C100.042 410.98 98.7821 410.056 97.3401 410.056C95.9541 410.056 95.2961 410.714 94.9461 411.386H94.7501V410.168H93.7141Z" fill="#EFF0F7"/>
<path d="M28.872 49.8V68H34.488C39.116 68 41.872 65.66 41.872 60.928V56.872C41.872 52.14 39.116 49.8 34.488 49.8H28.872ZM31.472 52.192H34.436C37.608 52.192 39.272 53.596 39.272 56.924V60.876C39.272 64.204 37.608 65.608 34.436 65.608H31.472V52.192ZM44.527 58.614L46.633 59.576C47.231 58.094 48.453 57.08 50.533 57.08C52.613 57.08 53.835 58.12 53.835 59.862V60.2L49.129 60.642C45.853 60.954 44.267 62.202 44.267 64.516C44.267 66.804 46.113 68.364 48.973 68.364C51.599 68.364 52.925 67.142 53.471 65.998H53.835V68H56.227V59.966C56.227 56.898 54.017 54.896 50.585 54.896C47.465 54.896 45.437 56.638 44.527 58.614ZM46.737 64.412C46.737 63.112 47.907 62.67 49.389 62.54L53.835 62.124V62.332C53.835 64.542 52.379 66.336 49.389 66.336C47.699 66.336 46.737 65.608 46.737 64.412ZM58.9664 51.36C58.9664 52.452 59.8504 53.284 60.9424 53.284C62.0344 53.284 62.9184 52.452 62.9184 51.36C62.9184 50.268 62.0344 49.436 60.9424 49.436C59.8504 49.436 58.9664 50.268 58.9664 51.36ZM62.1644 55.26H59.7204V68H62.1644V55.26ZM68.2581 49.8H65.8141V68H68.2581V49.8ZM81.4239 55.26L77.4979 64.932H77.1859L73.2599 55.26H70.6079L76.0419 68.234L73.8839 73.2H76.5359L84.0759 55.26H81.4239ZM98.5429 49.8L92.8489 68H95.6049L96.9309 63.632H104.263L105.589 68H108.345L102.651 49.8H98.5429ZM97.6329 61.24L100.441 52.088H100.753L103.561 61.24H97.6329ZM109.67 61.63C109.67 65.53 112.478 68.364 116.326 68.364C120.096 68.364 121.942 65.842 122.514 63.424L120.096 62.956C119.758 64.594 118.77 66.128 116.326 66.128C113.83 66.128 112.114 64.334 112.114 61.63C112.114 58.926 113.83 57.132 116.274 57.132C118.536 57.132 119.862 58.536 120.07 60.33L122.462 59.836C121.942 57.002 119.706 54.896 116.274 54.896C112.478 54.896 109.67 57.73 109.67 61.63ZM123.645 55.26V57.392H127.181V65.816C127.181 67.116 128.065 68 129.313 68H132.641V65.868H130.301C129.833 65.868 129.625 65.66 129.625 65.14V57.392H133.369V55.26H129.625V50.84H127.181V55.26H123.645ZM135.164 51.36C135.164 52.452 136.048 53.284 137.14 53.284C138.232 53.284 139.116 52.452 139.116 51.36C139.116 50.268 138.232 49.436 137.14 49.436C136.048 49.436 135.164 50.268 135.164 51.36ZM138.362 55.26H135.918V68H138.362V55.26ZM140.711 55.26L145.469 68H148.953L153.711 55.26H151.059L147.367 65.66H147.055L143.363 55.26H140.711ZM154.967 61.526C154.967 65.374 157.671 68.364 161.623 68.364C164.665 68.364 166.303 66.674 167.265 65.114L165.211 63.944C164.535 65.296 163.443 66.232 161.571 66.232C159.283 66.232 157.671 64.802 157.515 62.514H167.551V61.292C167.551 57.6 165.055 54.844 161.311 54.844C157.619 54.844 154.967 57.782 154.967 61.526ZM157.515 60.538C157.697 58.276 159.075 56.976 161.311 56.976C163.547 56.976 164.951 58.354 165.003 60.538H157.515ZM178.041 49.8V61.864C178.041 66.076 180.537 68.364 184.853 68.364C189.169 68.364 191.665 66.076 191.665 61.864V49.8H189.065V61.864C189.065 64.542 187.661 65.972 184.853 65.972C182.045 65.972 180.641 64.542 180.641 61.864V49.8H178.041ZM195.046 58.666C195.046 61.084 196.944 62.02 199.804 62.436L200.87 62.592C202.248 62.8 203.886 62.904 203.886 64.23C203.886 65.478 202.586 66.284 200.766 66.284C198.686 66.284 197.048 65.114 196.242 63.19L194.058 64.36C195.046 66.232 197.074 68.364 200.688 68.364C203.964 68.364 206.304 66.7 206.304 64.152C206.304 61.5 204.042 60.798 201.156 60.382L200.09 60.226C198.712 60.018 197.464 59.888 197.464 58.64C197.464 57.548 198.53 56.924 199.96 56.924C201.468 56.924 203.002 57.626 204.406 59.446L206.226 58.146C204.224 55.91 202.508 54.896 199.908 54.896C197.308 54.896 195.046 56.248 195.046 58.666ZM208.185 61.526C208.185 65.374 210.889 68.364 214.841 68.364C217.883 68.364 219.521 66.674 220.483 65.114L218.429 63.944C217.753 65.296 216.661 66.232 214.789 66.232C212.501 66.232 210.889 64.802 210.733 62.514H220.769V61.292C220.769 57.6 218.273 54.844 214.529 54.844C210.837 54.844 208.185 57.782 208.185 61.526ZM210.733 60.538C210.915 58.276 212.293 56.976 214.529 56.976C216.765 56.976 218.169 58.354 218.221 60.538H210.733ZM225.805 55.26H223.465V68H225.909V60.564C225.909 58.64 226.897 57.6 228.717 57.6H230.953V55.208H229.497C227.651 55.208 226.611 55.988 226.169 57.34H225.805V55.26ZM232.726 58.666C232.726 61.084 234.624 62.02 237.484 62.436L238.55 62.592C239.928 62.8 241.566 62.904 241.566 64.23C241.566 65.478 240.266 66.284 238.446 66.284C236.366 66.284 234.728 65.114 233.922 63.19L231.738 64.36C232.726 66.232 234.754 68.364 238.368 68.364C241.644 68.364 243.984 66.7 243.984 64.152C243.984 61.5 241.722 60.798 238.836 60.382L237.77 60.226C236.392 60.018 235.144 59.888 235.144 58.64C235.144 57.548 236.21 56.924 237.64 56.924C239.148 56.924 240.682 57.626 242.086 59.446L243.906 58.146C241.904 55.91 240.188 54.896 237.588 54.896C234.988 54.896 232.726 56.248 232.726 58.666ZM256.052 67.324C256.052 72.628 259.224 74.448 262.864 74.448V72.212C259.874 72.16 258.496 70.522 258.496 67.168V54.272C258.496 50.918 259.874 49.28 262.864 49.228V46.992C259.224 46.992 256.052 48.812 256.052 54.116V67.324ZM265.259 49.8V68H270.875C275.503 68 278.259 65.66 278.259 60.928V56.872C278.259 52.14 275.503 49.8 270.875 49.8H265.259ZM267.859 52.192H270.823C273.995 52.192 275.659 53.596 275.659 56.924V60.876C275.659 64.204 273.995 65.608 270.823 65.608H267.859V52.192ZM285.291 49.8L279.597 68H282.353L283.679 63.632H291.011L292.337 68H295.093L289.399 49.8H285.291ZM284.381 61.24L287.189 52.088H287.501L290.309 61.24H284.381ZM297.123 49.8V61.864C297.123 66.076 299.619 68.364 303.935 68.364C308.251 68.364 310.747 66.076 310.747 61.864V49.8H308.147V61.864C308.147 64.542 306.743 65.972 303.935 65.972C301.127 65.972 299.723 64.542 299.723 61.864V49.8H297.123ZM319.9 67.324V54.116C319.9 48.812 316.728 46.992 313.088 46.992V49.228C316.078 49.28 317.456 50.918 317.456 54.272V67.168C317.456 70.522 316.078 72.16 313.088 72.212V74.448C316.728 74.448 319.9 72.628 319.9 67.324Z" fill="white"/>
<rect x="27" y="93" width="516" height="296" rx="20" fill="#39394B"/>
<line x1="27.5" y1="155.5" x2="542.5" y2="155.5" stroke="#5A5A76" stroke-linecap="round" stroke-dasharray="8 8"/>
<line x1="27.5" y1="215.5" x2="542.5" y2="215.5" stroke="#5A5A76" stroke-linecap="round" stroke-dasharray="8 8"/>
<line x1="27.5" y1="278.5" x2="542.5" y2="278.5" stroke="#5A5A76" stroke-linecap="round" stroke-dasharray="8 8"/>
<line x1="27.5" y1="339.5" x2="542.5" y2="339.5" stroke="#5A5A76" stroke-linecap="round" stroke-dasharray="8 8"/>
<path d="M64 339.614C64 334.091 68.4772 329.614 74 329.614V329.614C79.5228 329.614 84 334.091 84 339.614V360.131C84 365.654 79.5228 370.131 74 370.131V370.131C68.4772 370.131 64 365.654 64 360.131V339.614Z" fill="#ADA6FF"/>
<g filter="url(#filter0_d)">
<path d="M94 322.118C94 316.595 98.4772 312.118 104 312.118V312.118C109.523 312.118 114 316.595 114 322.118V360.131C114 365.654 109.523 370.131 104 370.131V370.131C98.4772 370.131 94 365.654 94 360.131V322.118Z" fill="#5445FF"/>
</g>
<path d="M157 248.45C157 242.927 161.477 238.45 167 238.45V238.45C172.523 238.45 177 242.927 177 248.45V360.131C177 365.654 172.523 370.131 167 370.131V370.131C161.477 370.131 157 365.654 157 360.131V248.45Z" fill="#ADA6FF"/>
<g filter="url(#filter1_d)">
<path d="M187 234.637C187 229.114 191.477 224.637 197 224.637V224.637C202.523 224.637 207 229.114 207 234.637V360.131C207 365.654 202.523 370.131 197 370.131V370.131C191.477 370.131 187 365.654 187 360.131V234.637Z" fill="#5445FF"/>
</g>
<path d="M249 311.988C249 306.465 253.477 301.988 259 301.988V301.988C264.523 301.988 269 306.465 269 311.988V360.131C269 365.654 264.523 370.131 259 370.131V370.131C253.477 370.131 249 365.654 249 360.131V311.988Z" fill="#ADA6FF"/>
<path d="M279 265.946C279 260.423 283.477 255.946 289 255.946V255.946C294.523 255.946 299 260.423 299 265.946V360.131C299 365.654 294.523 370.131 289 370.131V370.131C283.477 370.131 279 365.654 279 360.131V265.946Z" fill="#5445FF"/>
<path d="M343.5 207.932C343.5 202.41 347.977 197.932 353.5 197.932V197.932C359.023 197.932 363.5 202.41 363.5 207.932V360.131C363.5 365.654 359.023 370.131 353.5 370.131V370.131C347.977 370.131 343.5 365.654 343.5 360.131V207.932Z" fill="#ADA6FF"/>
<g filter="url(#filter2_d)">
<path d="M373.5 183.07C373.5 177.547 377.977 173.07 383.5 173.07V173.07C389.023 173.07 393.5 177.547 393.5 183.07V360.131C393.5 365.654 389.023 370.131 383.5 370.131V370.131C377.977 370.131 373.5 365.654 373.5 360.131V183.07Z" fill="#5445FF"/>
</g>
<path d="M434 172.02C434 166.497 438.477 162.02 444 162.02V162.02C449.523 162.02 454 166.497 454 172.02V360.131C454 365.654 449.523 370.131 444 370.131V370.131C438.477 370.131 434 365.654 434 360.131V172.02Z" fill="#ADA6FF"/>
<g filter="url(#filter3_d)">
<path d="M464 132.423C464 126.9 468.477 122.423 474 122.423V122.423C479.523 122.423 484 126.9 484 132.423V360.131C484 365.654 479.523 370.131 474 370.131V370.131C468.477 370.131 464 365.654 464 360.131V132.423Z" fill="#5445FF"/>
</g>
<circle cx="502" cy="58" r="10" fill="#5445FF"/>
<circle cx="532" cy="58" r="10" fill="#ADA6FF"/>
<defs>
<filter id="filter0_d" x="85" y="304.118" width="38" height="76.0134" filterUnits="userSpaceOnUse" color-interpolation-filters="sRGB">
<feFlood flood-opacity="0" result="BackgroundImageFix"/>
<feColorMatrix in="SourceAlpha" type="matrix" values="0 0 0 0 0 0 0 0 0 0 0 0 0 0 0 0 0 0 127 0"/>
<feOffset dy="1"/>
<feGaussianBlur stdDeviation="4.5"/>
<feColorMatrix type="matrix" values="0 0 0 0 0.078875 0 0 0 0 0.0770833 0 0 0 0 0.166667 0 0 0 0.14 0"/>
<feBlend mode="normal" in2="BackgroundImageFix" result="effect1_dropShadow"/>
<feBlend mode="normal" in="SourceGraphic" in2="effect1_dropShadow" result="shape"/>
</filter>
<filter id="filter1_d" x="178" y="216.637" width="38" height="163.494" filterUnits="userSpaceOnUse" color-interpolation-filters="sRGB">
<feFlood flood-opacity="0" result="BackgroundImageFix"/>
<feColorMatrix in="SourceAlpha" type="matrix" values="0 0 0 0 0 0 0 0 0 0 0 0 0 0 0 0 0 0 127 0"/>
<feOffset dy="1"/>
<feGaussianBlur stdDeviation="4.5"/>
<feColorMatrix type="matrix" values="0 0 0 0 0.078875 0 0 0 0 0.0770833 0 0 0 0 0.166667 0 0 0 0.14 0"/>
<feBlend mode="normal" in2="BackgroundImageFix" result="effect1_dropShadow"/>
<feBlend mode="normal" in="SourceGraphic" in2="effect1_dropShadow" result="shape"/>
</filter>
<filter id="filter2_d" x="364.5" y="165.07" width="38" height="215.061" filterUnits="userSpaceOnUse" color-interpolation-filters="sRGB">
<feFlood flood-opacity="0" result="BackgroundImageFix"/>
<feColorMatrix in="SourceAlpha" type="matrix" values="0 0 0 0 0 0 0 0 0 0 0 0 0 0 0 0 0 0 127 0"/>
<feOffset dy="1"/>
<feGaussianBlur stdDeviation="4.5"/>
<feColorMatrix type="matrix" values="0 0 0 0 0.078875 0 0 0 0 0.0770833 0 0 0 0 0.166667 0 0 0 0.14 0"/>
<feBlend mode="normal" in2="BackgroundImageFix" result="effect1_dropShadow"/>
<feBlend mode="normal" in="SourceGraphic" in2="effect1_dropShadow" result="shape"/>
</filter>
<filter id="filter3_d" x="455" y="114.423" width="38" height="265.708" filterUnits="userSpaceOnUse" color-interpolation-filters="sRGB">
<feFlood flood-opacity="0" result="BackgroundImageFix"/>
<feColorMatrix in="SourceAlpha" type="matrix" values="0 0 0 0 0 0 0 0 0 0 0 0 0 0 0 0 0 0 127 0"/>
<feOffset dy="1"/>
<feGaussianBlur stdDeviation="4.5"/>
<feColorMatrix type="matrix" values="0 0 0 0 0.078875 0 0 0 0 0.0770833 0 0 0 0 0.166667 0 0 0 0.14 0"/>
<feBlend mode="normal" in2="BackgroundImageFix" result="effect1_dropShadow"/>
<feBlend mode="normal" in="SourceGraphic" in2="effect1_dropShadow" result="shape"/>
</filter>
</defs>
</svg>
