<svg width="165" height="27" viewBox="0 0 165 27" fill="none" xmlns="http://www.w3.org/2000/svg">
<path d="M57.4165 14.4355C56.2234 16.3709 54.5266 17.4845 52.326 17.4845C49.1444 17.4845 46.8113 14.9127 46.8113 11.5986C46.8113 8.28446 49.0384 5.73921 52.379 5.73921C54.5001 5.73921 56.409 6.9323 57.3635 8.73518L60.439 6.29598C58.8747 3.51212 56.0378 1.8418 52.432 1.8418C46.6522 1.8418 42.5957 6.13691 42.5957 11.5986C42.5957 17.0603 46.7317 21.3819 52.379 21.3819C55.9318 21.3819 58.9012 19.4995 60.5185 16.8217L57.4165 14.4355Z" fill="#E1E1E7"/>
<path d="M68.9405 7.1444C64.6985 7.1444 61.6495 10.2199 61.6495 14.2499C61.6495 18.2534 64.6985 21.3819 68.9405 21.3819C73.1826 21.3819 76.2316 18.2534 76.2316 14.2499C76.2316 10.2199 73.1826 7.1444 68.9405 7.1444ZM68.9405 10.7237C70.7699 10.7237 72.1486 12.1289 72.1486 14.2499C72.1486 16.3709 70.7699 17.8026 68.9405 17.8026C67.1111 17.8026 65.7325 16.3709 65.7325 14.2499C65.7325 12.1289 67.1111 10.7237 68.9405 10.7237Z" fill="#E1E1E7"/>
<path d="M78.8657 7.46256V21.0637H82.8957V13.9848C82.8957 12.2084 83.8237 10.6971 85.5205 10.6971C87.0052 10.6971 87.9597 11.6251 87.9597 13.4015V21.0637H91.9897V13.9848C91.9897 12.2084 92.9176 10.6971 94.6145 10.6971C96.0992 10.6971 97.0272 11.6251 97.0272 13.4015V21.0637H101.057V12.7917C101.057 9.26544 99.0687 7.1444 95.8076 7.1444C93.5009 7.1444 92.2018 8.1519 91.2208 9.53057C90.2928 8.01933 88.8081 7.1444 86.7136 7.1444C84.9372 7.1444 83.6116 7.83374 82.7366 9.21242V7.46256H78.8657Z" fill="#E1E1E7"/>
<path d="M111.63 10.6971C113.354 10.6971 114.786 12.1023 114.786 14.3029C114.786 16.424 113.354 17.8292 111.63 17.8292C109.828 17.8292 108.422 16.4505 108.422 14.3029C108.422 12.0758 109.828 10.6971 111.63 10.6971ZM108.237 7.46256H104.498V26.3663H108.528V19.579C109.377 20.8516 110.994 21.3819 112.452 21.3819C116.164 21.3819 118.842 18.3064 118.842 14.2499C118.842 10.0608 115.952 7.1444 112.479 7.1444C111.153 7.1444 109.297 7.70118 108.237 9.34498V7.46256Z" fill="#E1E1E7"/>
<path d="M128.536 12.6061L124.824 13.3219C121.961 13.9317 120.396 15.3104 120.396 17.3254C120.396 19.6851 122.252 21.3819 124.904 21.3819C126.706 21.3819 128.032 20.5865 128.668 19.3934V21.0637H132.407V12.5C132.407 9.18591 130.153 7.1444 126.362 7.1444C123.817 7.1444 121.775 8.20492 120.529 9.71617L122.623 12.2614C123.445 11.3335 124.612 10.6176 126.123 10.6176C127.502 10.6176 128.536 11.1479 128.536 12.5V12.6061ZM125.805 18.3859C124.851 18.3859 124.241 17.8557 124.241 17.0868C124.241 16.3444 124.771 15.8672 125.858 15.6816L128.562 15.1513V15.549C128.562 17.1663 127.475 18.3859 125.805 18.3859Z" fill="#E1E1E7"/>
<path d="M135.801 7.46256V21.0637H139.831V13.9848C139.831 12.2084 140.759 10.6971 142.509 10.6971C143.994 10.6971 144.948 11.6251 144.948 13.4015V21.0637H148.978V12.7917C148.978 9.26544 146.963 7.1444 143.702 7.1444C141.873 7.1444 140.547 7.83374 139.672 9.21242V7.46256H135.801Z" fill="#E1E1E7"/>
<path d="M155.559 20.56L155.4 21.0107C154.816 22.9462 153.835 23.2908 152.775 23.2908C152.324 23.2908 151.635 23.2378 150.919 22.8401V26.1808C151.529 26.4724 152.404 26.6845 153.358 26.6845C155.93 26.6845 157.574 25.4649 158.926 22.1773L164.865 7.46256H160.755L157.574 16.3709L154.419 7.46256H150.203L155.559 20.56Z" fill="#E1E1E7"/>
<path d="M18.5517 0H14.4144C13.9466 0 13.5674 0.379213 13.5674 0.846995V23.2806C13.5674 23.7484 13.9466 24.1276 14.4144 24.1276H18.5517C19.0195 24.1276 19.3987 23.7484 19.3987 23.2806V0.846996C19.3987 0.379213 19.0195 0 18.5517 0Z" fill="white"/>
<path d="M27.2195 24.1271C29.9571 24.1271 32.1764 21.9078 32.1764 19.1702C32.1764 16.4326 29.9571 14.2134 27.2195 14.2134C24.4819 14.2134 22.2627 16.4326 22.2627 19.1702C22.2627 21.9078 24.4819 24.1271 27.2195 24.1271Z" fill="#ABADBF"/>
<path d="M27.2195 9.91367C29.9571 9.91367 32.1764 7.69442 32.1764 4.95684C32.1764 2.21925 29.9571 0 27.2195 0C24.4819 0 22.2627 2.21925 22.2627 4.95684C22.2627 7.69442 24.4819 9.91367 27.2195 9.91367Z" fill="#ABADBF"/>
<path d="M5.74199 24.1271C8.47958 24.1271 10.6988 21.9078 10.6988 19.1702C10.6988 16.4326 8.47958 14.2134 5.74199 14.2134C3.00441 14.2134 0.785156 16.4326 0.785156 19.1702C0.785156 21.9078 3.00441 24.1271 5.74199 24.1271Z" fill="#ABADBF"/>
</svg>
