<svg width="200" height="32" viewBox="0 0 200 32" fill="none" xmlns="http://www.w3.org/2000/svg">
<path d="M44.3916 12.7672C44.3916 10.6445 44.8656 8.74849 45.8136 7.07918C46.7822 5.38926 48.0909 4.0806 49.7396 3.15321C51.4089 2.2052 53.274 1.7312 55.3349 1.7312C57.7461 1.7312 59.8585 2.34946 61.6721 3.58599C63.4856 4.82252 64.7531 6.53305 65.4744 8.71758H60.4974C60.0027 7.68714 59.302 6.91431 58.3953 6.39909C57.5091 5.88387 56.4786 5.62626 55.3039 5.62626C54.0468 5.62626 52.9236 5.92509 51.9344 6.52274C50.9658 7.09979 50.2033 7.92414 49.6468 8.99579C49.111 10.0675 48.8431 11.3246 48.8431 12.7672C48.8431 14.1892 49.111 15.4463 49.6468 16.5386C50.2033 17.6103 50.9658 18.4449 51.9344 19.0426C52.9236 19.6196 54.0468 19.9081 55.3039 19.9081C56.4786 19.9081 57.5091 19.6505 58.3953 19.1353C59.302 18.5995 60.0027 17.8164 60.4974 16.7859H65.4744C64.7531 18.9911 63.4856 20.7119 61.6721 21.9484C59.8791 23.1643 57.7667 23.7723 55.3349 23.7723C53.274 23.7723 51.4089 23.3086 49.7396 22.3812C48.0909 21.4332 46.7822 20.1245 45.8136 18.4552C44.8656 16.7859 44.3916 14.8899 44.3916 12.7672Z" fill="#E1E1E7"/>
<path d="M76.7755 23.865C75.1268 23.865 73.643 23.5044 72.324 22.7831C71.0051 22.0411 69.9643 21.0004 69.2018 19.6608C68.4599 18.3213 68.0889 16.7756 68.0889 15.0239C68.0889 13.2721 68.4702 11.7265 69.2327 10.3869C70.0159 9.04732 71.0772 8.01688 72.4168 7.29557C73.7564 6.55365 75.2505 6.1827 76.8992 6.1827C78.5479 6.1827 80.042 6.55365 81.3816 7.29557C82.7212 8.01688 83.7722 9.04732 84.5347 10.3869C85.3179 11.7265 85.7094 13.2721 85.7094 15.0239C85.7094 16.7756 85.3076 18.3213 84.5038 19.6608C83.7207 21.0004 82.649 22.0411 81.2889 22.7831C79.9493 23.5044 78.4448 23.865 76.7755 23.865ZM76.7755 20.0936C77.5587 20.0936 78.2903 19.9081 78.9704 19.5372C79.6711 19.1456 80.2275 18.5686 80.6397 17.806C81.0519 17.0435 81.2579 16.1161 81.2579 15.0239C81.2579 13.3958 80.8252 12.1489 79.9596 11.2834C79.1146 10.3972 78.0739 9.9541 76.8374 9.9541C75.6008 9.9541 74.5601 10.3972 73.7151 11.2834C72.8908 12.1489 72.4786 13.3958 72.4786 15.0239C72.4786 16.652 72.8805 17.9091 73.6842 18.7953C74.5086 19.6608 75.539 20.0936 76.7755 20.0936Z" fill="#E1E1E7"/>
<path d="M110.152 6.21361C112.254 6.21361 113.944 6.86279 115.222 8.16114C116.52 9.43888 117.17 11.2318 117.17 13.54V23.5868H112.842V14.1274C112.842 12.7878 112.502 11.7677 111.822 11.067C111.142 10.3457 110.214 9.98501 109.039 9.98501C107.865 9.98501 106.927 10.3457 106.226 11.067C105.546 11.7677 105.206 12.7878 105.206 14.1274V23.5868H100.878V14.1274C100.878 12.7878 100.538 11.7677 99.8582 11.067C99.1782 10.3457 98.2508 9.98501 97.0761 9.98501C95.8807 9.98501 94.9327 10.3457 94.232 11.067C93.552 11.7677 93.2119 12.7878 93.2119 14.1274V23.5868H88.8841V6.46092H93.2119V8.5321C93.7683 7.81079 94.4794 7.24405 95.3449 6.83187C96.2311 6.4197 97.1997 6.21361 98.2508 6.21361C99.5903 6.21361 100.786 6.50213 101.837 7.07918C102.888 7.63561 103.702 8.43936 104.279 9.4904C104.835 8.50118 105.639 7.70775 106.69 7.11009C107.762 6.51244 108.916 6.21361 110.152 6.21361Z" fill="#E1E1E7"/>
<path d="M125.604 8.93397C126.161 8.15083 126.923 7.50166 127.892 6.98644C128.881 6.45061 130.004 6.1827 131.261 6.1827C132.725 6.1827 134.044 6.54335 135.218 7.26466C136.414 7.98596 137.351 9.0164 138.031 10.356C138.732 11.6749 139.082 13.2103 139.082 14.962C139.082 16.7138 138.732 18.2697 138.031 19.6299C137.351 20.9695 136.414 22.0102 135.218 22.7522C134.044 23.4941 132.725 23.865 131.261 23.865C130.004 23.865 128.891 23.6074 127.923 23.0922C126.975 22.577 126.202 21.9278 125.604 21.1447V31.7479H121.276V6.46092H125.604V8.93397ZM134.662 14.962C134.662 13.9316 134.445 13.0454 134.013 12.3035C133.601 11.541 133.044 10.9639 132.343 10.5724C131.663 10.1808 130.921 9.98501 130.118 9.98501C129.334 9.98501 128.593 10.1911 127.892 10.6033C127.212 10.9948 126.655 11.5719 126.223 12.3344C125.81 13.0969 125.604 13.9934 125.604 15.0239C125.604 16.0543 125.81 16.9508 126.223 17.7133C126.655 18.4758 127.212 19.0632 127.892 19.4754C128.593 19.8669 129.334 20.0627 130.118 20.0627C130.921 20.0627 131.663 19.8566 132.343 19.4444C133.044 19.0323 133.601 18.4449 134.013 17.6824C134.445 16.9199 134.662 16.0131 134.662 14.962Z" fill="#E1E1E7"/>
<path d="M141.114 14.962C141.114 13.2309 141.455 11.6955 142.135 10.356C142.835 9.0164 143.773 7.98596 144.948 7.26466C146.143 6.54335 147.472 6.1827 148.936 6.1827C150.213 6.1827 151.326 6.44031 152.274 6.95553C153.243 7.47075 154.016 8.11992 154.593 8.90305V6.46092H158.951V23.5868H154.593V21.0828C154.036 21.8866 153.263 22.5564 152.274 23.0922C151.306 23.6074 150.182 23.865 148.905 23.865C147.462 23.865 146.143 23.4941 144.948 22.7522C143.773 22.0102 142.835 20.9695 142.135 19.6299C141.455 18.2697 141.114 16.7138 141.114 14.962ZM154.593 15.0239C154.593 13.9728 154.387 13.0763 153.974 12.3344C153.562 11.5719 153.006 10.9948 152.305 10.6033C151.604 10.1911 150.852 9.98501 150.048 9.98501C149.245 9.98501 148.503 10.1808 147.823 10.5724C147.143 10.9639 146.586 11.541 146.153 12.3035C145.741 13.0454 145.535 13.9316 145.535 14.962C145.535 15.9925 145.741 16.8993 146.153 17.6824C146.586 18.4449 147.143 19.0323 147.823 19.4444C148.523 19.8566 149.265 20.0627 150.048 20.0627C150.852 20.0627 151.604 19.8669 152.305 19.4754C153.006 19.0632 153.562 18.4861 153.974 17.7442C154.387 16.9817 154.593 16.0749 154.593 15.0239Z" fill="#E1E1E7"/>
<path d="M172.669 6.21361C174.709 6.21361 176.358 6.86279 177.615 8.16114C178.872 9.43888 179.5 11.2318 179.5 13.54V23.5868H175.173V14.1274C175.173 12.7672 174.833 11.7265 174.152 11.0051C173.472 10.2632 172.545 9.89228 171.37 9.89228C170.175 9.89228 169.227 10.2632 168.526 11.0051C167.846 11.7265 167.506 12.7672 167.506 14.1274V23.5868H163.178V6.46092H167.506V8.59392C168.083 7.85201 168.815 7.27496 169.701 6.86279C170.608 6.43 171.597 6.21361 172.669 6.21361Z" fill="#E1E1E7"/>
<path d="M200 6.46092L189.397 31.6861H184.791L188.5 23.154L181.638 6.46092H186.491L190.911 18.4243L195.394 6.46092H200Z" fill="#E1E1E7"/>
<path d="M11.9433 31.5196C5.33549 31.5196 0 26.1431 0 19.5763C0 13.0096 5.33549 7.63306 11.9433 7.63306C18.51 7.63306 23.8866 12.9685 23.8866 19.5763C23.8455 26.1431 18.51 31.5196 11.9433 31.5196Z" fill="#ABADBF"/>
<path d="M29.7988 0H13.6651C12.7142 0 11.9434 0.770846 11.9434 1.72173V17.8554C11.9434 18.8063 12.7142 19.5771 13.6651 19.5771H29.7988C30.7497 19.5771 31.5205 18.8063 31.5205 17.8554V1.72173C31.5205 0.770846 30.7497 0 29.7988 0Z" fill="white"/>
</svg>
