<svg width="170" height="28" viewBox="0 0 170 28" fill="none" xmlns="http://www.w3.org/2000/svg">
<path d="M37.8027 11.4803C37.8027 9.68534 38.2035 8.08212 39.0052 6.67058C39.8242 5.24162 40.9308 4.13504 42.3249 3.35086C43.7364 2.54924 45.3135 2.14844 47.0561 2.14844C49.095 2.14844 50.8812 2.67123 52.4147 3.71681C53.9483 4.76239 55.02 6.20878 55.6299 8.05598H51.4214C51.0032 7.18466 50.4107 6.53117 49.6439 6.09551C48.8946 5.65985 48.0233 5.44202 47.03 5.44202C45.967 5.44202 45.0172 5.6947 44.1808 6.20007C43.3617 6.68801 42.717 7.38506 42.2465 8.29123C41.7934 9.19741 41.5668 10.2604 41.5668 11.4803C41.5668 12.6827 41.7934 13.7457 42.2465 14.6693C42.717 15.5755 43.3617 16.2812 44.1808 16.7866C45.0172 17.2745 45.967 17.5185 47.03 17.5185C48.0233 17.5185 48.8946 17.3007 49.6439 16.865C50.4107 16.4119 51.0032 15.7497 51.4214 14.8784H55.6299C55.02 16.743 53.9483 18.1981 52.4147 19.2437C50.8986 20.2719 49.1124 20.7859 47.0561 20.7859C45.3135 20.7859 43.7364 20.3939 42.3249 19.6097C40.9308 18.8081 39.8242 17.7015 39.0052 16.2899C38.2035 14.8784 37.8027 13.2752 37.8027 11.4803Z" fill="#E1E1E7"/>
<path d="M65.186 20.8644C63.7918 20.8644 62.5371 20.5594 61.4219 19.9495C60.3066 19.3221 59.4265 18.4421 58.7818 17.3094C58.1544 16.1767 57.8407 14.8697 57.8407 13.3884C57.8407 11.9072 58.1631 10.6002 58.8079 9.46751C59.4701 8.3348 60.3676 7.46348 61.5003 6.85356C62.633 6.22621 63.8964 5.91253 65.2905 5.91253C66.6846 5.91253 67.948 6.22621 69.0807 6.85356C70.2135 7.46348 71.1022 8.3348 71.747 9.46751C72.4092 10.6002 72.7403 11.9072 72.7403 13.3884C72.7403 14.8697 72.4005 16.1767 71.7208 17.3094C71.0586 18.4421 70.1525 19.3221 69.0023 19.9495C67.8696 20.5594 66.5975 20.8644 65.186 20.8644ZM65.186 17.6753C65.8482 17.6753 66.4668 17.5185 67.0419 17.2048C67.6344 16.8737 68.1049 16.3858 68.4534 15.741C68.8019 15.0962 68.9762 14.312 68.9762 13.3884C68.9762 12.0118 68.6102 10.9575 67.8783 10.2256C67.1638 9.47623 66.2838 9.10156 65.2382 9.10156C64.1926 9.10156 63.3126 9.47623 62.5981 10.2256C61.9011 10.9575 61.5526 12.0118 61.5526 13.3884C61.5526 14.7651 61.8924 15.8281 62.572 16.5775C63.2691 17.3094 64.1404 17.6753 65.186 17.6753Z" fill="#E1E1E7"/>
<path d="M93.4087 5.93867C95.1862 5.93867 96.6151 6.4876 97.6956 7.58547C98.7934 8.6659 99.3424 10.182 99.3424 12.1337V20.6291H95.6828V12.6304C95.6828 11.4977 95.3953 10.6351 94.8202 10.0426C94.2452 9.43266 93.461 9.1277 92.4677 9.1277C91.4744 9.1277 90.6815 9.43266 90.089 10.0426C89.5139 10.6351 89.2264 11.4977 89.2264 12.6304V20.6291H85.5668V12.6304C85.5668 11.4977 85.2793 10.6351 84.7042 10.0426C84.1292 9.43266 83.345 9.1277 82.3517 9.1277C81.3409 9.1277 80.5393 9.43266 79.9468 10.0426C79.3718 10.6351 79.0842 11.4977 79.0842 12.6304V20.6291H75.4247V6.14779H79.0842V7.89914C79.5547 7.28922 80.1559 6.80999 80.8879 6.46146C81.6372 6.11294 82.4562 5.93867 83.345 5.93867C84.4777 5.93867 85.4884 6.18264 86.3772 6.67058C87.2659 7.14109 87.9542 7.82072 88.4422 8.70947C88.9127 7.873 89.5923 7.20209 90.4811 6.69672C91.3872 6.19136 92.3631 5.93867 93.4087 5.93867Z" fill="#E1E1E7"/>
<path d="M106.475 8.23895C106.945 7.57675 107.59 7.02782 108.409 6.59216C109.245 6.13908 110.195 5.91253 111.258 5.91253C112.495 5.91253 113.611 6.2175 114.604 6.82742C115.615 7.43734 116.408 8.30866 116.983 9.44137C117.575 10.5567 117.871 11.8549 117.871 13.3362C117.871 14.8174 117.575 16.1331 116.983 17.2832C116.408 18.416 115.615 19.296 114.604 19.9233C113.611 20.5507 112.495 20.8644 111.258 20.8644C110.195 20.8644 109.254 20.6465 108.435 20.2109C107.633 19.7752 106.98 19.2263 106.475 18.5641V27.5299H102.815V6.14779H106.475V8.23895ZM114.133 13.3362C114.133 12.4648 113.951 11.7155 113.585 11.0882C113.236 10.4434 112.766 9.95545 112.173 9.62435C111.598 9.29325 110.971 9.1277 110.291 9.1277C109.629 9.1277 109.001 9.30196 108.409 9.65049C107.834 9.98159 107.363 10.4695 106.997 11.1143C106.649 11.7591 106.475 12.5171 106.475 13.3884C106.475 14.2598 106.649 15.0178 106.997 15.6626C107.363 16.3074 107.834 16.804 108.409 17.1525C109.001 17.4836 109.629 17.6492 110.291 17.6492C110.971 17.6492 111.598 17.4749 112.173 17.1264C112.766 16.7779 113.236 16.2812 113.585 15.6365C113.951 14.9917 114.133 14.2249 114.133 13.3362Z" fill="#E1E1E7"/>
<path d="M119.59 13.3362C119.59 11.8724 119.877 10.5741 120.452 9.44137C121.045 8.30866 121.838 7.43734 122.831 6.82742C123.842 6.2175 124.966 5.91253 126.203 5.91253C127.283 5.91253 128.224 6.13036 129.026 6.56602C129.845 7.00168 130.499 7.55061 130.987 8.21281V6.14779H134.672V20.6291H130.987V18.5118C130.516 19.1914 129.863 19.7578 129.026 20.2109C128.207 20.6465 127.257 20.8644 126.177 20.8644C124.957 20.8644 123.842 20.5507 122.831 19.9233C121.838 19.296 121.045 18.416 120.452 17.2832C119.877 16.1331 119.59 14.8174 119.59 13.3362ZM130.987 13.3884C130.987 12.4997 130.812 11.7417 130.464 11.1143C130.115 10.4695 129.645 9.98159 129.052 9.65049C128.46 9.30196 127.824 9.1277 127.144 9.1277C126.464 9.1277 125.837 9.29325 125.262 9.62435C124.687 9.95545 124.216 10.4434 123.85 11.0882C123.502 11.7155 123.328 12.4648 123.328 13.3362C123.328 14.2075 123.502 14.9742 123.85 15.6365C124.216 16.2812 124.687 16.7779 125.262 17.1264C125.854 17.4749 126.482 17.6492 127.144 17.6492C127.824 17.6492 128.46 17.4836 129.052 17.1525C129.645 16.804 130.115 16.3161 130.464 15.6887C130.812 15.044 130.987 14.2772 130.987 13.3884Z" fill="#E1E1E7"/>
<path d="M146.271 5.93867C147.996 5.93867 149.391 6.4876 150.454 7.58547C151.517 8.6659 152.048 10.182 152.048 12.1337V20.6291H148.389V12.6304C148.389 11.4803 148.101 10.6002 147.526 9.99031C146.951 9.36296 146.167 9.04928 145.173 9.04928C144.163 9.04928 143.361 9.36296 142.769 9.99031C142.193 10.6002 141.906 11.4803 141.906 12.6304V20.6291H138.246V6.14779H141.906V7.95142C142.394 7.32407 143.013 6.83613 143.762 6.4876C144.529 6.12165 145.365 5.93867 146.271 5.93867Z" fill="#E1E1E7"/>
<path d="M169.382 6.14779L160.416 27.4777H156.521L159.658 20.2632L153.855 6.14779H157.959L161.697 16.2638L165.487 6.14779H169.382Z" fill="#E1E1E7"/>
<path d="M10.3627 27.3372C4.77526 27.3372 0.263672 22.7909 0.263672 17.2382C0.263672 11.6854 4.77526 7.13916 10.3627 7.13916C15.9154 7.13916 20.4617 11.6507 20.4617 17.2382C20.427 22.7909 15.9154 27.3372 10.3627 27.3372Z" fill="#ABADBF"/>
<path d="M25.1946 0.68457H12.084C11.1332 0.68457 10.3623 1.45541 10.3623 2.4063V15.5169C10.3623 16.4678 11.1331 17.2386 12.084 17.2386H25.1946C26.1455 17.2386 26.9164 16.4678 26.9164 15.5169V2.4063C26.9164 1.45542 26.1455 0.68457 25.1946 0.68457Z" fill="white"/>
</svg>
