<svg width="184" height="30" viewBox="0 0 184 30" fill="none" xmlns="http://www.w3.org/2000/svg">
<path d="M63.3972 16.1591C62.0617 18.3257 60.1622 19.5722 57.6989 19.5722C54.1374 19.5722 51.5256 16.6933 51.5256 12.9834C51.5256 9.27354 54.0187 6.42435 57.7582 6.42435C60.1325 6.42435 62.2694 7.7599 63.3379 9.77808L66.7807 7.04761C65.0296 3.9313 61.8539 2.06152 57.8176 2.06152C51.3475 2.06152 46.8066 6.86953 46.8066 12.9834C46.8066 19.0973 51.4366 23.935 57.7582 23.935C61.7352 23.935 65.0593 21.8278 66.8697 18.8302L63.3972 16.1591Z" fill="#E1E1E7"/>
<path d="M76.2974 7.99734C71.5488 7.99734 68.1357 11.4401 68.1357 15.9513C68.1357 20.4329 71.5488 23.935 76.2974 23.935C81.0461 23.935 84.4592 20.4329 84.4592 15.9513C84.4592 11.4401 81.0461 7.99734 76.2974 7.99734ZM76.2974 12.004C78.3453 12.004 79.8886 13.577 79.8886 15.9513C79.8886 18.3257 78.3453 19.9283 76.2974 19.9283C74.2496 19.9283 72.7063 18.3257 72.7063 15.9513C72.7063 13.577 74.2496 12.004 76.2974 12.004Z" fill="#E1E1E7"/>
<path d="M87.4078 8.35349V23.5788H91.9191V15.6545C91.9191 13.666 92.9578 11.9743 94.8573 11.9743C96.5193 11.9743 97.5878 13.0131 97.5878 15.0016V23.5788H102.099V15.6545C102.099 13.666 103.138 11.9743 105.037 11.9743C106.699 11.9743 107.738 13.0131 107.738 15.0016V23.5788H112.249V14.319C112.249 10.3717 110.023 7.99734 106.373 7.99734C103.791 7.99734 102.336 9.12514 101.238 10.6685C100.2 8.97675 98.5375 7.99734 96.1929 7.99734C94.2044 7.99734 92.7204 8.76899 91.741 10.3123V8.35349H87.4078Z" fill="#E1E1E7"/>
<path d="M124.085 11.9743C126.014 11.9743 127.617 13.5473 127.617 16.0107C127.617 18.385 126.014 19.958 124.085 19.958C122.067 19.958 120.494 18.4147 120.494 16.0107C120.494 13.5176 122.067 11.9743 124.085 11.9743ZM120.286 8.35349H116.101V29.5147H120.613V21.9168C121.562 23.3414 123.373 23.935 125.005 23.935C129.16 23.935 132.158 20.4922 132.158 15.9513C132.158 11.262 128.923 7.99734 125.035 7.99734C123.551 7.99734 121.473 8.6206 120.286 10.4607V8.35349Z" fill="#E1E1E7"/>
<path d="M143.009 14.1112L138.854 14.9126C135.649 15.5952 133.898 17.1385 133.898 19.3941C133.898 22.0355 135.975 23.935 138.943 23.935C140.961 23.935 142.445 23.0446 143.158 21.7091V23.5788H147.342V13.9925C147.342 10.2826 144.82 7.99734 140.576 7.99734C137.726 7.99734 135.441 9.1845 134.046 10.8762L136.391 13.7254C137.311 12.6866 138.617 11.8853 140.308 11.8853C141.852 11.8853 143.009 12.4789 143.009 13.9925V14.1112ZM139.952 20.5813C138.884 20.5813 138.201 19.9877 138.201 19.127C138.201 18.296 138.795 17.7618 140.012 17.554L143.039 16.9604V17.4056C143.039 19.216 141.822 20.5813 139.952 20.5813Z" fill="#E1E1E7"/>
<path d="M151.143 8.35349V23.5788H155.654V15.6545C155.654 13.666 156.692 11.9743 158.651 11.9743C160.313 11.9743 161.382 13.0131 161.382 15.0016V23.5788H165.893V14.319C165.893 10.3717 163.637 7.99734 159.987 7.99734C157.939 7.99734 156.455 8.76899 155.476 10.3123V8.35349H151.143Z" fill="#E1E1E7"/>
<path d="M173.259 23.0149L173.081 23.5195C172.428 25.6861 171.33 26.0719 170.143 26.0719C169.638 26.0719 168.866 26.0125 168.065 25.5673V29.3069C168.748 29.6334 169.727 29.8708 170.796 29.8708C173.674 29.8708 175.515 28.5056 177.028 24.8254L183.676 8.35349H179.076L175.515 18.3257L171.983 8.35349H167.264L173.259 23.0149Z" fill="#E1E1E7"/>
<path d="M19.9912 0H15.1575C14.6898 0 14.3105 0.379214 14.3105 0.846997V26.1618C14.3105 26.6296 14.6898 27.0088 15.1575 27.0088H19.9912C20.459 27.0088 20.8382 26.6296 20.8382 26.1618V0.846996C20.8382 0.379213 20.459 0 19.9912 0Z" fill="white"/>
<path d="M29.5956 27.0086C32.6601 27.0086 35.1444 24.5244 35.1444 21.4599C35.1444 18.3954 32.6601 15.9111 29.5956 15.9111C26.5311 15.9111 24.0469 18.3954 24.0469 21.4599C24.0469 24.5244 26.5311 27.0086 29.5956 27.0086Z" fill="#ABADBF"/>
<path d="M29.5956 11.0975C32.6601 11.0975 35.1444 8.61325 35.1444 5.54876C35.1444 2.48426 32.6601 0 29.5956 0C26.5311 0 24.0469 2.48426 24.0469 5.54876C24.0469 8.61325 26.5311 11.0975 29.5956 11.0975Z" fill="#ABADBF"/>
<path d="M5.55266 27.0086C8.61716 27.0086 11.1014 24.5244 11.1014 21.4599C11.1014 18.3954 8.61716 15.9111 5.55266 15.9111C2.48817 15.9111 0.00390625 18.3954 0.00390625 21.4599C0.00390625 24.5244 2.48817 27.0086 5.55266 27.0086Z" fill="#ABADBF"/>
</svg>
