<svg width="212" height="31" viewBox="0 0 212 31" fill="none" xmlns="http://www.w3.org/2000/svg">
<path d="M74.2335 23.4146C72.5384 23.4146 71.044 23.0466 69.7504 22.3105C68.4567 21.5745 67.4307 20.5485 66.6724 19.2326C65.9364 17.9166 65.5684 16.4111 65.5684 14.716C65.5684 13.0209 65.9364 11.5154 66.6724 10.1995C67.4307 8.88352 68.4567 7.85754 69.7504 7.1215C71.044 6.38547 72.5384 6.01746 74.2335 6.01746C76.3524 6.01746 78.1367 6.57506 79.5864 7.69026C81.0362 8.78315 81.9618 10.2998 82.3633 12.2403H77.8467C77.6237 11.4373 77.1776 10.8128 76.5085 10.3667C75.8617 9.89835 75.0922 9.66416 74.2 9.66416C73.0179 9.66416 72.0142 10.1102 71.189 11.0024C70.3637 11.8946 69.9511 13.1324 69.9511 14.716C69.9511 16.2996 70.3637 17.5375 71.189 18.4296C72.0142 19.3218 73.0179 19.7679 74.2 19.7679C75.0922 19.7679 75.8617 19.5448 76.5085 19.0988C77.1776 18.6527 77.6237 18.017 77.8467 17.1918H82.3633C81.9618 19.0653 81.0362 20.5708 79.5864 21.7083C78.1367 22.8458 76.3524 23.4146 74.2335 23.4146Z" fill="white"/>
<path d="M93.4576 23.4146C91.8517 23.4146 90.402 23.0466 89.1083 22.3105C87.837 21.5745 86.8222 20.5597 86.0638 19.266C85.3278 17.9501 84.9598 16.4334 84.9598 14.716C84.9598 12.9986 85.339 11.4931 86.0973 10.1995C86.8556 8.88352 87.8705 7.85754 89.1418 7.1215C90.4354 6.38547 91.8852 6.01746 93.4911 6.01746C95.0747 6.01746 96.5021 6.38547 97.7734 7.1215C99.0671 7.85754 100.082 8.88352 100.818 10.1995C101.576 11.4931 101.955 12.9986 101.955 14.716C101.955 16.4334 101.576 17.9501 100.818 19.266C100.082 20.5597 99.0671 21.5745 97.7734 22.3105C96.4798 23.0466 95.0412 23.4146 93.4576 23.4146ZM93.4576 19.701C94.5728 19.701 95.543 19.2883 96.3683 18.4631C97.1935 17.6155 97.6062 16.3665 97.6062 14.716C97.6062 13.0655 97.1935 11.8277 96.3683 11.0024C95.543 10.1549 94.584 9.73108 93.4911 9.73108C92.3536 9.73108 91.3722 10.1549 90.5469 11.0024C89.744 11.8277 89.3425 13.0655 89.3425 14.716C89.3425 16.3665 89.744 17.6155 90.5469 18.4631C91.3722 19.2883 92.3424 19.701 93.4576 19.701Z" fill="white"/>
<path d="M105.115 23.0131V6.41893H108.896L109.264 8.66048C109.799 7.85754 110.502 7.22187 111.371 6.75349C112.264 6.2628 113.29 6.01746 114.449 6.01746C117.014 6.01746 118.832 7.00998 119.903 8.99504C120.505 8.08058 121.308 7.3557 122.312 6.8204C123.338 6.2851 124.453 6.01746 125.657 6.01746C127.821 6.01746 129.482 6.66427 130.642 7.95791C131.802 9.25154 132.382 11.1474 132.382 13.6454V23.0131H128.1V14.0469C128.1 12.6194 127.821 11.5265 127.263 10.7682C126.728 10.0099 125.891 9.63071 124.754 9.63071C123.594 9.63071 122.657 10.0545 121.944 10.902C121.252 11.7496 120.906 12.9317 120.906 14.4484V23.0131H116.624V14.0469C116.624 12.6194 116.345 11.5265 115.788 10.7682C115.23 10.0099 114.371 9.63071 113.212 9.63071C112.074 9.63071 111.148 10.0545 110.435 10.902C109.743 11.7496 109.398 12.9317 109.398 14.4484V23.0131H105.115Z" fill="white"/>
<path d="M135.778 30.3734V6.41893H139.592L140.061 8.79431C140.596 8.05827 141.299 7.41146 142.169 6.85386C143.061 6.29626 144.209 6.01746 145.615 6.01746C147.176 6.01746 148.57 6.39662 149.797 7.15496C151.023 7.9133 151.993 8.95043 152.707 10.2664C153.421 11.5823 153.778 13.0767 153.778 14.7495C153.778 16.4223 153.421 17.9166 152.707 19.2326C151.993 20.5262 151.023 21.5522 149.797 22.3105C148.57 23.0466 147.176 23.4146 145.615 23.4146C144.365 23.4146 143.273 23.1804 142.336 22.712C141.399 22.2436 140.641 21.5857 140.061 20.7381V30.3734H135.778ZM144.711 19.6675C146.072 19.6675 147.198 19.2103 148.09 18.2958C148.982 17.3814 149.429 16.1992 149.429 14.7495C149.429 13.2997 148.982 12.1065 148.09 11.1697C147.198 10.2329 146.072 9.76453 144.711 9.76453C143.328 9.76453 142.191 10.2329 141.299 11.1697C140.429 12.0841 139.994 13.2663 139.994 14.716C139.994 16.1658 140.429 17.359 141.299 18.2958C142.191 19.2103 143.328 19.6675 144.711 19.6675Z" fill="white"/>
<path d="M162.655 23.4146C161.228 23.4146 160.057 23.1916 159.142 22.7455C158.228 22.2771 157.548 21.6637 157.101 20.9054C156.655 20.1471 156.432 19.3107 156.432 18.3962C156.432 16.8572 157.035 15.6082 158.239 14.6491C159.443 13.69 161.25 13.2105 163.659 13.2105H167.874V12.809C167.874 11.6715 167.551 10.8351 166.904 10.2998C166.257 9.76453 165.454 9.49688 164.495 9.49688C163.625 9.49688 162.867 9.70877 162.22 10.1325C161.573 10.534 161.172 11.1362 161.016 11.9392H156.834C156.945 10.7348 157.347 9.68647 158.038 8.79431C158.752 7.90214 159.666 7.22187 160.782 6.75349C161.897 6.2628 163.146 6.01746 164.529 6.01746C166.893 6.01746 168.755 6.60851 170.116 7.79062C171.476 8.97274 172.157 10.6455 172.157 12.809V23.0131H168.51L168.108 20.3366C167.618 21.2288 166.926 21.9648 166.034 22.5447C165.164 23.1246 164.038 23.4146 162.655 23.4146ZM163.625 20.069C164.852 20.069 165.8 19.6675 166.469 18.8646C167.161 18.0616 167.595 17.0691 167.774 15.887H164.127C162.99 15.887 162.176 16.0989 161.685 16.5226C161.194 16.9241 160.949 17.426 160.949 18.0282C160.949 18.675 161.194 19.1768 161.685 19.5337C162.176 19.8906 162.822 20.069 163.625 20.069Z" fill="white"/>
<path d="M175.574 23.0131V6.41893H179.355L179.689 9.22923C180.202 8.24786 180.938 7.46722 181.897 6.88731C182.879 6.30741 184.027 6.01746 185.343 6.01746C187.395 6.01746 188.99 6.66427 190.127 7.95791C191.265 9.25154 191.834 11.1474 191.834 13.6454V23.0131H187.551V14.0469C187.551 12.6194 187.261 11.5265 186.682 10.7682C186.102 10.0099 185.198 9.63071 183.972 9.63071C182.767 9.63071 181.775 10.0545 180.994 10.902C180.236 11.7496 179.857 12.9317 179.857 14.4484V23.0131H175.574Z" fill="white"/>
<path d="M196.778 30.3734L200.626 21.9091H199.622L193.165 6.41893H197.816L202.466 18.0951L207.317 6.41893H211.867L201.328 30.3734H196.778Z" fill="white"/>
<path d="M16.6489 27.599C15.5908 28.6571 13.8749 28.6556 12.8186 27.5957L1.90696 16.6466C0.853246 15.5892 0.854711 13.8783 1.91023 12.8228L12.8219 1.91115C13.8774 0.855628 15.5883 0.854159 16.6456 1.90787L27.5948 12.8195C28.6547 13.8758 28.6562 15.5918 27.5981 16.6498L16.6489 27.599Z" fill="#E1E1E7"/>
<path d="M31.4287 27.5948C30.3724 28.6547 28.6565 28.6562 27.5984 27.5981L16.6492 16.6489C15.5911 15.5908 15.5926 13.8749 16.6525 12.8186L27.6017 1.90696C28.659 0.853246 30.3699 0.854711 31.4254 1.91023L42.3371 12.8219C43.3926 13.8774 43.3941 15.5883 42.3403 16.6456L31.4287 27.5948Z" fill="white"/>
<path d="M42.3846 27.5969C41.3274 28.6557 39.6117 28.6557 38.5545 27.5969L27.6223 16.6474C26.5662 15.5897 26.5676 13.876 27.6255 12.8201L38.5578 1.90817C39.6142 0.853742 41.3249 0.853743 42.3813 1.90817L53.3136 12.8201C54.3715 13.876 54.3729 15.5897 53.3169 16.6474L42.3846 27.5969Z" fill="#E1E1E7"/>
</svg>
