<svg width="204" height="33" viewBox="0 0 204 33" fill="none" xmlns="http://www.w3.org/2000/svg">
<path d="M25.4628 14.0335C21.123 14.0335 17.6003 10.5242 17.6003 6.21115C17.6003 5.64858 17.6673 5.1128 17.7744 4.57703H7.32675C3.28164 4.57703 0 7.84527 0 11.8636V25.325C0 29.3567 3.28164 32.6116 7.32675 32.6116H20.8551C24.9136 32.6116 28.1819 29.3433 28.1819 25.325V13.5379C27.3514 13.846 26.4272 14.0335 25.4628 14.0335Z" fill="#ABADBF"/>
<path d="M28.1946 25.325V13.5379C27.3507 13.846 26.4265 14.0335 25.4755 14.0335C21.1357 14.0335 17.613 10.5242 17.613 6.21115C17.613 5.64858 17.6799 5.1128 17.7871 4.57703H7.33945C3.32112 4.57703 0.066273 7.79169 0.0126953 11.7832C9.65668 15.7614 19.5686 20.5968 28.141 26.2492C28.1678 25.9411 28.1946 25.6331 28.1946 25.325Z" fill="#ABADBF"/>
<path d="M26.0647 11.3317C29.2124 11.3317 31.7573 8.80014 31.7573 5.66584C31.7573 2.54494 29.2124 0 26.0647 0C22.917 0 20.3721 2.53155 20.3721 5.66584C20.3721 8.78675 22.917 11.3317 26.0647 11.3317Z" fill="white"/>
<path d="M60.5541 18.5391C60.3301 19.4913 59.952 20.4155 59.4199 21.3117C58.8878 22.1799 58.2297 22.964 57.4455 23.6642C56.6613 24.3363 55.7652 24.8824 54.757 25.3025C53.7488 25.6946 52.6705 25.8906 51.5223 25.8906C50.206 25.8906 48.9598 25.6386 47.7835 25.1345C46.6353 24.6023 45.6131 23.8882 44.7169 22.992C43.8488 22.0958 43.1486 21.0596 42.6165 19.8834C42.1124 18.6791 41.8604 17.3909 41.8604 16.0186C41.8604 14.6463 42.1124 13.3721 42.6165 12.1958C43.1486 10.9916 43.8488 9.94137 44.7169 9.04519C45.6131 8.14901 46.6353 7.44887 47.7835 6.94477C48.9598 6.41266 50.206 6.14661 51.5223 6.14661C52.6705 6.14661 53.7488 6.35665 54.757 6.77673C55.7652 7.16881 56.6613 7.71492 57.4455 8.41507C58.2297 9.0872 58.8878 9.87136 59.4199 10.7675C59.952 11.6357 60.3301 12.5459 60.5541 13.4981H55.7232C55.4991 12.994 55.191 12.5459 54.799 12.1538C54.4629 11.8178 54.0288 11.5097 53.4967 11.2296C52.9646 10.9216 52.3065 10.7675 51.5223 10.7675C50.15 10.7675 49.0018 11.2436 48.0776 12.1958C47.1534 13.148 46.6913 14.4223 46.6913 16.0186C46.6913 17.6149 47.1534 18.8892 48.0776 19.8414C49.0018 20.7936 50.15 21.2697 51.5223 21.2697C52.3065 21.2697 52.9646 21.1296 53.4967 20.8496C54.0288 20.5695 54.4629 20.2615 54.799 19.9254C55.191 19.5333 55.4991 19.0712 55.7232 18.5391H60.5541Z" fill="#E1E1E7"/>
<path d="M68.5357 16.0186C68.5357 17.6149 68.9978 18.8892 69.922 19.8414C70.8462 20.7936 71.9944 21.2697 73.3667 21.2697C74.739 21.2697 75.8872 20.7936 76.8114 19.8414C77.7356 18.8892 78.1977 17.6149 78.1977 16.0186C78.1977 14.4223 77.7356 13.148 76.8114 12.1958C75.8872 11.2436 74.739 10.7675 73.3667 10.7675C71.9944 10.7675 70.8462 11.2436 69.922 12.1958C68.9978 13.148 68.5357 14.4223 68.5357 16.0186ZM83.0287 16.0186C83.0287 17.3909 82.7626 18.6791 82.2305 19.8834C81.7264 21.0596 81.0263 22.0958 80.1301 22.992C79.2619 23.8882 78.2397 24.6023 77.0635 25.1345C75.9152 25.6386 74.683 25.8906 73.3667 25.8906C72.0505 25.8906 70.8042 25.6386 69.628 25.1345C68.4797 24.6023 67.4575 23.8882 66.5613 22.992C65.6932 22.0958 64.993 21.0596 64.4609 19.8834C63.9568 18.6791 63.7048 17.3909 63.7048 16.0186C63.7048 14.6463 63.9568 13.3721 64.4609 12.1958C64.993 10.9916 65.6932 9.94137 66.5613 9.04519C67.4575 8.14901 68.4797 7.44887 69.628 6.94477C70.8042 6.41266 72.0505 6.14661 73.3667 6.14661C74.683 6.14661 75.9152 6.41266 77.0635 6.94477C78.2397 7.44887 79.2619 8.14901 80.1301 9.04519C81.0263 9.94137 81.7264 10.9916 82.2305 12.1958C82.7626 13.3721 83.0287 14.6463 83.0287 16.0186Z" fill="#E1E1E7"/>
<path d="M96.4517 6.14661C97.4319 6.14661 98.2721 6.28663 98.9722 6.56669C99.6723 6.81874 100.246 7.0988 100.695 7.40686C101.199 7.77094 101.605 8.19102 101.913 8.66712C102.361 8.19102 102.879 7.77094 103.467 7.40686C103.971 7.0988 104.573 6.81874 105.273 6.56669C105.974 6.28663 106.744 6.14661 107.584 6.14661C109.684 6.14661 111.365 6.81874 112.625 8.16301C113.885 9.50729 114.515 11.4957 114.515 14.1282V25.6806H109.684V14.5483C109.684 13.3721 109.362 12.4479 108.718 11.7757C108.102 11.1036 107.374 10.7675 106.534 10.7675C105.694 10.7675 104.951 11.1036 104.307 11.7757C103.691 12.4479 103.383 13.3721 103.383 14.5483V25.6806H98.5521V14.5483C98.5521 13.3721 98.2301 12.4479 97.5859 11.7757C96.9698 11.1036 96.2417 10.7675 95.4015 10.7675C94.5613 10.7675 93.8192 11.1036 93.175 11.7757C92.5589 12.4479 92.2508 13.3721 92.2508 14.5483V25.6806H87.4199V6.35665H90.9906L91.8308 8.24703C92.2228 7.85495 92.6569 7.50488 93.133 7.19682C93.5251 6.94477 94.0012 6.70672 94.5613 6.48267C95.1214 6.25863 95.7516 6.14661 96.4517 6.14661Z" fill="#E1E1E7"/>
<path d="M129.638 6.14661C130.843 6.14661 131.991 6.39866 133.083 6.90276C134.175 7.37886 135.128 8.065 135.94 8.96118C136.78 9.82935 137.438 10.8656 137.914 12.0698C138.418 13.274 138.67 14.5903 138.67 16.0186C138.67 17.4469 138.418 18.7632 137.914 19.9674C137.438 21.1716 136.78 22.2219 135.94 23.118C135.128 23.9862 134.175 24.6724 133.083 25.1765C131.991 25.6526 130.843 25.8906 129.638 25.8906C128.826 25.8906 128.112 25.7926 127.496 25.5965C126.908 25.4005 126.39 25.1905 125.942 24.9664C125.438 24.6864 124.989 24.3643 124.597 24.0002V32.4019H119.766V6.35665H123.337L124.177 8.24703C124.597 7.85495 125.087 7.50488 125.648 7.19682C126.124 6.94477 126.698 6.70672 127.37 6.48267C128.042 6.25863 128.798 6.14661 129.638 6.14661ZM124.177 16.0186C124.177 17.6149 124.639 18.8892 125.564 19.8414C126.488 20.7936 127.636 21.2697 129.008 21.2697C130.381 21.2697 131.529 20.7936 132.453 19.8414C133.377 18.8892 133.839 17.6149 133.839 16.0186C133.839 14.4223 133.377 13.148 132.453 12.1958C131.529 11.2436 130.381 10.7675 129.008 10.7675C127.636 10.7675 126.488 11.2436 125.564 12.1958C124.639 13.148 124.177 14.4223 124.177 16.0186Z" fill="#E1E1E7"/>
<path d="M151.069 6.14661C152.162 6.14661 153.17 6.34265 154.094 6.73472C155.018 7.0988 155.816 7.6169 156.488 8.28904C157.161 8.96118 157.679 9.75934 158.043 10.6835C158.435 11.6077 158.631 12.6159 158.631 13.7081V25.6806H155.06L154.22 23.7902C153.772 24.1823 153.282 24.5323 152.75 24.8404C152.274 25.1204 151.699 25.3725 151.027 25.5965C150.355 25.7926 149.599 25.8906 148.759 25.8906C146.658 25.8906 145.048 25.3865 143.928 24.3783C142.808 23.3421 142.248 22.0258 142.248 20.4295C142.248 19.4773 142.43 18.6091 142.794 17.825C143.186 17.0128 143.83 16.3267 144.726 15.7666C145.622 15.1784 146.798 14.7303 148.255 14.4223C149.739 14.0862 151.587 13.9182 153.8 13.9182C153.8 12.854 153.506 12.0278 152.918 11.4397C152.358 10.8516 151.601 10.5575 150.649 10.5575C150.005 10.5575 149.487 10.6695 149.095 10.8936C148.731 11.1176 148.437 11.3557 148.213 11.6077C147.961 11.9158 147.793 12.2658 147.709 12.6579H142.878C142.99 11.7617 143.242 10.9216 143.634 10.1374C144.054 9.35326 144.614 8.66712 145.314 8.079C146.014 7.49088 146.84 7.02879 147.793 6.69272C148.773 6.32864 149.865 6.14661 151.069 6.14661ZM149.599 22.1098C150.859 22.1098 151.867 21.7458 152.624 21.0176C153.408 20.2615 153.8 19.2953 153.8 18.119V17.2789C152.372 17.2789 151.223 17.3489 150.355 17.4889C149.487 17.6009 148.801 17.783 148.297 18.035C147.821 18.2591 147.499 18.5391 147.331 18.8752C147.163 19.2113 147.078 19.5893 147.078 20.0094C147.078 20.5415 147.317 21.0316 147.793 21.4797C148.269 21.8998 148.871 22.1098 149.599 22.1098Z" fill="#E1E1E7"/>
<path d="M173.737 6.14661C174.886 6.14661 175.936 6.34265 176.888 6.73472C177.84 7.0988 178.652 7.64491 179.325 8.37306C180.025 9.0732 180.557 9.92737 180.921 10.9356C181.313 11.9438 181.509 13.078 181.509 14.3383V25.6806H176.678V14.9684C176.678 13.7081 176.3 12.6999 175.544 11.9438C174.816 11.1596 173.863 10.7675 172.687 10.7675C171.511 10.7675 170.545 11.1596 169.789 11.9438C169.061 12.6999 168.696 13.7081 168.696 14.9684V25.6806H163.865V6.35665H167.436L168.276 8.24703C168.752 7.85495 169.271 7.50488 169.831 7.19682C170.307 6.94477 170.867 6.70672 171.511 6.48267C172.183 6.25863 172.925 6.14661 173.737 6.14661Z" fill="#E1E1E7"/>
<path d="M184.676 6.35665H189.717L194.548 18.9592L198.959 6.35665H204C202.628 9.88536 201.381 13.078 200.261 15.9346C199.785 17.1668 199.309 18.3711 198.833 19.5473C198.385 20.7236 197.979 21.8018 197.615 22.782C197.251 23.7342 196.943 24.5323 196.691 25.1765C196.438 25.8206 196.284 26.1987 196.228 26.3107C195.752 27.4589 195.276 28.4251 194.8 29.2093C194.352 30.0214 193.862 30.6796 193.33 31.1837C192.798 31.6878 192.224 32.0519 191.607 32.2759C190.991 32.4999 190.291 32.612 189.507 32.612C189.283 32.612 189.059 32.598 188.835 32.57C188.639 32.57 188.471 32.556 188.331 32.5279C188.135 32.4999 187.967 32.4579 187.827 32.4019V28.4111C188.891 28.4111 189.703 28.1731 190.263 27.697C190.851 27.2209 191.299 26.6187 191.607 25.8906L192.028 24.8404L184.676 6.35665Z" fill="#E1E1E7"/>
</svg>
