<svg width="222" height="36" viewBox="0 0 222 36" fill="none" xmlns="http://www.w3.org/2000/svg">
<path d="M27.9483 15.2408C23.2352 15.2408 19.4094 11.4295 19.4094 6.74547C19.4094 6.13451 19.4821 5.55263 19.5985 4.97076H8.252C3.85888 4.97076 0.294922 8.52017 0.294922 12.8842V27.5037C0.294922 31.8823 3.85888 35.4171 8.252 35.4171H22.9442C27.3519 35.4171 30.9013 31.8677 30.9013 27.5037V14.7025C29.9994 15.0371 28.9957 15.2408 27.9483 15.2408Z" fill="#ABADBF"/>
<path d="M30.915 27.5037V14.7026C29.9985 15.0371 28.9948 15.2408 27.962 15.2408C23.2488 15.2408 19.423 11.4295 19.423 6.74547C19.423 6.13451 19.4958 5.55263 19.6122 4.97076H8.26567C3.90164 4.97076 0.366781 8.46199 0.308594 12.7969C10.7823 17.1173 21.5469 22.3687 30.8568 28.5074C30.8859 28.1729 30.915 27.8383 30.915 27.5037Z" fill="#ABADBF"/>
<path d="M28.6013 12.3066C32.0198 12.3066 34.7837 9.55722 34.7837 6.15328C34.7837 2.76389 32.0198 0 28.6013 0C25.1828 0 22.4189 2.74934 22.4189 6.15328C22.4189 9.54268 25.1828 12.3066 28.6013 12.3066Z" fill="white"/>
<path d="M66.0589 20.1338C65.8155 21.1679 65.4049 22.1716 64.8271 23.1448C64.2492 24.0877 63.5344 24.9393 62.6828 25.6997C61.8312 26.4297 60.8579 27.0228 59.763 27.479C58.668 27.9048 57.497 28.1177 56.25 28.1177C54.8205 28.1177 53.467 27.844 52.1896 27.2965C50.9426 26.7186 49.8324 25.943 48.8592 24.9697C47.9163 23.9965 47.1559 22.8711 46.578 21.5937C46.0306 20.2858 45.7568 18.8867 45.7568 17.3964C45.7568 15.9061 46.0306 14.5222 46.578 13.2448C47.1559 11.9369 47.9163 10.7963 48.8592 9.82306C49.8324 8.84978 50.9426 8.08941 52.1896 7.54194C53.467 6.96405 54.8205 6.67511 56.25 6.67511C57.497 6.67511 58.668 6.90322 59.763 7.35945C60.8579 7.78526 61.8312 8.37835 62.6828 9.13873C63.5344 9.86869 64.2492 10.7203 64.8271 11.6936C65.4049 12.6365 65.8155 13.6249 66.0589 14.6591H60.8123C60.5689 14.1116 60.2344 13.6249 59.8086 13.1991C59.4436 12.8342 58.9722 12.4996 58.3943 12.1954C57.8164 11.8609 57.1016 11.6936 56.25 11.6936C54.7597 11.6936 53.5127 12.2106 52.509 13.2448C51.5053 14.2789 51.0034 15.6628 51.0034 17.3964C51.0034 19.1301 51.5053 20.5139 52.509 21.5481C53.5127 22.5822 54.7597 23.0992 56.25 23.0992C57.1016 23.0992 57.8164 22.9471 58.3943 22.643C58.9722 22.3388 59.4436 22.0043 59.8086 21.6393C60.2344 21.2135 60.5689 20.7116 60.8123 20.1338H66.0589Z" fill="#E1E1E7"/>
<path d="M74.7271 17.3964C74.7271 19.1301 75.229 20.5139 76.2327 21.5481C77.2364 22.5822 78.4834 23.0992 79.9737 23.0992C81.4641 23.0992 82.7111 22.5822 83.7148 21.5481C84.7185 20.5139 85.2203 19.1301 85.2203 17.3964C85.2203 15.6628 84.7185 14.2789 83.7148 13.2448C82.7111 12.2106 81.4641 11.6936 79.9737 11.6936C78.4834 11.6936 77.2364 12.2106 76.2327 13.2448C75.229 14.2789 74.7271 15.6628 74.7271 17.3964ZM90.4669 17.3964C90.4669 18.8867 90.178 20.2858 89.6001 21.5937C89.0526 22.8711 88.2922 23.9965 87.319 24.9697C86.3761 25.943 85.2659 26.7186 83.9885 27.2965C82.7415 27.844 81.4032 28.1177 79.9737 28.1177C78.5442 28.1177 77.1908 27.844 75.9133 27.2965C74.6663 26.7186 73.5562 25.943 72.5829 24.9697C71.64 23.9965 70.8796 22.8711 70.3018 21.5937C69.7543 20.2858 69.4805 18.8867 69.4805 17.3964C69.4805 15.9061 69.7543 14.5222 70.3018 13.2448C70.8796 11.9369 71.64 10.7963 72.5829 9.82306C73.5562 8.84978 74.6663 8.08941 75.9133 7.54194C77.1908 6.96405 78.5442 6.67511 79.9737 6.67511C81.4032 6.67511 82.7415 6.96405 83.9885 7.54194C85.2659 8.08941 86.3761 8.84978 87.319 9.82306C88.2922 10.7963 89.0526 11.9369 89.6001 13.2448C90.178 14.5222 90.4669 15.9061 90.4669 17.3964Z" fill="#E1E1E7"/>
<path d="M105.045 6.67511C106.109 6.67511 107.022 6.82719 107.782 7.13134C108.542 7.40507 109.166 7.70922 109.653 8.04379C110.2 8.43918 110.641 8.89541 110.976 9.41246C111.462 8.89541 112.025 8.43918 112.664 8.04379C113.211 7.70922 113.865 7.40507 114.625 7.13134C115.386 6.82719 116.222 6.67511 117.135 6.67511C119.416 6.67511 121.241 7.40507 122.609 8.86499C123.978 10.3249 124.662 12.4844 124.662 15.3434V27.8896H119.416V15.7996C119.416 14.5222 119.066 13.5185 118.367 12.7885C117.697 12.0586 116.907 11.6936 115.994 11.6936C115.082 11.6936 114.276 12.0586 113.576 12.7885C112.907 13.5185 112.572 14.5222 112.572 15.7996V27.8896H107.326V15.7996C107.326 14.5222 106.976 13.5185 106.277 12.7885C105.607 12.0586 104.817 11.6936 103.904 11.6936C102.992 11.6936 102.186 12.0586 101.486 12.7885C100.817 13.5185 100.482 14.5222 100.482 15.7996V27.8896H95.2359V6.90322H99.1138L100.026 8.95624C100.452 8.53043 100.923 8.15024 101.441 7.81567C101.866 7.54194 102.383 7.28341 102.992 7.04009C103.6 6.79677 104.284 6.67511 105.045 6.67511Z" fill="#E1E1E7"/>
<path d="M141.087 6.67511C142.394 6.67511 143.641 6.94884 144.828 7.49632C146.014 8.01337 147.048 8.75854 147.93 9.73182C148.842 10.6747 149.557 11.8 150.074 13.1079C150.622 14.4157 150.895 15.8452 150.895 17.3964C150.895 18.9476 150.622 20.3771 150.074 21.6849C149.557 22.9928 148.842 24.1333 147.93 25.1066C147.048 26.0495 146.014 26.7947 144.828 27.3421C143.641 27.8592 142.394 28.1177 141.087 28.1177C140.204 28.1177 139.429 28.0113 138.76 27.7983C138.121 27.5854 137.558 27.3573 137.072 27.114C136.524 26.8099 136.038 26.4601 135.612 26.0647V35.1892H130.365V6.90322H134.243L135.156 8.95624C135.612 8.53043 136.144 8.15024 136.752 7.81567C137.269 7.54194 137.893 7.28341 138.623 7.04009C139.353 6.79677 140.174 6.67511 141.087 6.67511ZM135.156 17.3964C135.156 19.1301 135.657 20.5139 136.661 21.5481C137.665 22.5822 138.912 23.0992 140.402 23.0992C141.893 23.0992 143.14 22.5822 144.143 21.5481C145.147 20.5139 145.649 19.1301 145.649 17.3964C145.649 15.6628 145.147 14.2789 144.143 13.2448C143.14 12.2106 141.893 11.6936 140.402 11.6936C138.912 11.6936 137.665 12.2106 136.661 13.2448C135.657 14.2789 135.156 15.6628 135.156 17.3964Z" fill="#E1E1E7"/>
<path d="M164.361 6.67511C165.547 6.67511 166.642 6.88801 167.646 7.31382C168.65 7.70922 169.516 8.2719 170.246 9.00186C170.976 9.73182 171.539 10.5986 171.934 11.6023C172.36 12.606 172.573 13.701 172.573 14.8872V27.8896H168.695L167.783 25.8366C167.296 26.2624 166.764 26.6426 166.186 26.9771C165.669 27.2813 165.045 27.555 164.316 27.7983C163.586 28.0113 162.764 28.1177 161.852 28.1177C159.571 28.1177 157.822 27.5702 156.605 26.4753C155.389 25.3499 154.78 23.9204 154.78 22.1868C154.78 21.1527 154.978 20.2098 155.374 19.3582C155.799 18.4761 156.499 17.731 157.472 17.1227C158.445 16.484 159.723 15.9973 161.304 15.6628C162.916 15.2978 164.924 15.1153 167.327 15.1153C167.327 13.9595 167.007 13.0623 166.369 12.4235C165.76 11.7848 164.939 11.4655 163.905 11.4655C163.205 11.4655 162.643 11.5871 162.217 11.8305C161.821 12.0738 161.502 12.3323 161.259 12.606C160.985 12.9406 160.803 13.3208 160.711 13.7466H155.465C155.586 12.7733 155.86 11.8609 156.286 11.0093C156.742 10.1576 157.35 9.41246 158.111 8.77375C158.871 8.13503 159.768 7.63318 160.803 7.2682C161.867 6.87281 163.053 6.67511 164.361 6.67511ZM162.764 24.0117C164.133 24.0117 165.228 23.6163 166.049 22.8255C166.901 22.0043 167.327 20.955 167.327 19.6775V18.7651C165.775 18.7651 164.528 18.8411 163.586 18.9932C162.643 19.1149 161.898 19.3126 161.35 19.5863C160.833 19.8296 160.483 20.1338 160.301 20.4987C160.118 20.8637 160.027 21.2743 160.027 21.7305C160.027 22.3084 160.286 22.8407 160.803 23.3273C161.32 23.7836 161.974 24.0117 162.764 24.0117Z" fill="#E1E1E7"/>
<path d="M188.979 6.67511C190.227 6.67511 191.367 6.88801 192.401 7.31382C193.435 7.70922 194.317 8.30231 195.047 9.0931C195.808 9.85348 196.386 10.7811 196.781 11.8761C197.207 12.971 197.42 14.2028 197.42 15.5715V27.8896H192.173V16.2558C192.173 14.8872 191.762 13.7922 190.941 12.971C190.15 12.1194 189.116 11.6936 187.839 11.6936C186.561 11.6936 185.512 12.1194 184.691 12.971C183.9 13.7922 183.505 14.8872 183.505 16.2558V27.8896H178.258V6.90322H182.136L183.049 8.95624C183.566 8.53043 184.128 8.15024 184.737 7.81567C185.254 7.54194 185.862 7.28341 186.562 7.04009C187.291 6.79677 188.097 6.67511 188.979 6.67511Z" fill="#E1E1E7"/>
<path d="M200.859 6.90322H206.334L211.58 20.59L216.371 6.90322H221.846C220.355 10.7355 219.002 14.2028 217.785 17.3052C217.268 18.6434 216.751 19.9513 216.234 21.2287C215.747 22.5061 215.306 23.6771 214.911 24.7416C214.515 25.7757 214.181 26.6426 213.907 27.3421C213.633 28.0417 213.466 28.4523 213.405 28.5739C212.888 29.8209 212.371 30.8703 211.854 31.7219C211.368 32.6039 210.835 33.3187 210.257 33.8661C209.68 34.4136 209.056 34.809 208.387 35.0523C207.718 35.2957 206.957 35.4173 206.106 35.4173C205.862 35.4173 205.619 35.4021 205.376 35.3717C205.163 35.3717 204.98 35.3565 204.828 35.3261C204.615 35.2957 204.433 35.25 204.281 35.1892V30.8551C205.437 30.8551 206.319 30.5965 206.927 30.0795C207.566 29.5624 208.052 28.9085 208.387 28.1177L208.843 26.9771L200.859 6.90322Z" fill="#E1E1E7"/>
</svg>
