<svg width="215" height="38" viewBox="0 0 215 38" fill="none" xmlns="http://www.w3.org/2000/svg">
<path d="M71.4931 21.1527C69.9101 23.7206 67.6588 25.198 64.7391 25.198C60.5178 25.198 57.4223 21.7858 57.4223 17.3887C57.4223 12.9916 60.3771 9.61457 64.8094 9.61457C67.6236 9.61457 70.1564 11.1975 71.4227 13.5896L75.5033 10.3533C73.4278 6.6597 69.6639 4.44354 64.8798 4.44354C57.2112 4.44354 51.8291 10.1422 51.8291 17.3887C51.8291 24.6352 57.3167 30.369 64.8094 30.369C69.5232 30.369 73.463 27.8715 75.6088 24.3186L71.4931 21.1527Z" fill="#E1E1E7"/>
<path d="M86.783 11.479C81.1547 11.479 77.1093 15.5595 77.1093 20.9064C77.1093 26.2182 81.1547 30.369 86.783 30.369C92.4114 30.369 96.4567 26.2182 96.4567 20.9064C96.4567 15.5595 92.4114 11.479 86.783 11.479ZM86.783 16.2279C89.2103 16.2279 91.0395 18.0922 91.0395 20.9064C91.0395 23.7206 89.2103 25.6201 86.783 25.6201C84.3558 25.6201 82.5266 23.7206 82.5266 20.9064C82.5266 18.0922 84.3558 16.2279 86.783 16.2279Z" fill="#E1E1E7"/>
<path d="M99.9516 11.9011V29.9469H105.299V20.5546C105.299 18.1978 106.53 16.1927 108.781 16.1927C110.751 16.1927 112.017 17.4239 112.017 19.7807V29.9469H117.364V20.5546C117.364 18.1978 118.595 16.1927 120.847 16.1927C122.817 16.1927 124.048 17.4239 124.048 19.7807V29.9469H129.395V18.9717C129.395 14.2931 126.757 11.479 122.43 11.479C119.369 11.479 117.646 12.8157 116.344 14.6449C115.113 12.6398 113.143 11.479 110.364 11.479C108.007 11.479 106.248 12.3936 105.087 14.2228V11.9011H99.9516Z" fill="#E1E1E7"/>
<path d="M143.423 16.1927C145.71 16.1927 147.609 18.0571 147.609 20.9768C147.609 23.7909 145.71 25.6553 143.423 25.6553C141.031 25.6553 139.167 23.8261 139.167 20.9768C139.167 18.0219 141.031 16.1927 143.423 16.1927ZM138.921 11.9011H133.961V36.9823H139.308V27.977C140.433 29.6655 142.579 30.369 144.514 30.369C149.439 30.369 152.992 26.2885 152.992 20.9064C152.992 15.3484 149.157 11.479 144.549 11.479C142.79 11.479 140.328 12.2177 138.921 14.3987V11.9011Z" fill="#E1E1E7"/>
<path d="M165.853 18.7254L160.928 19.6752C157.129 20.4843 155.054 22.3135 155.054 24.987C155.054 28.1177 157.516 30.369 161.034 30.369C163.426 30.369 165.185 29.3137 166.029 27.7308V29.9469H170.989V18.5847C170.989 14.1876 167.999 11.479 162.969 11.479C159.592 11.479 156.883 12.886 155.23 14.8911L158.009 18.2681C159.099 17.0369 160.647 16.0872 162.652 16.0872C164.481 16.0872 165.853 16.7907 165.853 18.5847V18.7254ZM162.23 26.394C160.964 26.394 160.154 25.6905 160.154 24.6704C160.154 23.6854 160.858 23.0522 162.3 22.806L165.888 22.1024V22.6301C165.888 24.7759 164.446 26.394 162.23 26.394Z" fill="#E1E1E7"/>
<path d="M175.493 11.9011V29.9469H180.84V20.5546C180.84 18.1978 182.071 16.1927 184.393 16.1927C186.363 16.1927 187.629 17.4239 187.629 19.7807V29.9469H192.976V18.9717C192.976 14.2931 190.303 11.479 185.976 11.479C183.549 11.479 181.79 12.3936 180.629 14.2228V11.9011H175.493Z" fill="#E1E1E7"/>
<path d="M201.707 29.2786L201.496 29.8766C200.722 32.4445 199.42 32.9018 198.013 32.9018C197.415 32.9018 196.5 32.8314 195.551 32.3038V36.7361C196.36 37.123 197.52 37.4045 198.787 37.4045C202.199 37.4045 204.38 35.7863 206.174 31.4244L214.054 11.9011H208.601L204.38 23.7206L200.194 11.9011H194.601L201.707 29.2786Z" fill="#E1E1E7"/>
<circle cx="20.9504" cy="15.8957" r="15.3098" fill="#ABADBF"/>
<circle cx="8.50879" cy="27.7451" r="7.625" fill="white"/>
</svg>
