<svg width="202" height="33" viewBox="0 0 202 33" fill="none" xmlns="http://www.w3.org/2000/svg">
<path d="M69.7188 17.7715C68.2499 20.1543 66.1609 21.5252 63.4518 21.5252C59.5349 21.5252 56.6625 18.359 56.6625 14.279C56.6625 10.1989 59.4043 7.06538 63.517 7.06538C66.1283 7.06538 68.4784 8.53421 69.6535 10.7538L73.4398 7.75084C71.514 4.32357 68.0215 2.26721 63.5823 2.26721C56.4667 2.26721 51.4727 7.55499 51.4727 14.279C51.4727 21.0029 56.5646 26.3233 63.517 26.3233C67.8909 26.3233 71.5466 24.0059 73.5377 20.7092L69.7188 17.7715Z" fill="#E1E1E7"/>
<path d="M83.9062 8.79534C78.6837 8.79534 74.93 12.5816 74.93 17.543C74.93 22.4718 78.6837 26.3233 83.9062 26.3233C89.1287 26.3233 92.8824 22.4718 92.8824 17.543C92.8824 12.5816 89.1287 8.79534 83.9062 8.79534ZM83.9062 13.2018C86.1584 13.2018 87.8557 14.9318 87.8557 17.543C87.8557 20.1543 86.1584 21.9169 83.9062 21.9169C81.654 21.9169 79.9567 20.1543 79.9567 17.543C79.9567 14.9318 81.654 13.2018 83.9062 13.2018Z" fill="#E1E1E7"/>
<path d="M96.1253 9.18702V25.9317H101.087V17.2166C101.087 15.0297 102.229 13.1692 104.318 13.1692C106.146 13.1692 107.321 14.3116 107.321 16.4985V25.9317H112.282V17.2166C112.282 15.0297 113.425 13.1692 115.514 13.1692C117.342 13.1692 118.484 14.3116 118.484 16.4985V25.9317H123.445V15.7478C123.445 11.4066 120.997 8.79534 116.983 8.79534C114.143 8.79534 112.544 10.0357 111.336 11.733C110.193 9.87248 108.366 8.79534 105.787 8.79534C103.6 8.79534 101.968 9.64399 100.891 11.3413V9.18702H96.1253Z" fill="#E1E1E7"/>
<path d="M136.462 13.1692C138.584 13.1692 140.347 14.8991 140.347 17.6083C140.347 20.2196 138.584 21.9495 136.462 21.9495C134.243 21.9495 132.513 20.2522 132.513 17.6083C132.513 14.8665 134.243 13.1692 136.462 13.1692ZM132.284 9.18702H127.682V32.4598H132.644V24.1038C133.688 25.6705 135.679 26.3233 137.474 26.3233C142.044 26.3233 145.341 22.537 145.341 17.543C145.341 12.3858 141.783 8.79534 137.507 8.79534C135.875 8.79534 133.59 9.48079 132.284 11.5045V9.18702Z" fill="#E1E1E7"/>
<path d="M157.275 15.5193L152.705 16.4006C149.18 17.1513 147.254 18.8486 147.254 21.3293C147.254 24.2343 149.539 26.3233 152.803 26.3233C155.023 26.3233 156.655 25.3441 157.438 23.8753V25.9317H162.04V15.3887C162.04 11.3087 159.266 8.79534 154.598 8.79534C151.465 8.79534 148.952 10.101 147.417 11.9615L149.996 15.095C151.008 13.9526 152.444 13.0713 154.305 13.0713C156.002 13.0713 157.275 13.7241 157.275 15.3887V15.5193ZM153.913 22.635C152.738 22.635 151.987 21.9821 151.987 21.0356C151.987 20.1216 152.64 19.5341 153.978 19.3056L157.308 18.6528V19.1424C157.308 21.1335 155.969 22.635 153.913 22.635Z" fill="#E1E1E7"/>
<path d="M166.22 9.18702V25.9317H171.181V17.2166C171.181 15.0297 172.324 13.1692 174.478 13.1692C176.306 13.1692 177.481 14.3116 177.481 16.4985V25.9317H182.442V15.7478C182.442 11.4066 179.961 8.79534 175.947 8.79534C173.694 8.79534 172.062 9.64399 170.985 11.3413V9.18702H166.22Z" fill="#E1E1E7"/>
<path d="M190.543 25.3115L190.347 25.8664C189.629 28.2491 188.421 28.6735 187.116 28.6735C186.561 28.6735 185.712 28.6082 184.831 28.1186V32.2313C185.582 32.5903 186.659 32.8515 187.834 32.8515C191 32.8515 193.024 31.35 194.688 27.3026L202 9.18702H196.941L193.024 20.1543L189.14 9.18702H183.95L190.543 25.3115Z" fill="#E1E1E7"/>
<path d="M22.0664 0H16.5814C16.1136 0 15.7344 0.379213 15.7344 0.846996V28.8569C15.7344 29.3247 16.1136 29.7039 16.5814 29.7039H22.0664C22.5342 29.7039 22.9134 29.3247 22.9134 28.8569V0.846996C22.9134 0.379213 22.5342 0 22.0664 0Z" fill="white"/>
<path d="M32.5458 29.7037C35.9161 29.7037 38.6482 26.9715 38.6482 23.6012C38.6482 20.2309 35.9161 17.4988 32.5458 17.4988C29.1755 17.4988 26.4434 20.2309 26.4434 23.6012C26.4434 26.9715 29.1755 29.7037 32.5458 29.7037Z" fill="#ABADBF"/>
<path d="M32.5458 12.2049C35.9161 12.2049 38.6482 9.47273 38.6482 6.10244C38.6482 2.73216 35.9161 0 32.5458 0C29.1755 0 26.4434 2.73216 26.4434 6.10244C26.4434 9.47273 29.1755 12.2049 32.5458 12.2049Z" fill="#ABADBF"/>
<path d="M6.10244 29.7037C9.47273 29.7037 12.2049 26.9715 12.2049 23.6012C12.2049 20.2309 9.47273 17.4988 6.10244 17.4988C2.73216 17.4988 0 20.2309 0 23.6012C0 26.9715 2.73216 29.7037 6.10244 29.7037Z" fill="#ABADBF"/>
</svg>
