<svg width="221" height="37" viewBox="0 0 221 37" fill="none" xmlns="http://www.w3.org/2000/svg">
<path d="M45.8906 14.3237C45.8906 11.9422 46.4224 9.8151 47.486 7.94229C48.5727 6.04637 50.0409 4.57818 51.8905 3.53774C53.7633 2.47417 55.8558 1.94238 58.1679 1.94238C60.8731 1.94238 63.243 2.63601 65.2776 4.02328C67.3123 5.41054 68.7342 7.32959 69.5434 9.78042H63.9597C63.4048 8.62436 62.6187 7.75733 61.6014 7.1793C60.6072 6.60127 59.4511 6.31226 58.1332 6.31226C56.7228 6.31226 55.4627 6.64752 54.3529 7.31803C53.2662 7.96541 52.4108 8.89026 51.7865 10.0926C51.1853 11.2948 50.8848 12.7052 50.8848 14.3237C50.8848 15.9191 51.1853 17.3294 51.7865 18.5549C52.4108 19.7571 53.2662 20.6936 54.3529 21.3641C55.4627 22.0115 56.7228 22.3351 58.1332 22.3351C59.4511 22.3351 60.6072 22.0461 61.6014 21.4681C62.6187 20.867 63.4048 19.9884 63.9597 18.8323H69.5434C68.7342 21.3063 67.3123 23.2369 65.2776 24.6241C63.2661 25.9883 60.8962 26.6703 58.1679 26.6703C55.8558 26.6703 53.7633 26.1501 51.8905 25.1097C50.0409 24.0461 48.5727 22.5779 47.486 20.7051C46.4224 18.8323 45.8906 16.7052 45.8906 14.3237Z" fill="#E1E1E7"/>
<path d="M82.2223 26.7744C80.3726 26.7744 78.7079 26.3698 77.2281 25.5605C75.7484 24.7282 74.5808 23.5606 73.7253 22.0577C72.8929 20.5548 72.4767 18.8207 72.4767 16.8555C72.4767 14.8902 72.9045 13.1561 73.76 11.6532C74.6386 10.1504 75.8293 8.9943 77.3322 8.18507C78.835 7.35271 80.5113 6.93653 82.361 6.93653C84.2107 6.93653 85.8869 7.35271 87.3898 8.18507C88.8927 8.9943 90.0719 10.1504 90.9273 11.6532C91.8059 13.1561 92.2452 14.8902 92.2452 16.8555C92.2452 18.8207 91.7944 20.5548 90.8927 22.0577C90.0141 23.5606 88.8118 24.7282 87.2858 25.5605C85.7829 26.3698 84.0951 26.7744 82.2223 26.7744ZM82.2223 22.5432C83.1009 22.5432 83.9217 22.3351 84.6847 21.919C85.4708 21.4797 86.095 20.8323 86.5575 19.9768C87.0199 19.1213 87.2511 18.0809 87.2511 16.8555C87.2511 15.0289 86.7655 13.6301 85.7945 12.659C84.8465 11.6648 83.6789 11.1677 82.2916 11.1677C80.9044 11.1677 79.7368 11.6648 78.7888 12.659C77.8639 13.6301 77.4015 15.0289 77.4015 16.8555C77.4015 18.682 77.8524 20.0924 78.7541 21.0866C79.679 22.0577 80.835 22.5432 82.2223 22.5432Z" fill="#E1E1E7"/>
<path d="M119.668 6.97121C122.026 6.97121 123.922 7.69952 125.356 9.15615C126.812 10.5897 127.54 12.6012 127.54 15.1907V26.4623H122.685V15.8497C122.685 14.3468 122.304 13.2023 121.541 12.4162C120.778 11.607 119.737 11.2024 118.419 11.2024C117.101 11.2024 116.049 11.607 115.263 12.4162C114.5 13.2023 114.119 14.3468 114.119 15.8497V26.4623H109.263V15.8497C109.263 14.3468 108.882 13.2023 108.119 12.4162C107.356 11.607 106.315 11.2024 104.997 11.2024C103.656 11.2024 102.593 11.607 101.807 12.4162C101.044 13.2023 100.662 14.3468 100.662 15.8497V26.4623H95.8069V7.24866H100.662V9.57233C101.287 8.76309 102.084 8.12726 103.055 7.66484C104.05 7.20242 105.136 6.97121 106.315 6.97121C107.818 6.97121 109.159 7.2949 110.338 7.94229C111.518 8.56656 112.431 9.46828 113.078 10.6475C113.703 9.53765 114.604 8.64749 115.783 7.97697C116.986 7.30646 118.281 6.97121 119.668 6.97121Z" fill="#E1E1E7"/>
<path d="M137.003 10.0232C137.628 9.14459 138.483 8.41628 139.57 7.83825C140.68 7.2371 141.94 6.93653 143.35 6.93653C144.992 6.93653 146.471 7.34115 147.789 8.15038C149.13 8.95962 150.182 10.1157 150.945 11.6185C151.732 13.0983 152.125 14.8208 152.125 16.7861C152.125 18.7514 151.732 20.497 150.945 22.023C150.182 23.5259 149.13 24.6935 147.789 25.5258C146.471 26.3582 144.992 26.7744 143.35 26.7744C141.94 26.7744 140.691 26.4854 139.605 25.9073C138.541 25.3293 137.674 24.601 137.003 23.7224V35.6182H132.148V7.24866H137.003V10.0232ZM147.165 16.7861C147.165 15.63 146.922 14.6358 146.437 13.8035C145.974 12.948 145.35 12.3006 144.564 11.8613C143.801 11.422 142.969 11.2024 142.067 11.2024C141.188 11.2024 140.356 11.4336 139.57 11.896C138.807 12.3353 138.183 12.9827 137.697 13.8382C137.235 14.6936 137.003 15.6994 137.003 16.8555C137.003 18.0115 137.235 19.0173 137.697 19.8728C138.183 20.7282 138.807 21.3872 139.57 21.8496C140.356 22.2889 141.188 22.5086 142.067 22.5086C142.969 22.5086 143.801 22.2773 144.564 21.8149C145.35 21.3525 145.974 20.6936 146.437 19.8381C146.922 18.9826 147.165 17.9653 147.165 16.7861Z" fill="#E1E1E7"/>
<path d="M154.404 16.7861C154.404 14.8439 154.786 13.1214 155.549 11.6185C156.335 10.1157 157.387 8.95962 158.705 8.15038C160.046 7.34115 161.537 6.93653 163.179 6.93653C164.612 6.93653 165.861 7.22554 166.924 7.80357C168.011 8.38159 168.878 9.10991 169.525 9.98851V7.24866H174.416V26.4623H169.525V23.653C168.901 24.5548 168.034 25.3062 166.924 25.9073C165.838 26.4854 164.578 26.7744 163.144 26.7744C161.526 26.7744 160.046 26.3582 158.705 25.5258C157.387 24.6935 156.335 23.5259 155.549 22.023C154.786 20.497 154.404 18.7514 154.404 16.7861ZM169.525 16.8555C169.525 15.6763 169.294 14.6705 168.832 13.8382C168.369 12.9827 167.745 12.3353 166.959 11.896C166.173 11.4336 165.329 11.2024 164.427 11.2024C163.526 11.2024 162.693 11.422 161.93 11.8613C161.167 12.3006 160.543 12.948 160.057 13.8035C159.595 14.6358 159.364 15.63 159.364 16.7861C159.364 17.9421 159.595 18.9595 160.057 19.8381C160.543 20.6936 161.167 21.3525 161.93 21.8149C162.716 22.2773 163.549 22.5086 164.427 22.5086C165.329 22.5086 166.173 22.2889 166.959 21.8496C167.745 21.3872 168.369 20.7398 168.832 19.9074C169.294 19.052 169.525 18.0346 169.525 16.8555Z" fill="#E1E1E7"/>
<path d="M189.805 6.97121C192.094 6.97121 193.944 7.69952 195.354 9.15615C196.764 10.5897 197.47 12.6012 197.47 15.1907V26.4623H192.614V15.8497C192.614 14.3237 192.233 13.1561 191.47 12.3469C190.707 11.5145 189.666 11.0983 188.348 11.0983C187.007 11.0983 185.944 11.5145 185.158 12.3469C184.395 13.1561 184.013 14.3237 184.013 15.8497V26.4623H179.158V7.24866H184.013V9.64169C184.661 8.80933 185.481 8.16194 186.476 7.69952C187.493 7.21398 188.603 6.97121 189.805 6.97121Z" fill="#E1E1E7"/>
<path d="M220.468 7.24866L208.572 35.5488H203.405L207.567 25.9767L199.867 7.24866H205.312L210.272 20.6704L215.301 7.24866H220.468Z" fill="#E1E1E7"/>
<path d="M3.98683 36.741H0.830078V14.6353H12.6714V28.0564C12.6714 32.852 8.78532 36.741 3.98683 36.741Z" fill="#ABADBF"/>
<path d="M28.4603 14.6352C28.4603 7.00661 22.2763 0.819824 14.6449 0.819824C13.9747 0.819824 13.3158 0.870512 12.6709 0.963441V14.6352H28.4603V14.6352Z" fill="#ABADBF"/>
<path d="M23.9873 29.1986C27.0156 27.963 28.4688 24.5063 27.2332 21.478C25.9975 18.4497 22.5409 16.9965 19.5125 18.2321C16.4842 19.4678 15.031 22.9244 16.2667 25.9527C17.5023 28.981 20.959 30.4343 23.9873 29.1986Z" fill="white"/>
</svg>
