<svg width="235" height="34" viewBox="0 0 235 34" fill="none" xmlns="http://www.w3.org/2000/svg">
<path d="M82.2293 25.9366C80.3516 25.9366 78.6963 25.529 77.2633 24.7137C75.8303 23.8984 74.6938 22.7619 73.8538 21.3042C73.0385 19.8465 72.6309 18.1788 72.6309 16.3011C72.6309 14.4235 73.0385 12.7558 73.8538 11.2981C74.6938 9.84042 75.8303 8.70393 77.2633 7.88862C78.6963 7.0733 80.3516 6.66565 82.2293 6.66565C84.5764 6.66565 86.5529 7.28331 88.1588 8.51863C89.7647 9.72924 90.7901 11.4093 91.2348 13.5587H86.2317C85.9847 12.6693 85.4905 11.9775 84.7493 11.4834C84.0329 10.9646 83.1805 10.7051 82.1922 10.7051C80.8828 10.7051 79.771 11.1993 78.8569 12.1875C77.9427 13.1758 77.4857 14.547 77.4857 16.3011C77.4857 18.0553 77.9427 19.4265 78.8569 20.4148C79.771 21.403 80.8828 21.8971 82.1922 21.8971C83.1805 21.8971 84.0329 21.6501 84.7493 21.1559C85.4905 20.6618 85.9847 19.9577 86.2317 19.0436H91.2348C90.7901 21.1189 89.7647 22.7866 88.1588 24.0466C86.5529 25.3066 84.5764 25.9366 82.2293 25.9366Z" fill="#E1E1E7"/>
<path d="M103.524 25.9366C101.745 25.9366 100.139 25.529 98.7063 24.7137C97.2981 23.8984 96.1739 22.7742 95.3339 21.3412C94.5186 19.8836 94.1109 18.2035 94.1109 16.3011C94.1109 14.3987 94.531 12.7311 95.371 11.2981C96.211 9.84042 97.3351 8.70393 98.7434 7.88862C100.176 7.0733 101.782 6.66565 103.561 6.66565C105.315 6.66565 106.896 7.0733 108.305 7.88862C109.738 8.70393 110.862 9.84042 111.677 11.2981C112.517 12.7311 112.937 14.3987 112.937 16.3011C112.937 18.2035 112.517 19.8836 111.677 21.3412C110.862 22.7742 109.738 23.8984 108.305 24.7137C106.872 25.529 105.278 25.9366 103.524 25.9366ZM103.524 21.823C104.759 21.823 105.834 21.366 106.748 20.4518C107.662 19.513 108.119 18.1294 108.119 16.3011C108.119 14.4729 107.662 13.1017 106.748 12.1875C105.834 11.2487 104.772 10.7793 103.561 10.7793C102.301 10.7793 101.214 11.2487 100.3 12.1875C99.4105 13.1017 98.9657 14.4729 98.9657 16.3011C98.9657 18.1294 99.4105 19.513 100.3 20.4518C101.214 21.366 102.289 21.823 103.524 21.823Z" fill="#E1E1E7"/>
<path d="M116.437 25.4919V7.11036H120.625L121.033 9.59336C121.626 8.70393 122.404 7.99979 123.367 7.48096C124.356 6.93742 125.492 6.66565 126.777 6.66565C129.618 6.66565 131.632 7.76508 132.818 9.96395C133.485 8.95099 134.374 8.14803 135.486 7.55508C136.622 6.96212 137.858 6.66565 139.192 6.66565C141.588 6.66565 143.429 7.38213 144.714 8.8151C145.999 10.2481 146.641 12.3481 146.641 15.1152V25.4919H141.897V15.5599C141.897 13.9787 141.588 12.7681 140.971 11.9281C140.378 11.0881 139.451 10.6681 138.191 10.6681C136.907 10.6681 135.869 11.1375 135.078 12.0763C134.312 13.0152 133.929 14.3246 133.929 16.0047V25.4919H129.186V15.5599C129.186 13.9787 128.877 12.7681 128.259 11.9281C127.642 11.0881 126.69 10.6681 125.406 10.6681C124.146 10.6681 123.12 11.1375 122.33 12.0763C121.564 13.0152 121.181 14.3246 121.181 16.0047V25.4919H116.437Z" fill="#E1E1E7"/>
<path d="M150.403 33.645V7.11036H154.628L155.147 9.74159C155.74 8.92628 156.518 8.2098 157.482 7.59214C158.47 6.97448 159.742 6.66565 161.299 6.66565C163.028 6.66565 164.572 7.08566 165.931 7.92567C167.29 8.76569 168.365 9.91454 169.155 11.3722C169.946 12.8299 170.341 14.4852 170.341 16.3382C170.341 18.1912 169.946 19.8465 169.155 21.3042C168.365 22.7372 167.29 23.8736 165.931 24.7137C164.572 25.529 163.028 25.9366 161.299 25.9366C159.915 25.9366 158.705 25.6772 157.667 25.1584C156.629 24.6395 155.789 23.9107 155.147 22.9719V33.645H150.403ZM160.298 21.786C161.805 21.786 163.053 21.2795 164.041 20.2665C165.029 19.2536 165.524 17.9441 165.524 16.3382C165.524 14.7323 165.029 13.4105 164.041 12.3728C163.053 11.3352 161.805 10.8163 160.298 10.8163C158.766 10.8163 157.506 11.3352 156.518 12.3728C155.555 13.3858 155.073 14.6952 155.073 16.3011C155.073 17.9071 155.555 19.2288 156.518 20.2665C157.506 21.2795 158.766 21.786 160.298 21.786Z" fill="#E1E1E7"/>
<path d="M180.175 25.9366C178.594 25.9366 177.297 25.6896 176.284 25.1954C175.271 24.6766 174.517 23.9972 174.023 23.1572C173.529 22.3171 173.282 21.3907 173.282 20.3777C173.282 18.673 173.949 17.2894 175.283 16.227C176.617 15.1646 178.618 14.6335 181.287 14.6335H185.956V14.1887C185.956 12.9287 185.598 12.0022 184.881 11.4093C184.165 10.8163 183.276 10.5198 182.213 10.5198C181.25 10.5198 180.41 10.7546 179.693 11.224C178.977 11.6687 178.532 12.3358 178.359 13.2252H173.727C173.85 11.8911 174.295 10.7298 175.061 9.74159C175.851 8.75334 176.864 7.99979 178.1 7.48096C179.335 6.93742 180.718 6.66565 182.25 6.66565C184.869 6.66565 186.932 7.32037 188.439 8.62981C189.946 9.93924 190.7 11.7922 190.7 14.1887V25.4919H186.66L186.216 22.5272C185.672 23.5154 184.906 24.3307 183.918 24.9731C182.954 25.6154 181.707 25.9366 180.175 25.9366ZM181.25 22.2307C182.608 22.2307 183.658 21.786 184.4 20.8965C185.166 20.0071 185.647 18.9077 185.845 17.5982H181.806C180.545 17.5982 179.644 17.8329 179.1 18.3024C178.557 18.7471 178.285 19.303 178.285 19.97C178.285 20.6865 178.557 21.2424 179.1 21.6377C179.644 22.033 180.36 22.2307 181.25 22.2307Z" fill="#E1E1E7"/>
<path d="M194.485 25.4919V7.11036H198.673L199.044 10.2234C199.612 9.13629 200.427 8.27156 201.49 7.6292C202.577 6.98683 203.849 6.66565 205.307 6.66565C207.58 6.66565 209.346 7.38213 210.606 8.8151C211.866 10.2481 212.496 12.3481 212.496 15.1152V25.4919H207.753V15.5599C207.753 13.9787 207.432 12.7681 206.789 11.9281C206.147 11.0881 205.146 10.6681 203.787 10.6681C202.453 10.6681 201.354 11.1375 200.489 12.0763C199.649 13.0152 199.229 14.3246 199.229 16.0047V25.4919H194.485Z" fill="#E1E1E7"/>
<path d="M217.974 33.645L222.235 24.269H221.124L213.971 7.11036H219.122L224.274 20.0442L229.647 7.11036H234.687L223.014 33.645H217.974Z" fill="#E1E1E7"/>
<path d="M18.2357 30.7781C17.1776 31.8362 15.4617 31.8347 14.4054 30.7748L1.90695 18.2334C0.853241 17.1761 0.854711 15.4652 1.91023 14.4097L14.4087 1.91121C15.4642 0.855689 17.1751 0.85422 18.2324 1.90793L30.7739 14.4064C31.8338 15.4627 31.8352 17.1786 30.7771 18.2367L18.2357 30.7781Z" fill="#ABADBF"/>
<path d="M34.6088 30.7739C33.5526 31.8338 31.8366 31.8352 30.7785 30.7771L18.2371 18.2357C17.179 17.1776 17.1805 15.4617 18.2404 14.4054L30.7818 1.90695C31.8391 0.853241 33.55 0.854711 34.6056 1.91023L47.104 14.4087C48.1595 15.4642 48.161 17.1751 47.1073 18.2324L34.6088 30.7739Z" fill="white"/>
<path d="M46.7429 30.7759C45.6857 31.8347 43.97 31.8347 42.9129 30.7759L30.3908 18.2342C29.3347 17.1765 29.3362 15.4628 30.3941 14.4069L42.9161 1.90817C43.9725 0.853743 45.6832 0.853743 46.7396 1.90817L59.2617 14.4069C60.3195 15.4628 60.321 17.1765 59.2649 18.2342L46.7429 30.7759Z" fill="#ABADBF"/>
</svg>
