<svg width="252" height="36" viewBox="0 0 252 36" fill="none" xmlns="http://www.w3.org/2000/svg">
<path d="M87.9852 27.7523C85.976 27.7523 84.2048 27.3161 82.6716 26.4437C81.1383 25.5713 79.9222 24.3553 79.0234 22.7955C78.151 21.2358 77.7148 19.4514 77.7148 17.4423C77.7148 15.4332 78.151 13.6488 79.0234 12.089C79.9222 10.5293 81.1383 9.31328 82.6716 8.4409C84.2048 7.56851 85.976 7.13232 87.9852 7.13232C90.4966 7.13232 92.6114 7.79322 94.3298 9.11501C96.0481 10.4104 97.1452 12.208 97.621 14.5079H92.2678C92.0034 13.5562 91.4747 12.816 90.6816 12.2873C89.915 11.7322 89.0029 11.4546 87.9455 11.4546C86.5444 11.4546 85.3548 11.9833 84.3767 13.0407C83.3985 14.0982 82.9095 15.5653 82.9095 17.4423C82.9095 19.3192 83.3985 20.7864 84.3767 21.8439C85.3548 22.9013 86.5444 23.43 87.9455 23.43C89.0029 23.43 89.915 23.1656 90.6816 22.6369C91.4747 22.1082 92.0034 21.3548 92.2678 20.3767H97.621C97.1452 22.5973 96.0481 24.3817 94.3298 25.7299C92.6114 27.0781 90.4966 27.7523 87.9852 27.7523Z" fill="#E1E1E7"/>
<path d="M110.771 27.7523C108.867 27.7523 107.149 27.3161 105.616 26.4437C104.109 25.5713 102.906 24.3685 102.007 22.8352C101.135 21.2755 100.699 19.4778 100.699 17.4423C100.699 15.4067 101.148 13.6223 102.047 12.089C102.946 10.5293 104.148 9.31328 105.655 8.4409C107.188 7.56851 108.907 7.13232 110.81 7.13232C112.687 7.13232 114.379 7.56851 115.886 8.4409C117.419 9.31328 118.622 10.5293 119.494 12.089C120.393 13.6223 120.843 15.4067 120.843 17.4423C120.843 19.4778 120.393 21.2755 119.494 22.8352C118.622 24.3685 117.419 25.5713 115.886 26.4437C114.353 27.3161 112.647 27.7523 110.771 27.7523ZM110.771 23.3507C112.092 23.3507 113.242 22.8616 114.22 21.8835C115.199 20.8789 115.688 19.3985 115.688 17.4423C115.688 15.486 115.199 14.0189 114.22 13.0407C113.242 12.0362 112.106 11.5339 110.81 11.5339C109.462 11.5339 108.299 12.0362 107.321 13.0407C106.369 14.0189 105.893 15.486 105.893 17.4423C105.893 19.3985 106.369 20.8789 107.321 21.8835C108.299 22.8616 109.449 23.3507 110.771 23.3507Z" fill="#E1E1E7"/>
<path d="M124.588 27.2764V7.60817H129.069L129.505 10.265C130.139 9.31328 130.972 8.55986 132.003 8.00471C133.06 7.42312 134.276 7.13232 135.651 7.13232C138.691 7.13232 140.846 8.30872 142.115 10.6615C142.828 9.57764 143.78 8.71847 144.97 8.08401C146.186 7.44955 147.508 7.13232 148.935 7.13232C151.499 7.13232 153.469 7.89896 154.843 9.43224C156.218 10.9655 156.905 13.2126 156.905 16.1734V27.2764H151.83V16.6492C151.83 14.9573 151.499 13.662 150.838 12.7632C150.204 11.8643 149.213 11.4149 147.864 11.4149C146.49 11.4149 145.379 11.9172 144.534 12.9218C143.714 13.9263 143.304 15.3274 143.304 17.1251V27.2764H138.229V16.6492C138.229 14.9573 137.898 13.662 137.237 12.7632C136.576 11.8643 135.559 11.4149 134.184 11.4149C132.836 11.4149 131.739 11.9172 130.893 12.9218C130.073 13.9263 129.663 15.3274 129.663 17.1251V27.2764H124.588Z" fill="#E1E1E7"/>
<path d="M160.931 36.0002V7.60817H165.452L166.007 10.4236C166.641 9.5512 167.474 8.78456 168.505 8.12367C169.563 7.46277 170.924 7.13232 172.589 7.13232C174.44 7.13232 176.092 7.58173 177.546 8.48055C179 9.37937 180.15 10.6086 180.996 12.1683C181.842 13.7281 182.265 15.4993 182.265 17.4819C182.265 19.4646 181.842 21.2358 180.996 22.7955C180.15 24.3288 179 25.5449 177.546 26.4437C176.092 27.3161 174.44 27.7523 172.589 27.7523C171.109 27.7523 169.814 27.4747 168.703 26.9195C167.593 26.3644 166.694 25.5845 166.007 24.58V36.0002H160.931ZM171.519 23.311C173.131 23.311 174.466 22.7691 175.524 21.6852C176.581 20.6014 177.11 19.2003 177.11 17.4819C177.11 15.7636 176.581 14.3493 175.524 13.239C174.466 12.1287 173.131 11.5735 171.519 11.5735C169.88 11.5735 168.532 12.1287 167.474 13.239C166.443 14.3229 165.928 15.724 165.928 17.4423C165.928 19.1606 166.443 20.5749 167.474 21.6852C168.532 22.7691 169.88 23.311 171.519 23.311Z" fill="#E1E1E7"/>
<path d="M192.787 27.7523C191.095 27.7523 189.707 27.4879 188.623 26.9592C187.539 26.404 186.733 25.677 186.204 24.7782C185.676 23.8794 185.411 22.8881 185.411 21.8042C185.411 19.9801 186.125 18.4997 187.553 17.363C188.98 16.2262 191.121 15.6579 193.976 15.6579H198.973V15.182C198.973 13.8338 198.589 12.8425 197.823 12.208C197.056 11.5735 196.105 11.2563 194.968 11.2563C193.937 11.2563 193.038 11.5075 192.271 12.0097C191.505 12.4856 191.029 13.1993 190.844 14.151H185.887C186.019 12.7235 186.495 11.481 187.315 10.4236C188.161 9.36615 189.244 8.55986 190.566 8.00471C191.888 7.42312 193.368 7.13232 195.007 7.13232C197.81 7.13232 200.017 7.83287 201.63 9.23397C203.242 10.6351 204.048 12.6178 204.048 15.182V27.2764H199.726L199.25 24.1041C198.669 25.1615 197.849 26.0339 196.792 26.7213C195.761 27.4086 194.426 27.7523 192.787 27.7523ZM193.937 23.7869C195.391 23.7869 196.514 23.311 197.307 22.3593C198.127 21.4077 198.642 20.2313 198.854 18.8302H194.532C193.183 18.8302 192.218 19.0813 191.637 19.5836C191.055 20.0594 190.764 20.6542 190.764 21.368C190.764 22.1346 191.055 22.7295 191.637 23.1524C192.218 23.5754 192.985 23.7869 193.937 23.7869Z" fill="#E1E1E7"/>
<path d="M208.099 27.2764V7.60817H212.58L212.976 10.9391C213.584 9.7759 214.457 8.85065 215.594 8.16332C216.757 7.47599 218.118 7.13232 219.678 7.13232C222.11 7.13232 224 7.89896 225.348 9.43224C226.697 10.9655 227.371 13.2126 227.371 16.1734V27.2764H222.295V16.6492C222.295 14.9573 221.951 13.662 221.264 12.7632C220.577 11.8643 219.506 11.4149 218.052 11.4149C216.625 11.4149 215.448 11.9172 214.523 12.9218C213.624 13.9263 213.175 15.3274 213.175 17.1251V27.2764H208.099Z" fill="#E1E1E7"/>
<path d="M233.231 36.0002L237.792 25.9678H236.602L228.949 7.60817H234.461L239.973 21.4473L245.722 7.60817H251.115L238.624 36.0002H233.231Z" fill="#E1E1E7"/>
<path d="M19.378 33.0666C18.3199 34.1247 16.604 34.1232 15.5477 33.0633L1.90695 19.3757C0.853243 18.3183 0.854711 16.6074 1.91023 15.5519L15.551 1.91115C16.6065 0.855627 18.3174 0.854159 19.3747 1.90787L33.0624 15.5486C34.1223 16.6049 34.1238 18.3209 33.0657 19.3789L19.378 33.0666Z" fill="#ABADBF"/>
<path d="M36.8967 33.0624C35.8404 34.1223 34.1244 34.1238 33.0664 33.0657L19.3787 19.378C18.3206 18.32 18.3221 16.604 19.382 15.5477L33.0696 1.90695C34.127 0.853243 35.8379 0.854711 36.8934 1.91023L50.5342 15.551C51.5897 16.6065 51.5911 18.3174 50.5374 19.3747L36.8967 33.0624Z" fill="white"/>
<path d="M49.8815 33.0645C48.8243 34.1233 47.1086 34.1233 46.0514 33.0645L32.3849 19.3765C31.3289 18.3188 31.3303 16.6052 32.3882 15.5492L46.0547 1.90818C47.1111 0.853746 48.8218 0.853743 49.8782 1.90817L63.5447 15.5492C64.6026 16.6052 64.604 18.3188 63.5479 19.3765L49.8815 33.0645Z" fill="#ABADBF"/>
</svg>
