<svg width="235" height="36" viewBox="0 0 235 36" fill="none" xmlns="http://www.w3.org/2000/svg">
<path d="M70.9852 27.7524C68.976 27.7524 67.2048 27.3162 65.6716 26.4438C64.1383 25.5714 62.9222 24.3554 62.0234 22.7957C61.151 21.2359 60.7148 19.4515 60.7148 17.4424C60.7148 15.4333 61.151 13.6489 62.0234 12.0892C62.9222 10.5294 64.1383 9.3134 65.6716 8.44102C67.2048 7.56864 68.976 7.13245 70.9852 7.13245C73.4966 7.13245 75.6114 7.79334 77.3298 9.11513C79.0481 10.4105 80.1452 12.2081 80.621 14.508H75.2678C75.0034 13.5563 74.4747 12.8161 73.6816 12.2874C72.915 11.7323 72.0029 11.4547 70.9455 11.4547C69.5444 11.4547 68.3548 11.9834 67.3767 13.0408C66.3985 14.0983 65.9095 15.5655 65.9095 17.4424C65.9095 19.3194 66.3985 20.7865 67.3767 21.844C68.3548 22.9014 69.5444 23.4301 70.9455 23.4301C72.0029 23.4301 72.915 23.1658 73.6816 22.637C74.4747 22.1083 75.0034 21.3549 75.2678 20.3768H80.621C80.1452 22.5974 79.0481 24.3818 77.3298 25.73C75.6114 27.0783 73.4966 27.7524 70.9852 27.7524Z" fill="#E1E1E7"/>
<path d="M93.7706 27.7524C91.8672 27.7524 90.1488 27.3162 88.6156 26.4438C87.1087 25.5714 85.9059 24.3686 85.0071 22.8353C84.1347 21.2756 83.6985 19.478 83.6985 17.4424C83.6985 15.4069 84.1479 13.6224 85.0467 12.0892C85.9456 10.5294 87.1484 9.3134 88.6552 8.44102C90.1885 7.56864 91.9068 7.13245 93.8102 7.13245C95.6871 7.13245 97.379 7.56864 98.8859 8.44102C100.419 9.3134 101.622 10.5294 102.494 12.0892C103.393 13.6224 103.843 15.4069 103.843 17.4424C103.843 19.478 103.393 21.2756 102.494 22.8353C101.622 24.3686 100.419 25.5714 98.8859 26.4438C97.3526 27.3162 95.6475 27.7524 93.7706 27.7524ZM93.7706 23.3508C95.0923 23.3508 96.2423 22.8618 97.2204 21.8836C98.1985 20.8791 98.6876 19.3987 98.6876 17.4424C98.6876 15.4862 98.1985 14.019 97.2204 13.0408C96.2423 12.0363 95.1056 11.534 93.8102 11.534C92.462 11.534 91.2988 12.0363 90.3207 13.0408C89.369 14.019 88.8931 15.4862 88.8931 17.4424C88.8931 19.3987 89.369 20.8791 90.3207 21.8836C91.2988 22.8618 92.4488 23.3508 93.7706 23.3508Z" fill="#E1E1E7"/>
<path d="M107.588 27.2765V7.60829H112.069L112.505 10.2651C113.139 9.3134 113.972 8.55998 115.003 8.00483C116.06 7.42324 117.276 7.13245 118.651 7.13245C121.691 7.13245 123.846 8.30884 125.115 10.6616C125.828 9.57776 126.78 8.71859 127.97 8.08413C129.186 7.44967 130.508 7.13245 131.935 7.13245C134.499 7.13245 136.469 7.89908 137.843 9.43236C139.218 10.9656 139.905 13.2127 139.905 16.1735V27.2765H134.83V16.6493C134.83 14.9574 134.499 13.6621 133.838 12.7633C133.204 11.8645 132.213 11.415 130.864 11.415C129.49 11.415 128.379 11.9173 127.534 12.9219C126.714 13.9264 126.304 15.3275 126.304 17.1252V27.2765H121.229V16.6493C121.229 14.9574 120.898 13.6621 120.237 12.7633C119.576 11.8645 118.559 11.415 117.184 11.415C115.836 11.415 114.739 11.9173 113.893 12.9219C113.073 13.9264 112.663 15.3275 112.663 17.1252V27.2765H107.588Z" fill="#E1E1E7"/>
<path d="M143.931 36.0004V7.60829H148.452L149.007 10.4237C149.641 9.55132 150.474 8.78468 151.505 8.12379C152.563 7.46289 153.924 7.13245 155.589 7.13245C157.44 7.13245 159.092 7.58185 160.546 8.48067C162 9.37949 163.15 10.6088 163.996 12.1685C164.842 13.7282 165.265 15.4994 165.265 17.4821C165.265 19.4648 164.842 21.2359 163.996 22.7957C163.15 24.3289 162 25.545 160.546 26.4438C159.092 27.3162 157.44 27.7524 155.589 27.7524C154.109 27.7524 152.814 27.4748 151.703 26.9196C150.593 26.3645 149.694 25.5846 149.007 24.5801V36.0004H143.931ZM154.519 23.3112C156.131 23.3112 157.466 22.7692 158.524 21.6854C159.581 20.6015 160.11 19.2004 160.11 17.4821C160.11 15.7637 159.581 14.3494 158.524 13.2391C157.466 12.1288 156.131 11.5737 154.519 11.5737C152.88 11.5737 151.532 12.1288 150.474 13.2391C149.443 14.323 148.928 15.7241 148.928 17.4424C148.928 19.1607 149.443 20.5751 150.474 21.6854C151.532 22.7692 152.88 23.3112 154.519 23.3112Z" fill="#E1E1E7"/>
<path d="M175.787 27.7524C174.095 27.7524 172.707 27.488 171.623 26.9593C170.539 26.4042 169.733 25.6772 169.204 24.7783C168.676 23.8795 168.411 22.8882 168.411 21.8043C168.411 19.9802 169.125 18.4998 170.553 17.3631C171.98 16.2264 174.121 15.658 176.976 15.658H181.973V15.1822C181.973 13.8339 181.589 12.8426 180.823 12.2081C180.056 11.5737 179.105 11.2564 177.968 11.2564C176.937 11.2564 176.038 11.5076 175.271 12.0099C174.505 12.4857 174.029 13.1995 173.844 14.1512H168.887C169.019 12.7236 169.495 11.4811 170.315 10.4237C171.161 9.36627 172.244 8.55998 173.566 8.00483C174.888 7.42324 176.368 7.13245 178.007 7.13245C180.81 7.13245 183.017 7.83299 184.63 9.23409C186.242 10.6352 187.048 12.6179 187.048 15.1822V27.2765H182.726L182.25 24.1042C181.669 25.1617 180.849 26.034 179.792 26.7214C178.761 27.4087 177.426 27.7524 175.787 27.7524ZM176.937 23.787C178.391 23.787 179.514 23.3112 180.307 22.3595C181.127 21.4078 181.642 20.2314 181.854 18.8303H177.532C176.183 18.8303 175.218 19.0814 174.637 19.5837C174.055 20.0596 173.764 20.6544 173.764 21.3681C173.764 22.1348 174.055 22.7296 174.637 23.1525C175.218 23.5755 175.985 23.787 176.937 23.787Z" fill="#E1E1E7"/>
<path d="M191.099 27.2765V7.60829H195.58L195.976 10.9392C196.584 9.77603 197.457 8.85077 198.594 8.16344C199.757 7.47611 201.118 7.13245 202.678 7.13245C205.11 7.13245 207 7.89908 208.348 9.43236C209.697 10.9656 210.371 13.2127 210.371 16.1735V27.2765H205.295V16.6493C205.295 14.9574 204.951 13.6621 204.264 12.7633C203.577 11.8645 202.506 11.415 201.052 11.415C199.625 11.415 198.448 11.9173 197.523 12.9219C196.624 13.9264 196.175 15.3275 196.175 17.1252V27.2765H191.099Z" fill="#E1E1E7"/>
<path d="M216.231 36.0004L220.792 25.968H219.602L211.949 7.60829H217.461L222.973 21.4474L228.722 7.60829H234.115L221.624 36.0004H216.231Z" fill="#E1E1E7"/>
<path d="M23.7885 0.000976562C22.7149 0.000976562 21.6631 0.10034 20.6452 0.289373C28.5628 1.76528 34.5561 8.71102 34.5561 17.0551C34.5561 23.0024 29.7358 27.8227 23.7885 27.8227C17.8413 27.8227 13.0209 23.0024 13.0209 17.0551C13.0209 12.2227 16.203 8.13423 20.5871 6.77222L20.5968 6.74072C19.6177 6.44748 18.578 6.28995 17.502 6.28995C11.5547 6.28995 6.73438 11.1103 6.73438 17.0575C6.73438 26.4777 14.3708 34.1117 23.7885 34.1117C33.2086 34.1117 40.8427 26.4752 40.8427 17.0575C40.8427 7.63741 33.2062 0.000976562 23.7885 0.000976562Z" fill="#ABADBF"/>
<path d="M17.5453 0.00152588C8.12765 0.00152588 0.491211 7.63796 0.491211 17.0557C0.491211 26.4758 8.12765 34.1098 17.5453 34.1098C18.619 34.1098 19.6708 34.0104 20.6886 33.8214C12.7711 32.3455 6.77776 25.3998 6.77776 17.0557C6.77776 11.1084 11.5981 6.28807 17.5453 6.28807C23.4926 6.28807 28.3129 11.1084 28.3129 17.0557C28.3129 21.8881 25.1309 25.9766 20.7468 27.3386L20.7371 27.3701C21.7162 27.6633 22.7559 27.8208 23.8319 27.8208C29.7792 27.8208 34.5995 23.0005 34.5995 17.0532C34.6019 7.63796 26.9655 0.00152588 17.5453 0.00152588Z" fill="white"/>
</svg>
