<svg width="225" height="36" viewBox="0 0 225 36" fill="none" xmlns="http://www.w3.org/2000/svg">
<path d="M49.8896 14.3236C49.8896 11.9421 50.4214 9.81498 51.485 7.94217C52.5717 6.04625 54.0399 4.57806 55.8896 3.53761C57.7624 2.47405 59.8548 1.94226 62.1669 1.94226C64.8721 1.94226 67.242 2.63589 69.2766 4.02316C71.3113 5.41042 72.7332 7.32946 73.5425 9.78029H67.9587C67.4038 8.62424 66.6177 7.7572 65.6004 7.17918C64.6062 6.60115 63.4501 6.31214 62.1322 6.31214C60.7219 6.31214 59.4618 6.64739 58.3519 7.3179C57.2653 7.96529 56.4098 8.89013 55.7855 10.0924C55.1844 11.2947 54.8838 12.7051 54.8838 14.3236C54.8838 15.9189 55.1844 17.3293 55.7855 18.5547C56.4098 19.757 57.2653 20.6934 58.3519 21.3639C59.4618 22.0113 60.7219 22.335 62.1322 22.335C63.4501 22.335 64.6062 22.046 65.6004 21.468C66.6177 20.8668 67.4038 19.9882 67.9587 18.8322H73.5425C72.7332 21.3061 71.3113 23.2367 69.2766 24.624C67.2651 25.9881 64.8952 26.6702 62.1669 26.6702C59.8548 26.6702 57.7624 26.15 55.8896 25.1095C54.0399 24.046 52.5717 22.5778 51.485 20.705C50.4214 18.8322 49.8896 16.705 49.8896 14.3236Z" fill="#E1E1E7"/>
<path d="M86.2213 26.7743C84.3716 26.7743 82.7069 26.3696 81.2271 25.5604C79.7474 24.7281 78.5798 23.5604 77.7243 22.0576C76.8919 20.5547 76.4758 18.8206 76.4758 16.8553C76.4758 14.89 76.9035 13.156 77.759 11.6531C78.6376 10.1502 79.8283 8.99418 81.3312 8.18494C82.8341 7.35259 84.5103 6.93641 86.36 6.93641C88.2097 6.93641 89.886 7.35259 91.3888 8.18494C92.8917 8.99418 94.0709 10.1502 94.9264 11.6531C95.805 13.156 96.2443 14.89 96.2443 16.8553C96.2443 18.8206 95.7934 20.5547 94.8917 22.0576C94.0131 23.5604 92.8108 24.7281 91.2848 25.5604C89.7819 26.3696 88.0941 26.7743 86.2213 26.7743ZM86.2213 22.5431C87.0999 22.5431 87.9207 22.335 88.6837 21.9188C89.4698 21.4795 90.0941 20.8322 90.5565 19.9767C91.0189 19.1212 91.2501 18.0808 91.2501 16.8553C91.2501 15.0288 90.7646 13.6299 89.7935 12.6589C88.8455 11.6647 87.6779 11.1676 86.2907 11.1676C84.9034 11.1676 83.7358 11.6647 82.7878 12.6589C81.863 13.6299 81.4006 15.0288 81.4006 16.8553C81.4006 18.6819 81.8514 20.0923 82.7531 21.0865C83.678 22.0576 84.834 22.5431 86.2213 22.5431Z" fill="#E1E1E7"/>
<path d="M123.667 6.97109C126.025 6.97109 127.921 7.6994 129.355 9.15603C130.811 10.5895 131.54 12.6011 131.54 15.1906V26.4621H126.684V15.8496C126.684 14.3467 126.303 13.2022 125.54 12.4161C124.777 11.6069 123.736 11.2022 122.418 11.2022C121.1 11.2022 120.048 11.6069 119.262 12.4161C118.499 13.2022 118.118 14.3467 118.118 15.8496V26.4621H113.262V15.8496C113.262 14.3467 112.881 13.2022 112.118 12.4161C111.355 11.6069 110.314 11.2022 108.997 11.2022C107.655 11.2022 106.592 11.6069 105.806 12.4161C105.043 13.2022 104.661 14.3467 104.661 15.8496V26.4621H99.8059V7.24854H104.661V9.57221C105.286 8.76297 106.083 8.12714 107.054 7.66472C108.049 7.2023 109.135 6.97109 110.314 6.97109C111.817 6.97109 113.158 7.29478 114.337 7.94217C115.517 8.56644 116.43 9.46816 117.077 10.6473C117.702 9.53752 118.603 8.64736 119.782 7.97685C120.985 7.30634 122.28 6.97109 123.667 6.97109Z" fill="#E1E1E7"/>
<path d="M141.002 10.0231C141.627 9.14447 142.482 8.41615 143.569 7.83813C144.679 7.23698 145.939 6.93641 147.349 6.93641C148.991 6.93641 150.47 7.34103 151.788 8.15026C153.129 8.9595 154.181 10.1156 154.944 11.6184C155.731 13.0982 156.124 14.8207 156.124 16.786C156.124 18.7513 155.731 20.4969 154.944 22.0229C154.181 23.5258 153.129 24.6934 151.788 25.5257C150.47 26.3581 148.991 26.7743 147.349 26.7743C145.939 26.7743 144.69 26.4853 143.604 25.9072C142.54 25.3292 141.673 24.6009 141.002 23.7223V35.6181H136.147V7.24854H141.002V10.0231ZM151.164 16.786C151.164 15.6299 150.921 14.6357 150.436 13.8034C149.973 12.9479 149.349 12.3005 148.563 11.8612C147.8 11.4219 146.968 11.2022 146.066 11.2022C145.187 11.2022 144.355 11.4335 143.569 11.8959C142.806 12.3352 142.182 12.9826 141.696 13.838C141.234 14.6935 141.002 15.6993 141.002 16.8553C141.002 18.0114 141.234 19.0172 141.696 19.8726C142.182 20.7281 142.806 21.3871 143.569 21.8495C144.355 22.2888 145.187 22.5084 146.066 22.5084C146.968 22.5084 147.8 22.2772 148.563 21.8148C149.349 21.3524 149.973 20.6934 150.436 19.838C150.921 18.9825 151.164 17.9651 151.164 16.786Z" fill="#E1E1E7"/>
<path d="M158.403 16.786C158.403 14.8438 158.785 13.1213 159.548 11.6184C160.334 10.1156 161.386 8.9595 162.704 8.15026C164.045 7.34103 165.536 6.93641 167.178 6.93641C168.611 6.93641 169.86 7.22542 170.923 7.80345C172.01 8.38147 172.877 9.10978 173.525 9.98838V7.24854H178.415V26.4621H173.525V23.6529C172.9 24.5546 172.033 25.3061 170.923 25.9072C169.837 26.4853 168.577 26.7743 167.143 26.7743C165.525 26.7743 164.045 26.3581 162.704 25.5257C161.386 24.6934 160.334 23.5258 159.548 22.0229C158.785 20.4969 158.403 18.7513 158.403 16.786ZM173.525 16.8553C173.525 15.6762 173.293 14.6704 172.831 13.838C172.368 12.9826 171.744 12.3352 170.958 11.8959C170.172 11.4335 169.328 11.2022 168.426 11.2022C167.525 11.2022 166.692 11.4219 165.929 11.8612C165.166 12.3005 164.542 12.9479 164.056 13.8034C163.594 14.6357 163.363 15.6299 163.363 16.786C163.363 17.942 163.594 18.9594 164.056 19.838C164.542 20.6934 165.166 21.3524 165.929 21.8148C166.715 22.2772 167.548 22.5084 168.426 22.5084C169.328 22.5084 170.172 22.2888 170.958 21.8495C171.744 21.3871 172.368 20.7397 172.831 19.9073C173.293 19.0518 173.525 18.0345 173.525 16.8553Z" fill="#E1E1E7"/>
<path d="M193.804 6.97109C196.093 6.97109 197.943 7.6994 199.353 9.15603C200.763 10.5895 201.469 12.6011 201.469 15.1906V26.4621H196.613V15.8496C196.613 14.3236 196.232 13.156 195.469 12.3467C194.706 11.5144 193.665 11.0982 192.347 11.0982C191.006 11.0982 189.943 11.5144 189.157 12.3467C188.394 13.156 188.012 14.3236 188.012 15.8496V26.4621H183.157V7.24854H188.012V9.64157C188.66 8.80921 189.48 8.16182 190.475 7.6994C191.492 7.21386 192.602 6.97109 193.804 6.97109Z" fill="#E1E1E7"/>
<path d="M224.467 7.24854L212.571 35.5487H207.404L211.566 25.9766L203.866 7.24854H209.311L214.271 20.6703L219.3 7.24854H224.467Z" fill="#E1E1E7"/>
<path d="M13.4861 35.362C6.07282 35.362 0.0869141 29.33 0.0869141 21.9627C0.0869141 14.5955 6.07282 8.56354 13.4861 8.56354C20.8534 8.56354 26.8853 14.5494 26.8853 21.9627C26.8393 29.33 20.8534 35.362 13.4861 35.362Z" fill="#ABADBF"/>
<path d="M33.7283 0H15.2081C14.2572 0 13.4863 0.770845 13.4863 1.72173V20.2419C13.4863 21.1928 14.2572 21.9637 15.2081 21.9637H33.7283C34.6791 21.9637 35.45 21.1928 35.45 20.2419V1.72173C35.45 0.770846 34.6791 0 33.7283 0Z" fill="white"/>
</svg>
