<svg width="219" height="36" viewBox="0 0 219 36" fill="none" xmlns="http://www.w3.org/2000/svg">
<path d="M75.4931 19.1525C73.9101 21.7205 71.6588 23.1979 68.7391 23.1979C64.5178 23.1979 61.4223 19.7857 61.4223 15.3886C61.4223 10.9915 64.3771 7.61445 68.8094 7.61445C71.6236 7.61445 74.1564 9.19742 75.4227 11.5895L79.5033 8.35317C77.4278 4.65958 73.6639 2.44342 68.8798 2.44342C61.2112 2.44342 55.8291 8.14211 55.8291 15.3886C55.8291 22.6351 61.3167 28.3689 68.8094 28.3689C73.5232 28.3689 77.463 25.8714 79.6088 22.3185L75.4931 19.1525Z" fill="#E1E1E7"/>
<path d="M90.783 9.47884C85.1547 9.47884 81.1093 13.5594 81.1093 18.9063C81.1093 24.218 85.1547 28.3689 90.783 28.3689C96.4114 28.3689 100.457 24.218 100.457 18.9063C100.457 13.5594 96.4114 9.47884 90.783 9.47884ZM90.783 14.2277C93.2103 14.2277 95.0395 16.0921 95.0395 18.9063C95.0395 21.7205 93.2103 23.62 90.783 23.62C88.3558 23.62 86.5266 21.7205 86.5266 18.9063C86.5266 16.0921 88.3558 14.2277 90.783 14.2277Z" fill="#E1E1E7"/>
<path d="M103.952 9.90096V27.9468H109.299V18.5545C109.299 16.1977 110.53 14.1926 112.781 14.1926C114.751 14.1926 116.017 15.4238 116.017 17.7806V27.9468H121.364V18.5545C121.364 16.1977 122.595 14.1926 124.847 14.1926C126.817 14.1926 128.048 15.4238 128.048 17.7806V27.9468H133.395V16.9716C133.395 12.293 130.757 9.47884 126.43 9.47884C123.369 9.47884 121.646 10.8156 120.344 12.6448C119.113 10.6397 117.143 9.47884 114.364 9.47884C112.007 9.47884 110.248 10.3934 109.087 12.2226V9.90096H103.952Z" fill="#E1E1E7"/>
<path d="M147.423 14.1926C149.71 14.1926 151.609 16.0569 151.609 18.9766C151.609 21.7908 149.71 23.6552 147.423 23.6552C145.031 23.6552 143.167 21.826 143.167 18.9766C143.167 16.0218 145.031 14.1926 147.423 14.1926ZM142.921 9.90096H137.961V34.9822H143.308V25.9769C144.433 27.6654 146.579 28.3689 148.514 28.3689C153.439 28.3689 156.992 24.2884 156.992 18.9063C156.992 13.3483 153.157 9.47884 148.549 9.47884C146.79 9.47884 144.328 10.2176 142.921 12.3985V9.90096Z" fill="#E1E1E7"/>
<path d="M169.853 16.7253L164.928 17.6751C161.129 18.4842 159.054 20.3134 159.054 22.9868C159.054 26.1176 161.516 28.3689 165.034 28.3689C167.426 28.3689 169.185 27.3136 170.029 25.7306V27.9468H174.989V16.5846C174.989 12.1875 171.999 9.47884 166.969 9.47884C163.592 9.47884 160.883 10.8859 159.23 12.891L162.009 16.268C163.099 15.0368 164.647 14.087 166.652 14.087C168.481 14.087 169.853 14.7906 169.853 16.5846V16.7253ZM166.23 24.3939C164.964 24.3939 164.154 23.6904 164.154 22.6702C164.154 21.6853 164.858 21.0521 166.3 20.8059L169.888 20.1023V20.63C169.888 22.7758 168.446 24.3939 166.23 24.3939Z" fill="#E1E1E7"/>
<path d="M179.493 9.90096V27.9468H184.84V18.5545C184.84 16.1977 186.071 14.1926 188.393 14.1926C190.363 14.1926 191.629 15.4238 191.629 17.7806V27.9468H196.976V16.9716C196.976 12.293 194.303 9.47884 189.976 9.47884C187.549 9.47884 185.79 10.3934 184.629 12.2226V9.90096H179.493Z" fill="#E1E1E7"/>
<path d="M205.707 27.2784L205.496 27.8764C204.722 30.4444 203.42 30.9017 202.013 30.9017C201.415 30.9017 200.5 30.8313 199.551 30.3037V34.736C200.36 35.1229 201.52 35.4043 202.787 35.4043C206.199 35.4043 208.38 33.7862 210.174 29.4242L218.054 9.90096H212.601L208.38 21.7205L204.194 9.90096H198.601L205.707 27.2784Z" fill="#E1E1E7"/>
<path d="M24.2034 0H18.1605C17.6927 0 17.3135 0.379215 17.3135 0.846998V31.1652C17.3135 31.6329 17.6927 32.0122 18.1605 32.0122H24.2034C24.6712 32.0122 25.0504 31.6329 25.0504 31.1652V0.846996C25.0504 0.379213 24.6712 0 24.2034 0Z" fill="white"/>
<path d="M35.4302 32.012C39.0624 32.012 42.0068 29.0675 42.0068 25.4353C42.0068 21.8031 39.0624 18.8586 35.4302 18.8586C31.798 18.8586 28.8535 21.8031 28.8535 25.4353C28.8535 29.0675 31.798 32.012 35.4302 32.012Z" fill="#ABADBF"/>
<path d="M35.4302 13.1533C39.0624 13.1533 42.0068 10.2088 42.0068 6.57666C42.0068 2.94447 39.0624 0 35.4302 0C31.798 0 28.8535 2.94447 28.8535 6.57666C28.8535 10.2088 31.798 13.1533 35.4302 13.1533Z" fill="#ABADBF"/>
<path d="M6.9331 32.012C10.5653 32.012 13.5098 29.0675 13.5098 25.4353C13.5098 21.8031 10.5653 18.8586 6.9331 18.8586C3.30091 18.8586 0.356445 21.8031 0.356445 25.4353C0.356445 29.0675 3.30091 32.012 6.9331 32.012Z" fill="#ABADBF"/>
</svg>
