<svg width="222" height="34" viewBox="0 0 222 34" fill="none" xmlns="http://www.w3.org/2000/svg">
<path d="M66.0589 18.1339C65.8155 19.1681 65.4049 20.1717 64.8271 21.145C64.2492 22.0879 63.5344 22.9395 62.6828 23.6999C61.8312 24.4299 60.8579 25.0229 59.763 25.4792C58.668 25.905 57.497 26.1179 56.25 26.1179C54.8205 26.1179 53.467 25.8442 52.1896 25.2967C50.9426 24.7188 49.8324 23.9432 48.8592 22.9699C47.9163 21.9967 47.1559 20.8713 46.578 19.5939C46.0306 18.286 45.7568 16.8869 45.7568 15.3966C45.7568 13.9063 46.0306 12.5224 46.578 11.2449C47.1559 9.93709 47.9163 8.79653 48.8592 7.82325C49.8324 6.84997 50.9426 6.08959 52.1896 5.54212C53.467 4.96424 54.8205 4.67529 56.25 4.67529C57.497 4.67529 58.668 4.90341 59.763 5.35963C60.8579 5.78544 61.8312 6.37853 62.6828 7.13891C63.5344 7.86887 64.2492 8.72049 64.8271 9.69377C65.4049 10.6366 65.8155 11.6251 66.0589 12.6592H60.8123C60.5689 12.1118 60.2344 11.6251 59.8086 11.1993C59.4436 10.8343 58.9722 10.4998 58.3943 10.1956C57.8164 9.86106 57.1016 9.69377 56.25 9.69377C54.7597 9.69377 53.5127 10.2108 52.509 11.2449C51.5053 12.2791 51.0034 13.6629 51.0034 15.3966C51.0034 17.1302 51.5053 18.5141 52.509 19.5482C53.5127 20.5824 54.7597 21.0994 56.25 21.0994C57.1016 21.0994 57.8164 20.9473 58.3943 20.6432C58.9722 20.339 59.4436 20.0045 59.8086 19.6395C60.2344 19.2137 60.5689 18.7118 60.8123 18.1339H66.0589Z" fill="#E1E1E7"/>
<path d="M74.7271 15.3966C74.7271 17.1302 75.229 18.5141 76.2327 19.5482C77.2364 20.5824 78.4834 21.0994 79.9737 21.0994C81.4641 21.0994 82.7111 20.5824 83.7148 19.5482C84.7185 18.5141 85.2203 17.1302 85.2203 15.3966C85.2203 13.6629 84.7185 12.2791 83.7148 11.2449C82.7111 10.2108 81.4641 9.69377 79.9737 9.69377C78.4834 9.69377 77.2364 10.2108 76.2327 11.2449C75.229 12.2791 74.7271 13.6629 74.7271 15.3966ZM90.4669 15.3966C90.4669 16.8869 90.178 18.286 89.6001 19.5939C89.0526 20.8713 88.2922 21.9967 87.319 22.9699C86.3761 23.9432 85.2659 24.7188 83.9885 25.2967C82.7415 25.8442 81.4032 26.1179 79.9737 26.1179C78.5442 26.1179 77.1908 25.8442 75.9133 25.2967C74.6663 24.7188 73.5562 23.9432 72.5829 22.9699C71.64 21.9967 70.8796 20.8713 70.3018 19.5939C69.7543 18.286 69.4805 16.8869 69.4805 15.3966C69.4805 13.9063 69.7543 12.5224 70.3018 11.2449C70.8796 9.93709 71.64 8.79653 72.5829 7.82325C73.5562 6.84997 74.6663 6.08959 75.9133 5.54212C77.1908 4.96424 78.5442 4.67529 79.9737 4.67529C81.4032 4.67529 82.7415 4.96424 83.9885 5.54212C85.2659 6.08959 86.3761 6.84997 87.319 7.82325C88.2922 8.79653 89.0526 9.93709 89.6001 11.2449C90.178 12.5224 90.4669 13.9063 90.4669 15.3966Z" fill="#E1E1E7"/>
<path d="M105.045 4.67529C106.109 4.67529 107.022 4.82737 107.782 5.13152C108.542 5.40525 109.166 5.7094 109.653 6.04397C110.2 6.43936 110.641 6.89559 110.976 7.41264C111.462 6.89559 112.025 6.43936 112.664 6.04397C113.211 5.7094 113.865 5.40525 114.625 5.13152C115.386 4.82737 116.222 4.67529 117.135 4.67529C119.416 4.67529 121.241 5.40525 122.609 6.86517C123.978 8.3251 124.662 10.4846 124.662 13.3436V25.8898H119.416V13.7998C119.416 12.5224 119.066 11.5187 118.367 10.7887C117.697 10.0588 116.907 9.69377 115.994 9.69377C115.082 9.69377 114.276 10.0588 113.576 10.7887C112.907 11.5187 112.572 12.5224 112.572 13.7998V25.8898H107.326V13.7998C107.326 12.5224 106.976 11.5187 106.277 10.7887C105.607 10.0588 104.817 9.69377 103.904 9.69377C102.992 9.69377 102.186 10.0588 101.486 10.7887C100.817 11.5187 100.482 12.5224 100.482 13.7998V25.8898H95.2359V4.90341H99.1138L100.026 6.95642C100.452 6.53061 100.923 6.15042 101.441 5.81586C101.866 5.54212 102.383 5.28359 102.992 5.04027C103.6 4.79695 104.284 4.67529 105.045 4.67529Z" fill="#E1E1E7"/>
<path d="M141.087 4.67529C142.394 4.67529 143.641 4.94903 144.828 5.4965C146.014 6.01355 147.048 6.75872 147.93 7.732C148.842 8.67487 149.557 9.80023 150.074 11.1081C150.622 12.4159 150.895 13.8454 150.895 15.3966C150.895 16.9478 150.622 18.3773 150.074 19.6851C149.557 20.993 148.842 22.1335 147.93 23.1068C147.048 24.0497 146.014 24.7948 144.828 25.3423C143.641 25.8594 142.394 26.1179 141.087 26.1179C140.204 26.1179 139.429 26.0114 138.76 25.7985C138.121 25.5856 137.558 25.3575 137.072 25.1142C136.524 24.81 136.038 24.4603 135.612 24.0649V33.1894H130.365V4.90341H134.243L135.156 6.95642C135.612 6.53061 136.144 6.15042 136.752 5.81586C137.269 5.54212 137.893 5.28359 138.623 5.04027C139.353 4.79695 140.174 4.67529 141.087 4.67529ZM135.156 15.3966C135.156 17.1302 135.657 18.5141 136.661 19.5482C137.665 20.5824 138.912 21.0994 140.402 21.0994C141.893 21.0994 143.14 20.5824 144.143 19.5482C145.147 18.5141 145.649 17.1302 145.649 15.3966C145.649 13.6629 145.147 12.2791 144.143 11.2449C143.14 10.2108 141.893 9.69377 140.402 9.69377C138.912 9.69377 137.665 10.2108 136.661 11.2449C135.657 12.2791 135.156 13.6629 135.156 15.3966Z" fill="#E1E1E7"/>
<path d="M164.361 4.67529C165.547 4.67529 166.642 4.8882 167.646 5.31401C168.65 5.7094 169.516 6.27208 170.246 7.00204C170.976 7.732 171.539 8.59883 171.934 9.60253C172.36 10.6062 172.573 11.7012 172.573 12.8874V25.8898H168.695L167.783 23.8368C167.296 24.2626 166.764 24.6428 166.186 24.9773C165.669 25.2815 165.045 25.5552 164.316 25.7985C163.586 26.0114 162.764 26.1179 161.852 26.1179C159.571 26.1179 157.822 25.5704 156.605 24.4755C155.389 23.3501 154.78 21.9206 154.78 20.187C154.78 19.1528 154.978 18.21 155.374 17.3584C155.799 16.4763 156.499 15.7312 157.472 15.1229C158.445 14.4841 159.723 13.9975 161.304 13.6629C162.916 13.298 164.924 13.1155 167.327 13.1155C167.327 11.9597 167.007 11.0624 166.369 10.4237C165.76 9.78502 164.939 9.46566 163.905 9.46566C163.205 9.46566 162.643 9.58732 162.217 9.83064C161.821 10.074 161.502 10.3325 161.259 10.6062C160.985 10.9408 160.803 11.321 160.711 11.7468H155.465C155.586 10.7735 155.86 9.86106 156.286 9.00943C156.742 8.15781 157.35 7.41265 158.111 6.77393C158.871 6.13521 159.768 5.63337 160.803 5.26839C161.867 4.87299 163.053 4.67529 164.361 4.67529ZM162.764 22.0119C164.133 22.0119 165.228 21.6165 166.049 20.8257C166.901 20.0045 167.327 18.9551 167.327 17.6777V16.7653C165.775 16.7653 164.528 16.8413 163.586 16.9934C162.643 17.115 161.898 17.3127 161.35 17.5865C160.833 17.8298 160.483 18.1339 160.301 18.4989C160.118 18.8639 160.027 19.2745 160.027 19.7307C160.027 20.3086 160.286 20.8409 160.803 21.3275C161.32 21.7837 161.974 22.0119 162.764 22.0119Z" fill="#E1E1E7"/>
<path d="M188.979 4.67529C190.227 4.67529 191.367 4.8882 192.401 5.31401C193.435 5.7094 194.317 6.3025 195.047 7.09329C195.808 7.85366 196.386 8.78132 196.781 9.87626C197.207 10.9712 197.42 12.203 197.42 13.5717V25.8898H192.173V14.256C192.173 12.8874 191.762 11.7924 190.941 10.9712C190.15 10.1196 189.116 9.69377 187.839 9.69377C186.561 9.69377 185.512 10.1196 184.691 10.9712C183.9 11.7924 183.505 12.8874 183.505 14.256V25.8898H178.258V4.90341H182.136L183.049 6.95642C183.566 6.53061 184.128 6.15042 184.737 5.81586C185.254 5.54212 185.862 5.28359 186.562 5.04027C187.291 4.79695 188.097 4.67529 188.979 4.67529Z" fill="#E1E1E7"/>
<path d="M200.859 4.90341H206.334L211.58 18.5902L216.371 4.90341H221.846C220.355 8.7357 219.002 12.203 217.785 15.3053C217.268 16.6436 216.751 17.9515 216.234 19.2289C215.747 20.5063 215.306 21.6773 214.911 22.7418C214.515 23.7759 214.181 24.6428 213.907 25.3423C213.633 26.0418 213.466 26.4525 213.405 26.5741C212.888 27.8211 212.371 28.8704 211.854 29.7221C211.368 30.6041 210.835 31.3189 210.257 31.8663C209.68 32.4138 209.056 32.8092 208.387 33.0525C207.718 33.2958 206.957 33.4175 206.106 33.4175C205.862 33.4175 205.619 33.4023 205.376 33.3719C205.163 33.3719 204.98 33.3567 204.828 33.3262C204.615 33.2958 204.433 33.2502 204.281 33.1894V28.8552C205.437 28.8552 206.319 28.5967 206.927 28.0797C207.566 27.5626 208.052 26.9087 208.387 26.1179L208.843 24.9773L200.859 4.90341Z" fill="#E1E1E7"/>
<path d="M30.7508 18.12C31.303 18.12 31.7541 18.5682 31.719 19.1194C31.5331 22.0394 30.5355 24.8571 28.8293 27.2503C26.9291 29.9156 24.2447 31.9216 21.1502 32.9887C18.0558 34.0558 14.7055 34.1308 11.5663 33.2033C8.4272 32.2759 5.65565 30.3921 3.63803 27.8145C1.62041 25.237 0.457254 22.0942 0.310695 18.8242C0.164136 15.5542 1.04148 12.32 2.82043 9.57228C4.59938 6.8246 7.19129 4.70042 10.2349 3.49582C12.9678 2.4142 15.9425 2.1224 18.8218 2.64313C19.3652 2.74142 19.692 3.28688 19.5594 3.82301L16.3296 16.8799C16.1736 17.5104 16.6508 18.12 17.3003 18.12H30.7508Z" fill="#ABADBF"/>
<path d="M22.4535 1.41408C22.5836 0.877323 23.1253 0.544502 23.6528 0.708375C26.6884 1.65159 29.3754 3.49572 31.3498 6.00696C33.3242 8.5182 34.4822 11.5645 34.6824 14.737C34.7172 15.2882 34.2659 15.7361 33.7136 15.7358L20.2562 15.7286C19.6089 15.7283 19.1325 15.1223 19.2849 14.4931L22.4535 1.41408Z" fill="white"/>
</svg>
