<svg width="168" height="27" viewBox="0 0 168 27" fill="none" xmlns="http://www.w3.org/2000/svg">
<path d="M20.983 11.6204C17.4307 11.6204 14.5472 8.74786 14.5472 5.21748C14.5472 4.757 14.602 4.31844 14.6897 3.87988H6.13789C2.82679 3.87988 0.140625 6.55508 0.140625 9.84426V20.863C0.140625 24.1631 2.82679 26.8274 6.13789 26.8274H17.2115C20.5335 26.8274 23.2087 24.1522 23.2087 20.863V11.2147C22.529 11.4669 21.7724 11.6204 20.983 11.6204Z" fill="#ABADBF"/>
<path d="M23.2195 20.863V11.2147C22.5287 11.4669 21.7722 11.6204 20.9938 11.6204C17.4415 11.6204 14.558 8.74787 14.558 5.21748C14.558 4.757 14.6128 4.31844 14.7005 3.87988H6.14863C2.85946 3.87988 0.195223 6.51122 0.151367 9.77847C8.04539 13.0348 16.1587 16.9927 23.1756 21.6195C23.1975 21.3673 23.2195 21.1152 23.2195 20.863Z" fill="#ABADBF"/>
<path d="M21.4741 9.40878C24.0506 9.40878 26.1338 7.3366 26.1338 4.77104C26.1338 2.21645 24.0506 0.133301 21.4741 0.133301C18.8976 0.133301 16.8145 2.20548 16.8145 4.77104C16.8145 7.32563 18.8976 9.40878 21.4741 9.40878Z" fill="white"/>
<path d="M49.706 15.3084C49.5226 16.0878 49.2131 16.8443 48.7776 17.5778C48.342 18.2885 47.8033 18.9303 47.1614 19.5034C46.5196 20.0536 45.786 20.5006 44.9607 20.8445C44.1355 21.1654 43.2529 21.3259 42.313 21.3259C41.2356 21.3259 40.2155 21.1196 39.2527 20.7069C38.3128 20.2714 37.4761 19.6868 36.7425 18.9533C36.0319 18.2197 35.4588 17.3715 35.0232 16.4087C34.6106 15.423 34.4043 14.3685 34.4043 13.2452C34.4043 12.1219 34.6106 11.0789 35.0232 10.1161C35.4588 9.13038 36.0319 8.27073 36.7425 7.53717C37.4761 6.80361 38.3128 6.23051 39.2527 5.81788C40.2155 5.38233 41.2356 5.16455 42.313 5.16455C43.2529 5.16455 44.1355 5.33648 44.9607 5.68034C45.786 6.00127 46.5196 6.44829 47.1614 7.02138C47.8033 7.57156 48.342 8.21342 48.7776 8.94699C49.2131 9.65763 49.5226 10.4027 49.706 11.1821H45.7516C45.5682 10.7694 45.3161 10.4027 44.9951 10.0817C44.72 9.80663 44.3647 9.55447 43.9292 9.32523C43.4936 9.07307 42.9549 8.94699 42.313 8.94699C41.1898 8.94699 40.2499 9.33669 39.4934 10.1161C38.7369 10.8955 38.3587 11.9386 38.3587 13.2452C38.3587 14.5519 38.7369 15.5949 39.4934 16.3743C40.2499 17.1537 41.1898 17.5434 42.313 17.5434C42.9549 17.5434 43.4936 17.4288 43.9292 17.1996C44.3647 16.9703 44.72 16.7182 44.9951 16.4431C45.3161 16.1222 45.5682 15.7439 45.7516 15.3084H49.706Z" fill="#E1E1E7"/>
<path d="M56.2393 13.2452C56.2393 14.5519 56.6175 15.5949 57.374 16.3743C58.1305 17.1537 59.0704 17.5434 60.1936 17.5434C61.3169 17.5434 62.2568 17.1537 63.0133 16.3743C63.7698 15.5949 64.148 14.5519 64.148 13.2452C64.148 11.9386 63.7698 10.8955 63.0133 10.1161C62.2568 9.33669 61.3169 8.94699 60.1936 8.94699C59.0704 8.94699 58.1305 9.33669 57.374 10.1161C56.6175 10.8955 56.2393 11.9386 56.2393 13.2452ZM68.1024 13.2452C68.1024 14.3685 67.8846 15.423 67.449 16.4087C67.0364 17.3715 66.4633 18.2197 65.7297 18.9533C65.0191 19.6868 64.1824 20.2714 63.2196 20.7069C62.2797 21.1196 61.2711 21.3259 60.1936 21.3259C59.1162 21.3259 58.0961 21.1196 57.1333 20.7069C56.1934 20.2714 55.3567 19.6868 54.6231 18.9533C53.9125 18.2197 53.3394 17.3715 52.9038 16.4087C52.4912 15.423 52.2849 14.3685 52.2849 13.2452C52.2849 12.1219 52.4912 11.0789 52.9038 10.1161C53.3394 9.13038 53.9125 8.27073 54.6231 7.53717C55.3567 6.80361 56.1934 6.23051 57.1333 5.81788C58.0961 5.38233 59.1162 5.16455 60.1936 5.16455C61.2711 5.16455 62.2797 5.38233 63.2196 5.81788C64.1824 6.23051 65.0191 6.80361 65.7297 7.53717C66.4633 8.27073 67.0364 9.13038 67.449 10.1161C67.8846 11.0789 68.1024 12.1219 68.1024 13.2452Z" fill="#E1E1E7"/>
<path d="M79.0897 5.16455C79.892 5.16455 80.5797 5.27917 81.1528 5.50841C81.7259 5.71472 82.1959 5.94396 82.5627 6.19612C82.9753 6.49413 83.3077 6.83799 83.5598 7.2277C83.9266 6.83799 84.3507 6.49413 84.8321 6.19612C85.2447 5.94396 85.7376 5.71472 86.3107 5.50841C86.8838 5.27917 87.5142 5.16455 88.2019 5.16455C89.9212 5.16455 91.2966 5.71472 92.3282 6.81507C93.3598 7.91541 93.8756 9.54301 93.8756 11.6979V21.1539H89.9212V12.0417C89.9212 11.0789 89.6576 10.3224 89.1303 9.77225C88.626 9.22207 88.03 8.94699 87.3423 8.94699C86.6546 8.94699 86.0471 9.22207 85.5198 9.77225C85.0155 10.3224 84.7633 11.0789 84.7633 12.0417V21.1539H80.809V12.0417C80.809 11.0789 80.5454 10.3224 80.0181 9.77225C79.5138 9.22207 78.9178 8.94699 78.23 8.94699C77.5423 8.94699 76.9348 9.22207 76.4076 9.77225C75.9033 10.3224 75.6511 11.0789 75.6511 12.0417V21.1539H71.6967V5.33648H74.6195L75.3073 6.88384C75.6282 6.56291 75.9835 6.27636 76.3732 6.0242C76.6941 5.81788 77.0839 5.62303 77.5423 5.43964C78.0008 5.25625 78.5166 5.16455 79.0897 5.16455Z" fill="#E1E1E7"/>
<path d="M106.254 5.16455C107.24 5.16455 108.18 5.37087 109.074 5.78349C109.968 6.1732 110.748 6.73484 111.412 7.4684C112.1 8.17904 112.639 9.02722 113.028 10.0129C113.441 10.9987 113.647 12.0761 113.647 13.2452C113.647 14.4143 113.441 15.4917 113.028 16.4775C112.639 17.4632 112.1 18.3228 111.412 19.0564C110.748 19.767 109.968 20.3287 109.074 20.7413C108.18 21.131 107.24 21.3259 106.254 21.3259C105.59 21.3259 105.005 21.2456 104.501 21.0852C104.019 20.9247 103.595 20.7528 103.229 20.5694C102.816 20.3401 102.449 20.0765 102.128 19.7785V26.6557H98.1738V5.33648H101.097L101.784 6.88384C102.128 6.56291 102.529 6.27636 102.988 6.0242C103.378 5.81788 103.847 5.62303 104.398 5.43964C104.948 5.25625 105.567 5.16455 106.254 5.16455ZM101.784 13.2452C101.784 14.5519 102.163 15.5949 102.919 16.3743C103.676 17.1537 104.615 17.5434 105.739 17.5434C106.862 17.5434 107.802 17.1537 108.558 16.3743C109.315 15.5949 109.693 14.5519 109.693 13.2452C109.693 11.9386 109.315 10.8955 108.558 10.1161C107.802 9.33669 106.862 8.94699 105.739 8.94699C104.615 8.94699 103.676 9.33669 102.919 10.1161C102.163 10.8955 101.784 11.9386 101.784 13.2452Z" fill="#E1E1E7"/>
<path d="M123.797 5.16455C124.691 5.16455 125.516 5.32502 126.272 5.64595C127.029 5.94396 127.682 6.36805 128.232 6.91823C128.783 7.4684 129.207 8.12173 129.505 8.87822C129.826 9.6347 129.986 10.46 129.986 11.354V21.1539H127.063L126.376 19.6066C126.009 19.9275 125.608 20.2141 125.172 20.4662C124.782 20.6955 124.312 20.9018 123.762 21.0852C123.212 21.2456 122.593 21.3259 121.905 21.3259C120.186 21.3259 118.868 20.9132 117.951 20.088C117.034 19.2398 116.576 18.1624 116.576 16.8557C116.576 16.0763 116.725 15.3657 117.023 14.7238C117.344 14.059 117.871 13.4974 118.604 13.0389C119.338 12.5575 120.301 12.1907 121.493 11.9386C122.708 11.6635 124.221 11.5259 126.032 11.5259C126.032 10.6548 125.791 9.97856 125.31 9.49716C124.851 9.01576 124.232 8.77506 123.453 8.77506C122.925 8.77506 122.501 8.86675 122.18 9.05014C121.882 9.23354 121.642 9.42839 121.458 9.6347C121.252 9.88687 121.114 10.1734 121.046 10.4943H117.091C117.183 9.76079 117.389 9.07307 117.71 8.4312C118.054 7.78933 118.513 7.2277 119.086 6.7463C119.659 6.2649 120.335 5.88665 121.114 5.61157C121.917 5.31356 122.811 5.16455 123.797 5.16455ZM122.593 18.2312C123.625 18.2312 124.45 17.9331 125.069 17.3371C125.711 16.7182 126.032 15.9273 126.032 14.9645V14.2768C124.863 14.2768 123.923 14.3341 123.212 14.4487C122.501 14.5404 121.94 14.6894 121.527 14.8957C121.137 15.0791 120.874 15.3084 120.736 15.5834C120.599 15.8585 120.53 16.168 120.53 16.5119C120.53 16.9474 120.725 17.3486 121.114 17.7154C121.504 18.0592 121.997 18.2312 122.593 18.2312Z" fill="#E1E1E7"/>
<path d="M142.351 5.16455C143.291 5.16455 144.151 5.32502 144.93 5.64595C145.71 5.94396 146.375 6.39098 146.925 6.987C147.498 7.56009 147.933 8.25927 148.231 9.08453C148.552 9.90979 148.713 10.8382 148.713 11.8698V21.1539H144.758V12.3856C144.758 11.354 144.449 10.5287 143.83 9.90979C143.234 9.26792 142.455 8.94699 141.492 8.94699C140.529 8.94699 139.738 9.26792 139.119 9.90979C138.523 10.5287 138.225 11.354 138.225 12.3856V21.1539H134.271V5.33648H137.194L137.881 6.88384C138.271 6.56291 138.695 6.27636 139.154 6.0242C139.543 5.81788 140.002 5.62303 140.529 5.43964C141.079 5.25625 141.687 5.16455 142.351 5.16455Z" fill="#E1E1E7"/>
<path d="M151.305 5.33648H155.431L159.386 15.6522L162.996 5.33648H167.123C165.999 8.22489 164.979 10.8382 164.062 13.1764C163.673 14.1851 163.283 15.1708 162.893 16.1336C162.526 17.0964 162.194 17.979 161.896 18.7813C161.598 19.5607 161.346 20.2141 161.14 20.7413C160.933 21.2686 160.807 21.578 160.761 21.6697C160.372 22.6096 159.982 23.4005 159.592 24.0423C159.225 24.7071 158.824 25.2459 158.389 25.6585C157.953 26.0711 157.483 26.3691 156.979 26.5525C156.475 26.7359 155.901 26.8276 155.26 26.8276C155.076 26.8276 154.893 26.8161 154.709 26.7932C154.549 26.7932 154.411 26.7818 154.297 26.7588C154.136 26.7359 153.999 26.7015 153.884 26.6557V23.389C154.755 23.389 155.42 23.1942 155.879 22.8045C156.36 22.4148 156.727 21.9219 156.979 21.3259L157.323 20.4662L151.305 5.33648Z" fill="#E1E1E7"/>
</svg>
