<svg width="191" height="31" viewBox="0 0 191 31" fill="none" xmlns="http://www.w3.org/2000/svg">
<path d="M42.8926 12.0849C42.8926 10.0756 43.3412 8.28092 44.2386 6.70083C45.1554 5.10122 46.3941 3.86251 47.9547 2.98468C49.5348 2.08734 51.3002 1.63867 53.251 1.63867C55.5333 1.63867 57.5328 2.22389 59.2495 3.39433C60.9661 4.56477 62.1658 6.18388 62.8486 8.25166H58.1376C57.6694 7.27629 57.0061 6.54477 56.1478 6.05708C55.309 5.5694 54.3336 5.32556 53.2217 5.32556C52.0318 5.32556 50.9686 5.60842 50.0323 6.17413C49.1154 6.72033 48.3936 7.50063 47.8669 8.51501C47.3598 9.52939 47.1062 10.7193 47.1062 12.0849C47.1062 13.4309 47.3598 14.6208 47.8669 15.6547C48.3936 16.6691 49.1154 17.4591 50.0323 18.0248C50.9686 18.571 52.0318 18.8441 53.2217 18.8441C54.3336 18.8441 55.309 18.6003 56.1478 18.1126C57.0061 17.6054 57.6694 16.8642 58.1376 15.8888H62.8486C62.1658 17.9761 60.9661 19.6049 59.2495 20.7754C57.5523 21.9263 55.5528 22.5018 53.251 22.5018C51.3002 22.5018 49.5348 22.0629 47.9547 21.185C46.3941 20.2877 45.1554 19.049 44.2386 17.4689C43.3412 15.8888 42.8926 14.0941 42.8926 12.0849Z" fill="#E1E1E7"/>
<path d="M73.5458 22.5896C71.9852 22.5896 70.5806 22.2482 69.3322 21.5654C68.0837 20.8632 67.0986 19.878 66.3768 18.6101C65.6745 17.3421 65.3234 15.879 65.3234 14.2209C65.3234 12.5628 65.6843 11.0997 66.4061 9.83175C67.1474 8.56378 68.152 7.58841 69.42 6.90565C70.6879 6.20339 72.1022 5.85226 73.6628 5.85226C75.2234 5.85226 76.6377 6.20339 77.9056 6.90565C79.1736 7.58841 80.1685 8.56378 80.8903 9.83175C81.6315 11.0997 82.0022 12.5628 82.0022 14.2209C82.0022 15.879 81.6218 17.3421 80.861 18.6101C80.1197 19.878 79.1053 20.8632 77.8179 21.5654C76.5499 22.2482 75.1258 22.5896 73.5458 22.5896ZM73.5458 19.0197C74.287 19.0197 74.9795 18.8441 75.6233 18.493C76.2865 18.1224 76.8132 17.5762 77.2034 16.8544C77.5935 16.1326 77.7886 15.2548 77.7886 14.2209C77.7886 12.6798 77.3789 11.4996 76.5596 10.6803C75.7598 9.84151 74.7747 9.4221 73.6043 9.4221C72.4338 9.4221 71.4487 9.84151 70.6489 10.6803C69.8686 11.4996 69.4785 12.6798 69.4785 14.2209C69.4785 15.762 69.8589 16.9519 70.6197 17.7908C71.3999 18.6101 72.3753 19.0197 73.5458 19.0197Z" fill="#E1E1E7"/>
<path d="M105.139 5.88152C107.128 5.88152 108.728 6.496 109.938 7.72496C111.166 8.93442 111.781 10.6316 111.781 12.8164V22.3262H107.684V13.3723C107.684 12.1044 107.363 11.1387 106.719 10.4755C106.075 9.79274 105.197 9.45136 104.085 9.45136C102.973 9.45136 102.086 9.79274 101.423 10.4755C100.779 11.1387 100.457 12.1044 100.457 13.3723V22.3262H96.3604V13.3723C96.3604 12.1044 96.0385 11.1387 95.3948 10.4755C94.7511 9.79274 93.8732 9.45136 92.7613 9.45136C91.6299 9.45136 90.7325 9.79274 90.0693 10.4755C89.4256 11.1387 89.1037 12.1044 89.1037 13.3723V22.3262H85.0071V6.11561H89.1037V8.07609C89.6304 7.39334 90.3034 6.85688 91.1227 6.46674C91.9615 6.07659 92.8784 5.88152 93.8732 5.88152C95.1412 5.88152 96.2726 6.15462 97.2675 6.70083C98.2624 7.22752 99.0329 7.98831 99.5791 8.98318C100.106 8.04683 100.867 7.2958 101.861 6.73009C102.876 6.16437 103.968 5.88152 105.139 5.88152Z" fill="#E1E1E7"/>
<path d="M119.765 8.45649C120.292 7.71521 121.013 7.10073 121.93 6.61304C122.867 6.10585 123.93 5.85226 125.12 5.85226C126.505 5.85226 127.753 6.19364 128.865 6.87639C129.996 7.55915 130.884 8.53452 131.528 9.80249C132.191 11.051 132.523 12.5043 132.523 14.1624C132.523 15.8205 132.191 17.2933 131.528 18.5808C130.884 19.8488 129.996 20.8339 128.865 21.5362C127.753 22.2384 126.505 22.5896 125.12 22.5896C123.93 22.5896 122.876 22.3457 121.959 21.858C121.062 21.3703 120.331 20.7559 119.765 20.0146V30.0511H115.668V6.11561H119.765V8.45649ZM128.338 14.1624C128.338 13.187 128.134 12.3482 127.724 11.6459C127.334 10.9242 126.807 10.378 126.144 10.0073C125.5 9.63668 124.798 9.45136 124.037 9.45136C123.296 9.45136 122.593 9.64644 121.93 10.0366C121.286 10.4072 120.76 10.9534 120.35 11.6752C119.96 12.397 119.765 13.2455 119.765 14.2209C119.765 15.1963 119.96 16.0448 120.35 16.7666C120.76 17.4884 121.286 18.0443 121.93 18.4345C122.593 18.8051 123.296 18.9904 124.037 18.9904C124.798 18.9904 125.5 18.7954 126.144 18.4052C126.807 18.0151 127.334 17.4591 127.724 16.7374C128.134 16.0156 128.338 15.1573 128.338 14.1624Z" fill="#E1E1E7"/>
<path d="M134.446 14.1624C134.446 12.5238 134.768 11.0705 135.412 9.80249C136.075 8.53452 136.963 7.55915 138.074 6.87639C139.206 6.19364 140.464 5.85226 141.849 5.85226C143.059 5.85226 144.112 6.0961 145.009 6.58378C145.926 7.07147 146.658 7.68595 147.204 8.42723V6.11561H151.33V22.3262H147.204V19.9561C146.677 20.7169 145.946 21.3508 145.009 21.858C144.092 22.3457 143.029 22.5896 141.82 22.5896C140.454 22.5896 139.206 22.2384 138.074 21.5362C136.963 20.8339 136.075 19.8488 135.412 18.5808C134.768 17.2933 134.446 15.8205 134.446 14.1624ZM147.204 14.2209C147.204 13.226 147.009 12.3775 146.619 11.6752C146.229 10.9534 145.702 10.4072 145.039 10.0366C144.375 9.64644 143.663 9.45136 142.903 9.45136C142.142 9.45136 141.439 9.63668 140.796 10.0073C140.152 10.378 139.625 10.9242 139.216 11.6459C138.826 12.3482 138.63 13.187 138.63 14.1624C138.63 15.1378 138.826 15.9961 139.216 16.7374C139.625 17.4591 140.152 18.0151 140.796 18.4052C141.459 18.7954 142.161 18.9904 142.903 18.9904C143.663 18.9904 144.375 18.8051 145.039 18.4345C145.702 18.0443 146.229 17.4981 146.619 16.7959C147.009 16.0741 147.204 15.2158 147.204 14.2209Z" fill="#E1E1E7"/>
<path d="M164.314 5.88152C166.245 5.88152 167.806 6.496 168.996 7.72496C170.186 8.93442 170.78 10.6316 170.78 12.8164V22.3262H166.684V13.3723C166.684 12.0849 166.362 11.0997 165.718 10.417C165.075 9.71471 164.197 9.36358 163.085 9.36358C161.953 9.36358 161.056 9.71471 160.393 10.417C159.749 11.0997 159.427 12.0849 159.427 13.3723V22.3262H155.331V6.11561H159.427V8.13462C159.973 7.43235 160.666 6.88615 161.505 6.496C162.363 6.08635 163.299 5.88152 164.314 5.88152Z" fill="#E1E1E7"/>
<path d="M190.184 6.11561L180.148 29.9926H175.788L179.299 21.9166L172.803 6.11561H177.397L181.582 17.4396L185.825 6.11561H190.184Z" fill="#E1E1E7"/>
<path d="M12.178 29.8351C5.92338 29.8351 0.873047 24.7459 0.873047 18.5301C0.873047 12.3143 5.92338 7.2251 12.178 7.2251C18.3938 7.2251 23.483 12.2754 23.483 18.5301C23.4442 24.7459 18.3938 29.8351 12.178 29.8351Z" fill="#ABADBF"/>
<path d="M28.9868 0H13.8995C12.9486 0 12.1777 0.770848 12.1777 1.72173V16.8091C12.1777 17.76 12.9486 18.5308 13.8995 18.5308H28.9868C29.9377 18.5308 30.7086 17.76 30.7086 16.8091V1.72173C30.7086 0.770846 29.9377 0 28.9868 0Z" fill="white"/>
</svg>
