<svg width="212" height="31" viewBox="0 0 212 31" fill="none" xmlns="http://www.w3.org/2000/svg">
<path d="M74.2335 23.4147C72.5384 23.4147 71.044 23.0467 69.7504 22.3107C68.4567 21.5746 67.4307 20.5486 66.6724 19.2327C65.9364 17.9168 65.5684 16.4113 65.5684 14.7161C65.5684 13.021 65.9364 11.5155 66.6724 10.1996C67.4307 8.88364 68.4567 7.85766 69.7504 7.12163C71.044 6.38559 72.5384 6.01758 74.2335 6.01758C76.3524 6.01758 78.1367 6.57518 79.5864 7.69038C81.0362 8.78328 81.9618 10.2999 82.3633 12.2404H77.8467C77.6237 11.4375 77.1776 10.8129 76.5085 10.3669C75.8617 9.89848 75.0922 9.66428 74.2 9.66428C73.0179 9.66428 72.0142 10.1104 71.189 11.0025C70.3637 11.8947 69.9511 13.1326 69.9511 14.7161C69.9511 16.2997 70.3637 17.5376 71.189 18.4298C72.0142 19.3219 73.0179 19.768 74.2 19.768C75.0922 19.768 75.8617 19.545 76.5085 19.0989C77.1776 18.6528 77.6237 18.0171 77.8467 17.1919H82.3633C81.9618 19.0654 81.0362 20.571 79.5864 21.7085C78.1367 22.846 76.3524 23.4147 74.2335 23.4147Z" fill="#E1E1E7"/>
<path d="M93.4576 23.4147C91.8517 23.4147 90.402 23.0467 89.1083 22.3107C87.837 21.5746 86.8222 20.5598 86.0638 19.2662C85.3278 17.9502 84.9598 16.4336 84.9598 14.7161C84.9598 12.9987 85.339 11.4932 86.0973 10.1996C86.8556 8.88364 87.8705 7.85766 89.1418 7.12163C90.4354 6.38559 91.8852 6.01758 93.4911 6.01758C95.0747 6.01758 96.5021 6.38559 97.7734 7.12163C99.0671 7.85766 100.082 8.88364 100.818 10.1996C101.576 11.4932 101.955 12.9987 101.955 14.7161C101.955 16.4336 101.576 17.9502 100.818 19.2662C100.082 20.5598 99.0671 21.5746 97.7734 22.3107C96.4798 23.0467 95.0412 23.4147 93.4576 23.4147ZM93.4576 19.7011C94.5728 19.7011 95.543 19.2885 96.3683 18.4632C97.1935 17.6157 97.6062 16.3666 97.6062 14.7161C97.6062 13.0656 97.1935 11.8278 96.3683 11.0025C95.543 10.155 94.584 9.7312 93.4911 9.7312C92.3536 9.7312 91.3722 10.155 90.5469 11.0025C89.744 11.8278 89.3425 13.0656 89.3425 14.7161C89.3425 16.3666 89.744 17.6157 90.5469 18.4632C91.3722 19.2885 92.3424 19.7011 93.4576 19.7011Z" fill="#E1E1E7"/>
<path d="M105.115 23.0132V6.41905H108.896L109.264 8.6606C109.799 7.85766 110.502 7.22199 111.371 6.75361C112.264 6.26292 113.29 6.01758 114.449 6.01758C117.014 6.01758 118.832 7.01011 119.903 8.99516C120.505 8.0807 121.308 7.35582 122.312 6.82052C123.338 6.28523 124.453 6.01758 125.657 6.01758C127.821 6.01758 129.482 6.66439 130.642 7.95803C131.802 9.25166 132.382 11.1475 132.382 13.6456V23.0132H128.1V14.047C128.1 12.6196 127.821 11.5267 127.263 10.7683C126.728 10.01 125.891 9.63083 124.754 9.63083C123.594 9.63083 122.657 10.0546 121.944 10.9022C121.252 11.7497 120.906 12.9318 120.906 14.4485V23.0132H116.624V14.047C116.624 12.6196 116.345 11.5267 115.788 10.7683C115.23 10.01 114.371 9.63083 113.212 9.63083C112.074 9.63083 111.148 10.0546 110.435 10.9022C109.743 11.7497 109.398 12.9318 109.398 14.4485V23.0132H105.115Z" fill="#E1E1E7"/>
<path d="M135.778 30.3736V6.41905H139.592L140.061 8.79443C140.596 8.05839 141.299 7.41158 142.169 6.85398C143.061 6.29638 144.209 6.01758 145.615 6.01758C147.176 6.01758 148.57 6.39675 149.797 7.15508C151.023 7.91342 151.993 8.95056 152.707 10.2665C153.421 11.5824 153.778 13.0768 153.778 14.7496C153.778 16.4224 153.421 17.9168 152.707 19.2327C151.993 20.5263 151.023 21.5523 149.797 22.3107C148.57 23.0467 147.176 23.4147 145.615 23.4147C144.365 23.4147 143.273 23.1805 142.336 22.7121C141.399 22.2438 140.641 21.5858 140.061 20.7382V30.3736H135.778ZM144.711 19.6676C146.072 19.6676 147.198 19.2104 148.09 18.2959C148.982 17.3815 149.429 16.1994 149.429 14.7496C149.429 13.2998 148.982 12.1066 148.09 11.1698C147.198 10.233 146.072 9.76465 144.711 9.76465C143.328 9.76465 142.191 10.233 141.299 11.1698C140.429 12.0843 139.994 13.2664 139.994 14.7161C139.994 16.1659 140.429 17.3592 141.299 18.2959C142.191 19.2104 143.328 19.6676 144.711 19.6676Z" fill="#E1E1E7"/>
<path d="M162.655 23.4147C161.228 23.4147 160.057 23.1917 159.142 22.7456C158.228 22.2772 157.548 21.6638 157.101 20.9055C156.655 20.1472 156.432 19.3108 156.432 18.3963C156.432 16.8573 157.035 15.6083 158.239 14.6492C159.443 13.6902 161.25 13.2106 163.659 13.2106H167.874V12.8092C167.874 11.6716 167.551 10.8352 166.904 10.2999C166.257 9.76465 165.454 9.497 164.495 9.497C163.625 9.497 162.867 9.70889 162.22 10.1327C161.573 10.5341 161.172 11.1364 161.016 11.9393H156.834C156.945 10.7349 157.347 9.68659 158.038 8.79443C158.752 7.90227 159.666 7.22199 160.782 6.75361C161.897 6.26292 163.146 6.01758 164.529 6.01758C166.893 6.01758 168.755 6.60863 170.116 7.79075C171.476 8.97286 172.157 10.6457 172.157 12.8092V23.0132H168.51L168.108 20.3368C167.618 21.2289 166.926 21.9649 166.034 22.5449C165.164 23.1248 164.038 23.4147 162.655 23.4147ZM163.625 20.0691C164.852 20.0691 165.8 19.6676 166.469 18.8647C167.161 18.0617 167.595 17.0692 167.774 15.8871H164.127C162.99 15.8871 162.176 16.099 161.685 16.5228C161.194 16.9242 160.949 17.4261 160.949 18.0283C160.949 18.6751 161.194 19.1769 161.685 19.5338C162.176 19.8907 162.822 20.0691 163.625 20.0691Z" fill="#E1E1E7"/>
<path d="M175.574 23.0132V6.41905H179.355L179.689 9.22936C180.202 8.24798 180.938 7.46734 181.897 6.88743C182.879 6.30753 184.027 6.01758 185.343 6.01758C187.395 6.01758 188.99 6.66439 190.127 7.95803C191.265 9.25166 191.834 11.1475 191.834 13.6456V23.0132H187.551V14.047C187.551 12.6196 187.261 11.5267 186.682 10.7683C186.102 10.01 185.198 9.63083 183.972 9.63083C182.767 9.63083 181.775 10.0546 180.994 10.9022C180.236 11.7497 179.857 12.9318 179.857 14.4485V23.0132H175.574Z" fill="#E1E1E7"/>
<path d="M196.778 30.3736L200.626 21.9092H199.622L193.165 6.41905H197.816L202.466 18.0952L207.317 6.41905H211.867L201.328 30.3736H196.778Z" fill="#E1E1E7"/>
<path d="M16.6489 27.5991C15.5908 28.6571 13.8749 28.6557 12.8186 27.5958L1.90696 16.6466C0.853246 15.5893 0.854711 13.8784 1.91023 12.8229L12.8219 1.91121C13.8774 0.855689 15.5883 0.85422 16.6456 1.90793L27.5948 12.8196C28.6547 13.8759 28.6562 15.5918 27.5981 16.6499L16.6489 27.5991Z" fill="#ABADBF"/>
<path d="M31.4287 27.5948C30.3724 28.6547 28.6565 28.6562 27.5984 27.5981L16.6492 16.6489C15.5911 15.5908 15.5926 13.8749 16.6525 12.8186L27.6017 1.90696C28.659 0.853246 30.3699 0.854711 31.4254 1.91023L42.3371 12.8219C43.3926 13.8774 43.3941 15.5883 42.3403 16.6456L31.4287 27.5948Z" fill="white"/>
<path d="M42.3836 27.5969C41.3264 28.6557 39.6107 28.6557 38.5536 27.5969L27.6213 16.6474C26.5652 15.5897 26.5667 13.876 27.6246 12.8201L38.5569 1.90817C39.6132 0.853742 41.3239 0.853743 42.3803 1.90817L53.3126 12.8201C54.3705 13.876 54.372 15.5897 53.3159 16.6474L42.3836 27.5969Z" fill="#ABADBF"/>
</svg>
