<svg width="190" height="28" viewBox="0 0 190 28" fill="none" xmlns="http://www.w3.org/2000/svg">
<path d="M66.312 20.9168C64.7978 20.9168 63.4628 20.588 62.3072 19.9305C61.1515 19.273 60.235 18.3564 59.5576 17.1809C58.9 16.0053 58.5713 14.6604 58.5713 13.1461C58.5713 11.6318 58.9 10.2869 59.5576 9.11137C60.235 7.93581 61.1515 7.01928 62.3072 6.36176C63.4628 5.70425 64.7978 5.37549 66.312 5.37549C68.2049 5.37549 69.7989 5.87361 71.094 6.86984C72.3891 7.84615 73.216 9.20103 73.5746 10.9345H69.5398C69.3406 10.2172 68.9421 9.6593 68.3444 9.26081C67.7665 8.84239 67.0791 8.63318 66.2822 8.63318C65.2261 8.63318 64.3295 9.03167 63.5923 9.82866C62.8551 10.6256 62.4865 11.7315 62.4865 13.1461C62.4865 14.5608 62.8551 15.6666 63.5923 16.4636C64.3295 17.2606 65.2261 17.6591 66.2822 17.6591C67.0791 17.6591 67.7665 17.4598 68.3444 17.0613C68.9421 16.6628 69.3406 16.095 69.5398 15.3578H73.5746C73.216 17.0314 72.3891 18.3764 71.094 19.3925C69.7989 20.4087 68.2049 20.9168 66.312 20.9168Z" fill="#E1E1E7"/>
<path d="M83.4854 20.9168C82.0509 20.9168 80.7557 20.588 79.6001 19.9305C78.4644 19.273 77.5578 18.3664 76.8804 17.2108C76.2229 16.0352 75.8941 14.6803 75.8941 13.1461C75.8941 11.6119 76.2328 10.267 76.9103 9.11137C77.5877 7.93581 78.4943 7.01928 79.63 6.36176C80.7856 5.70425 82.0807 5.37549 83.5153 5.37549C84.93 5.37549 86.2052 5.70425 87.3409 6.36176C88.4965 7.01928 89.4031 7.93581 90.0606 9.11137C90.738 10.267 91.0767 11.6119 91.0767 13.1461C91.0767 14.6803 90.738 16.0352 90.0606 17.2108C89.4031 18.3664 88.4965 19.273 87.3409 19.9305C86.1852 20.588 84.9001 20.9168 83.4854 20.9168ZM83.4854 17.5993C84.4817 17.5993 85.3484 17.2307 86.0856 16.4935C86.8228 15.7363 87.1914 14.6206 87.1914 13.1461C87.1914 11.6717 86.8228 10.5659 86.0856 9.82866C85.3484 9.07152 84.4916 8.69295 83.5153 8.69295C82.4992 8.69295 81.6225 9.07152 80.8853 9.82866C80.168 10.5659 79.8093 11.6717 79.8093 13.1461C79.8093 14.6206 80.168 15.7363 80.8853 16.4935C81.6225 17.2307 82.4892 17.5993 83.4854 17.5993Z" fill="#E1E1E7"/>
<path d="M93.8994 20.5581V5.73413H97.2767L97.6054 7.73657C98.0836 7.01928 98.7113 6.45142 99.4883 6.033C100.285 5.59466 101.202 5.37549 102.238 5.37549C104.529 5.37549 106.153 6.26214 107.11 8.03544C107.647 7.21852 108.365 6.57097 109.261 6.09278C110.178 5.61458 111.174 5.37549 112.25 5.37549C114.183 5.37549 115.667 5.9533 116.703 7.10894C117.739 8.26457 118.257 9.95817 118.257 12.1897V20.5581H114.432V12.5484C114.432 11.2732 114.183 10.2969 113.685 9.61945C113.206 8.94201 112.459 8.60329 111.443 8.60329C110.407 8.60329 109.57 8.98186 108.933 9.739C108.315 10.4961 108.006 11.5522 108.006 12.907V20.5581H104.181V12.5484C104.181 11.2732 103.932 10.2969 103.433 9.61945C102.935 8.94201 102.168 8.60329 101.132 8.60329C100.116 8.60329 99.2891 8.98186 98.6515 9.739C98.0338 10.4961 97.725 11.5522 97.725 12.907V20.5581H93.8994Z" fill="#E1E1E7"/>
<path d="M121.292 27.1333V5.73413H124.699L125.117 7.85611C125.595 7.1986 126.223 6.62078 127 6.12266C127.797 5.62455 128.823 5.37549 130.078 5.37549C131.473 5.37549 132.718 5.71421 133.814 6.39165C134.91 7.06909 135.777 7.99559 136.414 9.17115C137.052 10.3467 137.371 11.6817 137.371 13.176C137.371 14.6704 137.052 16.0053 136.414 17.1809C135.777 18.3365 134.91 19.2531 133.814 19.9305C132.718 20.588 131.473 20.9168 130.078 20.9168C128.963 20.9168 127.986 20.7076 127.15 20.2891C126.313 19.8707 125.635 19.2829 125.117 18.5258V27.1333H121.292ZM129.271 17.5694C130.487 17.5694 131.493 17.161 132.29 16.344C133.087 15.5271 133.486 14.4711 133.486 13.176C133.486 11.8809 133.087 10.8149 132.29 9.9781C131.493 9.14126 130.487 8.72284 129.271 8.72284C128.036 8.72284 127.02 9.14126 126.223 9.9781C125.446 10.795 125.057 11.851 125.057 13.1461C125.057 14.4412 125.446 15.5072 126.223 16.344C127.02 17.161 128.036 17.5694 129.271 17.5694Z" fill="#E1E1E7"/>
<path d="M145.301 20.9168C144.026 20.9168 142.98 20.7175 142.163 20.319C141.346 19.9006 140.738 19.3527 140.34 18.6752C139.941 17.9978 139.742 17.2506 139.742 16.4337C139.742 15.0589 140.28 13.9431 141.356 13.0864C142.432 12.2296 144.046 11.8012 146.198 11.8012H149.964V11.4426C149.964 10.4264 149.675 9.67923 149.097 9.20103C148.519 8.72284 147.802 8.48374 146.945 8.48374C146.168 8.48374 145.491 8.67303 144.913 9.0516C144.335 9.41024 143.976 9.94821 143.837 10.6655H140.101C140.201 9.58957 140.559 8.6531 141.177 7.85611C141.814 7.05913 142.631 6.45142 143.628 6.033C144.624 5.59466 145.74 5.37549 146.975 5.37549C149.087 5.37549 150.751 5.90349 151.966 6.9595C153.181 8.01551 153.789 9.50987 153.789 11.4426V20.5581H150.531L150.173 18.1672C149.734 18.9641 149.117 19.6217 148.32 20.1397C147.543 20.6577 146.537 20.9168 145.301 20.9168ZM146.168 17.9281C147.264 17.9281 148.111 17.5694 148.708 16.8521C149.326 16.1348 149.715 15.2482 149.874 14.1922H146.616C145.6 14.1922 144.873 14.3815 144.435 14.76C143.996 15.1187 143.777 15.567 143.777 16.1049C143.777 16.6828 143.996 17.1311 144.435 17.4499C144.873 17.7687 145.451 17.9281 146.168 17.9281Z" fill="#E1E1E7"/>
<path d="M156.842 20.5581V5.73413H160.219L160.518 8.24465C160.976 7.36796 161.634 6.67059 162.491 6.15255C163.367 5.63451 164.394 5.37549 165.569 5.37549C167.402 5.37549 168.827 5.9533 169.843 7.10894C170.859 8.26457 171.367 9.95817 171.367 12.1897V20.5581H167.542V12.5484C167.542 11.2732 167.283 10.2969 166.765 9.61945C166.247 8.94201 165.44 8.60329 164.344 8.60329C163.268 8.60329 162.381 8.98186 161.684 9.739C161.006 10.4961 160.668 11.5522 160.668 12.907V20.5581H156.842Z" fill="#E1E1E7"/>
<path d="M175.784 27.1333L179.221 19.5718H178.325L172.557 5.73413H176.711L180.865 16.1647L185.199 5.73413H189.263L179.849 27.1333H175.784Z" fill="#E1E1E7"/>
<path d="M15.0774 24.4505C14.0193 25.5086 12.3033 25.5071 11.2471 24.4472L1.90695 15.075C0.853243 14.0177 0.854711 12.3068 1.91023 11.2513L11.2503 1.91121C12.3059 0.855685 14.0167 0.85422 15.0741 1.90793L24.4463 11.248C25.5062 12.3043 25.5076 14.0203 24.4496 15.0783L15.0774 24.4505Z" fill="#ABADBF"/>
<path d="M28.2804 24.4463C27.2242 25.5062 25.5082 25.5076 24.4501 24.4496L15.0779 15.0774C14.0198 14.0193 14.0213 12.3033 15.0812 11.2471L24.4534 1.90695C25.5107 0.853243 27.2216 0.854711 28.2772 1.91023L37.6173 11.2503C38.6728 12.3059 38.6742 14.0167 37.6205 15.0741L28.2804 24.4463Z" fill="white"/>
<path d="M38.064 24.4483C37.0068 25.5071 35.2911 25.5071 34.234 24.4483L24.8762 15.0759C23.8201 14.0181 23.8215 12.3045 24.8794 11.2486L34.2372 1.90817C35.2936 0.853742 37.0043 0.853743 38.0607 1.90817L47.4185 11.2486C48.4764 12.3045 48.4779 14.0181 47.4218 15.0759L38.064 24.4483Z" fill="#ABADBF"/>
</svg>
