<svg width="188" height="30" viewBox="0 0 188 30" fill="none" xmlns="http://www.w3.org/2000/svg">
<path d="M24.1458 12.8587C20.1693 12.8587 16.9414 9.64314 16.9414 5.69118C16.9414 5.1757 17.0028 4.68477 17.101 4.19385H7.52788C3.82138 4.19385 0.814453 7.1885 0.814453 10.8705V23.205C0.814453 26.8992 3.82138 29.8816 7.52788 29.8816H19.9238C23.6426 29.8816 26.6372 26.8869 26.6372 23.205V12.4046C25.8763 12.6869 25.0294 12.8587 24.1458 12.8587Z" fill="#ABADBF"/>
<path d="M26.6489 23.205V12.4046C25.8757 12.6869 25.0289 12.8587 24.1575 12.8587C20.181 12.8587 16.9531 9.64314 16.9531 5.69118C16.9531 5.1757 17.0145 4.68477 17.1127 4.19385H7.5396C3.85765 4.19385 0.875265 7.13941 0.826172 10.7968C9.66286 14.442 18.745 18.8726 26.5998 24.0518C26.6244 23.7696 26.6489 23.4873 26.6489 23.205Z" fill="#ABADBF"/>
<path d="M24.6966 10.3831C27.5808 10.3831 29.9127 8.06348 29.9127 5.19155C29.9127 2.3319 27.5808 0 24.6966 0C21.8124 0 19.4805 2.31963 19.4805 5.19155C19.4805 8.0512 21.8124 10.3831 24.6966 10.3831Z" fill="white"/>
<path d="M56.2988 16.987C56.0935 17.8594 55.7471 18.7063 55.2596 19.5274C54.772 20.3229 54.1689 21.0414 53.4504 21.683C52.7319 22.2989 51.9108 22.7992 50.9869 23.1842C50.0631 23.5434 49.0752 23.7231 48.0231 23.7231C46.817 23.7231 45.6751 23.4921 44.5973 23.0302C43.5452 22.5426 42.6085 21.8883 41.7874 21.0671C40.9919 20.2459 40.3503 19.2965 39.8628 18.2187C39.4009 17.1153 39.1699 15.9348 39.1699 14.6774C39.1699 13.42 39.4009 12.2525 39.8628 11.1747C40.3503 10.0712 40.9919 9.10894 41.7874 8.28778C42.6085 7.46662 43.5452 6.82509 44.5973 6.36318C45.6751 5.87562 46.817 5.63184 48.0231 5.63184C49.0752 5.63184 50.0631 5.8243 50.9869 6.20922C51.9108 6.56847 52.7319 7.06887 53.4504 7.7104C54.1689 8.32627 54.772 9.04479 55.2596 9.86595C55.7471 10.6615 56.0935 11.4954 56.2988 12.3679H51.8723C51.667 11.906 51.3847 11.4954 51.0254 11.1362C50.7175 10.8282 50.3198 10.546 49.8322 10.2894C49.3446 10.0071 48.7416 9.86595 48.0231 9.86595C46.7657 9.86595 45.7136 10.3022 44.8667 11.1747C44.0199 12.0472 43.5965 13.2148 43.5965 14.6774C43.5965 16.1401 44.0199 17.3077 44.8667 18.1802C45.7136 19.0527 46.7657 19.4889 48.0231 19.4889C48.7416 19.4889 49.3446 19.3606 49.8322 19.104C50.3198 18.8474 50.7175 18.5651 51.0254 18.2572C51.3847 17.8979 51.667 17.4745 51.8723 16.987H56.2988Z" fill="#E1E1E7"/>
<path d="M63.6123 14.6774C63.6123 16.1401 64.0357 17.3077 64.8825 18.1802C65.7294 19.0527 66.7815 19.4889 68.0389 19.4889C69.2963 19.4889 70.3484 19.0527 71.1952 18.1802C72.042 17.3077 72.4655 16.1401 72.4655 14.6774C72.4655 13.2148 72.042 12.0472 71.1952 11.1747C70.3484 10.3022 69.2963 9.86595 68.0389 9.86595C66.7815 9.86595 65.7294 10.3022 64.8825 11.1747C64.0357 12.0472 63.6123 13.2148 63.6123 14.6774ZM76.892 14.6774C76.892 15.9348 76.6482 17.1153 76.1607 18.2187C75.6988 19.2965 75.0572 20.2459 74.2361 21.0671C73.4406 21.8883 72.5039 22.5426 71.4262 23.0302C70.3741 23.4921 69.245 23.7231 68.0389 23.7231C66.8328 23.7231 65.6909 23.4921 64.6131 23.0302C63.561 22.5426 62.6243 21.8883 61.8032 21.0671C61.0077 20.2459 60.3662 19.2965 59.8786 18.2187C59.4167 17.1153 59.1857 15.9348 59.1857 14.6774C59.1857 13.42 59.4167 12.2525 59.8786 11.1747C60.3662 10.0712 61.0077 9.10894 61.8032 8.28778C62.6243 7.46662 63.561 6.82509 64.6131 6.36318C65.6909 5.87562 66.8328 5.63184 68.0389 5.63184C69.245 5.63184 70.3741 5.87562 71.4262 6.36318C72.5039 6.82509 73.4406 7.46662 74.2361 8.28778C75.0572 9.10894 75.6988 10.0712 76.1607 11.1747C76.6482 12.2525 76.892 13.42 76.892 14.6774Z" fill="#E1E1E7"/>
<path d="M89.1914 5.63184C90.0896 5.63184 90.8594 5.76014 91.5009 6.01676C92.1425 6.24771 92.6685 6.50432 93.0791 6.78659C93.541 7.12019 93.9131 7.50511 94.1954 7.94135C94.6059 7.50511 95.0807 7.12019 95.6196 6.78659C96.0815 6.50432 96.6332 6.24771 97.2747 6.01676C97.9162 5.76014 98.6219 5.63184 99.3918 5.63184C101.316 5.63184 102.856 6.24771 104.011 7.47945C105.166 8.71119 105.743 10.5331 105.743 12.9453V23.5306H101.316V13.3302C101.316 12.2525 101.021 11.4056 100.431 10.7898C99.8665 10.1739 99.1993 9.86595 98.4295 9.86595C97.6596 9.86595 96.9796 10.1739 96.3894 10.7898C95.8249 11.4056 95.5426 12.2525 95.5426 13.3302V23.5306H91.116V13.3302C91.116 12.2525 90.8209 11.4056 90.2307 10.7898C89.6661 10.1739 88.9989 9.86595 88.2291 9.86595C87.4593 9.86595 86.7792 10.1739 86.189 10.7898C85.6245 11.4056 85.3422 12.2525 85.3422 13.3302V23.5306H80.9156V5.8243H84.1875L84.9573 7.55643C85.3166 7.19718 85.7143 6.87641 86.1505 6.59413C86.5098 6.36318 86.946 6.14506 87.4593 5.93977C87.9725 5.73448 88.5499 5.63184 89.1914 5.63184Z" fill="#E1E1E7"/>
<path d="M119.6 5.63184C120.703 5.63184 121.756 5.86279 122.756 6.32469C123.757 6.76093 124.63 7.38964 125.374 8.2108C126.144 9.0063 126.747 9.95577 127.183 11.0592C127.645 12.1626 127.876 13.3687 127.876 14.6774C127.876 15.9862 127.645 17.1923 127.183 18.2957C126.747 19.3991 126.144 20.3614 125.374 21.1826C124.63 21.9781 123.757 22.6068 122.756 23.0687C121.756 23.5049 120.703 23.7231 119.6 23.7231C118.856 23.7231 118.202 23.6332 117.637 23.4536C117.098 23.274 116.623 23.0815 116.213 22.8762C115.751 22.6196 115.34 22.3245 114.981 21.9909V29.6893H110.554V5.8243H113.826L114.596 7.55643C114.981 7.19718 115.43 6.87641 115.943 6.59413C116.38 6.36318 116.906 6.14506 117.521 5.93977C118.137 5.73448 118.83 5.63184 119.6 5.63184ZM114.596 14.6774C114.596 16.1401 115.019 17.3077 115.866 18.1802C116.713 19.0527 117.765 19.4889 119.023 19.4889C120.28 19.4889 121.332 19.0527 122.179 18.1802C123.026 17.3077 123.449 16.1401 123.449 14.6774C123.449 13.2148 123.026 12.0472 122.179 11.1747C121.332 10.3022 120.28 9.86595 119.023 9.86595C117.765 9.86595 116.713 10.3022 115.866 11.1747C115.019 12.0472 114.596 13.2148 114.596 14.6774Z" fill="#E1E1E7"/>
<path d="M139.237 5.63184C140.238 5.63184 141.162 5.81146 142.008 6.17072C142.855 6.50432 143.587 6.97905 144.202 7.59493C144.818 8.2108 145.293 8.94214 145.627 9.78897C145.986 10.6358 146.166 11.5596 146.166 12.5604V23.5306H142.894L142.124 21.7985C141.713 22.1577 141.264 22.4785 140.777 22.7608C140.34 23.0174 139.814 23.2483 139.198 23.4536C138.583 23.6332 137.89 23.7231 137.12 23.7231C135.195 23.7231 133.72 23.2612 132.693 22.3373C131.667 21.3879 131.154 20.1818 131.154 18.7191C131.154 17.8466 131.32 17.0511 131.654 16.3326C132.013 15.5884 132.604 14.9597 133.425 14.4465C134.246 13.9076 135.324 13.497 136.658 13.2148C138.018 12.9068 139.712 12.7528 141.739 12.7528C141.739 11.7777 141.469 11.0207 140.931 10.4818C140.417 9.94293 139.725 9.67349 138.852 9.67349C138.262 9.67349 137.787 9.77614 137.428 9.98143C137.094 10.1867 136.825 10.4048 136.619 10.6358C136.389 10.9181 136.235 11.2388 136.158 11.5981H131.731C131.834 10.7769 132.065 10.0071 132.424 9.28857C132.809 8.57005 133.322 7.94135 133.964 7.40247C134.605 6.86358 135.362 6.44017 136.235 6.13223C137.133 5.79863 138.134 5.63184 139.237 5.63184ZM137.89 20.2588C139.044 20.2588 139.968 19.9252 140.661 19.258C141.38 18.5651 141.739 17.6798 141.739 16.602V15.8322C140.43 15.8322 139.378 15.8964 138.583 16.0247C137.787 16.1273 137.158 16.2941 136.696 16.5251C136.26 16.7303 135.965 16.987 135.811 17.2949C135.657 17.6028 135.58 17.9493 135.58 18.3342C135.58 18.8217 135.798 19.2708 136.235 19.6814C136.671 20.0663 137.223 20.2588 137.89 20.2588Z" fill="#E1E1E7"/>
<path d="M160.008 5.63184C161.06 5.63184 162.022 5.81146 162.894 6.17072C163.767 6.50432 164.511 7.00472 165.127 7.67191C165.769 8.31344 166.256 9.09611 166.59 10.0199C166.949 10.9437 167.129 11.983 167.129 13.1378V23.5306H162.702V13.7151C162.702 12.5604 162.356 11.6366 161.663 10.9437C160.996 10.2252 160.123 9.86595 159.045 9.86595C157.967 9.86595 157.082 10.2252 156.389 10.9437C155.722 11.6366 155.389 12.5604 155.389 13.7151V23.5306H150.962V5.8243H154.234L155.004 7.55643C155.44 7.19718 155.915 6.87641 156.428 6.59413C156.864 6.36318 157.377 6.14506 157.967 5.93977C158.583 5.73448 159.263 5.63184 160.008 5.63184Z" fill="#E1E1E7"/>
<path d="M170.031 5.8243H174.65L179.076 17.3719L183.118 5.8243H187.737C186.479 9.05762 185.337 11.983 184.311 14.6005C183.875 15.7296 183.439 16.833 183.002 17.9108C182.592 18.9885 182.22 19.9765 181.886 20.8747C181.552 21.7471 181.27 22.4785 181.039 23.0687C180.808 23.6589 180.667 24.0053 180.616 24.108C180.18 25.1601 179.743 26.0454 179.307 26.7639C178.896 27.5081 178.447 28.1111 177.96 28.573C177.472 29.0349 176.946 29.3685 176.382 29.5738C175.817 29.7791 175.176 29.8818 174.457 29.8818C174.252 29.8818 174.046 29.8689 173.841 29.8433C173.662 29.8433 173.508 29.8304 173.379 29.8048C173.2 29.7791 173.046 29.7406 172.917 29.6893V26.0326C173.893 26.0326 174.637 25.8144 175.15 25.3782C175.689 24.942 176.099 24.3902 176.382 23.7231L176.767 22.7608L170.031 5.8243Z" fill="#E1E1E7"/>
</svg>
