<svg width="256" height="256" viewBox="0 0 256 256" fill="none" xmlns="http://www.w3.org/2000/svg">
<mask id="mask0" mask-type="alpha" maskUnits="userSpaceOnUse" x="0" y="40" width="256" height="179">
<rect y="40" width="256" height="178.49" fill="#C4C4C4"/>
</mask>
<g mask="url(#mask0)">
<path d="M222.548 271.625V238.324H135.272V218.548H189.837C224.707 218.548 253.076 190.18 253.076 155.31C253.076 120.667 225.076 92.4417 190.52 92.0744C183.069 62.2266 155.915 40.5469 124.513 40.5469C87.0022 40.5469 56.4847 71.0644 56.4847 108.575C56.4847 108.858 56.4864 109.141 56.4902 109.425C56.2129 109.42 55.9362 109.418 55.6589 109.418C25.5715 109.418 1.09375 133.896 1.09375 163.983C1.09375 194.07 25.5715 218.548 55.6589 218.548H118.897V238.324H31.6205V271.625C22.1354 275.173 15.3632 284.325 15.3632 295.033C15.3632 308.81 26.5715 320.018 40.348 320.018C54.1245 320.018 65.3328 308.81 65.3328 295.033C65.3328 283.924 58.0426 274.489 47.9958 271.25V254.699H118.897V271.433C109.131 274.831 102.1 284.124 102.1 295.033C102.1 308.81 113.308 320.018 127.084 320.018C140.861 320.018 152.069 308.81 152.069 295.033C152.069 284.124 145.038 274.832 135.272 271.434V254.699H206.173V271.251C196.127 274.489 188.836 283.924 188.836 295.034C188.836 308.81 200.044 320.019 213.821 320.019C227.598 320.019 238.806 308.81 238.806 295.034C238.806 284.326 232.034 275.173 222.548 271.625ZM48.9576 295.033C48.9576 299.78 45.0957 303.643 40.348 303.643C35.6008 303.643 31.7384 299.78 31.7384 295.033C31.7384 290.286 35.6008 286.424 40.348 286.424C45.0952 286.424 48.9576 290.286 48.9576 295.033ZM135.694 295.033C135.694 299.78 131.832 303.643 127.084 303.643C122.337 303.643 118.475 299.78 118.475 295.033C118.475 290.286 122.337 286.424 127.084 286.424C131.832 286.424 135.694 290.286 135.694 295.033ZM213.821 303.643C209.074 303.643 205.211 299.78 205.211 295.033C205.211 290.286 209.074 286.424 213.821 286.424C218.568 286.424 222.431 290.286 222.431 295.033C222.431 299.78 218.568 303.643 213.821 303.643Z" fill="#5445FF"/>
</g>
</svg>
